<?xml version="1.0" encoding="UTF-8"?>
<svg xmlns="http://www.w3.org/2000/svg" width="796.4" height="180.4" xmlns:xlink="http://www.w3.org/1999/xlink" viewBox="0 0 796.4 180.4">
  <defs>
    <linearGradient id="Cool_gray_gradient_1" data-name="Cool gray gradient 1" x1="567.6" y1="90.2" x2="787.6" y2="90.2" gradientUnits="userSpaceOnUse">
      <stop offset="0" stop-color="#f5f5f4"/>
      <stop offset="1" stop-color="#ececea"/>
    </linearGradient>
    <linearGradient id="Cool_gray_gradient_1-2" data-name="Cool gray gradient 1" x1="338.8" x2="558.8" xlink:href="#Cool_gray_gradient_1"/>
    <linearGradient id="Cool_gray_gradient_1-3" data-name="Cool gray gradient 1" x1="110" x2="330" xlink:href="#Cool_gray_gradient_1"/>
    <linearGradient id="linear-gradient" x1="-306.35334" y1="-157.51236" x2="-306.35334" y2="-137.30791" gradientTransform="translate(564 -36.8) scale(1 -1)" gradientUnits="userSpaceOnUse">
      <stop offset="0" stop-color="#0078d4"/>
      <stop offset=".82" stop-color="#5ea0ef"/>
    </linearGradient>
    <linearGradient id="linear-gradient-2" x1="-306.35334" y1="-165.30791" x2="-306.35334" y2="-157.51236" gradientTransform="translate(564 -36.8) scale(1 -1)" gradientUnits="userSpaceOnUse">
      <stop offset=".15" stop-color="#ccc"/>
      <stop offset="1" stop-color="#707070"/>
    </linearGradient>
    <linearGradient id="linear-gradient-3" x1="-381.64179" x2="-381.64179" xlink:href="#linear-gradient"/>
    <linearGradient id="linear-gradient-4" x1="-381.64179" x2="-381.64179" xlink:href="#linear-gradient-2"/>
    <linearGradient id="linear-gradient-5" x1="-81.95334" x2="-81.95334" xlink:href="#linear-gradient"/>
    <linearGradient id="linear-gradient-6" x1="-81.95334" x2="-81.95334" xlink:href="#linear-gradient-2"/>
    <linearGradient id="linear-gradient-7" x1="-157.24179" x2="-157.24179" xlink:href="#linear-gradient"/>
    <linearGradient id="linear-gradient-8" x1="-157.24179" x2="-157.24179" xlink:href="#linear-gradient-2"/>
    <linearGradient id="linear-gradient-9" x1="-500.32056" y1="-139.09304" x2="-500.32056" y2="-127.16363" xlink:href="#linear-gradient"/>
    <linearGradient id="linear-gradient-10" x1="-500.27644" y1="-143.69893" x2="-500.27644" y2="-139.09304" xlink:href="#linear-gradient-2"/>
    <linearGradient id="linear-gradient-11" x1="151.24179" y1="-157.51236" x2="151.24179" y2="-137.30791" xlink:href="#linear-gradient"/>
    <linearGradient id="linear-gradient-12" x1="151.24179" y1="-165.30791" x2="151.24179" y2="-157.51236" xlink:href="#linear-gradient-2"/>
    <linearGradient id="linear-gradient-13" x1="75.95334" y1="-157.51236" x2="75.95334" y2="-137.30791" xlink:href="#linear-gradient"/>
    <linearGradient id="linear-gradient-14" x1="75.95334" y1="-165.30791" x2="75.95334" y2="-157.51236" xlink:href="#linear-gradient-2"/>
  </defs>
  <g isolation="isolate">
    <g id="Shapes">
      <rect width="796.4" height="180.4" fill="#fff"/>
      <g>
        <g mix-blend-mode="multiply" opacity=".8">
          <rect x="568.1" y="9.3" width="220" height="162.8" rx="8" ry="8" fill="#2b436f"/>
          <rect x="568.1" y="9.3" width="220" height="162.8" rx="8" ry="8" fill="#2b436f" opacity=".4"/>
        </g>
        <g>
          <rect x="567.6" y="8.8" width="220" height="162.8" rx="8" ry="8" fill="url(#Cool_gray_gradient_1)"/>
          <rect x="567.6" y="8.8" width="220" height="162.8" rx="8" ry="8" fill="#8ec8e7" opacity=".4"/>
        </g>
      </g>
      <g>
        <g mix-blend-mode="multiply" opacity=".8">
          <rect x="339.3" y="9.3" width="220" height="162.8" rx="8" ry="8" fill="#2b436f"/>
          <rect x="339.3" y="9.3" width="220" height="162.8" rx="8" ry="8" fill="#2b436f" opacity=".4"/>
        </g>
        <g>
          <rect x="338.8" y="8.8" width="220" height="162.8" rx="8" ry="8" fill="url(#Cool_gray_gradient_1-2)"/>
          <rect x="338.8" y="8.8" width="220" height="162.8" rx="8" ry="8" fill="#8ec8e7" opacity=".4"/>
        </g>
      </g>
      <g>
        <g mix-blend-mode="multiply" opacity=".8">
          <rect x="110.5" y="9.3" width="220" height="162.8" rx="8" ry="8" fill="#2b436f"/>
          <rect x="110.5" y="9.3" width="220" height="162.8" rx="8" ry="8" fill="#2b436f" opacity=".4"/>
        </g>
        <g>
          <rect x="110" y="8.8" width="220" height="162.8" rx="8" ry="8" fill="url(#Cool_gray_gradient_1-3)"/>
          <rect x="110" y="8.8" width="220" height="162.8" rx="8" ry="8" fill="#8ec8e7" opacity=".4"/>
        </g>
      </g>
      <g>
        <rect x="8.8" y="57.2" width="778.8" height="92.4" fill="#fff"/>
        <rect x="8.8" y="57.2" width="778.8" height="92.4" fill="#f5f3f2" opacity=".8"/>
        <rect x="8.8" y="57.2" width="778.8" height="92.4" fill="none" stroke="#9d9f9f" stroke-width=".25"/>
      </g>
      <g>
        <rect x="242.49333" y="100.50791" width="30.30667" height="20.20445" rx="1.01022" ry="1.01022" fill="url(#linear-gradient)"/>
        <polygon points="262.69778 107.66365 262.69778 113.53978 257.64666 116.5031 257.64666 110.61014 262.69778 107.66365" fill="#50e6ff"/>
        <polygon points="262.69778 107.66365 257.64666 110.62697 252.59555 107.66365 257.64666 104.71717 262.69778 107.66365" fill="#c3f1ff"/>
        <polygon points="257.64666 110.62697 257.64666 116.5031 252.59555 113.53978 252.59555 107.66365 257.64666 110.62697" fill="#9cebff"/>
        <polygon points="252.59555 113.53978 257.64666 110.61014 257.64666 116.5031 252.59555 113.53978" fill="#c3f1ff"/>
        <polygon points="262.69778 113.53978 257.64666 110.61014 257.64666 116.5031 262.69778 113.53978" fill="#9cebff"/>
        <path d="M263.72484,126.82421c-2.99699-.47144-3.11485-2.62658-3.11485-6.11185h-5.94347c0,3.48527-.10102,5.64041-3.09802,6.11185-.8569.09482-1.50373.82159-1.4985,1.6837h15.15334c.00523-.86211-.6416-1.58889-1.4985-1.6837Z" fill="url(#linear-gradient-2)"/>
      </g>
      <g>
        <rect x="167.20487" y="100.50791" width="30.30667" height="20.20445" rx="1.01022" ry="1.01022" fill="url(#linear-gradient-3)"/>
        <polygon points="187.40932 107.66365 187.40932 113.53978 182.35821 116.5031 182.35821 110.61014 187.40932 107.66365" fill="#50e6ff"/>
        <polygon points="187.40932 107.66365 182.35821 110.62697 177.3071 107.66365 182.35821 104.71717 187.40932 107.66365" fill="#c3f1ff"/>
        <polygon points="182.35821 110.62697 182.35821 116.5031 177.3071 113.53978 177.3071 107.66365 182.35821 110.62697" fill="#9cebff"/>
        <polygon points="177.3071 113.53978 182.35821 110.61014 182.35821 116.5031 177.3071 113.53978" fill="#c3f1ff"/>
        <polygon points="187.40932 113.53978 182.35821 110.61014 182.35821 116.5031 187.40932 113.53978" fill="#9cebff"/>
        <path d="M188.43638,126.82421c-2.99699-.47144-3.11485-2.62658-3.11485-6.11185h-5.94347c0,3.48527-.10102,5.64041-3.09802,6.11185-.8569.09482-1.50373.82159-1.4985,1.6837h15.15334c.00523-.86211-.6416-1.58889-1.4985-1.6837Z" fill="url(#linear-gradient-4)"/>
      </g>
      <g>
        <rect x="466.89333" y="100.50791" width="30.30667" height="20.20445" rx="1.01022" ry="1.01022" fill="url(#linear-gradient-5)"/>
        <polygon points="487.09778 107.66365 487.09778 113.53978 482.04666 116.5031 482.04666 110.61014 487.09778 107.66365" fill="#50e6ff"/>
        <polygon points="487.09778 107.66365 482.04666 110.62697 476.99555 107.66365 482.04666 104.71717 487.09778 107.66365" fill="#c3f1ff"/>
        <polygon points="482.04666 110.62697 482.04666 116.5031 476.99555 113.53978 476.99555 107.66365 482.04666 110.62697" fill="#9cebff"/>
        <polygon points="476.99555 113.53978 482.04666 110.61014 482.04666 116.5031 476.99555 113.53978" fill="#c3f1ff"/>
        <polygon points="487.09778 113.53978 482.04666 110.61014 482.04666 116.5031 487.09778 113.53978" fill="#9cebff"/>
        <path d="M488.12484,126.82421c-2.99699-.47144-3.11485-2.62658-3.11485-6.11185h-5.94347c0,3.48527-.10102,5.64041-3.09802,6.11185-.8569.09482-1.50373.82159-1.4985,1.6837h15.15334c.00523-.86211-.6416-1.58889-1.4985-1.6837Z" fill="url(#linear-gradient-6)"/>
      </g>
      <g>
        <rect x="391.60487" y="100.50791" width="30.30667" height="20.20445" rx="1.01022" ry="1.01022" fill="url(#linear-gradient-7)"/>
        <polygon points="411.80932 107.66365 411.80932 113.53978 406.75821 116.5031 406.75821 110.61014 411.80932 107.66365" fill="#50e6ff"/>
        <polygon points="411.80932 107.66365 406.75821 110.62697 401.7071 107.66365 406.75821 104.71717 411.80932 107.66365" fill="#c3f1ff"/>
        <polygon points="406.75821 110.62697 406.75821 116.5031 401.7071 113.53978 401.7071 107.66365 406.75821 110.62697" fill="#9cebff"/>
        <polygon points="401.7071 113.53978 406.75821 110.61014 406.75821 116.5031 401.7071 113.53978" fill="#c3f1ff"/>
        <polygon points="411.80932 113.53978 406.75821 110.61014 406.75821 116.5031 411.80932 113.53978" fill="#9cebff"/>
        <path d="M412.83638,126.82421c-2.99699-.47144-3.11485-2.62658-3.11485-6.11185h-5.94347c0,3.48527-.10102,5.64041-3.09802,6.11185-.8569.09482-1.50373.82159-1.4985,1.6837h15.15334c.00523-.86211-.6416-1.58889-1.4985-1.6837Z" fill="url(#linear-gradient-8)"/>
      </g>
      <g>
        <rect x="42.60003" y="76.89893" width="17.84118" height="11.91176" rx=".6" ry=".6" fill="#005ba1"/>
        <polygon points="54.49414 81.11657 54.49414 84.59304 51.52944 86.32246 51.52944 82.86363 54.49414 81.11657" fill="#50e6ff"/>
        <polygon points="54.49414 81.11657 51.52944 82.86363 48.54709 81.11657 51.52944 79.36951 54.49414 81.11657" fill="#c3f1ff"/>
        <polygon points="51.52944 82.86363 51.52944 86.32246 48.54709 84.59304 48.54709 81.11657 51.52944 82.86363" fill="#9cebff"/>
        <rect x="49.60591" y="83.72834" width="17.84118" height="11.91177" rx=".6" ry=".6" fill="#0078d4"/>
        <polygon points="61.50003 87.96363 61.50003 91.42246 58.53532 93.16951 58.53532 89.69304 61.50003 87.96363" fill="#50e6ff"/>
        <polygon points="61.50003 87.96363 58.53532 89.69304 55.55297 87.96363 58.53532 86.21657 61.50003 87.96363" fill="#c3f1ff"/>
        <polygon points="58.53532 89.69304 58.53532 93.16951 55.55297 91.42246 55.55297 87.96363 58.53532 89.69304" fill="#9cebff"/>
        <rect x="54.75885" y="90.36363" width="17.84118" height="11.91177" rx=".6" ry=".6" fill="url(#linear-gradient-9)"/>
        <polygon points="66.65297 94.59893 66.65297 98.05775 63.68826 99.80481 63.68826 96.32834 66.65297 94.59893" fill="#50e6ff"/>
        <polygon points="66.65297 94.59893 63.68826 96.34599 60.70591 94.59893 63.68826 92.85187 66.65297 94.59893" fill="#c3f1ff"/>
        <polygon points="63.68826 96.34599 63.68826 99.80481 60.70591 98.05775 60.70591 94.59893 63.68826 96.34599" fill="#9cebff"/>
        <polygon points="60.70591 98.05775 63.68826 96.32834 63.68826 99.80481 60.70591 98.05775" fill="#c3f1ff"/>
        <polygon points="66.65297 98.05775 63.68826 96.32834 63.68826 99.80481 66.65297 98.05775" fill="#9cebff"/>
        <path d="M67.25297,105.89304c-1.76471-.28235-1.76471-1.55294-1.76471-3.52941h-3.52941c0,2.04706,0,3.31765-1.76471,3.52941-.49915.07691-.87112.50096-.88235,1.00588h8.82353c-.01123-.50492-.3832-.92897-.88235-1.00588Z" fill="url(#linear-gradient-10)"/>
      </g>
      <g>
        <rect x="700.08845" y="100.50791" width="30.30667" height="20.20445" rx="1.01022" ry="1.01022" fill="url(#linear-gradient-11)"/>
        <polygon points="720.2929 107.66365 720.2929 113.53978 715.24179 116.5031 715.24179 110.61014 720.2929 107.66365" fill="#50e6ff"/>
        <polygon points="720.2929 107.66365 715.24179 110.62697 710.19068 107.66365 715.24179 104.71717 720.2929 107.66365" fill="#c3f1ff"/>
        <polygon points="715.24179 110.62697 715.24179 116.5031 710.19068 113.53978 710.19068 107.66365 715.24179 110.62697" fill="#9cebff"/>
        <polygon points="710.19068 113.53978 715.24179 110.61014 715.24179 116.5031 710.19068 113.53978" fill="#c3f1ff"/>
        <polygon points="720.2929 113.53978 715.24179 110.61014 715.24179 116.5031 720.2929 113.53978" fill="#9cebff"/>
        <path d="M721.31996,126.82421c-2.99699-.47144-3.11485-2.62658-3.11485-6.11185h-5.94347c0,3.48527-.10102,5.64041-3.09802,6.11185-.8569.09482-1.50373.82159-1.4985,1.6837h15.15334c.00523-.86211-.6416-1.58889-1.4985-1.6837Z" fill="url(#linear-gradient-12)"/>
      </g>
      <g>
        <rect x="624.8" y="100.50791" width="30.30667" height="20.20445" rx="1.01022" ry="1.01022" fill="url(#linear-gradient-13)"/>
        <polygon points="645.00445 107.66365 645.00445 113.53978 639.95334 116.5031 639.95334 110.61014 645.00445 107.66365" fill="#50e6ff"/>
        <polygon points="645.00445 107.66365 639.95334 110.62697 634.90222 107.66365 639.95334 104.71717 645.00445 107.66365" fill="#c3f1ff"/>
        <polygon points="639.95334 110.62697 639.95334 116.5031 634.90222 113.53978 634.90222 107.66365 639.95334 110.62697" fill="#9cebff"/>
        <polygon points="634.90222 113.53978 639.95334 110.61014 639.95334 116.5031 634.90222 113.53978" fill="#c3f1ff"/>
        <polygon points="645.00445 113.53978 639.95334 110.61014 639.95334 116.5031 645.00445 113.53978" fill="#9cebff"/>
        <path d="M646.03151,126.82421c-2.99699-.47144-3.11485-2.62658-3.11485-6.11185h-5.94347c0,3.48527-.10102,5.64041-3.09802,6.11185-.8569.09482-1.50373.82159-1.4985,1.6837h15.15334c.00523-.86211-.6416-1.58889-1.4985-1.6837Z" fill="url(#linear-gradient-14)"/>
      </g>
    </g>
    <g id="Text">
      <g>
        <path d="M168.53584,36.10781h-2.40625l-.69727-2.18066h-3.48633l-.69043,2.18066h-2.39258l3.56836-9.80273h2.61816l3.48633,9.80273ZM164.92646,32.23184l-1.05273-3.29492c-.07764-.24609-.13232-.54004-.16406-.88184h-.05469c-.02295.28711-.07959.57227-.1709.85449l-1.06641,3.32227h2.50879Z" fill="#2f2f2f"/>
        <path d="M175.90498,29.10781l-2.60449,7h-2.46094l-2.48145-7h2.31055l1.2168,4.31348c.13672.48828.21631.90234.23926,1.24414h.02734c.03174-.32324.11621-.72461.25293-1.20312l1.24414-4.35449h2.25586Z" fill="#2f2f2f"/>
        <path d="M182.44014,36.10781h-2.04395v-1.00488h-.02734c-.46924.78418-1.16455,1.17578-2.08496,1.17578-.6792,0-1.21338-.19238-1.60303-.57715-.38965-.38574-.58447-.89941-.58447-1.54199,0-1.35742.8042-2.1416,2.41309-2.35156l1.90039-.25293c0-.76562-.41455-1.14844-1.24414-1.14844-.83398,0-1.62695.24902-2.37891.74512v-1.62695c.30078-.1543.71191-.29102,1.23389-.41016.52197-.11816.99707-.17773,1.42529-.17773,1.99609,0,2.99414.99609,2.99414,2.9873v4.18359ZM180.40986,33.26406v-.47168l-1.27148.16406c-.70166.0918-1.05273.4082-1.05273.9502,0,.24609.08545.44824.25635.60547s.40234.23535.69385.23535c.40576,0,.73584-.13965.99121-.41992s.38281-.63477.38281-1.06348Z" fill="#2f2f2f"/>
        <path d="M185.24287,28.00039c-.36475,0-.66309-.1084-.89551-.32422-.23242-.2168-.34863-.48242-.34863-.79688,0-.32324.11621-.58789.34863-.79297s.53076-.30762.89551-.30762c.36914,0,.66895.10254.89893.30762s.34521.46973.34521.79297c0,.32812-.11523.59766-.34521.80664-.22998.20996-.52979.31445-.89893.31445ZM186.30928,36.10781h-2.16016v-7h2.16016v7Z" fill="#2f2f2f"/>
        <path d="M190.28779,36.10781h-2.16016v-10.36328h2.16016v10.36328Z" fill="#2f2f2f"/>
        <path d="M197.93037,36.10781h-2.04395v-1.00488h-.02734c-.46924.78418-1.16455,1.17578-2.08496,1.17578-.6792,0-1.21338-.19238-1.60303-.57715-.38965-.38574-.58447-.89941-.58447-1.54199,0-1.35742.8042-2.1416,2.41309-2.35156l1.90039-.25293c0-.76562-.41455-1.14844-1.24414-1.14844-.83398,0-1.62695.24902-2.37891.74512v-1.62695c.30078-.1543.71191-.29102,1.23389-.41016.52197-.11816.99707-.17773,1.42529-.17773,1.99609,0,2.99414.99609,2.99414,2.9873v4.18359ZM195.9001,33.26406v-.47168l-1.27148.16406c-.70166.0918-1.05273.4082-1.05273.9502,0,.24609.08545.44824.25635.60547s.40234.23535.69385.23535c.40576,0,.73584-.13965.99121-.41992s.38281-.63477.38281-1.06348Z" fill="#2f2f2f"/>
        <path d="M201.82686,35.29434h-.02734v.81348h-2.16016v-10.36328h2.16016v4.41602h.02734c.5332-.81543,1.29199-1.22363,2.27637-1.22363.90234,0,1.59717.31055,2.08496.92969.48779.62012.73145,1.46777.73145,2.54297,0,1.16699-.28467,2.10352-.85449,2.80957-.56982.70703-1.33057,1.05957-2.2832,1.05957-.86133,0-1.51318-.32812-1.95508-.98438ZM201.76533,32.34121v.71777c0,.45117.12988.8252.38965,1.12109.25977.29688.59229.44434.99805.44434.49219,0,.87402-.19043,1.14502-.57031.271-.38086.40674-.91992.40674-1.61719,0-.57812-.12402-1.03125-.37256-1.35645-.24854-.32617-.60254-.48926-1.06299-.48926-.43311,0-.79199.16211-1.07666.48535-.28467.32422-.42725.74512-.42725,1.26465Z" fill="#2f2f2f"/>
        <path d="M209.41475,28.00039c-.36475,0-.66309-.1084-.89551-.32422-.23242-.2168-.34863-.48242-.34863-.79688,0-.32324.11621-.58789.34863-.79297s.53076-.30762.89551-.30762c.36914,0,.66895.10254.89893.30762s.34521.46973.34521.79297c0,.32812-.11523.59766-.34521.80664-.22998.20996-.52979.31445-.89893.31445ZM210.48115,36.10781h-2.16016v-7h2.16016v7Z" fill="#2f2f2f"/>
        <path d="M214.45967,36.10781h-2.16016v-10.36328h2.16016v10.36328Z" fill="#2f2f2f"/>
        <path d="M217.37178,28.00039c-.36475,0-.66309-.1084-.89551-.32422-.23242-.2168-.34863-.48242-.34863-.79688,0-.32324.11621-.58789.34863-.79297s.53076-.30762.89551-.30762c.36914,0,.66895.10254.89893.30762s.34521.46973.34521.79297c0,.32812-.11523.59766-.34521.80664-.22998.20996-.52979.31445-.89893.31445ZM218.43818,36.10781h-2.16016v-7h2.16016v7Z" fill="#2f2f2f"/>
        <path d="M224.48799,36.02578c-.31885.16895-.7998.25293-1.44238.25293-1.52197,0-2.2832-.79004-2.2832-2.37207v-3.20605h-1.13477v-1.59277h1.13477v-1.51074l2.15332-.61523v2.12598h1.57227v1.59277h-1.57227v2.83008c0,.72949.28955,1.09375.86816,1.09375.22803,0,.4624-.06543.7041-.19824v1.59961Z" fill="#2f2f2f"/>
        <path d="M232.36982,29.10781l-2.84375,7.56055c-.68359,1.81836-1.71338,2.72754-3.08984,2.72754-.52393,0-.95459-.05859-1.29199-.17773v-1.72266c.28711.16895.59912.25293.93652.25293.55615,0,.94336-.26172,1.16211-.78613l.36914-.86816-2.84375-6.98633h2.39258l1.30566,4.25879c.08203.26465.146.57715.19141.93652h.02734c.04102-.26367.11621-.57129.22559-.92285l1.31934-4.27246h2.13965Z" fill="#2f2f2f"/>
        <path d="M244.36689,36.10781h-7.89551v-1.27148l5.02441-6.7334h-4.66211v-1.79785h7.51953v1.2373l-4.91504,6.77441h4.92871v1.79102Z" fill="#2f2f2f"/>
        <path d="M248.9333,36.27871c-1.1665,0-2.08398-.32715-2.75146-.98047-.66748-.6543-1.00146-1.54199-1.00146-2.66309,0-1.15723.34619-2.06348,1.03906-2.7168.69287-.6543,1.62939-.98145,2.80957-.98145,1.16211,0,2.07373.32715,2.73438.98145.66064.65332.99121,1.51855.99121,2.59375,0,1.16211-.34082,2.08105-1.02197,2.75488-.68115.6748-1.61426,1.01172-2.79932,1.01172ZM248.98799,30.59121c-.51025,0-.90674.17578-1.18945.52637-.28271.35156-.42383.84766-.42383,1.49023,0,1.34473.54248,2.0166,1.62695,2.0166,1.03467,0,1.55176-.69043,1.55176-2.07129,0-1.30762-.52197-1.96191-1.56543-1.96191Z" fill="#2f2f2f"/>
        <path d="M260.9167,36.10781h-2.15332v-3.88965c0-1.08398-.38721-1.62695-1.16211-1.62695-.37354,0-.68115.14355-.92285.43066s-.3623.65234-.3623,1.09375v3.99219h-2.16016v-7h2.16016v1.10742h.02734c.51514-.85156,1.26465-1.27832,2.24902-1.27832,1.54932,0,2.32422.96191,2.32422,2.88477v4.28613Z" fill="#2f2f2f"/>
        <path d="M268.91475,33.22305h-4.56641c.07275,1.0166.71338,1.52441,1.9209,1.52441.77002,0,1.44678-.18164,2.03027-.54688v1.55859c-.64697.34668-1.48779.51953-2.52246.51953-1.13037,0-2.00732-.31348-2.63184-.93945-.62451-.62695-.93652-1.50098-.93652-2.62207,0-1.16211.3374-2.08203,1.01172-2.76172.67432-.67871,1.50391-1.01855,2.48828-1.01855,1.021,0,1.81055.30371,2.36865.90918.55811.60645.8374,1.42871.8374,2.46777v.90918ZM266.91182,31.89688c0-1.00195-.40576-1.50391-1.2168-1.50391-.34619,0-.646.14355-.89893.43066s-.40674.64551-.46143,1.07324h2.57715Z" fill="#2f2f2f"/>
        <path d="M278.84053,26.08633v10.02148h-2.15332v-7.58789c-.11865.10547-.25879.2041-.42041.29785-.16162.09277-.33398.17773-.51611.25293s-.37158.13867-.56738.19141c-.1958.05176-.38965.08984-.58105.1123v-1.81836c.56055-.16406,1.08936-.37305,1.58594-.62891.49658-.25488.9458-.53516,1.34668-.84082h1.30566Z" fill="#2f2f2f"/>
      </g>
      <g>
        <path d="M396.23555,36.10781h-2.40625l-.69727-2.18066h-3.48633l-.69043,2.18066h-2.39258l3.56836-9.80273h2.61816l3.48633,9.80273ZM392.62617,32.23184l-1.05273-3.29492c-.07764-.24609-.13232-.54004-.16406-.88184h-.05469c-.02295.28711-.07959.57227-.1709.85449l-1.06641,3.32227h2.50879Z" fill="#2f2f2f"/>
        <path d="M403.60469,29.10781l-2.60449,7h-2.46094l-2.48145-7h2.31055l1.2168,4.31348c.13672.48828.21631.90234.23926,1.24414h.02734c.03174-.32324.11621-.72461.25293-1.20312l1.24414-4.35449h2.25586Z" fill="#2f2f2f"/>
        <path d="M410.13984,36.10781h-2.04395v-1.00488h-.02734c-.46924.78418-1.16455,1.17578-2.08496,1.17578-.6792,0-1.21338-.19238-1.60303-.57715-.38965-.38574-.58447-.89941-.58447-1.54199,0-1.35742.8042-2.1416,2.41309-2.35156l1.90039-.25293c0-.76562-.41455-1.14844-1.24414-1.14844-.83398,0-1.62695.24902-2.37891.74512v-1.62695c.30078-.1543.71191-.29102,1.23389-.41016.52197-.11816.99707-.17773,1.42529-.17773,1.99609,0,2.99414.99609,2.99414,2.9873v4.18359ZM408.10957,33.26406v-.47168l-1.27148.16406c-.70166.0918-1.05273.4082-1.05273.9502,0,.24609.08545.44824.25635.60547s.40234.23535.69385.23535c.40576,0,.73584-.13965.99121-.41992s.38281-.63477.38281-1.06348Z" fill="#2f2f2f"/>
        <path d="M412.94258,28.00039c-.36475,0-.66309-.1084-.89551-.32422-.23242-.2168-.34863-.48242-.34863-.79688,0-.32324.11621-.58789.34863-.79297s.53076-.30762.89551-.30762c.36914,0,.66895.10254.89893.30762s.34521.46973.34521.79297c0,.32812-.11523.59766-.34521.80664-.22998.20996-.52979.31445-.89893.31445ZM414.00898,36.10781h-2.16016v-7h2.16016v7Z" fill="#2f2f2f"/>
        <path d="M417.9875,36.10781h-2.16016v-10.36328h2.16016v10.36328Z" fill="#2f2f2f"/>
        <path d="M425.63008,36.10781h-2.04395v-1.00488h-.02734c-.46924.78418-1.16455,1.17578-2.08496,1.17578-.6792,0-1.21338-.19238-1.60303-.57715-.38965-.38574-.58447-.89941-.58447-1.54199,0-1.35742.8042-2.1416,2.41309-2.35156l1.90039-.25293c0-.76562-.41455-1.14844-1.24414-1.14844-.83398,0-1.62695.24902-2.37891.74512v-1.62695c.30078-.1543.71191-.29102,1.23389-.41016.52197-.11816.99707-.17773,1.42529-.17773,1.99609,0,2.99414.99609,2.99414,2.9873v4.18359ZM423.5998,33.26406v-.47168l-1.27148.16406c-.70166.0918-1.05273.4082-1.05273.9502,0,.24609.08545.44824.25635.60547s.40234.23535.69385.23535c.40576,0,.73584-.13965.99121-.41992s.38281-.63477.38281-1.06348Z" fill="#2f2f2f"/>
        <path d="M429.52656,35.29434h-.02734v.81348h-2.16016v-10.36328h2.16016v4.41602h.02734c.5332-.81543,1.29199-1.22363,2.27637-1.22363.90234,0,1.59717.31055,2.08496.92969.48779.62012.73145,1.46777.73145,2.54297,0,1.16699-.28467,2.10352-.85449,2.80957-.56982.70703-1.33057,1.05957-2.2832,1.05957-.86133,0-1.51318-.32812-1.95508-.98438ZM429.46504,32.34121v.71777c0,.45117.12988.8252.38965,1.12109.25977.29688.59229.44434.99805.44434.49219,0,.87402-.19043,1.14502-.57031.271-.38086.40674-.91992.40674-1.61719,0-.57812-.12402-1.03125-.37256-1.35645-.24854-.32617-.60254-.48926-1.06299-.48926-.43311,0-.79199.16211-1.07666.48535-.28467.32422-.42725.74512-.42725,1.26465Z" fill="#2f2f2f"/>
        <path d="M437.11445,28.00039c-.36475,0-.66309-.1084-.89551-.32422-.23242-.2168-.34863-.48242-.34863-.79688,0-.32324.11621-.58789.34863-.79297s.53076-.30762.89551-.30762c.36914,0,.66895.10254.89893.30762s.34521.46973.34521.79297c0,.32812-.11523.59766-.34521.80664-.22998.20996-.52979.31445-.89893.31445ZM438.18086,36.10781h-2.16016v-7h2.16016v7Z" fill="#2f2f2f"/>
        <path d="M442.15938,36.10781h-2.16016v-10.36328h2.16016v10.36328Z" fill="#2f2f2f"/>
        <path d="M445.07148,28.00039c-.36475,0-.66309-.1084-.89551-.32422-.23242-.2168-.34863-.48242-.34863-.79688,0-.32324.11621-.58789.34863-.79297s.53076-.30762.89551-.30762c.36914,0,.66895.10254.89893.30762s.34521.46973.34521.79297c0,.32812-.11523.59766-.34521.80664-.22998.20996-.52979.31445-.89893.31445ZM446.13789,36.10781h-2.16016v-7h2.16016v7Z" fill="#2f2f2f"/>
        <path d="M452.1877,36.02578c-.31885.16895-.7998.25293-1.44238.25293-1.52197,0-2.2832-.79004-2.2832-2.37207v-3.20605h-1.13477v-1.59277h1.13477v-1.51074l2.15332-.61523v2.12598h1.57227v1.59277h-1.57227v2.83008c0,.72949.28955,1.09375.86816,1.09375.22803,0,.4624-.06543.7041-.19824v1.59961Z" fill="#2f2f2f"/>
        <path d="M460.06953,29.10781l-2.84375,7.56055c-.68359,1.81836-1.71338,2.72754-3.08984,2.72754-.52393,0-.95459-.05859-1.29199-.17773v-1.72266c.28711.16895.59912.25293.93652.25293.55615,0,.94336-.26172,1.16211-.78613l.36914-.86816-2.84375-6.98633h2.39258l1.30566,4.25879c.08203.26465.146.57715.19141.93652h.02734c.04102-.26367.11621-.57129.22559-.92285l1.31934-4.27246h2.13965Z" fill="#2f2f2f"/>
        <path d="M472.0666,36.10781h-7.89551v-1.27148l5.02441-6.7334h-4.66211v-1.79785h7.51953v1.2373l-4.91504,6.77441h4.92871v1.79102Z" fill="#2f2f2f"/>
        <path d="M476.63301,36.27871c-1.1665,0-2.08398-.32715-2.75146-.98047-.66748-.6543-1.00146-1.54199-1.00146-2.66309,0-1.15723.34619-2.06348,1.03906-2.7168.69287-.6543,1.62939-.98145,2.80957-.98145,1.16211,0,2.07373.32715,2.73438.98145.66064.65332.99121,1.51855.99121,2.59375,0,1.16211-.34082,2.08105-1.02197,2.75488-.68115.6748-1.61426,1.01172-2.79932,1.01172ZM476.6877,30.59121c-.51025,0-.90674.17578-1.18945.52637-.28271.35156-.42383.84766-.42383,1.49023,0,1.34473.54248,2.0166,1.62695,2.0166,1.03467,0,1.55176-.69043,1.55176-2.07129,0-1.30762-.52197-1.96191-1.56543-1.96191Z" fill="#2f2f2f"/>
        <path d="M488.61641,36.10781h-2.15332v-3.88965c0-1.08398-.38721-1.62695-1.16211-1.62695-.37354,0-.68115.14355-.92285.43066s-.3623.65234-.3623,1.09375v3.99219h-2.16016v-7h2.16016v1.10742h.02734c.51514-.85156,1.26465-1.27832,2.24902-1.27832,1.54932,0,2.32422.96191,2.32422,2.88477v4.28613Z" fill="#2f2f2f"/>
        <path d="M496.61445,33.22305h-4.56641c.07275,1.0166.71338,1.52441,1.9209,1.52441.77002,0,1.44678-.18164,2.03027-.54688v1.55859c-.64697.34668-1.48779.51953-2.52246.51953-1.13037,0-2.00732-.31348-2.63184-.93945-.62451-.62695-.93652-1.50098-.93652-2.62207,0-1.16211.3374-2.08203,1.01172-2.76172.67432-.67871,1.50391-1.01855,2.48828-1.01855,1.021,0,1.81055.30371,2.36865.90918.55811.60645.8374,1.42871.8374,2.46777v.90918ZM494.61152,31.89688c0-1.00195-.40576-1.50391-1.2168-1.50391-.34619,0-.646.14355-.89893.43066s-.40674.64551-.46143,1.07324h2.57715Z" fill="#2f2f2f"/>
        <path d="M503.78535,34.3168h4.15625v1.79102h-6.52148v-.73828c0-.50098.08447-.95117.25293-1.34961.16846-.39941.38037-.75684.63574-1.07324.25537-.31738.53418-.59766.8374-.84082.30322-.24414.59131-.46387.86475-.66016.28711-.20508.53906-.40039.75537-.58789.21631-.18652.39893-.37207.54688-.55664s.25879-.37207.33154-.56055c.07275-.18945.10938-.39062.10938-.60547,0-.41895-.11865-.73535-.35547-.9502-.23682-.21387-.59912-.32129-1.08691-.32129-.84326,0-1.6499.33496-2.41992,1.00488v-1.90039c.85205-.55078,1.81396-.82715,2.88477-.82715.49658,0,.94238.06543,1.33643.19531s.72803.31543,1.00146.55664c.27344.24219.48193.53418.62549.87891.14355.34375.21533.72754.21533,1.15137,0,.45117-.06934.85254-.2085,1.20312-.13916.35156-.32373.66992-.55371.95703s-.49561.55078-.79639.79004-.61279.4707-.93652.69336c-.21875.15527-.42969.30859-.63232.46191-.20264.15234-.38184.30273-.53662.45117-.15479.14746-.27783.29297-.36914.43359-.09131.1416-.13672.27637-.13672.40332Z" fill="#2f2f2f"/>
      </g>
      <g>
        <path d="M626.13545,36.10781h-2.40625l-.69727-2.18066h-3.48633l-.69043,2.18066h-2.39258l3.56836-9.80273h2.61816l3.48633,9.80273ZM622.52607,32.23184l-1.05273-3.29492c-.07764-.24609-.13232-.54004-.16406-.88184h-.05469c-.02295.28711-.07959.57227-.1709.85449l-1.06641,3.32227h2.50879Z" fill="#2f2f2f"/>
        <path d="M633.50459,29.10781l-2.60449,7h-2.46094l-2.48145-7h2.31055l1.2168,4.31348c.13672.48828.21631.90234.23926,1.24414h.02734c.03174-.32324.11621-.72461.25293-1.20312l1.24414-4.35449h2.25586Z" fill="#2f2f2f"/>
        <path d="M640.03975,36.10781h-2.04395v-1.00488h-.02734c-.46924.78418-1.16455,1.17578-2.08496,1.17578-.6792,0-1.21338-.19238-1.60303-.57715-.38965-.38574-.58447-.89941-.58447-1.54199,0-1.35742.8042-2.1416,2.41309-2.35156l1.90039-.25293c0-.76562-.41455-1.14844-1.24414-1.14844-.83398,0-1.62695.24902-2.37891.74512v-1.62695c.30078-.1543.71191-.29102,1.23389-.41016.52197-.11816.99707-.17773,1.42529-.17773,1.99609,0,2.99414.99609,2.99414,2.9873v4.18359ZM638.00947,33.26406v-.47168l-1.27148.16406c-.70166.0918-1.05273.4082-1.05273.9502,0,.24609.08545.44824.25635.60547s.40234.23535.69385.23535c.40576,0,.73584-.13965.99121-.41992s.38281-.63477.38281-1.06348Z" fill="#2f2f2f"/>
        <path d="M642.84248,28.00039c-.36475,0-.66309-.1084-.89551-.32422-.23242-.2168-.34863-.48242-.34863-.79688,0-.32324.11621-.58789.34863-.79297s.53076-.30762.89551-.30762c.36914,0,.66895.10254.89893.30762s.34521.46973.34521.79297c0,.32812-.11523.59766-.34521.80664-.22998.20996-.52979.31445-.89893.31445ZM643.90889,36.10781h-2.16016v-7h2.16016v7Z" fill="#2f2f2f"/>
        <path d="M647.8874,36.10781h-2.16016v-10.36328h2.16016v10.36328Z" fill="#2f2f2f"/>
        <path d="M655.52998,36.10781h-2.04395v-1.00488h-.02734c-.46924.78418-1.16455,1.17578-2.08496,1.17578-.6792,0-1.21338-.19238-1.60303-.57715-.38965-.38574-.58447-.89941-.58447-1.54199,0-1.35742.8042-2.1416,2.41309-2.35156l1.90039-.25293c0-.76562-.41455-1.14844-1.24414-1.14844-.83398,0-1.62695.24902-2.37891.74512v-1.62695c.30078-.1543.71191-.29102,1.23389-.41016.52197-.11816.99707-.17773,1.42529-.17773,1.99609,0,2.99414.99609,2.99414,2.9873v4.18359ZM653.49971,33.26406v-.47168l-1.27148.16406c-.70166.0918-1.05273.4082-1.05273.9502,0,.24609.08545.44824.25635.60547s.40234.23535.69385.23535c.40576,0,.73584-.13965.99121-.41992s.38281-.63477.38281-1.06348Z" fill="#2f2f2f"/>
        <path d="M659.42646,35.29434h-.02734v.81348h-2.16016v-10.36328h2.16016v4.41602h.02734c.5332-.81543,1.29199-1.22363,2.27637-1.22363.90234,0,1.59717.31055,2.08496.92969.48779.62012.73145,1.46777.73145,2.54297,0,1.16699-.28467,2.10352-.85449,2.80957-.56982.70703-1.33057,1.05957-2.2832,1.05957-.86133,0-1.51318-.32812-1.95508-.98438ZM659.36494,32.34121v.71777c0,.45117.12988.8252.38965,1.12109.25977.29688.59229.44434.99805.44434.49219,0,.87402-.19043,1.14502-.57031.271-.38086.40674-.91992.40674-1.61719,0-.57812-.12402-1.03125-.37256-1.35645-.24854-.32617-.60254-.48926-1.06299-.48926-.43311,0-.79199.16211-1.07666.48535-.28467.32422-.42725.74512-.42725,1.26465Z" fill="#2f2f2f"/>
        <path d="M667.01436,28.00039c-.36475,0-.66309-.1084-.89551-.32422-.23242-.2168-.34863-.48242-.34863-.79688,0-.32324.11621-.58789.34863-.79297s.53076-.30762.89551-.30762c.36914,0,.66895.10254.89893.30762s.34521.46973.34521.79297c0,.32812-.11523.59766-.34521.80664-.22998.20996-.52979.31445-.89893.31445ZM668.08076,36.10781h-2.16016v-7h2.16016v7Z" fill="#2f2f2f"/>
        <path d="M672.05928,36.10781h-2.16016v-10.36328h2.16016v10.36328Z" fill="#2f2f2f"/>
        <path d="M674.97139,28.00039c-.36475,0-.66309-.1084-.89551-.32422-.23242-.2168-.34863-.48242-.34863-.79688,0-.32324.11621-.58789.34863-.79297s.53076-.30762.89551-.30762c.36914,0,.66895.10254.89893.30762s.34521.46973.34521.79297c0,.32812-.11523.59766-.34521.80664-.22998.20996-.52979.31445-.89893.31445ZM676.03779,36.10781h-2.16016v-7h2.16016v7Z" fill="#2f2f2f"/>
        <path d="M682.0876,36.02578c-.31885.16895-.7998.25293-1.44238.25293-1.52197,0-2.2832-.79004-2.2832-2.37207v-3.20605h-1.13477v-1.59277h1.13477v-1.51074l2.15332-.61523v2.12598h1.57227v1.59277h-1.57227v2.83008c0,.72949.28955,1.09375.86816,1.09375.22803,0,.4624-.06543.7041-.19824v1.59961Z" fill="#2f2f2f"/>
        <path d="M689.96943,29.10781l-2.84375,7.56055c-.68359,1.81836-1.71338,2.72754-3.08984,2.72754-.52393,0-.95459-.05859-1.29199-.17773v-1.72266c.28711.16895.59912.25293.93652.25293.55615,0,.94336-.26172,1.16211-.78613l.36914-.86816-2.84375-6.98633h2.39258l1.30566,4.25879c.08203.26465.146.57715.19141.93652h.02734c.04102-.26367.11621-.57129.22559-.92285l1.31934-4.27246h2.13965Z" fill="#2f2f2f"/>
        <path d="M701.9665,36.10781h-7.89551v-1.27148l5.02441-6.7334h-4.66211v-1.79785h7.51953v1.2373l-4.91504,6.77441h4.92871v1.79102Z" fill="#2f2f2f"/>
        <path d="M706.53291,36.27871c-1.1665,0-2.08398-.32715-2.75146-.98047-.66748-.6543-1.00146-1.54199-1.00146-2.66309,0-1.15723.34619-2.06348,1.03906-2.7168.69287-.6543,1.62939-.98145,2.80957-.98145,1.16211,0,2.07373.32715,2.73438.98145.66064.65332.99121,1.51855.99121,2.59375,0,1.16211-.34082,2.08105-1.02197,2.75488-.68115.6748-1.61426,1.01172-2.79932,1.01172ZM706.5876,30.59121c-.51025,0-.90674.17578-1.18945.52637-.28271.35156-.42383.84766-.42383,1.49023,0,1.34473.54248,2.0166,1.62695,2.0166,1.03467,0,1.55176-.69043,1.55176-2.07129,0-1.30762-.52197-1.96191-1.56543-1.96191Z" fill="#2f2f2f"/>
        <path d="M718.51631,36.10781h-2.15332v-3.88965c0-1.08398-.38721-1.62695-1.16211-1.62695-.37354,0-.68115.14355-.92285.43066s-.3623.65234-.3623,1.09375v3.99219h-2.16016v-7h2.16016v1.10742h.02734c.51514-.85156,1.26465-1.27832,2.24902-1.27832,1.54932,0,2.32422.96191,2.32422,2.88477v4.28613Z" fill="#2f2f2f"/>
        <path d="M726.51436,33.22305h-4.56641c.07275,1.0166.71338,1.52441,1.9209,1.52441.77002,0,1.44678-.18164,2.03027-.54688v1.55859c-.64697.34668-1.48779.51953-2.52246.51953-1.13037,0-2.00732-.31348-2.63184-.93945-.62451-.62695-.93652-1.50098-.93652-2.62207,0-1.16211.3374-2.08203,1.01172-2.76172.67432-.67871,1.50391-1.01855,2.48828-1.01855,1.021,0,1.81055.30371,2.36865.90918.55811.60645.8374,1.42871.8374,2.46777v.90918ZM724.51143,31.89688c0-1.00195-.40576-1.50391-1.2168-1.50391-.34619,0-.646.14355-.89893.43066s-.40674.64551-.46143,1.07324h2.57715Z" fill="#2f2f2f"/>
        <path d="M731.55244,35.78652v-1.87988c.65625.47852,1.42188.71777,2.29688.71777.55127,0,.98096-.11816,1.28857-.35547.30762-.23633.46143-.56738.46143-.99121,0-.4375-.19043-.77441-.5708-1.01172-.38037-.23633-.90332-.35547-1.56885-.35547h-.90918v-1.6543h.84082c1.27588,0,1.91406-.42383,1.91406-1.27148,0-.79688-.48975-1.19629-1.46973-1.19629-.65625,0-1.29443.21191-1.91406.63574v-1.76367c.68799-.3457,1.49023-.51953,2.40625-.51953,1.00244,0,1.7832.22559,2.34131.67676s.8374,1.03711.8374,1.75684c0,1.28125-.64941,2.08301-1.94824,2.40625v.03418c.69287.08691,1.23975.33887,1.64062.75586s.60156.92871.60156,1.53418c0,.91602-.33496,1.64062-1.00488,2.17383s-1.59521.7998-2.77539.7998c-1.01172,0-1.83447-.16406-2.46777-.49219Z" fill="#2f2f2f"/>
      </g>
      <g>
        <path d="M234.66133,86.8959h-1.14844v-9.80273h1.14844v9.80273Z" fill="#2f2f2f"/>
        <path d="M242.73604,86.8959h-1.12109v-3.99219c0-1.48633-.54248-2.22852-1.62695-2.22852-.56055,0-1.02441.21094-1.39111.63184-.3667.42188-.55029.9541-.55029,1.59668v3.99219h-1.12109v-7h1.12109v1.16211h.02734c.52881-.88477,1.29443-1.32617,2.29688-1.32617.76562,0,1.35107.24707,1.75684.74121.40576.49512.6084,1.20898.6084,2.14355v4.2793Z" fill="#2f2f2f"/>
        <path d="M244.38398,86.64297v-1.20312c.61084.45117,1.28271.67676,2.0166.67676.98438,0,1.47656-.32812,1.47656-.98438,0-.1875-.04199-.3457-.12646-.47559s-.19824-.24512-.3418-.34473c-.14355-.10059-.31201-.19043-.50586-.27051-.19385-.0791-.40234-.16309-.62549-.24902-.31006-.12305-.58203-.24707-.81689-.37305-.23486-.125-.43066-.2666-.58789-.42383s-.27588-.33594-.35547-.53613c-.07959-.20117-.11963-.43555-.11963-.7041,0-.32812.0752-.61914.22559-.87207s.35107-.46484.60156-.63574.53662-.2998.85791-.38574c.32129-.08691.65283-.12988.99463-.12988.60596,0,1.14844.10449,1.62695.31445v1.13477c-.51514-.33789-1.10742-.50586-1.77734-.50586-.20947,0-.39893.02344-.56738.07129s-.31348.11523-.43408.20215c-.12061.08594-.21436.19043-.28027.31055-.06592.12109-.09912.25391-.09912.40039,0,.18164.0332.33496.09912.45801s.16309.23242.29053.32812.28271.18164.46484.25977c.18213.07715.38965.16113.62207.25293.31006.11816.58789.24023.83398.36523.24609.12598.45557.2666.62891.42383s.30664.33887.3999.54395.14014.44824.14014.73145c0,.3457-.07617.64648-.229.90234-.15283.25488-.35645.4668-.61182.63574-.25537.16797-.54932.29395-.88184.37598s-.68115.12305-1.0459.12305c-.72021,0-1.34424-.13965-1.87305-.41699Z" fill="#2f2f2f"/>
        <path d="M254.0373,86.82754c-.26416.14551-.61279.21875-1.0459.21875-1.22607,0-1.83887-.68359-1.83887-2.05078v-4.14258h-1.20312v-.95703h1.20312v-1.70898l1.12109-.3623v2.07129h1.76367v.95703h-1.76367v3.94434c0,.46875.07959.80371.23926,1.00488.15967.2002.42383.30078.79297.30078.28271,0,.52637-.07812.73145-.23242v.95703Z" fill="#2f2f2f"/>
        <path d="M260.65449,86.8959h-1.12109v-1.09375h-.02734c-.48779.83789-1.20557,1.25781-2.15332,1.25781-.69727,0-1.24316-.18457-1.63721-.55371s-.59131-.85938-.59131-1.46973c0-1.30859.77002-2.06934,2.31055-2.2832l2.09863-.29395c0-1.18945-.48096-1.78418-1.44238-1.78418-.84326,0-1.604.28711-2.2832.86133v-1.14844c.68799-.4375,1.48096-.65625,2.37891-.65625,1.64502,0,2.46777.87012,2.46777,2.61133v4.55273ZM259.5334,83.35488l-1.68848.23242c-.51953.07227-.91162.20117-1.17578.38574s-.39648.51172-.39648.98145c0,.3418.12207.62109.36572.83691.24365.2168.56836.3252.97412.3252.55615,0,1.01514-.19531,1.37744-.58496s.54346-.88281.54346-1.47949v-.69727Z" fill="#2f2f2f"/>
        <path d="M268.48652,86.8959h-1.12109v-3.99219c0-1.48633-.54248-2.22852-1.62695-2.22852-.56055,0-1.02441.21094-1.39111.63184-.3667.42188-.55029.9541-.55029,1.59668v3.99219h-1.12109v-7h1.12109v1.16211h.02734c.52881-.88477,1.29443-1.32617,2.29688-1.32617.76562,0,1.35107.24707,1.75684.74121.40576.49512.6084,1.20898.6084,2.14355v4.2793Z" fill="#2f2f2f"/>
        <path d="M275.33516,86.57461c-.5376.32324-1.17578.48535-1.91406.48535-.99805,0-1.80371-.3252-2.4165-.97461s-.91943-1.49121-.91943-2.52539c0-1.15332.33057-2.0791.99121-2.7793.66064-.69922,1.54248-1.04883,2.64551-1.04883.61523,0,1.15771.11328,1.62695.3418v1.14844c-.51953-.36523-1.07568-.54688-1.66797-.54688-.71533,0-1.30225.25586-1.76025.76855s-.68701,1.18652-.68701,2.02051c0,.82031.21533,1.4668.646,1.94141.43066.47363,1.0083.71094,1.73291.71094.61084,0,1.18506-.20312,1.72266-.6084v1.06641Z" fill="#2f2f2f"/>
        <path d="M282.50508,83.67617h-4.94238c.01807.7793.22803,1.38086.62891,1.80469s.95264.63574,1.6543.63574c.78857,0,1.51318-.25977,2.17383-.7793v1.05273c-.61523.44629-1.42871.66992-2.44043.66992-.98877,0-1.76611-.31836-2.33105-.9541s-.84766-1.53027-.84766-2.68262c0-1.08984.30859-1.97656.92627-2.66309.61768-.68555,1.38428-1.02832,2.30029-1.02832s1.62451.2959,2.12598.88867c.50146.5918.75195,1.41504.75195,2.46777v.58789ZM281.35664,82.72598c-.00439-.64746-.16064-1.15137-.46826-1.51074-.30762-.36035-.73486-.54004-1.28174-.54004-.52881,0-.97754.18848-1.34668.56738-.36914.37793-.59717.87207-.68359,1.4834h3.78027Z" fill="#2f2f2f"/>
      </g>
      <g>
        <path d="M159.37275,86.8959h-1.14844v-9.80273h1.14844v9.80273Z" fill="#2f2f2f"/>
        <path d="M167.44746,86.8959h-1.12109v-3.99219c0-1.48633-.54248-2.22852-1.62695-2.22852-.56055,0-1.02441.21094-1.39111.63184-.3667.42188-.55029.9541-.55029,1.59668v3.99219h-1.12109v-7h1.12109v1.16211h.02734c.52881-.88477,1.29443-1.32617,2.29688-1.32617.76562,0,1.35107.24707,1.75684.74121.40576.49512.6084,1.20898.6084,2.14355v4.2793Z" fill="#2f2f2f"/>
        <path d="M169.09541,86.64297v-1.20312c.61084.45117,1.28271.67676,2.0166.67676.98438,0,1.47656-.32812,1.47656-.98438,0-.1875-.04199-.3457-.12646-.47559s-.19824-.24512-.3418-.34473c-.14355-.10059-.31201-.19043-.50586-.27051-.19385-.0791-.40234-.16309-.62549-.24902-.31006-.12305-.58203-.24707-.81689-.37305-.23486-.125-.43066-.2666-.58789-.42383s-.27588-.33594-.35547-.53613c-.07959-.20117-.11963-.43555-.11963-.7041,0-.32812.0752-.61914.22559-.87207s.35107-.46484.60156-.63574.53662-.2998.85791-.38574c.32129-.08691.65283-.12988.99463-.12988.60596,0,1.14844.10449,1.62695.31445v1.13477c-.51514-.33789-1.10742-.50586-1.77734-.50586-.20947,0-.39893.02344-.56738.07129s-.31348.11523-.43408.20215c-.12061.08594-.21436.19043-.28027.31055-.06592.12109-.09912.25391-.09912.40039,0,.18164.0332.33496.09912.45801s.16309.23242.29053.32812.28271.18164.46484.25977c.18213.07715.38965.16113.62207.25293.31006.11816.58789.24023.83398.36523.24609.12598.45557.2666.62891.42383s.30664.33887.3999.54395.14014.44824.14014.73145c0,.3457-.07617.64648-.229.90234-.15283.25488-.35645.4668-.61182.63574-.25537.16797-.54932.29395-.88184.37598s-.68115.12305-1.0459.12305c-.72021,0-1.34424-.13965-1.87305-.41699Z" fill="#2f2f2f"/>
        <path d="M178.74873,86.82754c-.26416.14551-.61279.21875-1.0459.21875-1.22607,0-1.83887-.68359-1.83887-2.05078v-4.14258h-1.20312v-.95703h1.20312v-1.70898l1.12109-.3623v2.07129h1.76367v.95703h-1.76367v3.94434c0,.46875.07959.80371.23926,1.00488.15967.2002.42383.30078.79297.30078.28271,0,.52637-.07812.73145-.23242v.95703Z" fill="#2f2f2f"/>
        <path d="M185.36592,86.8959h-1.12109v-1.09375h-.02734c-.48779.83789-1.20557,1.25781-2.15332,1.25781-.69727,0-1.24316-.18457-1.63721-.55371s-.59131-.85938-.59131-1.46973c0-1.30859.77002-2.06934,2.31055-2.2832l2.09863-.29395c0-1.18945-.48096-1.78418-1.44238-1.78418-.84326,0-1.604.28711-2.2832.86133v-1.14844c.68799-.4375,1.48096-.65625,2.37891-.65625,1.64502,0,2.46777.87012,2.46777,2.61133v4.55273ZM184.24482,83.35488l-1.68848.23242c-.51953.07227-.91162.20117-1.17578.38574s-.39648.51172-.39648.98145c0,.3418.12207.62109.36572.83691.24365.2168.56836.3252.97412.3252.55615,0,1.01514-.19531,1.37744-.58496s.54346-.88281.54346-1.47949v-.69727Z" fill="#2f2f2f"/>
        <path d="M193.19795,86.8959h-1.12109v-3.99219c0-1.48633-.54248-2.22852-1.62695-2.22852-.56055,0-1.02441.21094-1.39111.63184-.3667.42188-.55029.9541-.55029,1.59668v3.99219h-1.12109v-7h1.12109v1.16211h.02734c.52881-.88477,1.29443-1.32617,2.29688-1.32617.76562,0,1.35107.24707,1.75684.74121.40576.49512.6084,1.20898.6084,2.14355v4.2793Z" fill="#2f2f2f"/>
        <path d="M200.04658,86.57461c-.5376.32324-1.17578.48535-1.91406.48535-.99805,0-1.80371-.3252-2.4165-.97461s-.91943-1.49121-.91943-2.52539c0-1.15332.33057-2.0791.99121-2.7793.66064-.69922,1.54248-1.04883,2.64551-1.04883.61523,0,1.15771.11328,1.62695.3418v1.14844c-.51953-.36523-1.07568-.54688-1.66797-.54688-.71533,0-1.30225.25586-1.76025.76855s-.68701,1.18652-.68701,2.02051c0,.82031.21533,1.4668.646,1.94141.43066.47363,1.0083.71094,1.73291.71094.61084,0,1.18506-.20312,1.72266-.6084v1.06641Z" fill="#2f2f2f"/>
        <path d="M207.2165,83.67617h-4.94238c.01807.7793.22803,1.38086.62891,1.80469s.95264.63574,1.6543.63574c.78857,0,1.51318-.25977,2.17383-.7793v1.05273c-.61523.44629-1.42871.66992-2.44043.66992-.98877,0-1.76611-.31836-2.33105-.9541s-.84766-1.53027-.84766-2.68262c0-1.08984.30859-1.97656.92627-2.66309.61768-.68555,1.38428-1.02832,2.30029-1.02832s1.62451.2959,2.12598.88867c.50146.5918.75195,1.41504.75195,2.46777v.58789ZM206.06807,82.72598c-.00439-.64746-.16064-1.15137-.46826-1.51074-.30762-.36035-.73486-.54004-1.28174-.54004-.52881,0-.97754.18848-1.34668.56738-.36914.37793-.59717.87207-.68359,1.4834h3.78027Z" fill="#2f2f2f"/>
      </g>
      <g>
        <path d="M459.06123,86.8959h-1.14844v-9.80273h1.14844v9.80273Z" fill="#2f2f2f"/>
        <path d="M467.13594,86.8959h-1.12109v-3.99219c0-1.48633-.54248-2.22852-1.62695-2.22852-.56055,0-1.02441.21094-1.39111.63184-.3667.42188-.55029.9541-.55029,1.59668v3.99219h-1.12109v-7h1.12109v1.16211h.02734c.52881-.88477,1.29443-1.32617,2.29688-1.32617.76562,0,1.35107.24707,1.75684.74121.40576.49512.6084,1.20898.6084,2.14355v4.2793Z" fill="#2f2f2f"/>
        <path d="M468.78389,86.64297v-1.20312c.61084.45117,1.28271.67676,2.0166.67676.98438,0,1.47656-.32812,1.47656-.98438,0-.1875-.04199-.3457-.12646-.47559s-.19824-.24512-.3418-.34473c-.14355-.10059-.31201-.19043-.50586-.27051-.19385-.0791-.40234-.16309-.62549-.24902-.31006-.12305-.58203-.24707-.81689-.37305-.23486-.125-.43066-.2666-.58789-.42383s-.27588-.33594-.35547-.53613c-.07959-.20117-.11963-.43555-.11963-.7041,0-.32812.0752-.61914.22559-.87207s.35107-.46484.60156-.63574.53662-.2998.85791-.38574c.32129-.08691.65283-.12988.99463-.12988.60596,0,1.14844.10449,1.62695.31445v1.13477c-.51514-.33789-1.10742-.50586-1.77734-.50586-.20947,0-.39893.02344-.56738.07129s-.31348.11523-.43408.20215c-.12061.08594-.21436.19043-.28027.31055-.06592.12109-.09912.25391-.09912.40039,0,.18164.0332.33496.09912.45801s.16309.23242.29053.32812.28271.18164.46484.25977c.18213.07715.38965.16113.62207.25293.31006.11816.58789.24023.83398.36523.24609.12598.45557.2666.62891.42383s.30664.33887.3999.54395.14014.44824.14014.73145c0,.3457-.07617.64648-.229.90234-.15283.25488-.35645.4668-.61182.63574-.25537.16797-.54932.29395-.88184.37598s-.68115.12305-1.0459.12305c-.72021,0-1.34424-.13965-1.87305-.41699Z" fill="#2f2f2f"/>
        <path d="M478.43721,86.82754c-.26416.14551-.61279.21875-1.0459.21875-1.22607,0-1.83887-.68359-1.83887-2.05078v-4.14258h-1.20312v-.95703h1.20312v-1.70898l1.12109-.3623v2.07129h1.76367v.95703h-1.76367v3.94434c0,.46875.07959.80371.23926,1.00488.15967.2002.42383.30078.79297.30078.28271,0,.52637-.07812.73145-.23242v.95703Z" fill="#2f2f2f"/>
        <path d="M485.05439,86.8959h-1.12109v-1.09375h-.02734c-.48779.83789-1.20557,1.25781-2.15332,1.25781-.69727,0-1.24316-.18457-1.63721-.55371s-.59131-.85938-.59131-1.46973c0-1.30859.77002-2.06934,2.31055-2.2832l2.09863-.29395c0-1.18945-.48096-1.78418-1.44238-1.78418-.84326,0-1.604.28711-2.2832.86133v-1.14844c.68799-.4375,1.48096-.65625,2.37891-.65625,1.64502,0,2.46777.87012,2.46777,2.61133v4.55273ZM483.9333,83.35488l-1.68848.23242c-.51953.07227-.91162.20117-1.17578.38574s-.39648.51172-.39648.98145c0,.3418.12207.62109.36572.83691.24365.2168.56836.3252.97412.3252.55615,0,1.01514-.19531,1.37744-.58496s.54346-.88281.54346-1.47949v-.69727Z" fill="#2f2f2f"/>
        <path d="M492.88643,86.8959h-1.12109v-3.99219c0-1.48633-.54248-2.22852-1.62695-2.22852-.56055,0-1.02441.21094-1.39111.63184-.3667.42188-.55029.9541-.55029,1.59668v3.99219h-1.12109v-7h1.12109v1.16211h.02734c.52881-.88477,1.29443-1.32617,2.29688-1.32617.76562,0,1.35107.24707,1.75684.74121.40576.49512.6084,1.20898.6084,2.14355v4.2793Z" fill="#2f2f2f"/>
        <path d="M499.73506,86.57461c-.5376.32324-1.17578.48535-1.91406.48535-.99805,0-1.80371-.3252-2.4165-.97461s-.91943-1.49121-.91943-2.52539c0-1.15332.33057-2.0791.99121-2.7793.66064-.69922,1.54248-1.04883,2.64551-1.04883.61523,0,1.15771.11328,1.62695.3418v1.14844c-.51953-.36523-1.07568-.54688-1.66797-.54688-.71533,0-1.30225.25586-1.76025.76855s-.68701,1.18652-.68701,2.02051c0,.82031.21533,1.4668.646,1.94141.43066.47363,1.0083.71094,1.73291.71094.61084,0,1.18506-.20312,1.72266-.6084v1.06641Z" fill="#2f2f2f"/>
        <path d="M506.90498,83.67617h-4.94238c.01807.7793.22803,1.38086.62891,1.80469s.95264.63574,1.6543.63574c.78857,0,1.51318-.25977,2.17383-.7793v1.05273c-.61523.44629-1.42871.66992-2.44043.66992-.98877,0-1.76611-.31836-2.33105-.9541s-.84766-1.53027-.84766-2.68262c0-1.08984.30859-1.97656.92627-2.66309.61768-.68555,1.38428-1.02832,2.30029-1.02832s1.62451.2959,2.12598.88867c.50146.5918.75195,1.41504.75195,2.46777v.58789ZM505.75654,82.72598c-.00439-.64746-.16064-1.15137-.46826-1.51074-.30762-.36035-.73486-.54004-1.28174-.54004-.52881,0-.97754.18848-1.34668.56738-.36914.37793-.59717.87207-.68359,1.4834h3.78027Z" fill="#2f2f2f"/>
      </g>
      <g>
        <path d="M383.77266,86.8959h-1.14844v-9.80273h1.14844v9.80273Z" fill="#2f2f2f"/>
        <path d="M391.84736,86.8959h-1.12109v-3.99219c0-1.48633-.54248-2.22852-1.62695-2.22852-.56055,0-1.02441.21094-1.39111.63184-.3667.42188-.55029.9541-.55029,1.59668v3.99219h-1.12109v-7h1.12109v1.16211h.02734c.52881-.88477,1.29443-1.32617,2.29688-1.32617.76562,0,1.35107.24707,1.75684.74121.40576.49512.6084,1.20898.6084,2.14355v4.2793Z" fill="#2f2f2f"/>
        <path d="M393.49531,86.64297v-1.20312c.61084.45117,1.28271.67676,2.0166.67676.98438,0,1.47656-.32812,1.47656-.98438,0-.1875-.04199-.3457-.12646-.47559s-.19824-.24512-.3418-.34473c-.14355-.10059-.31201-.19043-.50586-.27051-.19385-.0791-.40234-.16309-.62549-.24902-.31006-.12305-.58203-.24707-.81689-.37305-.23486-.125-.43066-.2666-.58789-.42383s-.27588-.33594-.35547-.53613c-.07959-.20117-.11963-.43555-.11963-.7041,0-.32812.0752-.61914.22559-.87207s.35107-.46484.60156-.63574.53662-.2998.85791-.38574c.32129-.08691.65283-.12988.99463-.12988.60596,0,1.14844.10449,1.62695.31445v1.13477c-.51514-.33789-1.10742-.50586-1.77734-.50586-.20947,0-.39893.02344-.56738.07129s-.31348.11523-.43408.20215c-.12061.08594-.21436.19043-.28027.31055-.06592.12109-.09912.25391-.09912.40039,0,.18164.0332.33496.09912.45801s.16309.23242.29053.32812.28271.18164.46484.25977c.18213.07715.38965.16113.62207.25293.31006.11816.58789.24023.83398.36523.24609.12598.45557.2666.62891.42383s.30664.33887.3999.54395.14014.44824.14014.73145c0,.3457-.07617.64648-.229.90234-.15283.25488-.35645.4668-.61182.63574-.25537.16797-.54932.29395-.88184.37598s-.68115.12305-1.0459.12305c-.72021,0-1.34424-.13965-1.87305-.41699Z" fill="#2f2f2f"/>
        <path d="M403.14863,86.82754c-.26416.14551-.61279.21875-1.0459.21875-1.22607,0-1.83887-.68359-1.83887-2.05078v-4.14258h-1.20312v-.95703h1.20312v-1.70898l1.12109-.3623v2.07129h1.76367v.95703h-1.76367v3.94434c0,.46875.07959.80371.23926,1.00488.15967.2002.42383.30078.79297.30078.28271,0,.52637-.07812.73145-.23242v.95703Z" fill="#2f2f2f"/>
        <path d="M409.76582,86.8959h-1.12109v-1.09375h-.02734c-.48779.83789-1.20557,1.25781-2.15332,1.25781-.69727,0-1.24316-.18457-1.63721-.55371s-.59131-.85938-.59131-1.46973c0-1.30859.77002-2.06934,2.31055-2.2832l2.09863-.29395c0-1.18945-.48096-1.78418-1.44238-1.78418-.84326,0-1.604.28711-2.2832.86133v-1.14844c.68799-.4375,1.48096-.65625,2.37891-.65625,1.64502,0,2.46777.87012,2.46777,2.61133v4.55273ZM408.64473,83.35488l-1.68848.23242c-.51953.07227-.91162.20117-1.17578.38574s-.39648.51172-.39648.98145c0,.3418.12207.62109.36572.83691.24365.2168.56836.3252.97412.3252.55615,0,1.01514-.19531,1.37744-.58496s.54346-.88281.54346-1.47949v-.69727Z" fill="#2f2f2f"/>
        <path d="M417.59785,86.8959h-1.12109v-3.99219c0-1.48633-.54248-2.22852-1.62695-2.22852-.56055,0-1.02441.21094-1.39111.63184-.3667.42188-.55029.9541-.55029,1.59668v3.99219h-1.12109v-7h1.12109v1.16211h.02734c.52881-.88477,1.29443-1.32617,2.29688-1.32617.76562,0,1.35107.24707,1.75684.74121.40576.49512.6084,1.20898.6084,2.14355v4.2793Z" fill="#2f2f2f"/>
        <path d="M424.44648,86.57461c-.5376.32324-1.17578.48535-1.91406.48535-.99805,0-1.80371-.3252-2.4165-.97461s-.91943-1.49121-.91943-2.52539c0-1.15332.33057-2.0791.99121-2.7793.66064-.69922,1.54248-1.04883,2.64551-1.04883.61523,0,1.15771.11328,1.62695.3418v1.14844c-.51953-.36523-1.07568-.54688-1.66797-.54688-.71533,0-1.30225.25586-1.76025.76855s-.68701,1.18652-.68701,2.02051c0,.82031.21533,1.4668.646,1.94141.43066.47363,1.0083.71094,1.73291.71094.61084,0,1.18506-.20312,1.72266-.6084v1.06641Z" fill="#2f2f2f"/>
        <path d="M431.61641,83.67617h-4.94238c.01807.7793.22803,1.38086.62891,1.80469s.95264.63574,1.6543.63574c.78857,0,1.51318-.25977,2.17383-.7793v1.05273c-.61523.44629-1.42871.66992-2.44043.66992-.98877,0-1.76611-.31836-2.33105-.9541s-.84766-1.53027-.84766-2.68262c0-1.08984.30859-1.97656.92627-2.66309.61768-.68555,1.38428-1.02832,2.30029-1.02832s1.62451.2959,2.12598.88867c.50146.5918.75195,1.41504.75195,2.46777v.58789ZM430.46797,82.72598c-.00439-.64746-.16064-1.15137-.46826-1.51074-.30762-.36035-.73486-.54004-1.28174-.54004-.52881,0-.97754.18848-1.34668.56738-.36914.37793-.59717.87207-.68359,1.4834h3.78027Z" fill="#2f2f2f"/>
      </g>
      <g>
        <path d="M29.82832,127.22402v-2.1875c.39648.33301.82715.58203,1.29199.74902.46484.16602.93408.24902,1.4082.24902.27783,0,.52051-.02441.72803-.0752.20752-.0498.38037-.11914.51953-.20801s.24268-.19434.31104-.31445c.06836-.12109.10254-.25195.10254-.39355,0-.19141-.05469-.3623-.16406-.5127s-.25879-.28906-.44775-.41699c-.18896-.12695-.41357-.25-.67334-.36914-.25977-.11816-.54004-.23926-.84082-.3623-.76562-.31836-1.33643-.70801-1.7124-1.16895-.37598-.45996-.56396-1.01562-.56396-1.66797,0-.50977.10254-.94922.30762-1.31543.20508-.36719.48438-.66895.8374-.90625.35303-.23633.76221-.41113,1.22705-.52246.46484-.1123.95703-.16797,1.47656-.16797.51025,0,.96289.03125,1.35693.09277s.75781.15625,1.09033.2832v2.04395c-.16406-.11328-.34277-.21387-.53662-.30078-.19385-.08594-.39307-.1582-.59814-.21484-.20508-.05762-.40918-.09961-.61182-.12695s-.39551-.04102-.57764-.04102c-.25049,0-.47852.02441-.68359.07227s-.37842.11523-.51953.20117c-.14111.08691-.25049.19043-.32812.31152-.07764.12012-.11621.25586-.11621.40625,0,.16406.04346.31152.12988.44141s.20947.25293.36914.36914.35303.22949.58105.3418c.22803.11133.48535.22656.77246.34473.39209.16406.74414.33887,1.05615.52344s.58008.39258.80322.625.39404.49805.5127.79688c.11865.29785.17773.64551.17773,1.04199,0,.54688-.10352,1.00586-.31104,1.37793-.20752.37109-.48877.67188-.84424.90234-.35547.22949-.76904.39551-1.24072.49512-.47168.10059-.96973.15039-1.49365.15039-.5376,0-1.04932-.04492-1.53467-.13672-.48535-.09082-.90576-.22754-1.26123-.41016Z" fill="#2f2f2f"/>
        <path d="M43.21992,127.34707c-.48779.2832-1.19189.42383-2.1123.42383-1.07568,0-1.9458-.3252-2.61133-.97754-.66553-.65137-.99805-1.49219-.99805-2.52246,0-1.18945.35645-2.12695,1.06982-2.8125.71338-.68652,1.66699-1.0293,2.86084-1.0293.82471,0,1.42188.10938,1.79102.32812v1.83203c-.45117-.33691-.95459-.50586-1.51074-.50586-.61963,0-1.11084.18164-1.47314.54395s-.54346.8623-.54346,1.5c0,.62012.17334,1.10645.51953,1.45996.34619.35254.82275.5293,1.42871.5293.5376,0,1.06396-.16797,1.5791-.50586v1.73633Z" fill="#2f2f2f"/>
        <path d="M50.55586,127.6h-2.04395v-1.00488h-.02734c-.46924.78418-1.16455,1.17578-2.08496,1.17578-.6792,0-1.21338-.19238-1.60303-.57715-.38965-.38574-.58447-.89941-.58447-1.54199,0-1.35742.8042-2.1416,2.41309-2.35156l1.90039-.25293c0-.76562-.41455-1.14844-1.24414-1.14844-.83398,0-1.62695.24902-2.37891.74512v-1.62695c.30078-.1543.71191-.29102,1.23389-.41016.52197-.11816.99707-.17773,1.42529-.17773,1.99609,0,2.99414.99609,2.99414,2.9873v4.18359ZM48.52559,124.75625v-.47168l-1.27148.16406c-.70166.0918-1.05273.4082-1.05273.9502,0,.24609.08545.44824.25635.60547s.40234.23535.69385.23535c.40576,0,.73584-.13965.99121-.41992s.38281-.63477.38281-1.06348Z" fill="#2f2f2f"/>
        <path d="M54.41377,127.6h-2.16016v-10.36328h2.16016v10.36328Z" fill="#2f2f2f"/>
        <path d="M62.52949,124.71523h-4.56641c.07275,1.0166.71338,1.52441,1.9209,1.52441.77002,0,1.44678-.18164,2.03027-.54688v1.55859c-.64697.34668-1.48779.51953-2.52246.51953-1.13037,0-2.00732-.31348-2.63184-.93945-.62451-.62695-.93652-1.50098-.93652-2.62207,0-1.16211.3374-2.08203,1.01172-2.76172.67432-.67871,1.50391-1.01855,2.48828-1.01855,1.021,0,1.81055.30371,2.36865.90918.55811.60645.8374,1.42871.8374,2.46777v.90918ZM60.52656,123.38906c0-1.00195-.40576-1.50391-1.2168-1.50391-.34619,0-.646.14355-.89893.43066s-.40674.64551-.46143,1.07324h2.57715Z" fill="#2f2f2f"/>
        <path d="M67.21895,127.41543v-1.75c.35547.21484.70996.37402,1.06299.47852.35303.10547.68701.15723,1.00146.15723.38281,0,.68457-.05176.90576-.15723.22119-.10449.33154-.26367.33154-.47852,0-.13672-.05029-.25-.15039-.3418-.1001-.09082-.229-.1709-.38623-.23926s-.3291-.12988-.51611-.18457-.3667-.11621-.54004-.18457c-.27783-.10449-.52295-.21777-.73486-.33789-.21191-.12109-.38965-.26074-.5332-.4209-.14355-.15918-.25293-.34375-.32812-.55371-.0752-.20898-.11279-.45801-.11279-.74512,0-.3916.08545-.72852.25635-1.01172.1709-.28223.39893-.51367.68359-.69336.28467-.18066.61084-.3125.97754-.39648.3667-.08496.74854-.12695,1.14502-.12695.31006,0,.62451.02441.94336.07227s.6333.11719.94336.20801v1.66797c-.27344-.15918-.56641-.2793-.87842-.3584-.31201-.08008-.61865-.12012-.91943-.12012-.14111,0-.27441.0127-.3999.03809-.12549.02441-.23584.06152-.33154.10938s-.1709.10938-.22559.18457-.08203.16016-.08203.25586c0,.12793.04102.2373.12305.32812.08203.0918.18896.16992.32129.23633.13232.06543.2793.125.44092.17773.16162.05176.32227.10547.48193.16016.28711.10059.54688.20996.7793.32812.23242.11914.43164.25781.59814.41699.1665.16016.29395.34668.38281.56055.08887.21484.1333.46973.1333.76562,0,.41504-.08984.76953-.27002,1.06348s-.41943.5332-.71777.71777-.64258.31836-1.03223.40332c-.38965.08398-.79395.12598-1.21338.12598-.77002,0-1.4834-.11816-2.13965-.35547Z" fill="#2f2f2f"/>
        <path d="M80.16865,124.71523h-4.56641c.07275,1.0166.71338,1.52441,1.9209,1.52441.77002,0,1.44678-.18164,2.03027-.54688v1.55859c-.64697.34668-1.48779.51953-2.52246.51953-1.13037,0-2.00732-.31348-2.63184-.93945-.62451-.62695-.93652-1.50098-.93652-2.62207,0-1.16211.3374-2.08203,1.01172-2.76172.67432-.67871,1.50391-1.01855,2.48828-1.01855,1.021,0,1.81055.30371,2.36865.90918.55811.60645.8374,1.42871.8374,2.46777v.90918ZM78.16572,123.38906c0-1.00195-.40576-1.50391-1.2168-1.50391-.34619,0-.646.14355-.89893.43066s-.40674.64551-.46143,1.07324h2.57715Z" fill="#2f2f2f"/>
        <path d="M85.73408,127.51797c-.31885.16895-.7998.25293-1.44238.25293-1.52197,0-2.2832-.79004-2.2832-2.37207v-3.20605h-1.13477v-1.59277h1.13477v-1.51074l2.15332-.61523v2.12598h1.57227v1.59277h-1.57227v2.83008c0,.72949.28955,1.09375.86816,1.09375.22803,0,.4624-.06543.7041-.19824v1.59961Z" fill="#2f2f2f"/>
      </g>
      <g>
        <path d="M692.25654,86.8959h-1.14844v-9.80273h1.14844v9.80273Z" fill="#2f2f2f"/>
        <path d="M700.33125,86.8959h-1.12109v-3.99219c0-1.48535-.54248-2.22852-1.62695-2.22852-.56055,0-1.02441.21094-1.39111.63281-.3667.4209-.55029.95312-.55029,1.5957v3.99219h-1.12109v-7h1.12109v1.16211h.02734c.52881-.88379,1.29443-1.32617,2.29688-1.32617.76562,0,1.35107.24707,1.75684.74219.40576.49414.6084,1.20898.6084,2.14258v4.2793Z" fill="#2f2f2f"/>
        <path d="M701.9792,86.64297v-1.20312c.61084.45117,1.28271.67676,2.0166.67676.98438,0,1.47656-.32812,1.47656-.98438,0-.18652-.04199-.34473-.12646-.47461s-.19824-.24512-.3418-.3457c-.14355-.09961-.31201-.19043-.50586-.26953-.19385-.08008-.40234-.16309-.62549-.25-.31006-.12305-.58203-.24707-.81689-.37207-.23486-.12598-.43066-.2666-.58789-.42383s-.27588-.33594-.35547-.53711c-.07959-.2002-.11963-.43457-.11963-.7041,0-.32812.0752-.61816.22559-.87109s.35107-.46484.60156-.63574.53662-.2998.85791-.38672c.32129-.08594.65283-.12988.99463-.12988.60596,0,1.14844.10547,1.62695.31445v1.13477c-.51514-.33691-1.10742-.50586-1.77734-.50586-.20947,0-.39893.02441-.56738.07227s-.31348.11523-.43408.20117c-.12061.08691-.21436.19043-.28027.31152-.06592.12012-.09912.25391-.09912.39941,0,.18262.0332.33496.09912.45801s.16309.23242.29053.32812.28271.18262.46484.25977c.18213.07812.38965.16211.62207.25293.31006.11914.58789.24023.83398.36621.24609.125.45557.2666.62891.42383s.30664.33789.3999.54297.14014.44922.14014.73145c0,.34668-.07617.64746-.229.90234-.15283.25586-.35645.46777-.61182.63574-.25537.16895-.54932.29395-.88184.37598s-.68115.12305-1.0459.12305c-.72021,0-1.34424-.13867-1.87305-.41699Z" fill="#2f2f2f"/>
        <path d="M711.63252,86.82754c-.26416.14648-.61279.21875-1.0459.21875-1.22607,0-1.83887-.68359-1.83887-2.05078v-4.14258h-1.20312v-.95703h1.20312v-1.70898l1.12109-.3623v2.07129h1.76367v.95703h-1.76367v3.94434c0,.46973.07959.80469.23926,1.00488.15967.20117.42383.30078.79297.30078.28271,0,.52637-.07715.73145-.23242v.95703Z" fill="#2f2f2f"/>
        <path d="M718.24971,86.8959h-1.12109v-1.09375h-.02734c-.48779.83887-1.20557,1.25781-2.15332,1.25781-.69727,0-1.24316-.18457-1.63721-.55371s-.59131-.8584-.59131-1.46973c0-1.30762.77002-2.06836,2.31055-2.2832l2.09863-.29395c0-1.18945-.48096-1.78418-1.44238-1.78418-.84326,0-1.604.28711-2.2832.86133v-1.14844c.68799-.4375,1.48096-.65625,2.37891-.65625,1.64502,0,2.46777.87109,2.46777,2.61133v4.55273ZM717.12861,83.35488l-1.68848.23242c-.51953.07324-.91162.20215-1.17578.38672s-.39648.51172-.39648.98047c0,.3418.12207.62109.36572.83789.24365.21582.56836.32422.97412.32422.55615,0,1.01514-.19434,1.37744-.58398s.54346-.88281.54346-1.48047v-.69727Z" fill="#2f2f2f"/>
        <path d="M726.08174,86.8959h-1.12109v-3.99219c0-1.48535-.54248-2.22852-1.62695-2.22852-.56055,0-1.02441.21094-1.39111.63281-.3667.4209-.55029.95312-.55029,1.5957v3.99219h-1.12109v-7h1.12109v1.16211h.02734c.52881-.88379,1.29443-1.32617,2.29688-1.32617.76562,0,1.35107.24707,1.75684.74219.40576.49414.6084,1.20898.6084,2.14258v4.2793Z" fill="#2f2f2f"/>
        <path d="M732.93037,86.57461c-.5376.32422-1.17578.48535-1.91406.48535-.99805,0-1.80371-.32422-2.4165-.97363s-.91943-1.49121-.91943-2.52637c0-1.15234.33057-2.0791.99121-2.77832.66064-.7002,1.54248-1.0498,2.64551-1.0498.61523,0,1.15771.11426,1.62695.3418v1.14844c-.51953-.36426-1.07568-.54688-1.66797-.54688-.71533,0-1.30225.25684-1.76025.76953s-.68701,1.18555-.68701,2.01953c0,.82031.21533,1.46777.646,1.94141.43066.47461,1.0083.71094,1.73291.71094.61084,0,1.18506-.20215,1.72266-.6084v1.06641Z" fill="#2f2f2f"/>
        <path d="M740.10029,83.67617h-4.94238c.01807.7793.22803,1.38086.62891,1.80469s.95264.63574,1.6543.63574c.78857,0,1.51318-.25977,2.17383-.7793v1.05273c-.61523.44727-1.42871.66992-2.44043.66992-.98877,0-1.76611-.31738-2.33105-.95312s-.84766-1.53027-.84766-2.68359c0-1.08887.30859-1.97656.92627-2.66211.61768-.68652,1.38428-1.0293,2.30029-1.0293s1.62451.29688,2.12598.88867c.50146.59277.75195,1.41504.75195,2.46777v.58789ZM738.95186,82.72598c-.00439-.64648-.16064-1.15039-.46826-1.51074-.30762-.35938-.73486-.54004-1.28174-.54004-.52881,0-.97754.18945-1.34668.56738-.36914.37891-.59717.87305-.68359,1.4834h3.78027Z" fill="#2f2f2f"/>
      </g>
      <g>
        <path d="M616.96797,86.8959h-1.14844v-9.80273h1.14844v9.80273Z" fill="#2f2f2f"/>
        <path d="M625.04268,86.8959h-1.12109v-3.99219c0-1.48535-.54248-2.22852-1.62695-2.22852-.56055,0-1.02441.21094-1.39111.63281-.3667.4209-.55029.95312-.55029,1.5957v3.99219h-1.12109v-7h1.12109v1.16211h.02734c.52881-.88379,1.29443-1.32617,2.29688-1.32617.76562,0,1.35107.24707,1.75684.74219.40576.49414.6084,1.20898.6084,2.14258v4.2793Z" fill="#2f2f2f"/>
        <path d="M626.69063,86.64297v-1.20312c.61084.45117,1.28271.67676,2.0166.67676.98438,0,1.47656-.32812,1.47656-.98438,0-.18652-.04199-.34473-.12646-.47461s-.19824-.24512-.3418-.3457c-.14355-.09961-.31201-.19043-.50586-.26953-.19385-.08008-.40234-.16309-.62549-.25-.31006-.12305-.58203-.24707-.81689-.37207-.23486-.12598-.43066-.2666-.58789-.42383s-.27588-.33594-.35547-.53711c-.07959-.2002-.11963-.43457-.11963-.7041,0-.32812.0752-.61816.22559-.87109s.35107-.46484.60156-.63574.53662-.2998.85791-.38672c.32129-.08594.65283-.12988.99463-.12988.60596,0,1.14844.10547,1.62695.31445v1.13477c-.51514-.33691-1.10742-.50586-1.77734-.50586-.20947,0-.39893.02441-.56738.07227s-.31348.11523-.43408.20117c-.12061.08691-.21436.19043-.28027.31152-.06592.12012-.09912.25391-.09912.39941,0,.18262.0332.33496.09912.45801s.16309.23242.29053.32812.28271.18262.46484.25977c.18213.07812.38965.16211.62207.25293.31006.11914.58789.24023.83398.36621.24609.125.45557.2666.62891.42383s.30664.33789.3999.54297.14014.44922.14014.73145c0,.34668-.07617.64746-.229.90234-.15283.25586-.35645.46777-.61182.63574-.25537.16895-.54932.29395-.88184.37598s-.68115.12305-1.0459.12305c-.72021,0-1.34424-.13867-1.87305-.41699Z" fill="#2f2f2f"/>
        <path d="M636.34395,86.82754c-.26416.14648-.61279.21875-1.0459.21875-1.22607,0-1.83887-.68359-1.83887-2.05078v-4.14258h-1.20312v-.95703h1.20312v-1.70898l1.12109-.3623v2.07129h1.76367v.95703h-1.76367v3.94434c0,.46973.07959.80469.23926,1.00488.15967.20117.42383.30078.79297.30078.28271,0,.52637-.07715.73145-.23242v.95703Z" fill="#2f2f2f"/>
        <path d="M642.96113,86.8959h-1.12109v-1.09375h-.02734c-.48779.83887-1.20557,1.25781-2.15332,1.25781-.69727,0-1.24316-.18457-1.63721-.55371s-.59131-.8584-.59131-1.46973c0-1.30762.77002-2.06836,2.31055-2.2832l2.09863-.29395c0-1.18945-.48096-1.78418-1.44238-1.78418-.84326,0-1.604.28711-2.2832.86133v-1.14844c.68799-.4375,1.48096-.65625,2.37891-.65625,1.64502,0,2.46777.87109,2.46777,2.61133v4.55273ZM641.84004,83.35488l-1.68848.23242c-.51953.07324-.91162.20215-1.17578.38672s-.39648.51172-.39648.98047c0,.3418.12207.62109.36572.83789.24365.21582.56836.32422.97412.32422.55615,0,1.01514-.19434,1.37744-.58398s.54346-.88281.54346-1.48047v-.69727Z" fill="#2f2f2f"/>
        <path d="M650.79316,86.8959h-1.12109v-3.99219c0-1.48535-.54248-2.22852-1.62695-2.22852-.56055,0-1.02441.21094-1.39111.63281-.3667.4209-.55029.95312-.55029,1.5957v3.99219h-1.12109v-7h1.12109v1.16211h.02734c.52881-.88379,1.29443-1.32617,2.29688-1.32617.76562,0,1.35107.24707,1.75684.74219.40576.49414.6084,1.20898.6084,2.14258v4.2793Z" fill="#2f2f2f"/>
        <path d="M657.6418,86.57461c-.5376.32422-1.17578.48535-1.91406.48535-.99805,0-1.80371-.32422-2.4165-.97363s-.91943-1.49121-.91943-2.52637c0-1.15234.33057-2.0791.99121-2.77832.66064-.7002,1.54248-1.0498,2.64551-1.0498.61523,0,1.15771.11426,1.62695.3418v1.14844c-.51953-.36426-1.07568-.54688-1.66797-.54688-.71533,0-1.30225.25684-1.76025.76953s-.68701,1.18555-.68701,2.01953c0,.82031.21533,1.46777.646,1.94141.43066.47461,1.0083.71094,1.73291.71094.61084,0,1.18506-.20215,1.72266-.6084v1.06641Z" fill="#2f2f2f"/>
        <path d="M664.81172,83.67617h-4.94238c.01807.7793.22803,1.38086.62891,1.80469s.95264.63574,1.6543.63574c.78857,0,1.51318-.25977,2.17383-.7793v1.05273c-.61523.44727-1.42871.66992-2.44043.66992-.98877,0-1.76611-.31738-2.33105-.95312s-.84766-1.53027-.84766-2.68359c0-1.08887.30859-1.97656.92627-2.66211.61768-.68652,1.38428-1.0293,2.30029-1.0293s1.62451.29688,2.12598.88867c.50146.59277.75195,1.41504.75195,2.46777v.58789ZM663.66328,82.72598c-.00439-.64648-.16064-1.15039-.46826-1.51074-.30762-.35938-.73486-.54004-1.28174-.54004-.52881,0-.97754.18945-1.34668.56738-.36914.37891-.59717.87305-.68359,1.4834h3.78027Z" fill="#2f2f2f"/>
      </g>
    </g>
  </g>
</svg>