<?xml version="1.0" encoding="UTF-8"?>
<svg xmlns="http://www.w3.org/2000/svg" width="800.8" height="307.98136" xmlns:xlink="http://www.w3.org/1999/xlink" viewBox="0 0 800.8 307.98136">
  <defs>
    <linearGradient id="Cool_gray_gradient_1" data-name="Cool gray gradient 1" x1="114.4" y1="230.98136" x2="792" y2="230.98136" gradientUnits="userSpaceOnUse">
      <stop offset="0" stop-color="#f5f5f4"/>
      <stop offset="1" stop-color="#ececea"/>
    </linearGradient>
    <linearGradient id="Cool_gray_gradient_1-2" data-name="Cool gray gradient 1" x1="572" y1="83.1274" y2="83.1274" xlink:href="#Cool_gray_gradient_1"/>
    <linearGradient id="Cool_gray_gradient_1-3" data-name="Cool gray gradient 1" x1="343.2" y1="83.1274" x2="563.2" y2="83.1274" xlink:href="#Cool_gray_gradient_1"/>
    <linearGradient id="Cool_gray_gradient_1-4" data-name="Cool gray gradient 1" y1="83.1274" x2="334.4" y2="83.1274" xlink:href="#Cool_gray_gradient_1"/>
    <linearGradient id="linear-gradient" x1="-99.85782" y1="1073.3648" x2="-99.85782" y2="1093.56925" gradientTransform="translate(564 1300.76271) scale(1 -1)" gradientUnits="userSpaceOnUse">
      <stop offset="0" stop-color="#0078d4"/>
      <stop offset=".82" stop-color="#5ea0ef"/>
    </linearGradient>
    <linearGradient id="linear-gradient-2" x1="-99.85782" y1="1065.56925" x2="-99.85782" y2="1073.3648" gradientTransform="translate(564 1300.76271) scale(1 -1)" gradientUnits="userSpaceOnUse">
      <stop offset=".15" stop-color="#ccc"/>
      <stop offset="1" stop-color="#707070"/>
    </linearGradient>
    <linearGradient id="linear-gradient-3" x1="-24.56941" x2="-24.56941" xlink:href="#linear-gradient"/>
    <linearGradient id="linear-gradient-4" x1="-24.56941" x2="-24.56941" xlink:href="#linear-gradient-2"/>
    <linearGradient id="linear-gradient-5" x1="50.83453" x2="50.83453" xlink:href="#linear-gradient"/>
    <linearGradient id="linear-gradient-6" x1="50.83453" x2="50.83453" xlink:href="#linear-gradient-2"/>
    <linearGradient id="linear-gradient-7" x1="-175.14607" x2="-175.14607" xlink:href="#linear-gradient"/>
    <linearGradient id="linear-gradient-8" x1="-175.14607" x2="-175.14607" xlink:href="#linear-gradient-2"/>
    <linearGradient id="linear-gradient-9" x1="-250.43453" x2="-250.43453" xlink:href="#linear-gradient"/>
    <linearGradient id="linear-gradient-10" x1="-250.43452" x2="-250.43452" xlink:href="#linear-gradient-2"/>
    <linearGradient id="linear-gradient-11" x1="-301.95334" y1="1172.17691" x2="-301.95334" y2="1192.38136" xlink:href="#linear-gradient"/>
    <linearGradient id="linear-gradient-12" x1="-301.95334" y1="1164.38136" x2="-301.95334" y2="1172.17691" xlink:href="#linear-gradient-2"/>
    <linearGradient id="linear-gradient-13" x1="-377.24179" y1="1172.17691" x2="-377.24179" y2="1192.38136" xlink:href="#linear-gradient"/>
    <linearGradient id="linear-gradient-14" x1="-377.24179" y1="1164.38136" x2="-377.24179" y2="1172.17691" xlink:href="#linear-gradient-2"/>
    <linearGradient id="linear-gradient-15" x1="-77.55334" y1="1172.17691" x2="-77.55334" y2="1192.38136" xlink:href="#linear-gradient"/>
    <linearGradient id="linear-gradient-16" x1="-77.55334" y1="1164.38136" x2="-77.55334" y2="1172.17691" xlink:href="#linear-gradient-2"/>
    <linearGradient id="linear-gradient-17" x1="-152.84179" y1="1172.17691" x2="-152.84179" y2="1192.38136" xlink:href="#linear-gradient"/>
    <linearGradient id="linear-gradient-18" x1="-152.84179" y1="1164.38136" x2="-152.84179" y2="1172.17691" xlink:href="#linear-gradient-2"/>
    <linearGradient id="linear-gradient-19" x1="117.99987" y1="1172.17691" x2="117.99987" y2="1192.38136" xlink:href="#linear-gradient"/>
    <linearGradient id="linear-gradient-20" x1="117.99987" y1="1164.38136" x2="117.99987" y2="1172.17691" xlink:href="#linear-gradient-2"/>
    <linearGradient id="linear-gradient-21" x1="-495.92056" y1="1143.38724" x2="-495.92056" y2="1155.31665" xlink:href="#linear-gradient"/>
    <linearGradient id="linear-gradient-22" x1="-495.87644" y1="1138.78136" x2="-495.87644" y2="1143.38724" xlink:href="#linear-gradient-2"/>
  </defs>
  <g isolation="isolate">
    <g id="Shapes">
      <rect width="800.8" height="307.98136" fill="#fff"/>
      <g>
        <rect x="114.4" y="162.78136" width="677.6" height="136.4" rx="8" ry="8" fill="url(#Cool_gray_gradient_1)"/>
        <rect x="114.4" y="162.78136" width="677.6" height="136.4" rx="8" ry="8" fill="#8ec8e7" opacity=".18"/>
        <rect x="114.40001" y="162.78136" width="677.59998" height="136.4" rx="8" ry="8" fill="none" stroke="#0089cf" stroke-dasharray="14.9925 3.998" stroke-miterlimit="10" stroke-width=".75"/>
      </g>
      <g>
        <g mix-blend-mode="multiply" opacity=".8">
          <rect x="572.5" y="12.77345" width="220" height="141.70791" rx="8" ry="8" fill="#2b436f"/>
          <rect x="572.5" y="12.77345" width="220" height="141.70791" rx="8" ry="8" fill="#2b436f" opacity=".4"/>
        </g>
        <g>
          <rect x="572" y="12.27345" width="220" height="141.70791" rx="8" ry="8" fill="url(#Cool_gray_gradient_1-2)"/>
          <rect x="572" y="12.27345" width="220" height="141.70791" rx="8" ry="8" fill="#8ec8e7" opacity=".4"/>
        </g>
      </g>
      <g>
        <g mix-blend-mode="multiply" opacity=".8">
          <rect x="343.7" y="12.77345" width="220" height="141.70791" rx="8" ry="8" fill="#2b436f"/>
          <rect x="343.7" y="12.77345" width="220" height="141.70791" rx="8" ry="8" fill="#2b436f" opacity=".4"/>
        </g>
        <g>
          <rect x="343.2" y="12.27345" width="220" height="141.70791" rx="8" ry="8" fill="url(#Cool_gray_gradient_1-3)"/>
          <rect x="343.2" y="12.27345" width="220" height="141.70791" rx="8" ry="8" fill="#8ec8e7" opacity=".4"/>
        </g>
      </g>
      <g>
        <g mix-blend-mode="multiply" opacity=".8">
          <rect x="114.9" y="12.77345" width="220" height="141.70791" rx="8" ry="8" fill="#2b436f"/>
          <rect x="114.9" y="12.77345" width="220" height="141.70791" rx="8" ry="8" fill="#2b436f" opacity=".4"/>
        </g>
        <g>
          <rect x="114.4" y="12.27345" width="220" height="141.70791" rx="8" ry="8" fill="url(#Cool_gray_gradient_1-4)"/>
          <rect x="114.4" y="12.27345" width="220" height="141.70791" rx="8" ry="8" fill="#8ec8e7" opacity=".4"/>
        </g>
      </g>
      <g>
        <rect x="10.70016" y="61.58136" width="781.29984" height="193.6" fill="#f5f3f2" opacity=".7"/>
        <rect x="10.70016" y="61.58136" width="781.29984" height="193.6" fill="none" stroke="#626363" stroke-width=".25"/>
      </g>
      <g>
        <rect x="448.98885" y="207.19347" width="30.30667" height="20.20445" rx="1.01022" ry="1.01022" fill="url(#linear-gradient)"/>
        <polygon points="469.1933 214.34921 469.1933 220.22534 464.14218 223.18866 464.14218 217.29569 469.1933 214.34921" fill="#50e6ff"/>
        <polygon points="469.1933 214.34921 464.14218 217.31253 459.09107 214.34921 464.14218 211.40273 469.1933 214.34921" fill="#c3f1ff"/>
        <polygon points="464.14218 217.31253 464.14218 223.18866 459.09107 220.22534 459.09107 214.34921 464.14218 217.31253" fill="#9cebff"/>
        <polygon points="459.09107 220.22534 464.14218 217.29569 464.14218 223.18866 459.09107 220.22534" fill="#c3f1ff"/>
        <polygon points="469.1933 220.22534 464.14218 217.29569 464.14218 223.18866 469.1933 220.22534" fill="#9cebff"/>
        <path d="M470.22036,233.50976c-2.99699-.47144-3.11485-2.62658-3.11485-6.11185h-5.94347c0,3.48527-.10102,5.64041-3.09802,6.11185-.8569.09482-1.50373.82159-1.4985,1.6837h15.15334c.00523-.86211-.6416-1.58889-1.4985-1.6837Z" fill="url(#linear-gradient-2)"/>
      </g>
      <g>
        <rect x="524.27726" y="207.19347" width="30.30667" height="20.20445" rx="1.01022" ry="1.01022" fill="url(#linear-gradient-3)"/>
        <polygon points="544.48171 214.34921 544.48171 220.22534 539.43059 223.18866 539.43059 217.29569 544.48171 214.34921" fill="#50e6ff"/>
        <polygon points="544.48171 214.34921 539.43059 217.31253 534.37948 214.34921 539.43059 211.40273 544.48171 214.34921" fill="#c3f1ff"/>
        <polygon points="539.43059 217.31253 539.43059 223.18866 534.37948 220.22534 534.37948 214.34921 539.43059 217.31253" fill="#9cebff"/>
        <polygon points="534.37948 220.22534 539.43059 217.29569 539.43059 223.18866 534.37948 220.22534" fill="#c3f1ff"/>
        <polygon points="544.48171 220.22534 539.43059 217.29569 539.43059 223.18866 544.48171 220.22534" fill="#9cebff"/>
        <path d="M545.50877,233.50976c-2.99699-.47144-3.11485-2.62658-3.11485-6.11185h-5.94347c0,3.48527-.10102,5.64041-3.09802,6.11185-.8569.09482-1.50373.82159-1.4985,1.6837h15.15334c.00523-.86211-.6416-1.58889-1.4985-1.6837Z" fill="url(#linear-gradient-4)"/>
      </g>
      <g>
        <rect x="599.68119" y="207.19347" width="30.30667" height="20.20445" rx="1.01022" ry="1.01022" fill="url(#linear-gradient-5)"/>
        <polygon points="619.88564 214.34921 619.88564 220.22534 614.83453 223.18866 614.83453 217.29569 619.88564 214.34921" fill="#50e6ff"/>
        <polygon points="619.88564 214.34921 614.83453 217.31253 609.78341 214.34921 614.83453 211.40273 619.88564 214.34921" fill="#c3f1ff"/>
        <polygon points="614.83453 217.31253 614.83453 223.18866 609.78341 220.22534 609.78341 214.34921 614.83453 217.31253" fill="#9cebff"/>
        <polygon points="609.78341 220.22534 614.83453 217.29569 614.83453 223.18866 609.78341 220.22534" fill="#c3f1ff"/>
        <polygon points="619.88564 220.22534 614.83453 217.29569 614.83453 223.18866 619.88564 220.22534" fill="#9cebff"/>
        <path d="M620.9127,233.50976c-2.99699-.47144-3.11485-2.62658-3.11485-6.11185h-5.94347c0,3.48527-.10102,5.64041-3.09802,6.11185-.8569.09482-1.50373.82159-1.4985,1.6837h15.15334c.00523-.86211-.6416-1.58889-1.4985-1.6837Z" fill="url(#linear-gradient-6)"/>
      </g>
      <g>
        <rect x="373.70059" y="207.19347" width="30.30667" height="20.20445" rx="1.01022" ry="1.01022" fill="url(#linear-gradient-7)"/>
        <polygon points="393.90504 214.34921 393.90504 220.22534 388.85393 223.18866 388.85393 217.29569 393.90504 214.34921" fill="#50e6ff"/>
        <polygon points="393.90504 214.34921 388.85393 217.31253 383.80282 214.34921 388.85393 211.40273 393.90504 214.34921" fill="#c3f1ff"/>
        <polygon points="388.85393 217.31253 388.85393 223.18866 383.80282 220.22534 383.80282 214.34921 388.85393 217.31253" fill="#9cebff"/>
        <polygon points="383.80282 220.22534 388.85393 217.29569 388.85393 223.18866 383.80282 220.22534" fill="#c3f1ff"/>
        <polygon points="393.90504 220.22534 388.85393 217.29569 388.85393 223.18866 393.90504 220.22534" fill="#9cebff"/>
        <path d="M394.9321,233.50976c-2.99699-.47144-3.11485-2.62658-3.11485-6.11185h-5.94347c0,3.48527-.10102,5.64041-3.09802,6.11185-.8569.09482-1.50373.82159-1.4985,1.6837h15.15334c.00523-.86211-.6416-1.58889-1.4985-1.6837Z" fill="url(#linear-gradient-8)"/>
      </g>
      <g>
        <rect x="298.41214" y="207.19347" width="30.30667" height="20.20445" rx="1.01022" ry="1.01022" fill="url(#linear-gradient-9)"/>
        <polygon points="318.61659 214.34921 318.61659 220.22534 313.56548 223.18866 313.56548 217.29569 318.61659 214.34921" fill="#50e6ff"/>
        <polygon points="318.61659 214.34921 313.56548 217.31253 308.51436 214.34921 313.56548 211.40273 318.61659 214.34921" fill="#c3f1ff"/>
        <polygon points="313.56548 217.31253 313.56548 223.18866 308.51436 220.22534 308.51436 214.34921 313.56548 217.31253" fill="#9cebff"/>
        <polygon points="308.51436 220.22534 313.56548 217.29569 313.56548 223.18866 308.51436 220.22534" fill="#c3f1ff"/>
        <polygon points="318.61659 220.22534 313.56548 217.29569 313.56548 223.18866 318.61659 220.22534" fill="#9cebff"/>
        <path d="M319.64365,233.50976c-2.99699-.47144-3.11485-2.62658-3.11485-6.11185h-5.94347c0,3.48527-.10102,5.64041-3.09802,6.11185-.8569.09482-1.50373.82159-1.4985,1.6837h15.15334c.00523-.86211-.6416-1.58889-1.4985-1.6837Z" fill="url(#linear-gradient-10)"/>
      </g>
      <g>
        <rect x="246.89333" y="108.38136" width="30.30667" height="20.20445" rx="1.01022" ry="1.01022" fill="url(#linear-gradient-11)"/>
        <polygon points="267.09778 115.5371 267.09778 121.41323 262.04666 124.37655 262.04666 118.48358 267.09778 115.5371" fill="#50e6ff"/>
        <polygon points="267.09778 115.5371 262.04666 118.50042 256.99555 115.5371 262.04666 112.59062 267.09778 115.5371" fill="#c3f1ff"/>
        <polygon points="262.04666 118.50042 262.04666 124.37655 256.99555 121.41323 256.99555 115.5371 262.04666 118.50042" fill="#9cebff"/>
        <polygon points="256.99555 121.41323 262.04666 118.48358 262.04666 124.37655 256.99555 121.41323" fill="#c3f1ff"/>
        <polygon points="267.09778 121.41323 262.04666 118.48358 262.04666 124.37655 267.09778 121.41323" fill="#9cebff"/>
        <path d="M268.12484,134.69765c-2.99699-.47144-3.11485-2.62658-3.11485-6.11185h-5.94347c0,3.48527-.10102,5.64041-3.09802,6.11185-.8569.09482-1.50373.82159-1.4985,1.6837h15.15334c.00523-.86211-.6416-1.58889-1.4985-1.6837Z" fill="url(#linear-gradient-12)"/>
      </g>
      <g>
        <rect x="171.60487" y="108.38136" width="30.30667" height="20.20445" rx="1.01022" ry="1.01022" fill="url(#linear-gradient-13)"/>
        <polygon points="191.80932 115.5371 191.80932 121.41323 186.75821 124.37655 186.75821 118.48358 191.80932 115.5371" fill="#50e6ff"/>
        <polygon points="191.80932 115.5371 186.75821 118.50042 181.7071 115.5371 186.75821 112.59062 191.80932 115.5371" fill="#c3f1ff"/>
        <polygon points="186.75821 118.50042 186.75821 124.37655 181.7071 121.41323 181.7071 115.5371 186.75821 118.50042" fill="#9cebff"/>
        <polygon points="181.7071 121.41323 186.75821 118.48358 186.75821 124.37655 181.7071 121.41323" fill="#c3f1ff"/>
        <polygon points="191.80932 121.41323 186.75821 118.48358 186.75821 124.37655 191.80932 121.41323" fill="#9cebff"/>
        <path d="M192.83638,134.69765c-2.99699-.47144-3.11485-2.62658-3.11485-6.11185h-5.94347c0,3.48527-.10102,5.64041-3.09802,6.11185-.8569.09482-1.50373.82159-1.4985,1.6837h15.15334c.00523-.86211-.6416-1.58889-1.4985-1.6837Z" fill="url(#linear-gradient-14)"/>
      </g>
      <g>
        <rect x="471.29333" y="108.38136" width="30.30667" height="20.20445" rx="1.01022" ry="1.01022" fill="url(#linear-gradient-15)"/>
        <polygon points="491.49778 115.5371 491.49778 121.41323 486.44666 124.37655 486.44666 118.48358 491.49778 115.5371" fill="#50e6ff"/>
        <polygon points="491.49778 115.5371 486.44666 118.50042 481.39555 115.5371 486.44666 112.59062 491.49778 115.5371" fill="#c3f1ff"/>
        <polygon points="486.44666 118.50042 486.44666 124.37655 481.39555 121.41323 481.39555 115.5371 486.44666 118.50042" fill="#9cebff"/>
        <polygon points="481.39555 121.41323 486.44666 118.48358 486.44666 124.37655 481.39555 121.41323" fill="#c3f1ff"/>
        <polygon points="491.49778 121.41323 486.44666 118.48358 486.44666 124.37655 491.49778 121.41323" fill="#9cebff"/>
        <path d="M492.52484,134.69765c-2.99699-.47144-3.11485-2.62658-3.11485-6.11185h-5.94347c0,3.48527-.10102,5.64041-3.09802,6.11185-.8569.09482-1.50373.82159-1.4985,1.6837h15.15334c.00523-.86211-.6416-1.58889-1.4985-1.6837Z" fill="url(#linear-gradient-16)"/>
      </g>
      <g>
        <rect x="396.00487" y="108.38136" width="30.30667" height="20.20445" rx="1.01022" ry="1.01022" fill="url(#linear-gradient-17)"/>
        <polygon points="416.20932 115.5371 416.20932 121.41323 411.15821 124.37655 411.15821 118.48358 416.20932 115.5371" fill="#50e6ff"/>
        <polygon points="416.20932 115.5371 411.15821 118.50042 406.1071 115.5371 411.15821 112.59062 416.20932 115.5371" fill="#c3f1ff"/>
        <polygon points="411.15821 118.50042 411.15821 124.37655 406.1071 121.41323 406.1071 115.5371 411.15821 118.50042" fill="#9cebff"/>
        <polygon points="406.1071 121.41323 411.15821 118.48358 411.15821 124.37655 406.1071 121.41323" fill="#c3f1ff"/>
        <polygon points="416.20932 121.41323 411.15821 118.48358 411.15821 124.37655 416.20932 121.41323" fill="#9cebff"/>
        <path d="M417.23638,134.69765c-2.99699-.47144-3.11485-2.62658-3.11485-6.11185h-5.94347c0,3.48527-.10102,5.64041-3.09802,6.11185-.8569.09482-1.50373.82159-1.4985,1.6837h15.15334c.00523-.86211-.6416-1.58889-1.4985-1.6837Z" fill="url(#linear-gradient-18)"/>
      </g>
      <g>
        <rect x="666.84653" y="108.38136" width="30.30667" height="20.20445" rx="1.01022" ry="1.01022" fill="url(#linear-gradient-19)"/>
        <polygon points="687.05098 115.5371 687.05098 121.41323 681.99987 124.37655 681.99987 118.48358 687.05098 115.5371" fill="#50e6ff"/>
        <polygon points="687.05098 115.5371 681.99987 118.50042 676.94876 115.5371 681.99987 112.59062 687.05098 115.5371" fill="#c3f1ff"/>
        <polygon points="681.99987 118.50042 681.99987 124.37655 676.94876 121.41323 676.94876 115.5371 681.99987 118.50042" fill="#9cebff"/>
        <polygon points="676.94876 121.41323 681.99987 118.48358 681.99987 124.37655 676.94876 121.41323" fill="#c3f1ff"/>
        <polygon points="687.05098 121.41323 681.99987 118.48358 681.99987 124.37655 687.05098 121.41323" fill="#9cebff"/>
        <path d="M688.07804,134.69765c-2.99699-.47144-3.11485-2.62658-3.11485-6.11185h-5.94347c0,3.48527-.10102,5.64041-3.09802,6.11185-.8569.09482-1.50373.82159-1.4985,1.6837h15.15334c.00523-.86211-.6416-1.58889-1.4985-1.6837Z" fill="url(#linear-gradient-20)"/>
      </g>
      <g>
        <rect x="47.00003" y="131.98136" width="17.84118" height="11.91176" rx=".6" ry=".6" fill="#005ba1"/>
        <polygon points="58.89414 136.199 58.89414 139.67547 55.92944 141.40489 55.92944 137.94606 58.89414 136.199" fill="#50e6ff"/>
        <polygon points="58.89414 136.199 55.92944 137.94606 52.94709 136.199 55.92944 134.45195 58.89414 136.199" fill="#c3f1ff"/>
        <polygon points="55.92944 137.94606 55.92944 141.40489 52.94709 139.67547 52.94709 136.199 55.92944 137.94606" fill="#9cebff"/>
        <rect x="54.00591" y="138.81077" width="17.84118" height="11.91177" rx=".6" ry=".6" fill="#0078d4"/>
        <polygon points="65.90003 143.04606 65.90003 146.50489 62.93532 148.25195 62.93532 144.77548 65.90003 143.04606" fill="#50e6ff"/>
        <polygon points="65.90003 143.04606 62.93532 144.77548 59.95297 143.04606 62.93532 141.299 65.90003 143.04606" fill="#c3f1ff"/>
        <polygon points="62.93532 144.77548 62.93532 148.25195 59.95297 146.50489 59.95297 143.04606 62.93532 144.77548" fill="#9cebff"/>
        <rect x="59.15885" y="145.44606" width="17.84118" height="11.91177" rx=".6" ry=".6" fill="url(#linear-gradient-21)"/>
        <polygon points="71.05297 149.68136 71.05297 153.14018 68.08826 154.88724 68.08826 151.41077 71.05297 149.68136" fill="#50e6ff"/>
        <polygon points="71.05297 149.68136 68.08826 151.42842 65.10591 149.68136 68.08826 147.9343 71.05297 149.68136" fill="#c3f1ff"/>
        <polygon points="68.08826 151.42842 68.08826 154.88724 65.10591 153.14018 65.10591 149.68136 68.08826 151.42842" fill="#9cebff"/>
        <polygon points="65.10591 153.14018 68.08826 151.41077 68.08826 154.88724 65.10591 153.14018" fill="#c3f1ff"/>
        <polygon points="71.05297 153.14018 68.08826 151.41077 68.08826 154.88724 71.05297 153.14018" fill="#9cebff"/>
        <path d="M71.65297,160.97548c-1.76471-.28235-1.76471-1.55294-1.76471-3.52941h-3.52941c0,2.04706,0,3.31765-1.76471,3.52941-.49915.07691-.87112.50096-.88235,1.00588h8.82353c-.01123-.50492-.3832-.92897-.88235-1.00588Z" fill="url(#linear-gradient-22)"/>
      </g>
    </g>
    <g id="Text">
      <g>
        <path d="M172.93584,39.58155h-2.40625l-.69727-2.18066h-3.48633l-.69043,2.18066h-2.39258l3.56836-9.80273h2.61816l3.48633,9.80273ZM169.32646,35.70558l-1.05273-3.29492c-.07764-.24609-.13232-.54004-.16406-.88184h-.05469c-.02295.28711-.07959.57178-.1709.85449l-1.06641,3.32227h2.50879Z" fill="#2f2f2f"/>
        <path d="M180.30498,32.58155l-2.60449,7h-2.46094l-2.48145-7h2.31055l1.2168,4.31348c.13672.48779.21631.90234.23926,1.24414h.02734c.03174-.32373.11621-.72461.25293-1.20312l1.24414-4.35449h2.25586Z" fill="#2f2f2f"/>
        <path d="M186.84014,39.58155h-2.04395v-1.00488h-.02734c-.46924.78369-1.16455,1.17578-2.08496,1.17578-.6792,0-1.21338-.19238-1.60303-.57764s-.58447-.89893-.58447-1.5415c0-1.35791.8042-2.14209,2.41309-2.35156l1.90039-.25293c0-.76562-.41455-1.14844-1.24414-1.14844-.83398,0-1.62695.24854-2.37891.74512v-1.62695c.30078-.15479.71191-.2915,1.23389-.41016s.99707-.17773,1.42529-.17773c1.99609,0,2.99414.99561,2.99414,2.9873v4.18359ZM184.80986,36.7378v-.47168l-1.27148.16406c-.70166.09131-1.05273.40771-1.05273.9502,0,.24609.08545.44775.25635.60498s.40234.23584.69385.23584c.40576,0,.73584-.14014.99121-.42041s.38281-.63477.38281-1.06299Z" fill="#2f2f2f"/>
        <path d="M189.64287,31.47413c-.36475,0-.66309-.1084-.89551-.32471s-.34863-.48193-.34863-.79639c0-.32373.11621-.58789.34863-.79297s.53076-.30762.89551-.30762c.36914,0,.66895.10254.89893.30762s.34521.46924.34521.79297c0,.32812-.11523.59717-.34521.80664s-.52979.31445-.89893.31445ZM190.70928,39.58155h-2.16016v-7h2.16016v7Z" fill="#2f2f2f"/>
        <path d="M194.68779,39.58155h-2.16016v-10.36328h2.16016v10.36328Z" fill="#2f2f2f"/>
        <path d="M202.33037,39.58155h-2.04395v-1.00488h-.02734c-.46924.78369-1.16455,1.17578-2.08496,1.17578-.6792,0-1.21338-.19238-1.60303-.57764s-.58447-.89893-.58447-1.5415c0-1.35791.8042-2.14209,2.41309-2.35156l1.90039-.25293c0-.76562-.41455-1.14844-1.24414-1.14844-.83398,0-1.62695.24854-2.37891.74512v-1.62695c.30078-.15479.71191-.2915,1.23389-.41016s.99707-.17773,1.42529-.17773c1.99609,0,2.99414.99561,2.99414,2.9873v4.18359ZM200.3001,36.7378v-.47168l-1.27148.16406c-.70166.09131-1.05273.40771-1.05273.9502,0,.24609.08545.44775.25635.60498s.40234.23584.69385.23584c.40576,0,.73584-.14014.99121-.42041s.38281-.63477.38281-1.06299Z" fill="#2f2f2f"/>
        <path d="M206.22686,38.76808h-.02734v.81348h-2.16016v-10.36328h2.16016v4.41602h.02734c.5332-.81592,1.29199-1.22363,2.27637-1.22363.90234,0,1.59717.31006,2.08496.92969s.73145,1.46729.73145,2.54297c0,1.1665-.28467,2.10303-.85449,2.80957s-1.33057,1.05957-2.2832,1.05957c-.86133,0-1.51318-.32812-1.95508-.98438ZM206.16533,35.81495v.71777c0,.45117.12988.82471.38965,1.12109s.59229.44434.99805.44434c.49219,0,.87402-.19043,1.14502-.5708s.40674-.91943.40674-1.6167c0-.57861-.12402-1.03125-.37256-1.35693s-.60254-.48877-1.06299-.48877c-.43311,0-.79199.16162-1.07666.48535s-.42725.74512-.42725,1.26465Z" fill="#2f2f2f"/>
        <path d="M213.81475,31.47413c-.36475,0-.66309-.1084-.89551-.32471s-.34863-.48193-.34863-.79639c0-.32373.11621-.58789.34863-.79297s.53076-.30762.89551-.30762c.36914,0,.66895.10254.89893.30762s.34521.46924.34521.79297c0,.32812-.11523.59717-.34521.80664s-.52979.31445-.89893.31445ZM214.88115,39.58155h-2.16016v-7h2.16016v7Z" fill="#2f2f2f"/>
        <path d="M218.85967,39.58155h-2.16016v-10.36328h2.16016v10.36328Z" fill="#2f2f2f"/>
        <path d="M221.77178,31.47413c-.36475,0-.66309-.1084-.89551-.32471s-.34863-.48193-.34863-.79639c0-.32373.11621-.58789.34863-.79297s.53076-.30762.89551-.30762c.36914,0,.66895.10254.89893.30762s.34521.46924.34521.79297c0,.32812-.11523.59717-.34521.80664s-.52979.31445-.89893.31445ZM222.83818,39.58155h-2.16016v-7h2.16016v7Z" fill="#2f2f2f"/>
        <path d="M228.88799,39.49952c-.31885.16846-.7998.25293-1.44238.25293-1.52197,0-2.2832-.79053-2.2832-2.37207v-3.20605h-1.13477v-1.59277h1.13477v-1.51074l2.15332-.61523v2.12598h1.57227v1.59277h-1.57227v2.83008c0,.729.28955,1.09375.86816,1.09375.22803,0,.4624-.06592.7041-.19824v1.59961Z" fill="#2f2f2f"/>
        <path d="M236.76982,32.58155l-2.84375,7.56055c-.68359,1.81836-1.71338,2.72754-3.08984,2.72754-.52393,0-.95459-.05908-1.29199-.17773v-1.72266c.28711.16846.59912.25293.93652.25293.55615,0,.94336-.26221,1.16211-.78613l.36914-.86816-2.84375-6.98633h2.39258l1.30566,4.25879c.08203.26416.146.57666.19141.93652h.02734c.04102-.26416.11621-.57178.22559-.92285l1.31934-4.27246h2.13965Z" fill="#2f2f2f"/>
        <path d="M248.76689,39.58155h-7.89551v-1.27148l5.02441-6.7334h-4.66211v-1.79785h7.51953v1.2373l-4.91504,6.77441h4.92871v1.79102Z" fill="#2f2f2f"/>
        <path d="M253.3333,39.75245c-1.1665,0-2.08398-.32715-2.75146-.98096s-1.00146-1.5415-1.00146-2.6626c0-1.15771.34619-2.06348,1.03906-2.71729s1.62939-.98096,2.80957-.98096c1.16211,0,2.07373.32715,2.73438.98096s.99121,1.51855.99121,2.59424c0,1.16211-.34082,2.08057-1.02197,2.75488s-1.61426,1.01172-2.79932,1.01172ZM253.38799,34.06495c-.51025,0-.90674.17529-1.18945.52637s-.42383.84766-.42383,1.49023c0,1.34424.54248,2.0166,1.62695,2.0166,1.03467,0,1.55176-.69043,1.55176-2.07129,0-1.30811-.52197-1.96191-1.56543-1.96191Z" fill="#2f2f2f"/>
        <path d="M265.3167,39.58155h-2.15332v-3.88965c0-1.08447-.38721-1.62695-1.16211-1.62695-.37354,0-.68115.14355-.92285.43066s-.3623.65186-.3623,1.09375v3.99219h-2.16016v-7h2.16016v1.10742h.02734c.51514-.85205,1.26465-1.27832,2.24902-1.27832,1.54932,0,2.32422.96143,2.32422,2.88477v4.28613Z" fill="#2f2f2f"/>
        <path d="M273.31475,36.69679h-4.56641c.07275,1.01611.71338,1.52441,1.9209,1.52441.77002,0,1.44678-.18213,2.03027-.54688v1.55859c-.64697.34619-1.48779.51953-2.52246.51953-1.13037,0-2.00732-.31348-2.63184-.93994s-.93652-1.50049-.93652-2.62158c0-1.16211.3374-2.08252,1.01172-2.76172s1.50391-1.01855,2.48828-1.01855c1.021,0,1.81055.30322,2.36865.90918s.8374,1.42871.8374,2.46777v.90918ZM271.31182,35.37061c0-1.00244-.40576-1.50391-1.2168-1.50391-.34619,0-.646.14355-.89893.43066s-.40674.64502-.46143,1.07324h2.57715Z" fill="#2f2f2f"/>
        <path d="M283.24053,29.56007v10.02148h-2.15332v-7.58789c-.11865.10498-.25879.2041-.42041.29736s-.33398.17773-.51611.25293-.37158.13916-.56738.19141-.38965.08984-.58105.11279v-1.81836c.56055-.16406,1.08936-.37354,1.58594-.62891s.9458-.53564,1.34668-.84082h1.30566Z" fill="#2f2f2f"/>
      </g>
      <g>
        <path d="M400.63555,39.58155h-2.40625l-.69727-2.18066h-3.48633l-.69043,2.18066h-2.39258l3.56836-9.80273h2.61816l3.48633,9.80273ZM397.02617,35.70558l-1.05273-3.29492c-.07764-.24609-.13232-.54004-.16406-.88184h-.05469c-.02295.28711-.07959.57178-.1709.85449l-1.06641,3.32227h2.50879Z" fill="#2f2f2f"/>
        <path d="M408.00469,32.58155l-2.60449,7h-2.46094l-2.48145-7h2.31055l1.2168,4.31348c.13672.48779.21631.90234.23926,1.24414h.02734c.03174-.32373.11621-.72461.25293-1.20312l1.24414-4.35449h2.25586Z" fill="#2f2f2f"/>
        <path d="M414.53984,39.58155h-2.04395v-1.00488h-.02734c-.46924.78369-1.16455,1.17578-2.08496,1.17578-.6792,0-1.21338-.19238-1.60303-.57764s-.58447-.89893-.58447-1.5415c0-1.35791.8042-2.14209,2.41309-2.35156l1.90039-.25293c0-.76562-.41455-1.14844-1.24414-1.14844-.83398,0-1.62695.24854-2.37891.74512v-1.62695c.30078-.15479.71191-.2915,1.23389-.41016s.99707-.17773,1.42529-.17773c1.99609,0,2.99414.99561,2.99414,2.9873v4.18359ZM412.50957,36.7378v-.47168l-1.27148.16406c-.70166.09131-1.05273.40771-1.05273.9502,0,.24609.08545.44775.25635.60498s.40234.23584.69385.23584c.40576,0,.73584-.14014.99121-.42041s.38281-.63477.38281-1.06299Z" fill="#2f2f2f"/>
        <path d="M417.34258,31.47413c-.36475,0-.66309-.1084-.89551-.32471s-.34863-.48193-.34863-.79639c0-.32373.11621-.58789.34863-.79297s.53076-.30762.89551-.30762c.36914,0,.66895.10254.89893.30762s.34521.46924.34521.79297c0,.32812-.11523.59717-.34521.80664s-.52979.31445-.89893.31445ZM418.40898,39.58155h-2.16016v-7h2.16016v7Z" fill="#2f2f2f"/>
        <path d="M422.3875,39.58155h-2.16016v-10.36328h2.16016v10.36328Z" fill="#2f2f2f"/>
        <path d="M430.03008,39.58155h-2.04395v-1.00488h-.02734c-.46924.78369-1.16455,1.17578-2.08496,1.17578-.6792,0-1.21338-.19238-1.60303-.57764s-.58447-.89893-.58447-1.5415c0-1.35791.8042-2.14209,2.41309-2.35156l1.90039-.25293c0-.76562-.41455-1.14844-1.24414-1.14844-.83398,0-1.62695.24854-2.37891.74512v-1.62695c.30078-.15479.71191-.2915,1.23389-.41016s.99707-.17773,1.42529-.17773c1.99609,0,2.99414.99561,2.99414,2.9873v4.18359ZM427.9998,36.7378v-.47168l-1.27148.16406c-.70166.09131-1.05273.40771-1.05273.9502,0,.24609.08545.44775.25635.60498s.40234.23584.69385.23584c.40576,0,.73584-.14014.99121-.42041s.38281-.63477.38281-1.06299Z" fill="#2f2f2f"/>
        <path d="M433.92656,38.76808h-.02734v.81348h-2.16016v-10.36328h2.16016v4.41602h.02734c.5332-.81592,1.29199-1.22363,2.27637-1.22363.90234,0,1.59717.31006,2.08496.92969s.73145,1.46729.73145,2.54297c0,1.1665-.28467,2.10303-.85449,2.80957s-1.33057,1.05957-2.2832,1.05957c-.86133,0-1.51318-.32812-1.95508-.98438ZM433.86504,35.81495v.71777c0,.45117.12988.82471.38965,1.12109s.59229.44434.99805.44434c.49219,0,.87402-.19043,1.14502-.5708s.40674-.91943.40674-1.6167c0-.57861-.12402-1.03125-.37256-1.35693s-.60254-.48877-1.06299-.48877c-.43311,0-.79199.16162-1.07666.48535s-.42725.74512-.42725,1.26465Z" fill="#2f2f2f"/>
        <path d="M441.51445,31.47413c-.36475,0-.66309-.1084-.89551-.32471s-.34863-.48193-.34863-.79639c0-.32373.11621-.58789.34863-.79297s.53076-.30762.89551-.30762c.36914,0,.66895.10254.89893.30762s.34521.46924.34521.79297c0,.32812-.11523.59717-.34521.80664s-.52979.31445-.89893.31445ZM442.58086,39.58155h-2.16016v-7h2.16016v7Z" fill="#2f2f2f"/>
        <path d="M446.55937,39.58155h-2.16016v-10.36328h2.16016v10.36328Z" fill="#2f2f2f"/>
        <path d="M449.47148,31.47413c-.36475,0-.66309-.1084-.89551-.32471s-.34863-.48193-.34863-.79639c0-.32373.11621-.58789.34863-.79297s.53076-.30762.89551-.30762c.36914,0,.66895.10254.89893.30762s.34521.46924.34521.79297c0,.32812-.11523.59717-.34521.80664s-.52979.31445-.89893.31445ZM450.53789,39.58155h-2.16016v-7h2.16016v7Z" fill="#2f2f2f"/>
        <path d="M456.5877,39.49952c-.31885.16846-.7998.25293-1.44238.25293-1.52197,0-2.2832-.79053-2.2832-2.37207v-3.20605h-1.13477v-1.59277h1.13477v-1.51074l2.15332-.61523v2.12598h1.57227v1.59277h-1.57227v2.83008c0,.729.28955,1.09375.86816,1.09375.22803,0,.4624-.06592.7041-.19824v1.59961Z" fill="#2f2f2f"/>
        <path d="M464.46953,32.58155l-2.84375,7.56055c-.68359,1.81836-1.71338,2.72754-3.08984,2.72754-.52393,0-.95459-.05908-1.29199-.17773v-1.72266c.28711.16846.59912.25293.93652.25293.55615,0,.94336-.26221,1.16211-.78613l.36914-.86816-2.84375-6.98633h2.39258l1.30566,4.25879c.08203.26416.146.57666.19141.93652h.02734c.04102-.26416.11621-.57178.22559-.92285l1.31934-4.27246h2.13965Z" fill="#2f2f2f"/>
        <path d="M476.4666,39.58155h-7.89551v-1.27148l5.02441-6.7334h-4.66211v-1.79785h7.51953v1.2373l-4.91504,6.77441h4.92871v1.79102Z" fill="#2f2f2f"/>
        <path d="M481.03301,39.75245c-1.1665,0-2.08398-.32715-2.75146-.98096s-1.00146-1.5415-1.00146-2.6626c0-1.15771.34619-2.06348,1.03906-2.71729s1.62939-.98096,2.80957-.98096c1.16211,0,2.07373.32715,2.73438.98096s.99121,1.51855.99121,2.59424c0,1.16211-.34082,2.08057-1.02197,2.75488s-1.61426,1.01172-2.79932,1.01172ZM481.0877,34.06495c-.51025,0-.90674.17529-1.18945.52637s-.42383.84766-.42383,1.49023c0,1.34424.54248,2.0166,1.62695,2.0166,1.03467,0,1.55176-.69043,1.55176-2.07129,0-1.30811-.52197-1.96191-1.56543-1.96191Z" fill="#2f2f2f"/>
        <path d="M493.01641,39.58155h-2.15332v-3.88965c0-1.08447-.38721-1.62695-1.16211-1.62695-.37354,0-.68115.14355-.92285.43066s-.3623.65186-.3623,1.09375v3.99219h-2.16016v-7h2.16016v1.10742h.02734c.51514-.85205,1.26465-1.27832,2.24902-1.27832,1.54932,0,2.32422.96143,2.32422,2.88477v4.28613Z" fill="#2f2f2f"/>
        <path d="M501.01445,36.69679h-4.56641c.07275,1.01611.71338,1.52441,1.9209,1.52441.77002,0,1.44678-.18213,2.03027-.54688v1.55859c-.64697.34619-1.48779.51953-2.52246.51953-1.13037,0-2.00732-.31348-2.63184-.93994s-.93652-1.50049-.93652-2.62158c0-1.16211.3374-2.08252,1.01172-2.76172s1.50391-1.01855,2.48828-1.01855c1.021,0,1.81055.30322,2.36865.90918s.8374,1.42871.8374,2.46777v.90918ZM499.01152,35.37061c0-1.00244-.40576-1.50391-1.2168-1.50391-.34619,0-.646.14355-.89893.43066s-.40674.64502-.46143,1.07324h2.57715Z" fill="#2f2f2f"/>
        <path d="M508.18535,37.79054h4.15625v1.79102h-6.52148v-.73828c0-.50146.08447-.95117.25293-1.3501s.38037-.75635.63574-1.07324.53418-.59717.8374-.84082.59131-.46387.86475-.65967c.28711-.20508.53906-.40088.75537-.58789s.39893-.37256.54688-.55713.25879-.37158.33154-.56055.10938-.39062.10938-.60498c0-.41943-.11865-.73584-.35547-.9502s-.59912-.32129-1.08691-.32129c-.84326,0-1.6499.33496-2.41992,1.00488v-1.90039c.85205-.55127,1.81396-.82715,2.88477-.82715.49658,0,.94238.06494,1.33643.19482s.72803.31543,1.00146.55713.48193.53418.62549.87842.21533.72803.21533,1.15186c0,.45117-.06934.85205-.2085,1.20312s-.32373.66992-.55371.95703-.49561.55029-.79639.78955-.61279.4707-.93652.69385c-.21875.15479-.42969.30859-.63232.46143s-.38184.30322-.53662.45117-.27783.29297-.36914.43408-.13672.27588-.13672.40332Z" fill="#2f2f2f"/>
      </g>
      <g>
        <path d="M438.07207,281.58155h-2.22852l-4.04004-6.15918c-.23682-.35986-.40088-.63135-.49219-.81348h-.02734c.03662.34619.05469.875.05469,1.58594v5.38672h-2.08496v-9.80273h2.37891l3.88965,5.96777c.17773.26904.3418.53564.49219.7998h.02734c-.03662-.22803-.05469-.67676-.05469-1.34668v-5.4209h2.08496v9.80273Z" fill="#2f2f2f"/>
        <path d="M443.43828,281.75245c-1.1665,0-2.08398-.32715-2.75146-.98096s-1.00146-1.5415-1.00146-2.6626c0-1.15771.34619-2.06348,1.03906-2.71729s1.62939-.98096,2.80957-.98096c1.16211,0,2.07373.32715,2.73438.98096s.99121,1.51855.99121,2.59424c0,1.16211-.34082,2.08057-1.02197,2.75488s-1.61426,1.01172-2.79932,1.01172ZM443.49297,276.06495c-.51025,0-.90674.17529-1.18945.52637s-.42383.84766-.42383,1.49023c0,1.34424.54248,2.0166,1.62695,2.0166,1.03467,0,1.55176-.69043,1.55176-2.07129,0-1.30811-.52197-1.96191-1.56543-1.96191Z" fill="#2f2f2f"/>
        <path d="M455.42168,281.58155h-2.15332v-3.88965c0-1.08447-.38721-1.62695-1.16211-1.62695-.37354,0-.68115.14355-.92285.43066s-.3623.65186-.3623,1.09375v3.99219h-2.16016v-7h2.16016v1.10742h.02734c.51514-.85205,1.26465-1.27832,2.24902-1.27832,1.54932,0,2.32422.96143,2.32422,2.88477v4.28613Z" fill="#2f2f2f"/>
        <path d="M462.67461,281.58155h-6.28223v-.89551l3.51367-4.51172h-3.16504v-1.59277h5.90625v1.06641l-3.3291,4.34082h3.35645v1.59277Z" fill="#2f2f2f"/>
        <path d="M467.17266,281.75245c-1.1665,0-2.08398-.32715-2.75146-.98096s-1.00146-1.5415-1.00146-2.6626c0-1.15771.34619-2.06348,1.03906-2.71729s1.62939-.98096,2.80957-.98096c1.16211,0,2.07373.32715,2.73438.98096s.99121,1.51855.99121,2.59424c0,1.16211-.34082,2.08057-1.02197,2.75488s-1.61426,1.01172-2.79932,1.01172ZM467.22734,276.06495c-.51025,0-.90674.17529-1.18945.52637s-.42383.84766-.42383,1.49023c0,1.34424.54248,2.0166,1.62695,2.0166,1.03467,0,1.55176-.69043,1.55176-2.07129,0-1.30811-.52197-1.96191-1.56543-1.96191Z" fill="#2f2f2f"/>
        <path d="M479.15605,281.58155h-2.15332v-3.88965c0-1.08447-.38721-1.62695-1.16211-1.62695-.37354,0-.68115.14355-.92285.43066s-.3623.65186-.3623,1.09375v3.99219h-2.16016v-7h2.16016v1.10742h.02734c.51514-.85205,1.26465-1.27832,2.24902-1.27832,1.54932,0,2.32422.96143,2.32422,2.88477v4.28613Z" fill="#2f2f2f"/>
        <path d="M486.68926,281.58155h-2.04395v-1.00488h-.02734c-.46924.78369-1.16455,1.17578-2.08496,1.17578-.6792,0-1.21338-.19238-1.60303-.57764s-.58447-.89893-.58447-1.5415c0-1.35791.8042-2.14209,2.41309-2.35156l1.90039-.25293c0-.76562-.41455-1.14844-1.24414-1.14844-.83398,0-1.62695.24854-2.37891.74512v-1.62695c.30078-.15479.71191-.2915,1.23389-.41016s.99707-.17773,1.42529-.17773c1.99609,0,2.99414.99561,2.99414,2.9873v4.18359ZM484.65898,278.7378v-.47168l-1.27148.16406c-.70166.09131-1.05273.40771-1.05273.9502,0,.24609.08545.44775.25635.60498s.40234.23584.69385.23584c.40576,0,.73584-.14014.99121-.42041s.38281-.63477.38281-1.06299Z" fill="#2f2f2f"/>
        <path d="M490.5584,281.58155h-2.16016v-10.36328h2.16016v10.36328Z" fill="#2f2f2f"/>
      </g>
      <g>
        <path d="M630.53545,39.58155h-2.40625l-.69727-2.18066h-3.48633l-.69043,2.18066h-2.39258l3.56836-9.80273h2.61816l3.48633,9.80273ZM626.92607,35.70558l-1.05273-3.29492c-.07764-.24609-.13232-.54004-.16406-.88184h-.05469c-.02295.28711-.07959.57178-.1709.85449l-1.06641,3.32227h2.50879Z" fill="#2f2f2f"/>
        <path d="M637.90459,32.58155l-2.60449,7h-2.46094l-2.48145-7h2.31055l1.2168,4.31348c.13672.48779.21631.90234.23926,1.24414h.02734c.03174-.32373.11621-.72461.25293-1.20312l1.24414-4.35449h2.25586Z" fill="#2f2f2f"/>
        <path d="M644.43975,39.58155h-2.04395v-1.00488h-.02734c-.46924.78369-1.16455,1.17578-2.08496,1.17578-.6792,0-1.21338-.19238-1.60303-.57764s-.58447-.89893-.58447-1.5415c0-1.35791.8042-2.14209,2.41309-2.35156l1.90039-.25293c0-.76562-.41455-1.14844-1.24414-1.14844-.83398,0-1.62695.24854-2.37891.74512v-1.62695c.30078-.15479.71191-.2915,1.23389-.41016s.99707-.17773,1.42529-.17773c1.99609,0,2.99414.99561,2.99414,2.9873v4.18359ZM642.40947,36.7378v-.47168l-1.27148.16406c-.70166.09131-1.05273.40771-1.05273.9502,0,.24609.08545.44775.25635.60498s.40234.23584.69385.23584c.40576,0,.73584-.14014.99121-.42041s.38281-.63477.38281-1.06299Z" fill="#2f2f2f"/>
        <path d="M647.24248,31.47413c-.36475,0-.66309-.1084-.89551-.32471s-.34863-.48193-.34863-.79639c0-.32373.11621-.58789.34863-.79297s.53076-.30762.89551-.30762c.36914,0,.66895.10254.89893.30762s.34521.46924.34521.79297c0,.32812-.11523.59717-.34521.80664s-.52979.31445-.89893.31445ZM648.30889,39.58155h-2.16016v-7h2.16016v7Z" fill="#2f2f2f"/>
        <path d="M652.2874,39.58155h-2.16016v-10.36328h2.16016v10.36328Z" fill="#2f2f2f"/>
        <path d="M659.92998,39.58155h-2.04395v-1.00488h-.02734c-.46924.78369-1.16455,1.17578-2.08496,1.17578-.6792,0-1.21338-.19238-1.60303-.57764s-.58447-.89893-.58447-1.5415c0-1.35791.8042-2.14209,2.41309-2.35156l1.90039-.25293c0-.76562-.41455-1.14844-1.24414-1.14844-.83398,0-1.62695.24854-2.37891.74512v-1.62695c.30078-.15479.71191-.2915,1.23389-.41016s.99707-.17773,1.42529-.17773c1.99609,0,2.99414.99561,2.99414,2.9873v4.18359ZM657.89971,36.7378v-.47168l-1.27148.16406c-.70166.09131-1.05273.40771-1.05273.9502,0,.24609.08545.44775.25635.60498s.40234.23584.69385.23584c.40576,0,.73584-.14014.99121-.42041s.38281-.63477.38281-1.06299Z" fill="#2f2f2f"/>
        <path d="M663.82646,38.76808h-.02734v.81348h-2.16016v-10.36328h2.16016v4.41602h.02734c.5332-.81592,1.29199-1.22363,2.27637-1.22363.90234,0,1.59717.31006,2.08496.92969s.73145,1.46729.73145,2.54297c0,1.1665-.28467,2.10303-.85449,2.80957s-1.33057,1.05957-2.2832,1.05957c-.86133,0-1.51318-.32812-1.95508-.98438ZM663.76494,35.81495v.71777c0,.45117.12988.82471.38965,1.12109s.59229.44434.99805.44434c.49219,0,.87402-.19043,1.14502-.5708s.40674-.91943.40674-1.6167c0-.57861-.12402-1.03125-.37256-1.35693s-.60254-.48877-1.06299-.48877c-.43311,0-.79199.16162-1.07666.48535s-.42725.74512-.42725,1.26465Z" fill="#2f2f2f"/>
        <path d="M671.41436,31.47413c-.36475,0-.66309-.1084-.89551-.32471s-.34863-.48193-.34863-.79639c0-.32373.11621-.58789.34863-.79297s.53076-.30762.89551-.30762c.36914,0,.66895.10254.89893.30762s.34521.46924.34521.79297c0,.32812-.11523.59717-.34521.80664s-.52979.31445-.89893.31445ZM672.48076,39.58155h-2.16016v-7h2.16016v7Z" fill="#2f2f2f"/>
        <path d="M676.45928,39.58155h-2.16016v-10.36328h2.16016v10.36328Z" fill="#2f2f2f"/>
        <path d="M679.37139,31.47413c-.36475,0-.66309-.1084-.89551-.32471s-.34863-.48193-.34863-.79639c0-.32373.11621-.58789.34863-.79297s.53076-.30762.89551-.30762c.36914,0,.66895.10254.89893.30762s.34521.46924.34521.79297c0,.32812-.11523.59717-.34521.80664s-.52979.31445-.89893.31445ZM680.43779,39.58155h-2.16016v-7h2.16016v7Z" fill="#2f2f2f"/>
        <path d="M686.4876,39.49952c-.31885.16846-.7998.25293-1.44238.25293-1.52197,0-2.2832-.79053-2.2832-2.37207v-3.20605h-1.13477v-1.59277h1.13477v-1.51074l2.15332-.61523v2.12598h1.57227v1.59277h-1.57227v2.83008c0,.729.28955,1.09375.86816,1.09375.22803,0,.4624-.06592.7041-.19824v1.59961Z" fill="#2f2f2f"/>
        <path d="M694.36943,32.58155l-2.84375,7.56055c-.68359,1.81836-1.71338,2.72754-3.08984,2.72754-.52393,0-.95459-.05908-1.29199-.17773v-1.72266c.28711.16846.59912.25293.93652.25293.55615,0,.94336-.26221,1.16211-.78613l.36914-.86816-2.84375-6.98633h2.39258l1.30566,4.25879c.08203.26416.146.57666.19141.93652h.02734c.04102-.26416.11621-.57178.22559-.92285l1.31934-4.27246h2.13965Z" fill="#2f2f2f"/>
        <path d="M706.3665,39.58155h-7.89551v-1.27148l5.02441-6.7334h-4.66211v-1.79785h7.51953v1.2373l-4.91504,6.77441h4.92871v1.79102Z" fill="#2f2f2f"/>
        <path d="M710.93291,39.75245c-1.1665,0-2.08398-.32715-2.75146-.98096s-1.00146-1.5415-1.00146-2.6626c0-1.15771.34619-2.06348,1.03906-2.71729s1.62939-.98096,2.80957-.98096c1.16211,0,2.07373.32715,2.73438.98096s.99121,1.51855.99121,2.59424c0,1.16211-.34082,2.08057-1.02197,2.75488s-1.61426,1.01172-2.79932,1.01172ZM710.9876,34.06495c-.51025,0-.90674.17529-1.18945.52637s-.42383.84766-.42383,1.49023c0,1.34424.54248,2.0166,1.62695,2.0166,1.03467,0,1.55176-.69043,1.55176-2.07129,0-1.30811-.52197-1.96191-1.56543-1.96191Z" fill="#2f2f2f"/>
        <path d="M722.91631,39.58155h-2.15332v-3.88965c0-1.08447-.38721-1.62695-1.16211-1.62695-.37354,0-.68115.14355-.92285.43066s-.3623.65186-.3623,1.09375v3.99219h-2.16016v-7h2.16016v1.10742h.02734c.51514-.85205,1.26465-1.27832,2.24902-1.27832,1.54932,0,2.32422.96143,2.32422,2.88477v4.28613Z" fill="#2f2f2f"/>
        <path d="M730.91436,36.69679h-4.56641c.07275,1.01611.71338,1.52441,1.9209,1.52441.77002,0,1.44678-.18213,2.03027-.54688v1.55859c-.64697.34619-1.48779.51953-2.52246.51953-1.13037,0-2.00732-.31348-2.63184-.93994s-.93652-1.50049-.93652-2.62158c0-1.16211.3374-2.08252,1.01172-2.76172s1.50391-1.01855,2.48828-1.01855c1.021,0,1.81055.30322,2.36865.90918s.8374,1.42871.8374,2.46777v.90918ZM728.91143,35.37061c0-1.00244-.40576-1.50391-1.2168-1.50391-.34619,0-.646.14355-.89893.43066s-.40674.64502-.46143,1.07324h2.57715Z" fill="#2f2f2f"/>
        <path d="M735.95244,39.26026v-1.87988c.65625.47852,1.42188.71777,2.29688.71777.55127,0,.98096-.11865,1.28857-.35547s.46143-.56738.46143-.99121c0-.4375-.19043-.7749-.5708-1.01172s-.90332-.35547-1.56885-.35547h-.90918v-1.6543h.84082c1.27588,0,1.91406-.42383,1.91406-1.27148,0-.79736-.48975-1.19629-1.46973-1.19629-.65625,0-1.29443.21191-1.91406.63574v-1.76367c.68799-.34619,1.49023-.51953,2.40625-.51953,1.00244,0,1.7832.22559,2.34131.67676s.8374,1.03662.8374,1.75684c0,1.28076-.64941,2.08252-1.94824,2.40625v.03418c.69287.08643,1.23975.33838,1.64062.75537s.60156.92871.60156,1.53467c0,.91602-.33496,1.64062-1.00488,2.17383s-1.59521.7998-2.77539.7998c-1.01172,0-1.83447-.16406-2.46777-.49219Z" fill="#2f2f2f"/>
      </g>
      <g>
        <path d="M441.15703,193.58155h-1.14844v-9.80273h1.14844v9.80273Z" fill="#2f2f2f"/>
        <path d="M449.23174,193.58155h-1.12109v-3.99219c0-1.48633-.54248-2.22852-1.62695-2.22852-.56055,0-1.02441.21094-1.39111.63184-.3667.42188-.55029.9541-.55029,1.59668v3.99219h-1.12109v-7h1.12109v1.16211h.02734c.52881-.88477,1.29443-1.32617,2.29688-1.32617.76562,0,1.35107.24707,1.75684.74121.40576.49512.6084,1.20898.6084,2.14355v4.2793Z" fill="#2f2f2f"/>
        <path d="M450.87969,193.32862v-1.20312c.61084.45117,1.28271.67676,2.0166.67676.98438,0,1.47656-.32812,1.47656-.98438,0-.1875-.04199-.3457-.12646-.47559s-.19824-.24512-.3418-.34473c-.14355-.10059-.31201-.19043-.50586-.27051-.19385-.0791-.40234-.16309-.62549-.24902-.31006-.12305-.58203-.24707-.81689-.37305-.23486-.125-.43066-.2666-.58789-.42383s-.27588-.33594-.35547-.53613c-.07959-.20117-.11963-.43555-.11963-.7041,0-.32812.0752-.61914.22559-.87207s.35107-.46484.60156-.63574.53662-.2998.85791-.38574c.32129-.08691.65283-.12988.99463-.12988.60596,0,1.14844.10449,1.62695.31445v1.13477c-.51514-.33789-1.10742-.50586-1.77734-.50586-.20947,0-.39893.02344-.56738.07129s-.31348.11523-.43408.20215c-.12061.08594-.21436.19043-.28027.31055-.06592.12109-.09912.25391-.09912.40039,0,.18164.0332.33496.09912.45801s.16309.23242.29053.32812.28271.18164.46484.25977c.18213.07715.38965.16113.62207.25293.31006.11816.58789.24023.83398.36523.24609.12598.45557.2666.62891.42383s.30664.33887.3999.54395.14014.44824.14014.73145c0,.3457-.07617.64648-.229.90234-.15283.25488-.35645.4668-.61182.63574-.25537.16797-.54932.29395-.88184.37598s-.68115.12305-1.0459.12305c-.72021,0-1.34424-.13965-1.87305-.41699Z" fill="#2f2f2f"/>
        <path d="M460.53301,193.51319c-.26416.14551-.61279.21875-1.0459.21875-1.22607,0-1.83887-.68359-1.83887-2.05078v-4.14258h-1.20312v-.95703h1.20312v-1.70898l1.12109-.3623v2.07129h1.76367v.95703h-1.76367v3.94434c0,.46875.07959.80371.23926,1.00488.15967.2002.42383.30078.79297.30078.28271,0,.52637-.07812.73145-.23242v.95703Z" fill="#2f2f2f"/>
        <path d="M467.1502,193.58155h-1.12109v-1.09375h-.02734c-.48779.83789-1.20557,1.25781-2.15332,1.25781-.69727,0-1.24316-.18457-1.63721-.55371s-.59131-.85938-.59131-1.46973c0-1.30859.77002-2.06934,2.31055-2.2832l2.09863-.29395c0-1.18945-.48096-1.78418-1.44238-1.78418-.84326,0-1.604.28711-2.2832.86133v-1.14844c.68799-.4375,1.48096-.65625,2.37891-.65625,1.64502,0,2.46777.87012,2.46777,2.61133v4.55273ZM466.0291,190.04054l-1.68848.23242c-.51953.07227-.91162.20117-1.17578.38574s-.39648.51172-.39648.98145c0,.3418.12207.62109.36572.83691.24365.2168.56836.3252.97412.3252.55615,0,1.01514-.19531,1.37744-.58496s.54346-.88281.54346-1.47949v-.69727Z" fill="#2f2f2f"/>
        <path d="M474.98223,193.58155h-1.12109v-3.99219c0-1.48633-.54248-2.22852-1.62695-2.22852-.56055,0-1.02441.21094-1.39111.63184-.3667.42188-.55029.9541-.55029,1.59668v3.99219h-1.12109v-7h1.12109v1.16211h.02734c.52881-.88477,1.29443-1.32617,2.29688-1.32617.76562,0,1.35107.24707,1.75684.74121.40576.49512.6084,1.20898.6084,2.14355v4.2793Z" fill="#2f2f2f"/>
        <path d="M481.83086,193.26026c-.5376.32324-1.17578.48535-1.91406.48535-.99805,0-1.80371-.3252-2.4165-.97461s-.91943-1.49121-.91943-2.52539c0-1.15332.33057-2.0791.99121-2.7793.66064-.69922,1.54248-1.04883,2.64551-1.04883.61523,0,1.15771.11328,1.62695.3418v1.14844c-.51953-.36523-1.07568-.54688-1.66797-.54688-.71533,0-1.30225.25586-1.76025.76855s-.68701,1.18652-.68701,2.02051c0,.82031.21533,1.4668.646,1.94141.43066.47363,1.0083.71094,1.73291.71094.61084,0,1.18506-.20312,1.72266-.6084v1.06641Z" fill="#2f2f2f"/>
        <path d="M489.00078,190.36183h-4.94238c.01807.7793.22803,1.38086.62891,1.80469s.95264.63574,1.6543.63574c.78857,0,1.51318-.25977,2.17383-.7793v1.05273c-.61523.44629-1.42871.66992-2.44043.66992-.98877,0-1.76611-.31836-2.33105-.9541s-.84766-1.53027-.84766-2.68262c0-1.08984.30859-1.97656.92627-2.66309.61768-.68555,1.38428-1.02832,2.30029-1.02832s1.62451.2959,2.12598.88867c.50146.5918.75195,1.41504.75195,2.46777v.58789ZM487.85234,189.41163c-.00439-.64746-.16064-1.15137-.46826-1.51074-.30762-.36035-.73486-.54004-1.28174-.54004-.52881,0-.97754.18848-1.34668.56738-.36914.37793-.59717.87207-.68359,1.4834h3.78027Z" fill="#2f2f2f"/>
      </g>
      <g>
        <path d="M516.44512,193.58155h-1.14844v-9.80273h1.14844v9.80273Z" fill="#2f2f2f"/>
        <path d="M524.51982,193.58155h-1.12109v-3.99219c0-1.48633-.54248-2.22852-1.62695-2.22852-.56055,0-1.02441.21094-1.39111.63184-.3667.42188-.55029.9541-.55029,1.59668v3.99219h-1.12109v-7h1.12109v1.16211h.02734c.52881-.88477,1.29443-1.32617,2.29688-1.32617.76562,0,1.35107.24707,1.75684.74121.40576.49512.6084,1.20898.6084,2.14355v4.2793Z" fill="#2f2f2f"/>
        <path d="M526.16777,193.32862v-1.20312c.61084.45117,1.28271.67676,2.0166.67676.98438,0,1.47656-.32812,1.47656-.98438,0-.1875-.04199-.3457-.12646-.47559s-.19824-.24512-.3418-.34473c-.14355-.10059-.31201-.19043-.50586-.27051-.19385-.0791-.40234-.16309-.62549-.24902-.31006-.12305-.58203-.24707-.81689-.37305-.23486-.125-.43066-.2666-.58789-.42383s-.27588-.33594-.35547-.53613c-.07959-.20117-.11963-.43555-.11963-.7041,0-.32812.0752-.61914.22559-.87207s.35107-.46484.60156-.63574.53662-.2998.85791-.38574c.32129-.08691.65283-.12988.99463-.12988.60596,0,1.14844.10449,1.62695.31445v1.13477c-.51514-.33789-1.10742-.50586-1.77734-.50586-.20947,0-.39893.02344-.56738.07129s-.31348.11523-.43408.20215c-.12061.08594-.21436.19043-.28027.31055-.06592.12109-.09912.25391-.09912.40039,0,.18164.0332.33496.09912.45801s.16309.23242.29053.32812.28271.18164.46484.25977c.18213.07715.38965.16113.62207.25293.31006.11816.58789.24023.83398.36523.24609.12598.45557.2666.62891.42383s.30664.33887.3999.54395.14014.44824.14014.73145c0,.3457-.07617.64648-.229.90234-.15283.25488-.35645.4668-.61182.63574-.25537.16797-.54932.29395-.88184.37598s-.68115.12305-1.0459.12305c-.72021,0-1.34424-.13965-1.87305-.41699Z" fill="#2f2f2f"/>
        <path d="M535.82109,193.51319c-.26416.14551-.61279.21875-1.0459.21875-1.22607,0-1.83887-.68359-1.83887-2.05078v-4.14258h-1.20312v-.95703h1.20312v-1.70898l1.12109-.3623v2.07129h1.76367v.95703h-1.76367v3.94434c0,.46875.07959.80371.23926,1.00488.15967.2002.42383.30078.79297.30078.28271,0,.52637-.07812.73145-.23242v.95703Z" fill="#2f2f2f"/>
        <path d="M542.43828,193.58155h-1.12109v-1.09375h-.02734c-.48779.83789-1.20557,1.25781-2.15332,1.25781-.69727,0-1.24316-.18457-1.63721-.55371s-.59131-.85938-.59131-1.46973c0-1.30859.77002-2.06934,2.31055-2.2832l2.09863-.29395c0-1.18945-.48096-1.78418-1.44238-1.78418-.84326,0-1.604.28711-2.2832.86133v-1.14844c.68799-.4375,1.48096-.65625,2.37891-.65625,1.64502,0,2.46777.87012,2.46777,2.61133v4.55273ZM541.31719,190.04054l-1.68848.23242c-.51953.07227-.91162.20117-1.17578.38574s-.39648.51172-.39648.98145c0,.3418.12207.62109.36572.83691.24365.2168.56836.3252.97412.3252.55615,0,1.01514-.19531,1.37744-.58496s.54346-.88281.54346-1.47949v-.69727Z" fill="#2f2f2f"/>
        <path d="M550.27031,193.58155h-1.12109v-3.99219c0-1.48633-.54248-2.22852-1.62695-2.22852-.56055,0-1.02441.21094-1.39111.63184-.3667.42188-.55029.9541-.55029,1.59668v3.99219h-1.12109v-7h1.12109v1.16211h.02734c.52881-.88477,1.29443-1.32617,2.29688-1.32617.76562,0,1.35107.24707,1.75684.74121.40576.49512.6084,1.20898.6084,2.14355v4.2793Z" fill="#2f2f2f"/>
        <path d="M557.11895,193.26026c-.5376.32324-1.17578.48535-1.91406.48535-.99805,0-1.80371-.3252-2.4165-.97461s-.91943-1.49121-.91943-2.52539c0-1.15332.33057-2.0791.99121-2.7793.66064-.69922,1.54248-1.04883,2.64551-1.04883.61523,0,1.15771.11328,1.62695.3418v1.14844c-.51953-.36523-1.07568-.54688-1.66797-.54688-.71533,0-1.30225.25586-1.76025.76855s-.68701,1.18652-.68701,2.02051c0,.82031.21533,1.4668.646,1.94141.43066.47363,1.0083.71094,1.73291.71094.61084,0,1.18506-.20312,1.72266-.6084v1.06641Z" fill="#2f2f2f"/>
        <path d="M564.28887,190.36183h-4.94238c.01807.7793.22803,1.38086.62891,1.80469s.95264.63574,1.6543.63574c.78857,0,1.51318-.25977,2.17383-.7793v1.05273c-.61523.44629-1.42871.66992-2.44043.66992-.98877,0-1.76611-.31836-2.33105-.9541s-.84766-1.53027-.84766-2.68262c0-1.08984.30859-1.97656.92627-2.66309.61768-.68555,1.38428-1.02832,2.30029-1.02832s1.62451.2959,2.12598.88867c.50146.5918.75195,1.41504.75195,2.46777v.58789ZM563.14043,189.41163c-.00439-.64746-.16064-1.15137-.46826-1.51074-.30762-.36035-.73486-.54004-1.28174-.54004-.52881,0-.97754.18848-1.34668.56738-.36914.37793-.59717.87207-.68359,1.4834h3.78027Z" fill="#2f2f2f"/>
      </g>
      <g>
        <path d="M591.84941,193.58155h-1.14844v-9.80273h1.14844v9.80273Z" fill="#2f2f2f"/>
        <path d="M599.92412,193.58155h-1.12109v-3.99219c0-1.48633-.54248-2.22852-1.62695-2.22852-.56055,0-1.02441.21094-1.39111.63184-.3667.42188-.55029.9541-.55029,1.59668v3.99219h-1.12109v-7h1.12109v1.16211h.02734c.52881-.88477,1.29443-1.32617,2.29688-1.32617.76562,0,1.35107.24707,1.75684.74121.40576.49512.6084,1.20898.6084,2.14355v4.2793Z" fill="#2f2f2f"/>
        <path d="M601.57207,193.32862v-1.20312c.61084.45117,1.28271.67676,2.0166.67676.98438,0,1.47656-.32812,1.47656-.98438,0-.1875-.04199-.3457-.12646-.47559s-.19824-.24512-.3418-.34473c-.14355-.10059-.31201-.19043-.50586-.27051-.19385-.0791-.40234-.16309-.62549-.24902-.31006-.12305-.58203-.24707-.81689-.37305-.23486-.125-.43066-.2666-.58789-.42383s-.27588-.33594-.35547-.53613c-.07959-.20117-.11963-.43555-.11963-.7041,0-.32812.0752-.61914.22559-.87207s.35107-.46484.60156-.63574.53662-.2998.85791-.38574c.32129-.08691.65283-.12988.99463-.12988.60596,0,1.14844.10449,1.62695.31445v1.13477c-.51514-.33789-1.10742-.50586-1.77734-.50586-.20947,0-.39893.02344-.56738.07129s-.31348.11523-.43408.20215c-.12061.08594-.21436.19043-.28027.31055-.06592.12109-.09912.25391-.09912.40039,0,.18164.0332.33496.09912.45801s.16309.23242.29053.32812.28271.18164.46484.25977c.18213.07715.38965.16113.62207.25293.31006.11816.58789.24023.83398.36523.24609.12598.45557.2666.62891.42383s.30664.33887.3999.54395.14014.44824.14014.73145c0,.3457-.07617.64648-.229.90234-.15283.25488-.35645.4668-.61182.63574-.25537.16797-.54932.29395-.88184.37598s-.68115.12305-1.0459.12305c-.72021,0-1.34424-.13965-1.87305-.41699Z" fill="#2f2f2f"/>
        <path d="M611.22539,193.51319c-.26416.14551-.61279.21875-1.0459.21875-1.22607,0-1.83887-.68359-1.83887-2.05078v-4.14258h-1.20312v-.95703h1.20312v-1.70898l1.12109-.3623v2.07129h1.76367v.95703h-1.76367v3.94434c0,.46875.07959.80371.23926,1.00488.15967.2002.42383.30078.79297.30078.28271,0,.52637-.07812.73145-.23242v.95703Z" fill="#2f2f2f"/>
        <path d="M617.84258,193.58155h-1.12109v-1.09375h-.02734c-.48779.83789-1.20557,1.25781-2.15332,1.25781-.69727,0-1.24316-.18457-1.63721-.55371s-.59131-.85938-.59131-1.46973c0-1.30859.77002-2.06934,2.31055-2.2832l2.09863-.29395c0-1.18945-.48096-1.78418-1.44238-1.78418-.84326,0-1.604.28711-2.2832.86133v-1.14844c.68799-.4375,1.48096-.65625,2.37891-.65625,1.64502,0,2.46777.87012,2.46777,2.61133v4.55273ZM616.72148,190.04054l-1.68848.23242c-.51953.07227-.91162.20117-1.17578.38574s-.39648.51172-.39648.98145c0,.3418.12207.62109.36572.83691.24365.2168.56836.3252.97412.3252.55615,0,1.01514-.19531,1.37744-.58496s.54346-.88281.54346-1.47949v-.69727Z" fill="#2f2f2f"/>
        <path d="M625.67461,193.58155h-1.12109v-3.99219c0-1.48633-.54248-2.22852-1.62695-2.22852-.56055,0-1.02441.21094-1.39111.63184-.3667.42188-.55029.9541-.55029,1.59668v3.99219h-1.12109v-7h1.12109v1.16211h.02734c.52881-.88477,1.29443-1.32617,2.29688-1.32617.76562,0,1.35107.24707,1.75684.74121.40576.49512.6084,1.20898.6084,2.14355v4.2793Z" fill="#2f2f2f"/>
        <path d="M632.52324,193.26026c-.5376.32324-1.17578.48535-1.91406.48535-.99805,0-1.80371-.3252-2.4165-.97461s-.91943-1.49121-.91943-2.52539c0-1.15332.33057-2.0791.99121-2.7793.66064-.69922,1.54248-1.04883,2.64551-1.04883.61523,0,1.15771.11328,1.62695.3418v1.14844c-.51953-.36523-1.07568-.54688-1.66797-.54688-.71533,0-1.30225.25586-1.76025.76855s-.68701,1.18652-.68701,2.02051c0,.82031.21533,1.4668.646,1.94141.43066.47363,1.0083.71094,1.73291.71094.61084,0,1.18506-.20312,1.72266-.6084v1.06641Z" fill="#2f2f2f"/>
        <path d="M639.69316,190.36183h-4.94238c.01807.7793.22803,1.38086.62891,1.80469s.95264.63574,1.6543.63574c.78857,0,1.51318-.25977,2.17383-.7793v1.05273c-.61523.44629-1.42871.66992-2.44043.66992-.98877,0-1.76611-.31836-2.33105-.9541s-.84766-1.53027-.84766-2.68262c0-1.08984.30859-1.97656.92627-2.66309.61768-.68555,1.38428-1.02832,2.30029-1.02832s1.62451.2959,2.12598.88867c.50146.5918.75195,1.41504.75195,2.46777v.58789ZM638.54473,189.41163c-.00439-.64746-.16064-1.15137-.46826-1.51074-.30762-.36035-.73486-.54004-1.28174-.54004-.52881,0-.97754.18848-1.34668.56738-.36914.37793-.59717.87207-.68359,1.4834h3.78027Z" fill="#2f2f2f"/>
      </g>
      <g>
        <path d="M365.86846,193.58155h-1.14844v-9.80273h1.14844v9.80273Z" fill="#2f2f2f"/>
        <path d="M373.94316,193.58155h-1.12109v-3.99219c0-1.48633-.54248-2.22852-1.62695-2.22852-.56055,0-1.02441.21094-1.39111.63184-.3667.42188-.55029.9541-.55029,1.59668v3.99219h-1.12109v-7h1.12109v1.16211h.02734c.52881-.88477,1.29443-1.32617,2.29688-1.32617.76562,0,1.35107.24707,1.75684.74121.40576.49512.6084,1.20898.6084,2.14355v4.2793Z" fill="#2f2f2f"/>
        <path d="M375.59111,193.32862v-1.20312c.61084.45117,1.28271.67676,2.0166.67676.98438,0,1.47656-.32812,1.47656-.98438,0-.1875-.04199-.3457-.12646-.47559s-.19824-.24512-.3418-.34473c-.14355-.10059-.31201-.19043-.50586-.27051-.19385-.0791-.40234-.16309-.62549-.24902-.31006-.12305-.58203-.24707-.81689-.37305-.23486-.125-.43066-.2666-.58789-.42383s-.27588-.33594-.35547-.53613c-.07959-.20117-.11963-.43555-.11963-.7041,0-.32812.0752-.61914.22559-.87207s.35107-.46484.60156-.63574.53662-.2998.85791-.38574c.32129-.08691.65283-.12988.99463-.12988.60596,0,1.14844.10449,1.62695.31445v1.13477c-.51514-.33789-1.10742-.50586-1.77734-.50586-.20947,0-.39893.02344-.56738.07129s-.31348.11523-.43408.20215c-.12061.08594-.21436.19043-.28027.31055-.06592.12109-.09912.25391-.09912.40039,0,.18164.0332.33496.09912.45801s.16309.23242.29053.32812.28271.18164.46484.25977c.18213.07715.38965.16113.62207.25293.31006.11816.58789.24023.83398.36523.24609.12598.45557.2666.62891.42383s.30664.33887.3999.54395.14014.44824.14014.73145c0,.3457-.07617.64648-.229.90234-.15283.25488-.35645.4668-.61182.63574-.25537.16797-.54932.29395-.88184.37598s-.68115.12305-1.0459.12305c-.72021,0-1.34424-.13965-1.87305-.41699Z" fill="#2f2f2f"/>
        <path d="M385.24443,193.51319c-.26416.14551-.61279.21875-1.0459.21875-1.22607,0-1.83887-.68359-1.83887-2.05078v-4.14258h-1.20312v-.95703h1.20312v-1.70898l1.12109-.3623v2.07129h1.76367v.95703h-1.76367v3.94434c0,.46875.07959.80371.23926,1.00488.15967.2002.42383.30078.79297.30078.28271,0,.52637-.07812.73145-.23242v.95703Z" fill="#2f2f2f"/>
        <path d="M391.86162,193.58155h-1.12109v-1.09375h-.02734c-.48779.83789-1.20557,1.25781-2.15332,1.25781-.69727,0-1.24316-.18457-1.63721-.55371s-.59131-.85938-.59131-1.46973c0-1.30859.77002-2.06934,2.31055-2.2832l2.09863-.29395c0-1.18945-.48096-1.78418-1.44238-1.78418-.84326,0-1.604.28711-2.2832.86133v-1.14844c.68799-.4375,1.48096-.65625,2.37891-.65625,1.64502,0,2.46777.87012,2.46777,2.61133v4.55273ZM390.74053,190.04054l-1.68848.23242c-.51953.07227-.91162.20117-1.17578.38574s-.39648.51172-.39648.98145c0,.3418.12207.62109.36572.83691.24365.2168.56836.3252.97412.3252.55615,0,1.01514-.19531,1.37744-.58496s.54346-.88281.54346-1.47949v-.69727Z" fill="#2f2f2f"/>
        <path d="M399.69365,193.58155h-1.12109v-3.99219c0-1.48633-.54248-2.22852-1.62695-2.22852-.56055,0-1.02441.21094-1.39111.63184-.3667.42188-.55029.9541-.55029,1.59668v3.99219h-1.12109v-7h1.12109v1.16211h.02734c.52881-.88477,1.29443-1.32617,2.29688-1.32617.76562,0,1.35107.24707,1.75684.74121.40576.49512.6084,1.20898.6084,2.14355v4.2793Z" fill="#2f2f2f"/>
        <path d="M406.54229,193.26026c-.5376.32324-1.17578.48535-1.91406.48535-.99805,0-1.80371-.3252-2.4165-.97461s-.91943-1.49121-.91943-2.52539c0-1.15332.33057-2.0791.99121-2.7793.66064-.69922,1.54248-1.04883,2.64551-1.04883.61523,0,1.15771.11328,1.62695.3418v1.14844c-.51953-.36523-1.07568-.54688-1.66797-.54688-.71533,0-1.30225.25586-1.76025.76855s-.68701,1.18652-.68701,2.02051c0,.82031.21533,1.4668.646,1.94141.43066.47363,1.0083.71094,1.73291.71094.61084,0,1.18506-.20312,1.72266-.6084v1.06641Z" fill="#2f2f2f"/>
        <path d="M413.71221,190.36183h-4.94238c.01807.7793.22803,1.38086.62891,1.80469s.95264.63574,1.6543.63574c.78857,0,1.51318-.25977,2.17383-.7793v1.05273c-.61523.44629-1.42871.66992-2.44043.66992-.98877,0-1.76611-.31836-2.33105-.9541s-.84766-1.53027-.84766-2.68262c0-1.08984.30859-1.97656.92627-2.66309.61768-.68555,1.38428-1.02832,2.30029-1.02832s1.62451.2959,2.12598.88867c.50146.5918.75195,1.41504.75195,2.46777v.58789ZM412.56377,189.41163c-.00439-.64746-.16064-1.15137-.46826-1.51074-.30762-.36035-.73486-.54004-1.28174-.54004-.52881,0-.97754.18848-1.34668.56738-.36914.37793-.59717.87207-.68359,1.4834h3.78027Z" fill="#2f2f2f"/>
      </g>
      <g>
        <path d="M290.57988,193.58155h-1.14844v-9.80273h1.14844v9.80273Z" fill="#2f2f2f"/>
        <path d="M298.65459,193.58155h-1.12109v-3.99219c0-1.48633-.54248-2.22852-1.62695-2.22852-.56055,0-1.02441.21094-1.39111.63184-.3667.42188-.55029.9541-.55029,1.59668v3.99219h-1.12109v-7h1.12109v1.16211h.02734c.52881-.88477,1.29443-1.32617,2.29688-1.32617.76562,0,1.35107.24707,1.75684.74121.40576.49512.6084,1.20898.6084,2.14355v4.2793Z" fill="#2f2f2f"/>
        <path d="M300.30254,193.32862v-1.20312c.61084.45117,1.28271.67676,2.0166.67676.98438,0,1.47656-.32812,1.47656-.98438,0-.1875-.04199-.3457-.12646-.47559s-.19824-.24512-.3418-.34473c-.14355-.10059-.31201-.19043-.50586-.27051-.19385-.0791-.40234-.16309-.62549-.24902-.31006-.12305-.58203-.24707-.81689-.37305-.23486-.125-.43066-.2666-.58789-.42383s-.27588-.33594-.35547-.53613c-.07959-.20117-.11963-.43555-.11963-.7041,0-.32812.0752-.61914.22559-.87207s.35107-.46484.60156-.63574.53662-.2998.85791-.38574c.32129-.08691.65283-.12988.99463-.12988.60596,0,1.14844.10449,1.62695.31445v1.13477c-.51514-.33789-1.10742-.50586-1.77734-.50586-.20947,0-.39893.02344-.56738.07129s-.31348.11523-.43408.20215c-.12061.08594-.21436.19043-.28027.31055-.06592.12109-.09912.25391-.09912.40039,0,.18164.0332.33496.09912.45801s.16309.23242.29053.32812.28271.18164.46484.25977c.18213.07715.38965.16113.62207.25293.31006.11816.58789.24023.83398.36523.24609.12598.45557.2666.62891.42383s.30664.33887.3999.54395.14014.44824.14014.73145c0,.3457-.07617.64648-.229.90234-.15283.25488-.35645.4668-.61182.63574-.25537.16797-.54932.29395-.88184.37598s-.68115.12305-1.0459.12305c-.72021,0-1.34424-.13965-1.87305-.41699Z" fill="#2f2f2f"/>
        <path d="M309.95586,193.51319c-.26416.14551-.61279.21875-1.0459.21875-1.22607,0-1.83887-.68359-1.83887-2.05078v-4.14258h-1.20312v-.95703h1.20312v-1.70898l1.12109-.3623v2.07129h1.76367v.95703h-1.76367v3.94434c0,.46875.07959.80371.23926,1.00488.15967.2002.42383.30078.79297.30078.28271,0,.52637-.07812.73145-.23242v.95703Z" fill="#2f2f2f"/>
        <path d="M316.57305,193.58155h-1.12109v-1.09375h-.02734c-.48779.83789-1.20557,1.25781-2.15332,1.25781-.69727,0-1.24316-.18457-1.63721-.55371s-.59131-.85938-.59131-1.46973c0-1.30859.77002-2.06934,2.31055-2.2832l2.09863-.29395c0-1.18945-.48096-1.78418-1.44238-1.78418-.84326,0-1.604.28711-2.2832.86133v-1.14844c.68799-.4375,1.48096-.65625,2.37891-.65625,1.64502,0,2.46777.87012,2.46777,2.61133v4.55273ZM315.45195,190.04054l-1.68848.23242c-.51953.07227-.91162.20117-1.17578.38574s-.39648.51172-.39648.98145c0,.3418.12207.62109.36572.83691.24365.2168.56836.3252.97412.3252.55615,0,1.01514-.19531,1.37744-.58496s.54346-.88281.54346-1.47949v-.69727Z" fill="#2f2f2f"/>
        <path d="M324.40508,193.58155h-1.12109v-3.99219c0-1.48633-.54248-2.22852-1.62695-2.22852-.56055,0-1.02441.21094-1.39111.63184-.3667.42188-.55029.9541-.55029,1.59668v3.99219h-1.12109v-7h1.12109v1.16211h.02734c.52881-.88477,1.29443-1.32617,2.29688-1.32617.76562,0,1.35107.24707,1.75684.74121.40576.49512.6084,1.20898.6084,2.14355v4.2793Z" fill="#2f2f2f"/>
        <path d="M331.25371,193.26026c-.5376.32324-1.17578.48535-1.91406.48535-.99805,0-1.80371-.3252-2.4165-.97461s-.91943-1.49121-.91943-2.52539c0-1.15332.33057-2.0791.99121-2.7793.66064-.69922,1.54248-1.04883,2.64551-1.04883.61523,0,1.15771.11328,1.62695.3418v1.14844c-.51953-.36523-1.07568-.54688-1.66797-.54688-.71533,0-1.30225.25586-1.76025.76855s-.68701,1.18652-.68701,2.02051c0,.82031.21533,1.4668.646,1.94141.43066.47363,1.0083.71094,1.73291.71094.61084,0,1.18506-.20312,1.72266-.6084v1.06641Z" fill="#2f2f2f"/>
        <path d="M338.42363,190.36183h-4.94238c.01807.7793.22803,1.38086.62891,1.80469s.95264.63574,1.6543.63574c.78857,0,1.51318-.25977,2.17383-.7793v1.05273c-.61523.44629-1.42871.66992-2.44043.66992-.98877,0-1.76611-.31836-2.33105-.9541s-.84766-1.53027-.84766-2.68262c0-1.08984.30859-1.97656.92627-2.66309.61768-.68555,1.38428-1.02832,2.30029-1.02832s1.62451.2959,2.12598.88867c.50146.5918.75195,1.41504.75195,2.46777v.58789ZM337.2752,189.41163c-.00439-.64746-.16064-1.15137-.46826-1.51074-.30762-.36035-.73486-.54004-1.28174-.54004-.52881,0-.97754.18848-1.34668.56738-.36914.37793-.59717.87207-.68359,1.4834h3.78027Z" fill="#2f2f2f"/>
      </g>
      <g>
        <path d="M239.06133,94.76905h-1.14844v-9.80273h1.14844v9.80273Z" fill="#2f2f2f"/>
        <path d="M247.13604,94.76905h-1.12109v-3.99219c0-1.48584-.54248-2.22852-1.62695-2.22852-.56055,0-1.02441.21094-1.39111.63232s-.55029.95361-.55029,1.59619v3.99219h-1.12109v-7h1.12109v1.16211h.02734c.52881-.88428,1.29443-1.32617,2.29688-1.32617.76562,0,1.35107.24707,1.75684.7417s.6084,1.20898.6084,2.14307v4.2793Z" fill="#2f2f2f"/>
        <path d="M248.78398,94.51612v-1.20312c.61084.45117,1.28271.67676,2.0166.67676.98438,0,1.47656-.32812,1.47656-.98438,0-.18701-.04199-.34521-.12646-.4751s-.19824-.24512-.3418-.34521-.31201-.19043-.50586-.27002-.40234-.16309-.62549-.24951c-.31006-.12305-.58203-.24707-.81689-.37256s-.43066-.2666-.58789-.42383-.27588-.33594-.35547-.53662-.11963-.43506-.11963-.7041c0-.32812.0752-.61865.22559-.87158s.35107-.46484.60156-.63574.53662-.2998.85791-.38623.65283-.12988.99463-.12988c.60596,0,1.14844.10498,1.62695.31445v1.13477c-.51514-.3374-1.10742-.50586-1.77734-.50586-.20947,0-.39893.02393-.56738.07178s-.31348.11523-.43408.20166-.21436.19043-.28027.31104-.09912.25391-.09912.3999c0,.18213.0332.33496.09912.45801s.16309.23242.29053.32812.28271.18213.46484.25977.38965.16162.62207.25293c.31006.11865.58789.24023.83398.36572s.45557.2666.62891.42383.30664.33838.3999.54346.14014.44873.14014.73145c0,.34619-.07617.64697-.229.90234s-.35645.46729-.61182.63574-.54932.29395-.88184.37598-.68115.12305-1.0459.12305c-.72021,0-1.34424-.13916-1.87305-.41699Z" fill="#2f2f2f"/>
        <path d="M258.4373,94.70069c-.26416.146-.61279.21875-1.0459.21875-1.22607,0-1.83887-.68359-1.83887-2.05078v-4.14258h-1.20312v-.95703h1.20312v-1.70898l1.12109-.3623v2.07129h1.76367v.95703h-1.76367v3.94434c0,.46924.07959.8042.23926,1.00488s.42383.30078.79297.30078c.28271,0,.52637-.07764.73145-.23242v.95703Z" fill="#2f2f2f"/>
        <path d="M265.05449,94.76905h-1.12109v-1.09375h-.02734c-.48779.83838-1.20557,1.25781-2.15332,1.25781-.69727,0-1.24316-.18457-1.63721-.55371s-.59131-.85889-.59131-1.46973c0-1.30811.77002-2.06885,2.31055-2.2832l2.09863-.29395c0-1.18945-.48096-1.78418-1.44238-1.78418-.84326,0-1.604.28711-2.2832.86133v-1.14844c.68799-.4375,1.48096-.65625,2.37891-.65625,1.64502,0,2.46777.87061,2.46777,2.61133v4.55273ZM263.9334,91.22804l-1.68848.23242c-.51953.07275-.91162.20166-1.17578.38623s-.39648.51172-.39648.98096c0,.3418.12207.62109.36572.8374s.56836.32471.97412.32471c.55615,0,1.01514-.19482,1.37744-.58447s.54346-.88281.54346-1.47998v-.69727Z" fill="#2f2f2f"/>
        <path d="M272.88652,94.76905h-1.12109v-3.99219c0-1.48584-.54248-2.22852-1.62695-2.22852-.56055,0-1.02441.21094-1.39111.63232s-.55029.95361-.55029,1.59619v3.99219h-1.12109v-7h1.12109v1.16211h.02734c.52881-.88428,1.29443-1.32617,2.29688-1.32617.76562,0,1.35107.24707,1.75684.7417s.6084,1.20898.6084,2.14307v4.2793Z" fill="#2f2f2f"/>
        <path d="M279.73516,94.44776c-.5376.32373-1.17578.48535-1.91406.48535-.99805,0-1.80371-.32471-2.4165-.97412s-.91943-1.49121-.91943-2.52588c0-1.15283.33057-2.0791.99121-2.77881s1.54248-1.04932,2.64551-1.04932c.61523,0,1.15771.11377,1.62695.3418v1.14844c-.51953-.36475-1.07568-.54688-1.66797-.54688-.71533,0-1.30225.25635-1.76025.76904s-.68701,1.18604-.68701,2.02002c0,.82031.21533,1.46729.646,1.94141s1.0083.71094,1.73291.71094c.61084,0,1.18506-.20264,1.72266-.6084v1.06641Z" fill="#2f2f2f"/>
        <path d="M286.90508,91.54933h-4.94238c.01807.7793.22803,1.38086.62891,1.80469s.95264.63574,1.6543.63574c.78857,0,1.51318-.25977,2.17383-.7793v1.05273c-.61523.44678-1.42871.66992-2.44043.66992-.98877,0-1.76611-.31787-2.33105-.95361s-.84766-1.53027-.84766-2.68311c0-1.08936.30859-1.97656.92627-2.6626s1.38428-1.02881,2.30029-1.02881,1.62451.29639,2.12598.88867.75195,1.41504.75195,2.46777v.58789ZM285.75664,90.59913c-.00439-.64697-.16064-1.15088-.46826-1.51074s-.73486-.54004-1.28174-.54004c-.52881,0-.97754.18896-1.34668.56738s-.59717.87256-.68359,1.4834h3.78027Z" fill="#2f2f2f"/>
      </g>
      <g>
        <path d="M163.77275,94.76905h-1.14844v-9.80273h1.14844v9.80273Z" fill="#2f2f2f"/>
        <path d="M171.84746,94.76905h-1.12109v-3.99219c0-1.48584-.54248-2.22852-1.62695-2.22852-.56055,0-1.02441.21094-1.39111.63232s-.55029.95361-.55029,1.59619v3.99219h-1.12109v-7h1.12109v1.16211h.02734c.52881-.88428,1.29443-1.32617,2.29688-1.32617.76562,0,1.35107.24707,1.75684.7417s.6084,1.20898.6084,2.14307v4.2793Z" fill="#2f2f2f"/>
        <path d="M173.49541,94.51612v-1.20312c.61084.45117,1.28271.67676,2.0166.67676.98438,0,1.47656-.32812,1.47656-.98438,0-.18701-.04199-.34521-.12646-.4751s-.19824-.24512-.3418-.34521-.31201-.19043-.50586-.27002-.40234-.16309-.62549-.24951c-.31006-.12305-.58203-.24707-.81689-.37256s-.43066-.2666-.58789-.42383-.27588-.33594-.35547-.53662-.11963-.43506-.11963-.7041c0-.32812.0752-.61865.22559-.87158s.35107-.46484.60156-.63574.53662-.2998.85791-.38623.65283-.12988.99463-.12988c.60596,0,1.14844.10498,1.62695.31445v1.13477c-.51514-.3374-1.10742-.50586-1.77734-.50586-.20947,0-.39893.02393-.56738.07178s-.31348.11523-.43408.20166-.21436.19043-.28027.31104-.09912.25391-.09912.3999c0,.18213.0332.33496.09912.45801s.16309.23242.29053.32812.28271.18213.46484.25977.38965.16162.62207.25293c.31006.11865.58789.24023.83398.36572s.45557.2666.62891.42383.30664.33838.3999.54346.14014.44873.14014.73145c0,.34619-.07617.64697-.229.90234s-.35645.46729-.61182.63574-.54932.29395-.88184.37598-.68115.12305-1.0459.12305c-.72021,0-1.34424-.13916-1.87305-.41699Z" fill="#2f2f2f"/>
        <path d="M183.14873,94.70069c-.26416.146-.61279.21875-1.0459.21875-1.22607,0-1.83887-.68359-1.83887-2.05078v-4.14258h-1.20312v-.95703h1.20312v-1.70898l1.12109-.3623v2.07129h1.76367v.95703h-1.76367v3.94434c0,.46924.07959.8042.23926,1.00488s.42383.30078.79297.30078c.28271,0,.52637-.07764.73145-.23242v.95703Z" fill="#2f2f2f"/>
        <path d="M189.76592,94.76905h-1.12109v-1.09375h-.02734c-.48779.83838-1.20557,1.25781-2.15332,1.25781-.69727,0-1.24316-.18457-1.63721-.55371s-.59131-.85889-.59131-1.46973c0-1.30811.77002-2.06885,2.31055-2.2832l2.09863-.29395c0-1.18945-.48096-1.78418-1.44238-1.78418-.84326,0-1.604.28711-2.2832.86133v-1.14844c.68799-.4375,1.48096-.65625,2.37891-.65625,1.64502,0,2.46777.87061,2.46777,2.61133v4.55273ZM188.64482,91.22804l-1.68848.23242c-.51953.07275-.91162.20166-1.17578.38623s-.39648.51172-.39648.98096c0,.3418.12207.62109.36572.8374s.56836.32471.97412.32471c.55615,0,1.01514-.19482,1.37744-.58447s.54346-.88281.54346-1.47998v-.69727Z" fill="#2f2f2f"/>
        <path d="M197.59795,94.76905h-1.12109v-3.99219c0-1.48584-.54248-2.22852-1.62695-2.22852-.56055,0-1.02441.21094-1.39111.63232s-.55029.95361-.55029,1.59619v3.99219h-1.12109v-7h1.12109v1.16211h.02734c.52881-.88428,1.29443-1.32617,2.29688-1.32617.76562,0,1.35107.24707,1.75684.7417s.6084,1.20898.6084,2.14307v4.2793Z" fill="#2f2f2f"/>
        <path d="M204.44658,94.44776c-.5376.32373-1.17578.48535-1.91406.48535-.99805,0-1.80371-.32471-2.4165-.97412s-.91943-1.49121-.91943-2.52588c0-1.15283.33057-2.0791.99121-2.77881s1.54248-1.04932,2.64551-1.04932c.61523,0,1.15771.11377,1.62695.3418v1.14844c-.51953-.36475-1.07568-.54688-1.66797-.54688-.71533,0-1.30225.25635-1.76025.76904s-.68701,1.18604-.68701,2.02002c0,.82031.21533,1.46729.646,1.94141s1.0083.71094,1.73291.71094c.61084,0,1.18506-.20264,1.72266-.6084v1.06641Z" fill="#2f2f2f"/>
        <path d="M211.6165,91.54933h-4.94238c.01807.7793.22803,1.38086.62891,1.80469s.95264.63574,1.6543.63574c.78857,0,1.51318-.25977,2.17383-.7793v1.05273c-.61523.44678-1.42871.66992-2.44043.66992-.98877,0-1.76611-.31787-2.33105-.95361s-.84766-1.53027-.84766-2.68311c0-1.08936.30859-1.97656.92627-2.6626s1.38428-1.02881,2.30029-1.02881,1.62451.29639,2.12598.88867.75195,1.41504.75195,2.46777v.58789ZM210.46807,90.59913c-.00439-.64697-.16064-1.15088-.46826-1.51074s-.73486-.54004-1.28174-.54004c-.52881,0-.97754.18896-1.34668.56738s-.59717.87256-.68359,1.4834h3.78027Z" fill="#2f2f2f"/>
      </g>
      <g>
        <path d="M463.46123,94.76905h-1.14844v-9.80273h1.14844v9.80273Z" fill="#2f2f2f"/>
        <path d="M471.53594,94.76905h-1.12109v-3.99219c0-1.48584-.54248-2.22852-1.62695-2.22852-.56055,0-1.02441.21094-1.39111.63232s-.55029.95361-.55029,1.59619v3.99219h-1.12109v-7h1.12109v1.16211h.02734c.52881-.88428,1.29443-1.32617,2.29688-1.32617.76562,0,1.35107.24707,1.75684.7417s.6084,1.20898.6084,2.14307v4.2793Z" fill="#2f2f2f"/>
        <path d="M473.18389,94.51612v-1.20312c.61084.45117,1.28271.67676,2.0166.67676.98438,0,1.47656-.32812,1.47656-.98438,0-.18701-.04199-.34521-.12646-.4751s-.19824-.24512-.3418-.34521-.31201-.19043-.50586-.27002-.40234-.16309-.62549-.24951c-.31006-.12305-.58203-.24707-.81689-.37256s-.43066-.2666-.58789-.42383-.27588-.33594-.35547-.53662-.11963-.43506-.11963-.7041c0-.32812.0752-.61865.22559-.87158s.35107-.46484.60156-.63574.53662-.2998.85791-.38623.65283-.12988.99463-.12988c.60596,0,1.14844.10498,1.62695.31445v1.13477c-.51514-.3374-1.10742-.50586-1.77734-.50586-.20947,0-.39893.02393-.56738.07178s-.31348.11523-.43408.20166-.21436.19043-.28027.31104-.09912.25391-.09912.3999c0,.18213.0332.33496.09912.45801s.16309.23242.29053.32812.28271.18213.46484.25977.38965.16162.62207.25293c.31006.11865.58789.24023.83398.36572s.45557.2666.62891.42383.30664.33838.3999.54346.14014.44873.14014.73145c0,.34619-.07617.64697-.229.90234s-.35645.46729-.61182.63574-.54932.29395-.88184.37598-.68115.12305-1.0459.12305c-.72021,0-1.34424-.13916-1.87305-.41699Z" fill="#2f2f2f"/>
        <path d="M482.83721,94.70069c-.26416.146-.61279.21875-1.0459.21875-1.22607,0-1.83887-.68359-1.83887-2.05078v-4.14258h-1.20312v-.95703h1.20312v-1.70898l1.12109-.3623v2.07129h1.76367v.95703h-1.76367v3.94434c0,.46924.07959.8042.23926,1.00488s.42383.30078.79297.30078c.28271,0,.52637-.07764.73145-.23242v.95703Z" fill="#2f2f2f"/>
        <path d="M489.45439,94.76905h-1.12109v-1.09375h-.02734c-.48779.83838-1.20557,1.25781-2.15332,1.25781-.69727,0-1.24316-.18457-1.63721-.55371s-.59131-.85889-.59131-1.46973c0-1.30811.77002-2.06885,2.31055-2.2832l2.09863-.29395c0-1.18945-.48096-1.78418-1.44238-1.78418-.84326,0-1.604.28711-2.2832.86133v-1.14844c.68799-.4375,1.48096-.65625,2.37891-.65625,1.64502,0,2.46777.87061,2.46777,2.61133v4.55273ZM488.3333,91.22804l-1.68848.23242c-.51953.07275-.91162.20166-1.17578.38623s-.39648.51172-.39648.98096c0,.3418.12207.62109.36572.8374s.56836.32471.97412.32471c.55615,0,1.01514-.19482,1.37744-.58447s.54346-.88281.54346-1.47998v-.69727Z" fill="#2f2f2f"/>
        <path d="M497.28643,94.76905h-1.12109v-3.99219c0-1.48584-.54248-2.22852-1.62695-2.22852-.56055,0-1.02441.21094-1.39111.63232s-.55029.95361-.55029,1.59619v3.99219h-1.12109v-7h1.12109v1.16211h.02734c.52881-.88428,1.29443-1.32617,2.29688-1.32617.76562,0,1.35107.24707,1.75684.7417s.6084,1.20898.6084,2.14307v4.2793Z" fill="#2f2f2f"/>
        <path d="M504.13506,94.44776c-.5376.32373-1.17578.48535-1.91406.48535-.99805,0-1.80371-.32471-2.4165-.97412s-.91943-1.49121-.91943-2.52588c0-1.15283.33057-2.0791.99121-2.77881s1.54248-1.04932,2.64551-1.04932c.61523,0,1.15771.11377,1.62695.3418v1.14844c-.51953-.36475-1.07568-.54688-1.66797-.54688-.71533,0-1.30225.25635-1.76025.76904s-.68701,1.18604-.68701,2.02002c0,.82031.21533,1.46729.646,1.94141s1.0083.71094,1.73291.71094c.61084,0,1.18506-.20264,1.72266-.6084v1.06641Z" fill="#2f2f2f"/>
        <path d="M511.30498,91.54933h-4.94238c.01807.7793.22803,1.38086.62891,1.80469s.95264.63574,1.6543.63574c.78857,0,1.51318-.25977,2.17383-.7793v1.05273c-.61523.44678-1.42871.66992-2.44043.66992-.98877,0-1.76611-.31787-2.33105-.95361s-.84766-1.53027-.84766-2.68311c0-1.08936.30859-1.97656.92627-2.6626s1.38428-1.02881,2.30029-1.02881,1.62451.29639,2.12598.88867.75195,1.41504.75195,2.46777v.58789ZM510.15654,90.59913c-.00439-.64697-.16064-1.15088-.46826-1.51074s-.73486-.54004-1.28174-.54004c-.52881,0-.97754.18896-1.34668.56738s-.59717.87256-.68359,1.4834h3.78027Z" fill="#2f2f2f"/>
      </g>
      <g>
        <path d="M388.17266,94.76905h-1.14844v-9.80273h1.14844v9.80273Z" fill="#2f2f2f"/>
        <path d="M396.24736,94.76905h-1.12109v-3.99219c0-1.48584-.54248-2.22852-1.62695-2.22852-.56055,0-1.02441.21094-1.39111.63232s-.55029.95361-.55029,1.59619v3.99219h-1.12109v-7h1.12109v1.16211h.02734c.52881-.88428,1.29443-1.32617,2.29688-1.32617.76562,0,1.35107.24707,1.75684.7417s.6084,1.20898.6084,2.14307v4.2793Z" fill="#2f2f2f"/>
        <path d="M397.89531,94.51612v-1.20312c.61084.45117,1.28271.67676,2.0166.67676.98438,0,1.47656-.32812,1.47656-.98438,0-.18701-.04199-.34521-.12646-.4751s-.19824-.24512-.3418-.34521-.31201-.19043-.50586-.27002-.40234-.16309-.62549-.24951c-.31006-.12305-.58203-.24707-.81689-.37256s-.43066-.2666-.58789-.42383-.27588-.33594-.35547-.53662-.11963-.43506-.11963-.7041c0-.32812.0752-.61865.22559-.87158s.35107-.46484.60156-.63574.53662-.2998.85791-.38623.65283-.12988.99463-.12988c.60596,0,1.14844.10498,1.62695.31445v1.13477c-.51514-.3374-1.10742-.50586-1.77734-.50586-.20947,0-.39893.02393-.56738.07178s-.31348.11523-.43408.20166-.21436.19043-.28027.31104-.09912.25391-.09912.3999c0,.18213.0332.33496.09912.45801s.16309.23242.29053.32812.28271.18213.46484.25977.38965.16162.62207.25293c.31006.11865.58789.24023.83398.36572s.45557.2666.62891.42383.30664.33838.3999.54346.14014.44873.14014.73145c0,.34619-.07617.64697-.229.90234s-.35645.46729-.61182.63574-.54932.29395-.88184.37598-.68115.12305-1.0459.12305c-.72021,0-1.34424-.13916-1.87305-.41699Z" fill="#2f2f2f"/>
        <path d="M407.54863,94.70069c-.26416.146-.61279.21875-1.0459.21875-1.22607,0-1.83887-.68359-1.83887-2.05078v-4.14258h-1.20312v-.95703h1.20312v-1.70898l1.12109-.3623v2.07129h1.76367v.95703h-1.76367v3.94434c0,.46924.07959.8042.23926,1.00488s.42383.30078.79297.30078c.28271,0,.52637-.07764.73145-.23242v.95703Z" fill="#2f2f2f"/>
        <path d="M414.16582,94.76905h-1.12109v-1.09375h-.02734c-.48779.83838-1.20557,1.25781-2.15332,1.25781-.69727,0-1.24316-.18457-1.63721-.55371s-.59131-.85889-.59131-1.46973c0-1.30811.77002-2.06885,2.31055-2.2832l2.09863-.29395c0-1.18945-.48096-1.78418-1.44238-1.78418-.84326,0-1.604.28711-2.2832.86133v-1.14844c.68799-.4375,1.48096-.65625,2.37891-.65625,1.64502,0,2.46777.87061,2.46777,2.61133v4.55273ZM413.04473,91.22804l-1.68848.23242c-.51953.07275-.91162.20166-1.17578.38623s-.39648.51172-.39648.98096c0,.3418.12207.62109.36572.8374s.56836.32471.97412.32471c.55615,0,1.01514-.19482,1.37744-.58447s.54346-.88281.54346-1.47998v-.69727Z" fill="#2f2f2f"/>
        <path d="M421.99785,94.76905h-1.12109v-3.99219c0-1.48584-.54248-2.22852-1.62695-2.22852-.56055,0-1.02441.21094-1.39111.63232s-.55029.95361-.55029,1.59619v3.99219h-1.12109v-7h1.12109v1.16211h.02734c.52881-.88428,1.29443-1.32617,2.29688-1.32617.76562,0,1.35107.24707,1.75684.7417s.6084,1.20898.6084,2.14307v4.2793Z" fill="#2f2f2f"/>
        <path d="M428.84648,94.44776c-.5376.32373-1.17578.48535-1.91406.48535-.99805,0-1.80371-.32471-2.4165-.97412s-.91943-1.49121-.91943-2.52588c0-1.15283.33057-2.0791.99121-2.77881s1.54248-1.04932,2.64551-1.04932c.61523,0,1.15771.11377,1.62695.3418v1.14844c-.51953-.36475-1.07568-.54688-1.66797-.54688-.71533,0-1.30225.25635-1.76025.76904s-.68701,1.18604-.68701,2.02002c0,.82031.21533,1.46729.646,1.94141s1.0083.71094,1.73291.71094c.61084,0,1.18506-.20264,1.72266-.6084v1.06641Z" fill="#2f2f2f"/>
        <path d="M436.01641,91.54933h-4.94238c.01807.7793.22803,1.38086.62891,1.80469s.95264.63574,1.6543.63574c.78857,0,1.51318-.25977,2.17383-.7793v1.05273c-.61523.44678-1.42871.66992-2.44043.66992-.98877,0-1.76611-.31787-2.33105-.95361s-.84766-1.53027-.84766-2.68311c0-1.08936.30859-1.97656.92627-2.6626s1.38428-1.02881,2.30029-1.02881,1.62451.29639,2.12598.88867.75195,1.41504.75195,2.46777v.58789ZM434.86797,90.59913c-.00439-.64697-.16064-1.15088-.46826-1.51074s-.73486-.54004-1.28174-.54004c-.52881,0-.97754.18896-1.34668.56738s-.59717.87256-.68359,1.4834h3.78027Z" fill="#2f2f2f"/>
      </g>
      <g>
        <path d="M659.01494,94.76905h-1.14844v-9.80273h1.14844v9.80273Z" fill="#2f2f2f"/>
        <path d="M667.08965,94.76905h-1.12109v-3.99219c0-1.48584-.54248-2.22852-1.62695-2.22852-.56055,0-1.02441.21094-1.39111.63232s-.55029.95361-.55029,1.59619v3.99219h-1.12109v-7h1.12109v1.16211h.02734c.52881-.88428,1.29443-1.32617,2.29688-1.32617.76562,0,1.35107.24707,1.75684.7417s.6084,1.20898.6084,2.14307v4.2793Z" fill="#2f2f2f"/>
        <path d="M668.7376,94.51612v-1.20312c.61084.45117,1.28271.67676,2.0166.67676.98438,0,1.47656-.32812,1.47656-.98438,0-.18701-.04199-.34521-.12646-.4751s-.19824-.24512-.3418-.34521-.31201-.19043-.50586-.27002-.40234-.16309-.62549-.24951c-.31006-.12305-.58203-.24707-.81689-.37256s-.43066-.2666-.58789-.42383-.27588-.33594-.35547-.53662-.11963-.43506-.11963-.7041c0-.32812.0752-.61865.22559-.87158s.35107-.46484.60156-.63574.53662-.2998.85791-.38623.65283-.12988.99463-.12988c.60596,0,1.14844.10498,1.62695.31445v1.13477c-.51514-.3374-1.10742-.50586-1.77734-.50586-.20947,0-.39893.02393-.56738.07178s-.31348.11523-.43408.20166-.21436.19043-.28027.31104-.09912.25391-.09912.3999c0,.18213.0332.33496.09912.45801s.16309.23242.29053.32812.28271.18213.46484.25977.38965.16162.62207.25293c.31006.11865.58789.24023.83398.36572s.45557.2666.62891.42383.30664.33838.3999.54346.14014.44873.14014.73145c0,.34619-.07617.64697-.229.90234s-.35645.46729-.61182.63574-.54932.29395-.88184.37598-.68115.12305-1.0459.12305c-.72021,0-1.34424-.13916-1.87305-.41699Z" fill="#2f2f2f"/>
        <path d="M678.39092,94.70069c-.26416.146-.61279.21875-1.0459.21875-1.22607,0-1.83887-.68359-1.83887-2.05078v-4.14258h-1.20312v-.95703h1.20312v-1.70898l1.12109-.3623v2.07129h1.76367v.95703h-1.76367v3.94434c0,.46924.07959.8042.23926,1.00488s.42383.30078.79297.30078c.28271,0,.52637-.07764.73145-.23242v.95703Z" fill="#2f2f2f"/>
        <path d="M685.00811,94.76905h-1.12109v-1.09375h-.02734c-.48779.83838-1.20557,1.25781-2.15332,1.25781-.69727,0-1.24316-.18457-1.63721-.55371s-.59131-.85889-.59131-1.46973c0-1.30811.77002-2.06885,2.31055-2.2832l2.09863-.29395c0-1.18945-.48096-1.78418-1.44238-1.78418-.84326,0-1.604.28711-2.2832.86133v-1.14844c.68799-.4375,1.48096-.65625,2.37891-.65625,1.64502,0,2.46777.87061,2.46777,2.61133v4.55273ZM683.88701,91.22804l-1.68848.23242c-.51953.07275-.91162.20166-1.17578.38623s-.39648.51172-.39648.98096c0,.3418.12207.62109.36572.8374s.56836.32471.97412.32471c.55615,0,1.01514-.19482,1.37744-.58447s.54346-.88281.54346-1.47998v-.69727Z" fill="#2f2f2f"/>
        <path d="M692.84014,94.76905h-1.12109v-3.99219c0-1.48584-.54248-2.22852-1.62695-2.22852-.56055,0-1.02441.21094-1.39111.63232s-.55029.95361-.55029,1.59619v3.99219h-1.12109v-7h1.12109v1.16211h.02734c.52881-.88428,1.29443-1.32617,2.29688-1.32617.76562,0,1.35107.24707,1.75684.7417s.6084,1.20898.6084,2.14307v4.2793Z" fill="#2f2f2f"/>
        <path d="M699.68877,94.44776c-.5376.32373-1.17578.48535-1.91406.48535-.99805,0-1.80371-.32471-2.4165-.97412s-.91943-1.49121-.91943-2.52588c0-1.15283.33057-2.0791.99121-2.77881s1.54248-1.04932,2.64551-1.04932c.61523,0,1.15771.11377,1.62695.3418v1.14844c-.51953-.36475-1.07568-.54688-1.66797-.54688-.71533,0-1.30225.25635-1.76025.76904s-.68701,1.18604-.68701,2.02002c0,.82031.21533,1.46729.646,1.94141s1.0083.71094,1.73291.71094c.61084,0,1.18506-.20264,1.72266-.6084v1.06641Z" fill="#2f2f2f"/>
        <path d="M706.85869,91.54933h-4.94238c.01807.7793.22803,1.38086.62891,1.80469s.95264.63574,1.6543.63574c.78857,0,1.51318-.25977,2.17383-.7793v1.05273c-.61523.44678-1.42871.66992-2.44043.66992-.98877,0-1.76611-.31787-2.33105-.95361s-.84766-1.53027-.84766-2.68311c0-1.08936.30859-1.97656.92627-2.6626s1.38428-1.02881,2.30029-1.02881,1.62451.29639,2.12598.88867.75195,1.41504.75195,2.46777v.58789ZM705.71025,90.59913c-.00439-.64697-.16064-1.15088-.46826-1.51074s-.73486-.54004-1.28174-.54004c-.52881,0-.97754.18896-1.34668.56738s-.59717.87256-.68359,1.4834h3.78027Z" fill="#2f2f2f"/>
      </g>
      <g>
        <path d="M34.22832,182.30665v-2.1875c.39648.33252.82715.58203,1.29199.74854s.93408.24951,1.4082.24951c.27783,0,.52051-.0249.72803-.0752s.38037-.11963.51953-.2085.24268-.19385.31104-.31445.10254-.25195.10254-.39307c0-.19141-.05469-.3623-.16406-.5127s-.25879-.28955-.44775-.41699-.41357-.25049-.67334-.36914-.54004-.23926-.84082-.3623c-.76562-.31885-1.33643-.7085-1.7124-1.16895s-.56396-1.01611-.56396-1.66797c0-.51025.10254-.94922.30762-1.31592s.48438-.66895.8374-.90576.76221-.41113,1.22705-.52295.95703-.16748,1.47656-.16748c.51025,0,.96289.03076,1.35693.09229s.75781.15625,1.09033.28369v2.04395c-.16406-.11377-.34277-.21436-.53662-.30078s-.39307-.1582-.59814-.21533-.40918-.09912-.61182-.12646-.39551-.04102-.57764-.04102c-.25049,0-.47852.02393-.68359.07178s-.37842.11523-.51953.20166-.25049.19043-.32812.31104-.11621.25635-.11621.40674c0,.16406.04346.31104.12988.44092s.20947.25293.36914.36914.35303.22998.58105.3418.48535.22656.77246.34521c.39209.16406.74414.33838,1.05615.52295s.58008.39307.80322.62549.39404.49805.5127.79639.17773.646.17773,1.04248c0,.54688-.10352,1.00586-.31104,1.37744s-.48877.67236-.84424.90234-.76904.39551-1.24072.49561-.96973.15039-1.49365.15039c-.5376,0-1.04932-.04541-1.53467-.13672s-.90576-.22803-1.26123-.41016Z" fill="#2f2f2f"/>
        <path d="M47.61992,182.4297c-.48779.28271-1.19189.42383-2.1123.42383-1.07568,0-1.9458-.32568-2.61133-.97754s-.99805-1.49268-.99805-2.52246c0-1.18945.35645-2.12695,1.06982-2.81299s1.66699-1.02881,2.86084-1.02881c.82471,0,1.42188.10938,1.79102.32812v1.83203c-.45117-.3374-.95459-.50586-1.51074-.50586-.61963,0-1.11084.18115-1.47314.54346s-.54346.8623-.54346,1.50049c0,.61963.17334,1.10645.51953,1.45947s.82275.52979,1.42871.52979c.5376,0,1.06396-.16846,1.5791-.50586v1.73633Z" fill="#2f2f2f"/>
        <path d="M54.95586,182.68263h-2.04395v-1.00488h-.02734c-.46924.78369-1.16455,1.17578-2.08496,1.17578-.6792,0-1.21338-.19238-1.60303-.57764s-.58447-.89893-.58447-1.5415c0-1.35791.8042-2.14209,2.41309-2.35156l1.90039-.25293c0-.76562-.41455-1.14844-1.24414-1.14844-.83398,0-1.62695.24854-2.37891.74512v-1.62695c.30078-.15479.71191-.2915,1.23389-.41016s.99707-.17773,1.42529-.17773c1.99609,0,2.99414.99561,2.99414,2.9873v4.18359ZM52.92559,179.83888v-.47168l-1.27148.16406c-.70166.09131-1.05273.40771-1.05273.9502,0,.24609.08545.44775.25635.60498s.40234.23584.69385.23584c.40576,0,.73584-.14014.99121-.42041s.38281-.63477.38281-1.06299Z" fill="#2f2f2f"/>
        <path d="M58.81377,182.68263h-2.16016v-10.36328h2.16016v10.36328Z" fill="#2f2f2f"/>
        <path d="M66.92949,179.79786h-4.56641c.07275,1.01611.71338,1.52441,1.9209,1.52441.77002,0,1.44678-.18213,2.03027-.54688v1.55859c-.64697.34619-1.48779.51953-2.52246.51953-1.13037,0-2.00732-.31348-2.63184-.93994s-.93652-1.50049-.93652-2.62158c0-1.16211.3374-2.08252,1.01172-2.76172s1.50391-1.01855,2.48828-1.01855c1.021,0,1.81055.30322,2.36865.90918s.8374,1.42871.8374,2.46777v.90918ZM64.92656,178.47169c0-1.00244-.40576-1.50391-1.2168-1.50391-.34619,0-.646.14355-.89893.43066s-.40674.64502-.46143,1.07324h2.57715Z" fill="#2f2f2f"/>
        <path d="M71.61895,182.49806v-1.75c.35547.21436.70996.37354,1.06299.47852s.68701.15723,1.00146.15723c.38281,0,.68457-.05225.90576-.15723s.33154-.26416.33154-.47852c0-.13672-.05029-.25049-.15039-.3418s-.229-.1709-.38623-.23926-.3291-.12988-.51611-.18457-.3667-.11621-.54004-.18457c-.27783-.10498-.52295-.21777-.73486-.33838s-.38965-.26074-.5332-.42041-.25293-.34424-.32812-.55371-.11279-.45801-.11279-.74512c0-.39209.08545-.729.25635-1.01172s.39893-.51367.68359-.69385.61084-.31201.97754-.39648.74854-.12646,1.14502-.12646c.31006,0,.62451.02393.94336.07178s.6333.11719.94336.2085v1.66797c-.27344-.15967-.56641-.2793-.87842-.35889s-.61865-.11963-.91943-.11963c-.14111,0-.27441.0127-.3999.0376s-.23584.06152-.33154.10938-.1709.10938-.22559.18457-.08203.16064-.08203.25635c0,.12744.04102.23682.12305.32812s.18896.16992.32129.23584.2793.12549.44092.17773.32227.10596.48193.16064c.28711.1001.54688.20947.7793.32812s.43164.25732.59814.41699.29395.34619.38281.56055.1333.46924.1333.76562c0,.41455-.08984.76904-.27002,1.06299s-.41943.5332-.71777.71777-.64258.31885-1.03223.40332-.79395.12646-1.21338.12646c-.77002,0-1.4834-.11865-2.13965-.35547Z" fill="#2f2f2f"/>
        <path d="M84.56865,179.79786h-4.56641c.07275,1.01611.71338,1.52441,1.9209,1.52441.77002,0,1.44678-.18213,2.03027-.54688v1.55859c-.64697.34619-1.48779.51953-2.52246.51953-1.13037,0-2.00732-.31348-2.63184-.93994s-.93652-1.50049-.93652-2.62158c0-1.16211.3374-2.08252,1.01172-2.76172s1.50391-1.01855,2.48828-1.01855c1.021,0,1.81055.30322,2.36865.90918s.8374,1.42871.8374,2.46777v.90918ZM82.56572,178.47169c0-1.00244-.40576-1.50391-1.2168-1.50391-.34619,0-.646.14355-.89893.43066s-.40674.64502-.46143,1.07324h2.57715Z" fill="#2f2f2f"/>
        <path d="M90.13408,182.6006c-.31885.16846-.7998.25293-1.44238.25293-1.52197,0-2.2832-.79053-2.2832-2.37207v-3.20605h-1.13477v-1.59277h1.13477v-1.51074l2.15332-.61523v2.12598h1.57227v1.59277h-1.57227v2.83008c0,.729.28955,1.09375.86816,1.09375.22803,0,.4624-.06592.7041-.19824v1.59961Z" fill="#2f2f2f"/>
      </g>
    </g>
  </g>
</svg>