<?xml version="1.0" encoding="UTF-8"?>
<svg xmlns="http://www.w3.org/2000/svg" width="814" height="189.2" xmlns:xlink="http://www.w3.org/1999/xlink" viewBox="0 0 814 189.2">
  <defs>
    <symbol id="Warning" viewBox="0 0 22.02735 22">
      <g>
        <path d="M21.75715,19.07884L12.80318,1.03315c-.68877-1.37753-2.75507-1.37753-3.44383,0L.26762,18.80334c-.68877,1.37753,0,3.16833,1.51529,3.16833h18.59671c1.37753.27551,2.0663-1.51529,1.37753-2.89282h0Z" fill="#db7500"/>
        <circle cx="11.01238" cy="17.83906" r="1.92855" fill="#fff"/>
        <path d="M9.08383,5.44126l.68877,8.2652h2.47956l.68877-8.2652h-3.85709Z" fill="#fff"/>
      </g>
    </symbol>
    <symbol id="success" viewBox="0 0 22 22">
      <g>
        <circle cx="11" cy="11" r="11" fill="#57a300"/>
        <path d="M4.88537,11.40013c-.10175-.10863-.154-.25163-.1485-.40013.0055-.14988.06875-.28738.17875-.3905l1.14813-1.0615c.1045-.09487.23787-.14712.37675-.14712.154,0,.3025.06462.407.17738l2.937,3.1515,5.23463-6.70312c.10587-.13613.26537-.21588.43862-.21588.12375,0,.24063.03987.33962.1155l1.24575.96112c.23788.176.28875.51837.11.76175l-6.6935,8.57037c-.25988.33275-.75625.35475-1.045.04537l-4.52925-4.86475Z" fill="#fff"/>
      </g>
    </symbol>
    <linearGradient id="Cool_gray_gradient_1" data-name="Cool gray gradient 1" x1="585.2" y1="94.82132" x2="805.2" y2="94.82132" gradientUnits="userSpaceOnUse">
      <stop offset="0" stop-color="#f5f5f4"/>
      <stop offset="1" stop-color="#ececea"/>
    </linearGradient>
    <linearGradient id="Cool_gray_gradient_1-2" data-name="Cool gray gradient 1" x1="356.4" x2="576.4" xlink:href="#Cool_gray_gradient_1"/>
    <linearGradient id="Cool_gray_gradient_1-3" data-name="Cool gray gradient 1" x1="127.6" x2="347.6" xlink:href="#Cool_gray_gradient_1"/>
    <linearGradient id="linear-gradient" x1="-288.75334" y1="-1861.71236" x2="-288.75334" y2="-1841.50791" gradientTransform="translate(564 -1744) scale(1 -1)" gradientUnits="userSpaceOnUse">
      <stop offset="0" stop-color="#0078d4"/>
      <stop offset=".82" stop-color="#5ea0ef"/>
    </linearGradient>
    <linearGradient id="linear-gradient-2" x1="-288.75334" y1="-1869.50791" x2="-288.75334" y2="-1861.71236" gradientTransform="translate(564 -1744) scale(1 -1)" gradientUnits="userSpaceOnUse">
      <stop offset=".15" stop-color="#ccc"/>
      <stop offset="1" stop-color="#707070"/>
    </linearGradient>
    <linearGradient id="linear-gradient-3" x1="-364.04179" x2="-364.04179" xlink:href="#linear-gradient"/>
    <linearGradient id="linear-gradient-4" x1="-364.04179" x2="-364.04179" xlink:href="#linear-gradient-2"/>
    <linearGradient id="linear-gradient-5" x1="-64.35334" x2="-64.35334" xlink:href="#linear-gradient"/>
    <linearGradient id="linear-gradient-6" x1="-64.35334" x2="-64.35334" xlink:href="#linear-gradient-2"/>
    <linearGradient id="linear-gradient-7" x1="-139.64179" x2="-139.64179" xlink:href="#linear-gradient"/>
    <linearGradient id="linear-gradient-8" x1="-139.64179" x2="-139.64179" xlink:href="#linear-gradient-2"/>
    <linearGradient id="linear-gradient-9" x1="-482.72056" y1="-1842.4543" x2="-482.72056" y2="-1830.52489" xlink:href="#linear-gradient"/>
    <linearGradient id="linear-gradient-10" x1="-482.67644" y1="-1847.06018" x2="-482.67644" y2="-1842.4543" xlink:href="#linear-gradient-2"/>
    <linearGradient id="linear-gradient-11" x1="176.8928" y1="-1861.71236" x2="176.8928" y2="-1841.50791" xlink:href="#linear-gradient"/>
    <linearGradient id="linear-gradient-12" x1="176.8928" y1="-1869.50791" x2="176.8928" y2="-1861.71236" xlink:href="#linear-gradient-2"/>
    <linearGradient id="linear-gradient-13" x1="82.55334" y1="-1861.71236" x2="82.55334" y2="-1841.50791" xlink:href="#linear-gradient"/>
    <linearGradient id="linear-gradient-14" x1="82.55334" y1="-1869.50791" x2="82.55334" y2="-1861.71236" xlink:href="#linear-gradient-2"/>
  </defs>
  <g isolation="isolate">
    <g id="Shapes">
      <rect width="814" height="189.2" fill="#fff"/>
      <rect x="8.8" y="57.2" width="17.6" height="102.875" fill="#76bc43" stroke="#76bc43" stroke-miterlimit="10"/>
      <g>
        <g mix-blend-mode="multiply" opacity=".8">
          <rect x="585.7" y="9.3" width="220" height="172.04263" rx="8" ry="8" fill="#2b436f"/>
          <rect x="585.7" y="9.3" width="220" height="172.04263" rx="8" ry="8" fill="#2b436f" opacity=".4"/>
        </g>
        <g>
          <rect x="585.2" y="8.8" width="220" height="172.04263" rx="8" ry="8" fill="url(#Cool_gray_gradient_1)"/>
          <rect x="585.2" y="8.8" width="220" height="172.04263" rx="8" ry="8" fill="#8ec8e7" opacity=".4"/>
        </g>
      </g>
      <g>
        <g mix-blend-mode="multiply" opacity=".8">
          <rect x="356.9" y="9.3" width="220" height="172.04263" rx="8" ry="8" fill="#2b436f"/>
          <rect x="356.9" y="9.3" width="220" height="172.04263" rx="8" ry="8" fill="#2b436f" opacity=".4"/>
        </g>
        <g>
          <rect x="356.4" y="8.8" width="220" height="172.04263" rx="8" ry="8" fill="url(#Cool_gray_gradient_1-2)"/>
          <rect x="356.4" y="8.8" width="220" height="172.04263" rx="8" ry="8" fill="#8ec8e7" opacity=".4"/>
        </g>
      </g>
      <g>
        <g mix-blend-mode="multiply" opacity=".8">
          <rect x="128.1" y="9.3" width="220" height="172.04263" rx="8" ry="8" fill="#2b436f"/>
          <rect x="128.1" y="9.3" width="220" height="172.04263" rx="8" ry="8" fill="#2b436f" opacity=".4"/>
        </g>
        <g>
          <rect x="127.6" y="8.8" width="220" height="172.04263" rx="8" ry="8" fill="url(#Cool_gray_gradient_1-3)"/>
          <rect x="127.6" y="8.8" width="220" height="172.04263" rx="8" ry="8" fill="#8ec8e7" opacity=".4"/>
        </g>
      </g>
      <g>
        <rect x="26.4" y="57.2" width="778.8" height="102.875" fill="#fff"/>
        <rect x="26.4" y="57.2" width="778.8" height="102.875" fill="#f5f3f2" opacity=".8"/>
        <rect x="26.4" y="57.2" width="778.8" height="102.875" fill="none" stroke="#76bc43"/>
      </g>
      <g>
        <rect x="260.09333" y="97.50791" width="30.30667" height="20.20445" rx="1.01022" ry="1.01022" fill="url(#linear-gradient)"/>
        <polygon points="280.29778 104.66365 280.29778 110.53978 275.24666 113.5031 275.24666 107.61014 280.29778 104.66365" fill="#50e6ff"/>
        <polygon points="280.29778 104.66365 275.24666 107.62697 270.19555 104.66365 275.24666 101.71717 280.29778 104.66365" fill="#c3f1ff"/>
        <polygon points="275.24666 107.62697 275.24666 113.5031 270.19555 110.53978 270.19555 104.66365 275.24666 107.62697" fill="#9cebff"/>
        <polygon points="270.19555 110.53978 275.24666 107.61014 275.24666 113.5031 270.19555 110.53978" fill="#c3f1ff"/>
        <polygon points="280.29778 110.53978 275.24666 107.61014 275.24666 113.5031 280.29778 110.53978" fill="#9cebff"/>
        <path d="M281.32484,123.82421c-2.99699-.47144-3.11485-2.62658-3.11485-6.11185h-5.94347c0,3.48527-.10102,5.64041-3.09802,6.11185-.8569.09482-1.50373.82159-1.4985,1.6837h15.15334c.00523-.86211-.6416-1.58889-1.4985-1.6837Z" fill="url(#linear-gradient-2)"/>
      </g>
      <g>
        <rect x="184.80487" y="97.50791" width="30.30667" height="20.20445" rx="1.01022" ry="1.01022" fill="url(#linear-gradient-3)"/>
        <polygon points="205.00932 104.66365 205.00932 110.53978 199.95821 113.5031 199.95821 107.61014 205.00932 104.66365" fill="#50e6ff"/>
        <polygon points="205.00932 104.66365 199.95821 107.62697 194.9071 104.66365 199.95821 101.71717 205.00932 104.66365" fill="#c3f1ff"/>
        <polygon points="199.95821 107.62697 199.95821 113.5031 194.9071 110.53978 194.9071 104.66365 199.95821 107.62697" fill="#9cebff"/>
        <polygon points="194.9071 110.53978 199.95821 107.61014 199.95821 113.5031 194.9071 110.53978" fill="#c3f1ff"/>
        <polygon points="205.00932 110.53978 199.95821 107.61014 199.95821 113.5031 205.00932 110.53978" fill="#9cebff"/>
        <path d="M206.03638,123.82421c-2.99699-.47144-3.11485-2.62658-3.11485-6.11185h-5.94347c0,3.48527-.10102,5.64041-3.09802,6.11185-.8569.09482-1.50373.82159-1.4985,1.6837h15.15334c.00523-.86211-.6416-1.58889-1.4985-1.6837Z" fill="url(#linear-gradient-4)"/>
      </g>
      <g>
        <rect x="484.49333" y="97.50791" width="30.30667" height="20.20445" rx="1.01022" ry="1.01022" fill="url(#linear-gradient-5)"/>
        <polygon points="504.69778 104.66365 504.69778 110.53978 499.64666 113.5031 499.64666 107.61014 504.69778 104.66365" fill="#50e6ff"/>
        <polygon points="504.69778 104.66365 499.64666 107.62697 494.59555 104.66365 499.64666 101.71717 504.69778 104.66365" fill="#c3f1ff"/>
        <polygon points="499.64666 107.62697 499.64666 113.5031 494.59555 110.53978 494.59555 104.66365 499.64666 107.62697" fill="#9cebff"/>
        <polygon points="494.59555 110.53978 499.64666 107.61014 499.64666 113.5031 494.59555 110.53978" fill="#c3f1ff"/>
        <polygon points="504.69778 110.53978 499.64666 107.61014 499.64666 113.5031 504.69778 110.53978" fill="#9cebff"/>
        <path d="M505.72484,123.82421c-2.99699-.47144-3.11485-2.62658-3.11485-6.11185h-5.94347c0,3.48527-.10102,5.64041-3.09802,6.11185-.8569.09482-1.50373.82159-1.4985,1.6837h15.15334c.00523-.86211-.6416-1.58889-1.4985-1.6837Z" fill="url(#linear-gradient-6)"/>
      </g>
      <g>
        <rect x="409.20487" y="97.50791" width="30.30667" height="20.20445" rx="1.01022" ry="1.01022" fill="url(#linear-gradient-7)"/>
        <polygon points="429.40932 104.66365 429.40932 110.53978 424.35821 113.5031 424.35821 107.61014 429.40932 104.66365" fill="#50e6ff"/>
        <polygon points="429.40932 104.66365 424.35821 107.62697 419.3071 104.66365 424.35821 101.71717 429.40932 104.66365" fill="#c3f1ff"/>
        <polygon points="424.35821 107.62697 424.35821 113.5031 419.3071 110.53978 419.3071 104.66365 424.35821 107.62697" fill="#9cebff"/>
        <polygon points="419.3071 110.53978 424.35821 107.61014 424.35821 113.5031 419.3071 110.53978" fill="#c3f1ff"/>
        <polygon points="429.40932 110.53978 424.35821 107.61014 424.35821 113.5031 429.40932 110.53978" fill="#9cebff"/>
        <path d="M430.43638,123.82421c-2.99699-.47144-3.11485-2.62658-3.11485-6.11185h-5.94347c0,3.48527-.10102,5.64041-3.09802,6.11185-.8569.09482-1.50373.82159-1.4985,1.6837h15.15334c.00523-.86211-.6416-1.58889-1.4985-1.6837Z" fill="url(#linear-gradient-8)"/>
      </g>
      <g>
        <rect x="60.20003" y="73.06018" width="17.84118" height="11.91176" rx=".6" ry=".6" fill="#005ba1"/>
        <polygon points="72.09414 77.27783 72.09414 80.7543 69.12944 82.48371 69.12944 79.02489 72.09414 77.27783" fill="#50e6ff"/>
        <polygon points="72.09414 77.27783 69.12944 79.02489 66.14709 77.27783 69.12944 75.53077 72.09414 77.27783" fill="#c3f1ff"/>
        <polygon points="69.12944 79.02489 69.12944 82.48371 66.14709 80.7543 66.14709 77.27783 69.12944 79.02489" fill="#9cebff"/>
        <rect x="67.20591" y="79.88959" width="17.84118" height="11.91177" rx=".6" ry=".6" fill="#0078d4"/>
        <polygon points="79.10003 84.12489 79.10003 87.58371 76.13532 89.33077 76.13532 85.8543 79.10003 84.12489" fill="#50e6ff"/>
        <polygon points="79.10003 84.12489 76.13532 85.8543 73.15297 84.12489 76.13532 82.37783 79.10003 84.12489" fill="#c3f1ff"/>
        <polygon points="76.13532 85.8543 76.13532 89.33077 73.15297 87.58371 73.15297 84.12489 76.13532 85.8543" fill="#9cebff"/>
        <rect x="72.35885" y="86.52489" width="17.84118" height="11.91177" rx=".6" ry=".6" fill="url(#linear-gradient-9)"/>
        <polygon points="84.25297 90.76018 84.25297 94.21901 81.28826 95.96606 81.28826 92.48959 84.25297 90.76018" fill="#50e6ff"/>
        <polygon points="84.25297 90.76018 81.28826 92.50724 78.30591 90.76018 81.28826 89.01312 84.25297 90.76018" fill="#c3f1ff"/>
        <polygon points="81.28826 92.50724 81.28826 95.96606 78.30591 94.21901 78.30591 90.76018 81.28826 92.50724" fill="#9cebff"/>
        <polygon points="78.30591 94.21901 81.28826 92.48959 81.28826 95.96606 78.30591 94.21901" fill="#c3f1ff"/>
        <polygon points="84.25297 94.21901 81.28826 92.48959 81.28826 95.96606 84.25297 94.21901" fill="#9cebff"/>
        <path d="M84.85297,102.0543c-1.76471-.28235-1.76471-1.55294-1.76471-3.52941h-3.52941c0,2.04706,0,3.31765-1.76471,3.52941-.49915.07691-.87112.50096-.88235,1.00588h8.82353c-.01123-.50492-.3832-.92897-.88235-1.00588Z" fill="url(#linear-gradient-10)"/>
      </g>
      <g opacity=".5">
        <rect x="725.73947" y="97.50791" width="30.30667" height="20.20445" rx="1.01022" ry="1.01022" fill="url(#linear-gradient-11)"/>
        <polygon points="745.94392 104.66365 745.94392 110.53978 740.8928 113.5031 740.8928 107.61014 745.94392 104.66365" fill="#50e6ff"/>
        <polygon points="745.94392 104.66365 740.8928 107.62697 735.84169 104.66365 740.8928 101.71717 745.94392 104.66365" fill="#c3f1ff"/>
        <polygon points="740.8928 107.62697 740.8928 113.5031 735.84169 110.53978 735.84169 104.66365 740.8928 107.62697" fill="#9cebff"/>
        <polygon points="735.84169 110.53978 740.8928 107.61014 740.8928 113.5031 735.84169 110.53978" fill="#c3f1ff"/>
        <polygon points="745.94392 110.53978 740.8928 107.61014 740.8928 113.5031 745.94392 110.53978" fill="#9cebff"/>
        <path d="M746.97098,123.82421c-2.99699-.47144-3.11485-2.62658-3.11485-6.11185h-5.94347c0,3.48527-.10102,5.64041-3.09802,6.11185-.8569.09482-1.50373.82159-1.4985,1.6837h15.15334c.00523-.86211-.6416-1.58889-1.4985-1.6837Z" fill="url(#linear-gradient-12)"/>
      </g>
      <g opacity=".5">
        <rect x="631.4" y="97.50791" width="30.30667" height="20.20445" rx="1.01022" ry="1.01022" fill="url(#linear-gradient-13)"/>
        <polygon points="651.60445 104.66365 651.60445 110.53978 646.55334 113.5031 646.55334 107.61014 651.60445 104.66365" fill="#50e6ff"/>
        <polygon points="651.60445 104.66365 646.55334 107.62697 641.50222 104.66365 646.55334 101.71717 651.60445 104.66365" fill="#c3f1ff"/>
        <polygon points="646.55334 107.62697 646.55334 113.5031 641.50222 110.53978 641.50222 104.66365 646.55334 107.62697" fill="#9cebff"/>
        <polygon points="641.50222 110.53978 646.55334 107.61014 646.55334 113.5031 641.50222 110.53978" fill="#c3f1ff"/>
        <polygon points="651.60445 110.53978 646.55334 107.61014 646.55334 113.5031 651.60445 110.53978" fill="#9cebff"/>
        <path d="M652.63151,123.82421c-2.99699-.47144-3.11485-2.62658-3.11485-6.11185h-5.94347c0,3.48527-.10102,5.64041-3.09802,6.11185-.8569.09482-1.50373.82159-1.4985,1.6837h15.15334c.00523-.86211-.6416-1.58889-1.4985-1.6837Z" fill="url(#linear-gradient-14)"/>
      </g>
      <use width="22.02735" height="22" transform="translate(207.31472 89.79584) scale(.63636)" xlink:href="#Warning"/>
      <use width="22.02735" height="22" transform="translate(283.6 89.79584) scale(.63636)" xlink:href="#Warning"/>
      <use width="22" height="22" transform="translate(8.6 35.2) scale(.81818)" xlink:href="#success"/>
    </g>
    <g id="Text">
      <g>
        <path d="M186.13584,36.1084h-2.40625l-.69727-2.18066h-3.48633l-.69043,2.18066h-2.39258l3.56836-9.80273h2.61816l3.48633,9.80273ZM182.52646,32.23242l-1.05273-3.29492c-.07764-.24609-.13232-.54004-.16406-.88184h-.05469c-.02295.28711-.07959.57129-.1709.85449l-1.06641,3.32227h2.50879Z" fill="#2f2f2f"/>
        <path d="M193.50498,29.1084l-2.60449,7h-2.46094l-2.48145-7h2.31055l1.2168,4.31348c.13672.4873.21631.90234.23926,1.24414h.02734c.03174-.32422.11621-.72461.25293-1.20312l1.24414-4.35449h2.25586Z" fill="#2f2f2f"/>
        <path d="M200.04014,36.1084h-2.04395v-1.00488h-.02734c-.46924.7832-1.16455,1.17578-2.08496,1.17578-.6792,0-1.21338-.19238-1.60303-.57812-.38965-.38477-.58447-.89844-.58447-1.54102,0-1.3584.8042-2.14258,2.41309-2.35156l1.90039-.25293c0-.76562-.41455-1.14844-1.24414-1.14844-.83398,0-1.62695.24805-2.37891.74512v-1.62695c.30078-.15527.71191-.29199,1.23389-.41016.52197-.11914.99707-.17773,1.42529-.17773,1.99609,0,2.99414.99512,2.99414,2.9873v4.18359ZM198.00986,33.26465v-.47168l-1.27148.16406c-.70166.09082-1.05273.40723-1.05273.9502,0,.24609.08545.44727.25635.60449s.40234.23633.69385.23633c.40576,0,.73584-.14062.99121-.4209s.38281-.63477.38281-1.0625Z" fill="#2f2f2f"/>
        <path d="M202.84287,28.00098c-.36475,0-.66309-.1084-.89551-.3252-.23242-.21582-.34863-.48145-.34863-.7959,0-.32422.11621-.58789.34863-.79297s.53076-.30762.89551-.30762c.36914,0,.66895.10254.89893.30762s.34521.46875.34521.79297c0,.32812-.11523.59668-.34521.80664-.22998.20898-.52979.31445-.89893.31445ZM203.90928,36.1084h-2.16016v-7h2.16016v7Z" fill="#2f2f2f"/>
        <path d="M207.88779,36.1084h-2.16016v-10.36328h2.16016v10.36328Z" fill="#2f2f2f"/>
        <path d="M215.53037,36.1084h-2.04395v-1.00488h-.02734c-.46924.7832-1.16455,1.17578-2.08496,1.17578-.6792,0-1.21338-.19238-1.60303-.57812-.38965-.38477-.58447-.89844-.58447-1.54102,0-1.3584.8042-2.14258,2.41309-2.35156l1.90039-.25293c0-.76562-.41455-1.14844-1.24414-1.14844-.83398,0-1.62695.24805-2.37891.74512v-1.62695c.30078-.15527.71191-.29199,1.23389-.41016.52197-.11914.99707-.17773,1.42529-.17773,1.99609,0,2.99414.99512,2.99414,2.9873v4.18359ZM213.5001,33.26465v-.47168l-1.27148.16406c-.70166.09082-1.05273.40723-1.05273.9502,0,.24609.08545.44727.25635.60449s.40234.23633.69385.23633c.40576,0,.73584-.14062.99121-.4209s.38281-.63477.38281-1.0625Z" fill="#2f2f2f"/>
        <path d="M219.42686,35.29492h-.02734v.81348h-2.16016v-10.36328h2.16016v4.41602h.02734c.5332-.81641,1.29199-1.22363,2.27637-1.22363.90234,0,1.59717.30957,2.08496.92969.48779.61914.73145,1.4668.73145,2.54297,0,1.16602-.28467,2.10254-.85449,2.80957-.56982.70605-1.33057,1.05957-2.2832,1.05957-.86133,0-1.51318-.32812-1.95508-.98438ZM219.36533,32.3418v.71777c0,.45117.12988.82422.38965,1.12109.25977.2959.59229.44434.99805.44434.49219,0,.87402-.19043,1.14502-.57129.271-.37988.40674-.91895.40674-1.61621,0-.5791-.12402-1.03125-.37256-1.35742-.24854-.3252-.60254-.48828-1.06299-.48828-.43311,0-.79199.16113-1.07666.48535-.28467.32324-.42725.74512-.42725,1.26465Z" fill="#2f2f2f"/>
        <path d="M227.01475,28.00098c-.36475,0-.66309-.1084-.89551-.3252-.23242-.21582-.34863-.48145-.34863-.7959,0-.32422.11621-.58789.34863-.79297s.53076-.30762.89551-.30762c.36914,0,.66895.10254.89893.30762s.34521.46875.34521.79297c0,.32812-.11523.59668-.34521.80664-.22998.20898-.52979.31445-.89893.31445ZM228.08115,36.1084h-2.16016v-7h2.16016v7Z" fill="#2f2f2f"/>
        <path d="M232.05967,36.1084h-2.16016v-10.36328h2.16016v10.36328Z" fill="#2f2f2f"/>
        <path d="M234.97178,28.00098c-.36475,0-.66309-.1084-.89551-.3252-.23242-.21582-.34863-.48145-.34863-.7959,0-.32422.11621-.58789.34863-.79297s.53076-.30762.89551-.30762c.36914,0,.66895.10254.89893.30762s.34521.46875.34521.79297c0,.32812-.11523.59668-.34521.80664-.22998.20898-.52979.31445-.89893.31445ZM236.03818,36.1084h-2.16016v-7h2.16016v7Z" fill="#2f2f2f"/>
        <path d="M242.08799,36.02637c-.31885.16797-.7998.25293-1.44238.25293-1.52197,0-2.2832-.79102-2.2832-2.37207v-3.20605h-1.13477v-1.59277h1.13477v-1.51074l2.15332-.61523v2.12598h1.57227v1.59277h-1.57227v2.83008c0,.72852.28955,1.09375.86816,1.09375.22803,0,.4624-.06641.7041-.19824v1.59961Z" fill="#2f2f2f"/>
        <path d="M249.96982,29.1084l-2.84375,7.56055c-.68359,1.81836-1.71338,2.72754-3.08984,2.72754-.52393,0-.95459-.05957-1.29199-.17773v-1.72266c.28711.16797.59912.25293.93652.25293.55615,0,.94336-.2627,1.16211-.78613l.36914-.86816-2.84375-6.98633h2.39258l1.30566,4.25879c.08203.26367.146.57617.19141.93652h.02734c.04102-.26465.11621-.57227.22559-.92285l1.31934-4.27246h2.13965Z" fill="#2f2f2f"/>
        <path d="M261.96689,36.1084h-7.89551v-1.27148l5.02441-6.7334h-4.66211v-1.79785h7.51953v1.2373l-4.91504,6.77441h4.92871v1.79102Z" fill="#2f2f2f"/>
        <path d="M266.5333,36.2793c-1.1665,0-2.08398-.32715-2.75146-.98145-.66748-.65332-1.00146-1.54102-1.00146-2.66211,0-1.1582.34619-2.06348,1.03906-2.71777.69287-.65332,1.62939-.98047,2.80957-.98047,1.16211,0,2.07373.32715,2.73438.98047.66064.6543.99121,1.51855.99121,2.59473,0,1.16211-.34082,2.08008-1.02197,2.75488-.68115.67383-1.61426,1.01172-2.79932,1.01172ZM266.58799,30.5918c-.51025,0-.90674.1748-1.18945.52637-.28271.35059-.42383.84766-.42383,1.49023,0,1.34375.54248,2.0166,1.62695,2.0166,1.03467,0,1.55176-.69043,1.55176-2.07129,0-1.30859-.52197-1.96191-1.56543-1.96191Z" fill="#2f2f2f"/>
        <path d="M278.5167,36.1084h-2.15332v-3.88965c0-1.08496-.38721-1.62695-1.16211-1.62695-.37354,0-.68115.14355-.92285.43066s-.3623.65137-.3623,1.09375v3.99219h-2.16016v-7h2.16016v1.10742h.02734c.51514-.85254,1.26465-1.27832,2.24902-1.27832,1.54932,0,2.32422.96094,2.32422,2.88477v4.28613Z" fill="#2f2f2f"/>
        <path d="M286.51475,33.22363h-4.56641c.07275,1.01562.71338,1.52441,1.9209,1.52441.77002,0,1.44678-.18262,2.03027-.54688v1.55859c-.64697.3457-1.48779.51953-2.52246.51953-1.13037,0-2.00732-.31348-2.63184-.94043-.62451-.62598-.93652-1.5-.93652-2.62109,0-1.16211.3374-2.08301,1.01172-2.76172.67432-.67969,1.50391-1.01855,2.48828-1.01855,1.021,0,1.81055.30273,2.36865.90918.55811.60547.8374,1.42871.8374,2.46777v.90918ZM284.51182,31.89746c0-1.00293-.40576-1.50391-1.2168-1.50391-.34619,0-.646.14355-.89893.43066s-.40674.64453-.46143,1.07324h2.57715Z" fill="#2f2f2f"/>
        <path d="M296.44053,26.08691v10.02148h-2.15332v-7.58789c-.11865.10449-.25879.2041-.42041.29688-.16162.09375-.33398.17773-.51611.25293s-.37158.13965-.56738.19141c-.1958.05273-.38965.08984-.58105.11328v-1.81836c.56055-.16406,1.08936-.37402,1.58594-.62891.49658-.25586.9458-.53613,1.34668-.84082h1.30566Z" fill="#2f2f2f"/>
      </g>
      <g>
        <path d="M413.83555,36.1084h-2.40625l-.69727-2.18066h-3.48633l-.69043,2.18066h-2.39258l3.56836-9.80273h2.61816l3.48633,9.80273ZM410.22617,32.23242l-1.05273-3.29492c-.07764-.24609-.13232-.54004-.16406-.88184h-.05469c-.02295.28711-.07959.57129-.1709.85449l-1.06641,3.32227h2.50879Z" fill="#2f2f2f"/>
        <path d="M421.20469,29.1084l-2.60449,7h-2.46094l-2.48145-7h2.31055l1.2168,4.31348c.13672.4873.21631.90234.23926,1.24414h.02734c.03174-.32422.11621-.72461.25293-1.20312l1.24414-4.35449h2.25586Z" fill="#2f2f2f"/>
        <path d="M427.73984,36.1084h-2.04395v-1.00488h-.02734c-.46924.7832-1.16455,1.17578-2.08496,1.17578-.6792,0-1.21338-.19238-1.60303-.57812-.38965-.38477-.58447-.89844-.58447-1.54102,0-1.3584.8042-2.14258,2.41309-2.35156l1.90039-.25293c0-.76562-.41455-1.14844-1.24414-1.14844-.83398,0-1.62695.24805-2.37891.74512v-1.62695c.30078-.15527.71191-.29199,1.23389-.41016.52197-.11914.99707-.17773,1.42529-.17773,1.99609,0,2.99414.99512,2.99414,2.9873v4.18359ZM425.70957,33.26465v-.47168l-1.27148.16406c-.70166.09082-1.05273.40723-1.05273.9502,0,.24609.08545.44727.25635.60449s.40234.23633.69385.23633c.40576,0,.73584-.14062.99121-.4209s.38281-.63477.38281-1.0625Z" fill="#2f2f2f"/>
        <path d="M430.54258,28.00098c-.36475,0-.66309-.1084-.89551-.3252-.23242-.21582-.34863-.48145-.34863-.7959,0-.32422.11621-.58789.34863-.79297s.53076-.30762.89551-.30762c.36914,0,.66895.10254.89893.30762s.34521.46875.34521.79297c0,.32812-.11523.59668-.34521.80664-.22998.20898-.52979.31445-.89893.31445ZM431.60898,36.1084h-2.16016v-7h2.16016v7Z" fill="#2f2f2f"/>
        <path d="M435.5875,36.1084h-2.16016v-10.36328h2.16016v10.36328Z" fill="#2f2f2f"/>
        <path d="M443.23008,36.1084h-2.04395v-1.00488h-.02734c-.46924.7832-1.16455,1.17578-2.08496,1.17578-.6792,0-1.21338-.19238-1.60303-.57812-.38965-.38477-.58447-.89844-.58447-1.54102,0-1.3584.8042-2.14258,2.41309-2.35156l1.90039-.25293c0-.76562-.41455-1.14844-1.24414-1.14844-.83398,0-1.62695.24805-2.37891.74512v-1.62695c.30078-.15527.71191-.29199,1.23389-.41016.52197-.11914.99707-.17773,1.42529-.17773,1.99609,0,2.99414.99512,2.99414,2.9873v4.18359ZM441.1998,33.26465v-.47168l-1.27148.16406c-.70166.09082-1.05273.40723-1.05273.9502,0,.24609.08545.44727.25635.60449s.40234.23633.69385.23633c.40576,0,.73584-.14062.99121-.4209s.38281-.63477.38281-1.0625Z" fill="#2f2f2f"/>
        <path d="M447.12656,35.29492h-.02734v.81348h-2.16016v-10.36328h2.16016v4.41602h.02734c.5332-.81641,1.29199-1.22363,2.27637-1.22363.90234,0,1.59717.30957,2.08496.92969.48779.61914.73145,1.4668.73145,2.54297,0,1.16602-.28467,2.10254-.85449,2.80957-.56982.70605-1.33057,1.05957-2.2832,1.05957-.86133,0-1.51318-.32812-1.95508-.98438ZM447.06504,32.3418v.71777c0,.45117.12988.82422.38965,1.12109.25977.2959.59229.44434.99805.44434.49219,0,.87402-.19043,1.14502-.57129.271-.37988.40674-.91895.40674-1.61621,0-.5791-.12402-1.03125-.37256-1.35742-.24854-.3252-.60254-.48828-1.06299-.48828-.43311,0-.79199.16113-1.07666.48535-.28467.32324-.42725.74512-.42725,1.26465Z" fill="#2f2f2f"/>
        <path d="M454.71445,28.00098c-.36475,0-.66309-.1084-.89551-.3252-.23242-.21582-.34863-.48145-.34863-.7959,0-.32422.11621-.58789.34863-.79297s.53076-.30762.89551-.30762c.36914,0,.66895.10254.89893.30762s.34521.46875.34521.79297c0,.32812-.11523.59668-.34521.80664-.22998.20898-.52979.31445-.89893.31445ZM455.78086,36.1084h-2.16016v-7h2.16016v7Z" fill="#2f2f2f"/>
        <path d="M459.75937,36.1084h-2.16016v-10.36328h2.16016v10.36328Z" fill="#2f2f2f"/>
        <path d="M462.67148,28.00098c-.36475,0-.66309-.1084-.89551-.3252-.23242-.21582-.34863-.48145-.34863-.7959,0-.32422.11621-.58789.34863-.79297s.53076-.30762.89551-.30762c.36914,0,.66895.10254.89893.30762s.34521.46875.34521.79297c0,.32812-.11523.59668-.34521.80664-.22998.20898-.52979.31445-.89893.31445ZM463.73789,36.1084h-2.16016v-7h2.16016v7Z" fill="#2f2f2f"/>
        <path d="M469.7877,36.02637c-.31885.16797-.7998.25293-1.44238.25293-1.52197,0-2.2832-.79102-2.2832-2.37207v-3.20605h-1.13477v-1.59277h1.13477v-1.51074l2.15332-.61523v2.12598h1.57227v1.59277h-1.57227v2.83008c0,.72852.28955,1.09375.86816,1.09375.22803,0,.4624-.06641.7041-.19824v1.59961Z" fill="#2f2f2f"/>
        <path d="M477.66953,29.1084l-2.84375,7.56055c-.68359,1.81836-1.71338,2.72754-3.08984,2.72754-.52393,0-.95459-.05957-1.29199-.17773v-1.72266c.28711.16797.59912.25293.93652.25293.55615,0,.94336-.2627,1.16211-.78613l.36914-.86816-2.84375-6.98633h2.39258l1.30566,4.25879c.08203.26367.146.57617.19141.93652h.02734c.04102-.26465.11621-.57227.22559-.92285l1.31934-4.27246h2.13965Z" fill="#2f2f2f"/>
        <path d="M489.6666,36.1084h-7.89551v-1.27148l5.02441-6.7334h-4.66211v-1.79785h7.51953v1.2373l-4.91504,6.77441h4.92871v1.79102Z" fill="#2f2f2f"/>
        <path d="M494.23301,36.2793c-1.1665,0-2.08398-.32715-2.75146-.98145-.66748-.65332-1.00146-1.54102-1.00146-2.66211,0-1.1582.34619-2.06348,1.03906-2.71777.69287-.65332,1.62939-.98047,2.80957-.98047,1.16211,0,2.07373.32715,2.73438.98047.66064.6543.99121,1.51855.99121,2.59473,0,1.16211-.34082,2.08008-1.02197,2.75488-.68115.67383-1.61426,1.01172-2.79932,1.01172ZM494.2877,30.5918c-.51025,0-.90674.1748-1.18945.52637-.28271.35059-.42383.84766-.42383,1.49023,0,1.34375.54248,2.0166,1.62695,2.0166,1.03467,0,1.55176-.69043,1.55176-2.07129,0-1.30859-.52197-1.96191-1.56543-1.96191Z" fill="#2f2f2f"/>
        <path d="M506.21641,36.1084h-2.15332v-3.88965c0-1.08496-.38721-1.62695-1.16211-1.62695-.37354,0-.68115.14355-.92285.43066s-.3623.65137-.3623,1.09375v3.99219h-2.16016v-7h2.16016v1.10742h.02734c.51514-.85254,1.26465-1.27832,2.24902-1.27832,1.54932,0,2.32422.96094,2.32422,2.88477v4.28613Z" fill="#2f2f2f"/>
        <path d="M514.21445,33.22363h-4.56641c.07275,1.01562.71338,1.52441,1.9209,1.52441.77002,0,1.44678-.18262,2.03027-.54688v1.55859c-.64697.3457-1.48779.51953-2.52246.51953-1.13037,0-2.00732-.31348-2.63184-.94043-.62451-.62598-.93652-1.5-.93652-2.62109,0-1.16211.3374-2.08301,1.01172-2.76172.67432-.67969,1.50391-1.01855,2.48828-1.01855,1.021,0,1.81055.30273,2.36865.90918.55811.60547.8374,1.42871.8374,2.46777v.90918ZM512.21152,31.89746c0-1.00293-.40576-1.50391-1.2168-1.50391-.34619,0-.646.14355-.89893.43066s-.40674.64453-.46143,1.07324h2.57715Z" fill="#2f2f2f"/>
        <path d="M521.38535,34.31738h4.15625v1.79102h-6.52148v-.73828c0-.50195.08447-.95117.25293-1.35059.16846-.39844.38037-.75586.63574-1.07324.25537-.31641.53418-.59668.8374-.84082.30322-.24316.59131-.46387.86475-.65918.28711-.20508.53906-.40137.75537-.58789.21631-.1875.39893-.37305.54688-.55762s.25879-.37109.33154-.56055c.07275-.18848.10938-.39062.10938-.60449,0-.41992-.11865-.73633-.35547-.9502-.23682-.21484-.59912-.32129-1.08691-.32129-.84326,0-1.6499.33496-2.41992,1.00488v-1.90039c.85205-.55176,1.81396-.82715,2.88477-.82715.49658,0,.94238.06445,1.33643.19434s.72803.31543,1.00146.55762c.27344.24121.48193.53418.62549.87793.14355.34473.21533.72852.21533,1.15234,0,.45117-.06934.85156-.2085,1.20312-.13916.35059-.32373.66992-.55371.95703s-.49561.5498-.79639.78906-.61279.4707-.93652.69434c-.21875.1543-.42969.30859-.63232.46094-.20264.15332-.38184.30371-.53662.45117-.15479.14844-.27783.29297-.36914.43457-.09131.14062-.13672.27539-.13672.40332Z" fill="#2f2f2f"/>
      </g>
      <g>
        <path d="M643.73545,36.10742h-2.40625l-.69727-2.17969h-3.48633l-.69043,2.17969h-2.39258l3.56836-9.80273h2.61816l3.48633,9.80273ZM640.12607,32.23242l-1.05273-3.29492c-.07764-.24609-.13232-.54102-.16406-.88281h-.05469c-.02295.28711-.07959.57227-.1709.85547l-1.06641,3.32227h2.50879Z" fill="#2f2f2f"/>
        <path d="M651.10459,29.10742l-2.60449,7h-2.46094l-2.48145-7h2.31055l1.2168,4.31445c.13672.4873.21631.90234.23926,1.24414h.02734c.03174-.32422.11621-.72461.25293-1.20312l1.24414-4.35547h2.25586Z" fill="#2f2f2f"/>
        <path d="M657.63975,36.10742h-2.04395v-1.00391h-.02734c-.46924.7832-1.16455,1.17578-2.08496,1.17578-.6792,0-1.21338-.19336-1.60303-.57812s-.58447-.89844-.58447-1.54102c0-1.3584.8042-2.14258,2.41309-2.35156l1.90039-.25391c0-.76562-.41455-1.14844-1.24414-1.14844-.83398,0-1.62695.24902-2.37891.74609v-1.62695c.30078-.15527.71191-.29199,1.23389-.41016.52197-.11914.99707-.17773,1.42529-.17773,1.99609,0,2.99414.99512,2.99414,2.98633v4.18359ZM655.60947,33.26367v-.4707l-1.27148.16406c-.70166.09082-1.05273.40723-1.05273.94922,0,.24609.08545.44824.25635.60547s.40234.23633.69385.23633c.40576,0,.73584-.14062.99121-.4209s.38281-.63477.38281-1.06348Z" fill="#2f2f2f"/>
        <path d="M660.44248,28c-.36475,0-.66309-.10742-.89551-.32422s-.34863-.48242-.34863-.79688c0-.32324.11621-.58789.34863-.79297s.53076-.30664.89551-.30664c.36914,0,.66895.10156.89893.30664s.34521.46973.34521.79297c0,.32812-.11523.59766-.34521.80664-.22998.20996-.52979.31445-.89893.31445ZM661.50889,36.10742h-2.16016v-7h2.16016v7Z" fill="#2f2f2f"/>
        <path d="M665.4874,36.10742h-2.16016v-10.36328h2.16016v10.36328Z" fill="#2f2f2f"/>
        <path d="M673.12998,36.10742h-2.04395v-1.00391h-.02734c-.46924.7832-1.16455,1.17578-2.08496,1.17578-.6792,0-1.21338-.19336-1.60303-.57812s-.58447-.89844-.58447-1.54102c0-1.3584.8042-2.14258,2.41309-2.35156l1.90039-.25391c0-.76562-.41455-1.14844-1.24414-1.14844-.83398,0-1.62695.24902-2.37891.74609v-1.62695c.30078-.15527.71191-.29199,1.23389-.41016.52197-.11914.99707-.17773,1.42529-.17773,1.99609,0,2.99414.99512,2.99414,2.98633v4.18359ZM671.09971,33.26367v-.4707l-1.27148.16406c-.70166.09082-1.05273.40723-1.05273.94922,0,.24609.08545.44824.25635.60547s.40234.23633.69385.23633c.40576,0,.73584-.14062.99121-.4209s.38281-.63477.38281-1.06348Z" fill="#2f2f2f"/>
        <path d="M677.02646,35.29492h-.02734v.8125h-2.16016v-10.36328h2.16016v4.41602h.02734c.5332-.81543,1.29199-1.22266,2.27637-1.22266.90234,0,1.59717.30957,2.08496.92969.48779.61914.73145,1.4668.73145,2.54297,0,1.16602-.28467,2.10254-.85449,2.80859-.56982.70703-1.33057,1.06055-2.2832,1.06055-.86133,0-1.51318-.32812-1.95508-.98438ZM676.96494,32.3418v.7168c0,.45117.12988.8252.38965,1.12109.25977.29688.59229.44531.99805.44531.49219,0,.87402-.19141,1.14502-.57129s.40674-.91895.40674-1.61621c0-.5791-.12402-1.03125-.37256-1.35742s-.60254-.48828-1.06299-.48828c-.43311,0-.79199.16113-1.07666.48438-.28467.32422-.42725.74609-.42725,1.26562Z" fill="#2f2f2f"/>
        <path d="M684.61436,28c-.36475,0-.66309-.10742-.89551-.32422s-.34863-.48242-.34863-.79688c0-.32324.11621-.58789.34863-.79297s.53076-.30664.89551-.30664c.36914,0,.66895.10156.89893.30664s.34521.46973.34521.79297c0,.32812-.11523.59766-.34521.80664-.22998.20996-.52979.31445-.89893.31445ZM685.68076,36.10742h-2.16016v-7h2.16016v7Z" fill="#2f2f2f"/>
        <path d="M689.65928,36.10742h-2.16016v-10.36328h2.16016v10.36328Z" fill="#2f2f2f"/>
        <path d="M692.57139,28c-.36475,0-.66309-.10742-.89551-.32422s-.34863-.48242-.34863-.79688c0-.32324.11621-.58789.34863-.79297s.53076-.30664.89551-.30664c.36914,0,.66895.10156.89893.30664s.34521.46973.34521.79297c0,.32812-.11523.59766-.34521.80664-.22998.20996-.52979.31445-.89893.31445ZM693.63779,36.10742h-2.16016v-7h2.16016v7Z" fill="#2f2f2f"/>
        <path d="M699.6876,36.02539c-.31885.16895-.7998.25391-1.44238.25391-1.52197,0-2.2832-.79102-2.2832-2.37305v-3.20508h-1.13477v-1.59375h1.13477v-1.50977l2.15332-.61523v2.125h1.57227v1.59375h-1.57227v2.83008c0,.72852.28955,1.09375.86816,1.09375.22803,0,.4624-.06641.7041-.19922v1.59961Z" fill="#2f2f2f"/>
        <path d="M707.56943,29.10742l-2.84375,7.56055c-.68359,1.81836-1.71338,2.72852-3.08984,2.72852-.52393,0-.95459-.05957-1.29199-.17773v-1.72266c.28711.16797.59912.25195.93652.25195.55615,0,.94336-.26172,1.16211-.78516l.36914-.86914-2.84375-6.98633h2.39258l1.30566,4.25977c.08203.26367.146.57617.19141.93555h.02734c.04102-.26367.11621-.57129.22559-.92188l1.31934-4.27344h2.13965Z" fill="#2f2f2f"/>
        <path d="M719.5665,36.10742h-7.89551v-1.27148l5.02441-6.73242h-4.66211v-1.79883h7.51953v1.23828l-4.91504,6.77344h4.92871v1.79102Z" fill="#2f2f2f"/>
        <path d="M724.13291,36.2793c-1.1665,0-2.08398-.32812-2.75146-.98145s-1.00146-1.54199-1.00146-2.66309c0-1.15723.34619-2.0625,1.03906-2.7168s1.62939-.98047,2.80957-.98047c1.16211,0,2.07373.32617,2.73438.98047s.99121,1.51855.99121,2.59375c0,1.16211-.34082,2.08105-1.02197,2.75586-.68115.67383-1.61426,1.01172-2.79932,1.01172ZM724.1876,30.5918c-.51025,0-.90674.1748-1.18945.52539-.28271.35156-.42383.84766-.42383,1.49023,0,1.34473.54248,2.01758,1.62695,2.01758,1.03467,0,1.55176-.69141,1.55176-2.07227,0-1.30762-.52197-1.96094-1.56543-1.96094Z" fill="#2f2f2f"/>
        <path d="M736.11631,36.10742h-2.15332v-3.88867c0-1.08496-.38721-1.62695-1.16211-1.62695-.37354,0-.68115.14258-.92285.42969s-.3623.65234-.3623,1.09375v3.99219h-2.16016v-7h2.16016v1.10742h.02734c.51514-.85156,1.26465-1.27734,2.24902-1.27734,1.54932,0,2.32422.96094,2.32422,2.88477v4.28516Z" fill="#2f2f2f"/>
        <path d="M744.11436,33.22266h-4.56641c.07275,1.0166.71338,1.52539,1.9209,1.52539.77002,0,1.44678-.18262,2.03027-.54688v1.55859c-.64697.3457-1.48779.51953-2.52246.51953-1.13037,0-2.00732-.31445-2.63184-.94043s-.93652-1.50098-.93652-2.62207c0-1.16211.3374-2.08203,1.01172-2.76172.67432-.67871,1.50391-1.01758,2.48828-1.01758,1.021,0,1.81055.30273,2.36865.9082.55811.60645.8374,1.42969.8374,2.46875v.9082ZM742.11143,31.89648c0-1.00195-.40576-1.50391-1.2168-1.50391-.34619,0-.646.14453-.89893.43164s-.40674.64453-.46143,1.07227h2.57715Z" fill="#2f2f2f"/>
        <path d="M749.15244,35.78711v-1.88086c.65625.47852,1.42188.71875,2.29688.71875.55127,0,.98096-.11914,1.28857-.35547.30762-.2373.46143-.56836.46143-.99219,0-.4375-.19043-.77441-.5708-1.01172-.38037-.23633-.90332-.35547-1.56885-.35547h-.90918v-1.6543h.84082c1.27588,0,1.91406-.42383,1.91406-1.27148,0-.79688-.48975-1.19531-1.46973-1.19531-.65625,0-1.29443.21094-1.91406.63477v-1.76367c.68799-.3457,1.49023-.51953,2.40625-.51953,1.00244,0,1.7832.22656,2.34131.67773s.8374,1.03613.8374,1.75586c0,1.28125-.64941,2.08301-1.94824,2.40625v.03516c.69287.08594,1.23975.33789,1.64062.75488s.60156.92871.60156,1.53418c0,.91602-.33496,1.64062-1.00488,2.17383s-1.59521.80078-2.77539.80078c-1.01172,0-1.83447-.16406-2.46777-.49219Z" fill="#2f2f2f"/>
      </g>
      <g>
        <path d="M252.26133,83.89551h-1.14844v-9.80273h1.14844v9.80273Z" fill="#2f2f2f"/>
        <path d="M260.33604,83.89551h-1.12109v-3.99219c0-1.48535-.54248-2.22852-1.62695-2.22852-.56055,0-1.02441.21094-1.39111.63281-.3667.4209-.55029.95312-.55029,1.5957v3.99219h-1.12109v-7h1.12109v1.16211h.02734c.52881-.88379,1.29443-1.32617,2.29688-1.32617.76562,0,1.35107.24707,1.75684.74219.40576.49414.6084,1.20898.6084,2.14258v4.2793Z" fill="#2f2f2f"/>
        <path d="M261.98398,83.64258v-1.20312c.61084.45117,1.28271.67676,2.0166.67676.98438,0,1.47656-.32812,1.47656-.98438,0-.18652-.04199-.34473-.12646-.47461s-.19824-.24512-.3418-.3457c-.14355-.09961-.31201-.19043-.50586-.26953-.19385-.08008-.40234-.16309-.62549-.25-.31006-.12305-.58203-.24707-.81689-.37207-.23486-.12598-.43066-.2666-.58789-.42383s-.27588-.33594-.35547-.53711c-.07959-.2002-.11963-.43457-.11963-.7041,0-.32812.0752-.61816.22559-.87109s.35107-.46484.60156-.63574.53662-.2998.85791-.38672c.32129-.08594.65283-.12988.99463-.12988.60596,0,1.14844.10547,1.62695.31445v1.13477c-.51514-.33691-1.10742-.50586-1.77734-.50586-.20947,0-.39893.02441-.56738.07227s-.31348.11523-.43408.20117c-.12061.08691-.21436.19043-.28027.31152-.06592.12012-.09912.25391-.09912.39941,0,.18262.0332.33496.09912.45801s.16309.23242.29053.32812.28271.18262.46484.25977c.18213.07812.38965.16211.62207.25293.31006.11914.58789.24023.83398.36621.24609.125.45557.2666.62891.42383s.30664.33789.3999.54297.14014.44922.14014.73145c0,.34668-.07617.64746-.229.90234-.15283.25586-.35645.46777-.61182.63574-.25537.16895-.54932.29395-.88184.37598s-.68115.12305-1.0459.12305c-.72021,0-1.34424-.13867-1.87305-.41699Z" fill="#2f2f2f"/>
        <path d="M271.6373,83.82715c-.26416.14648-.61279.21875-1.0459.21875-1.22607,0-1.83887-.68359-1.83887-2.05078v-4.14258h-1.20312v-.95703h1.20312v-1.70898l1.12109-.3623v2.07129h1.76367v.95703h-1.76367v3.94434c0,.46973.07959.80469.23926,1.00488.15967.20117.42383.30078.79297.30078.28271,0,.52637-.07715.73145-.23242v.95703Z" fill="#2f2f2f"/>
        <path d="M278.25449,83.89551h-1.12109v-1.09375h-.02734c-.48779.83887-1.20557,1.25781-2.15332,1.25781-.69727,0-1.24316-.18457-1.63721-.55371s-.59131-.8584-.59131-1.46973c0-1.30762.77002-2.06836,2.31055-2.2832l2.09863-.29395c0-1.18945-.48096-1.78418-1.44238-1.78418-.84326,0-1.604.28711-2.2832.86133v-1.14844c.68799-.4375,1.48096-.65625,2.37891-.65625,1.64502,0,2.46777.87109,2.46777,2.61133v4.55273ZM277.1334,80.35449l-1.68848.23242c-.51953.07324-.91162.20215-1.17578.38672s-.39648.51172-.39648.98047c0,.3418.12207.62109.36572.83789.24365.21582.56836.32422.97412.32422.55615,0,1.01514-.19434,1.37744-.58398s.54346-.88281.54346-1.48047v-.69727Z" fill="#2f2f2f"/>
        <path d="M286.08652,83.89551h-1.12109v-3.99219c0-1.48535-.54248-2.22852-1.62695-2.22852-.56055,0-1.02441.21094-1.39111.63281-.3667.4209-.55029.95312-.55029,1.5957v3.99219h-1.12109v-7h1.12109v1.16211h.02734c.52881-.88379,1.29443-1.32617,2.29688-1.32617.76562,0,1.35107.24707,1.75684.74219.40576.49414.6084,1.20898.6084,2.14258v4.2793Z" fill="#2f2f2f"/>
        <path d="M292.93516,83.57422c-.5376.32422-1.17578.48535-1.91406.48535-.99805,0-1.80371-.32422-2.4165-.97363s-.91943-1.49121-.91943-2.52637c0-1.15234.33057-2.0791.99121-2.77832.66064-.7002,1.54248-1.0498,2.64551-1.0498.61523,0,1.15771.11426,1.62695.3418v1.14844c-.51953-.36426-1.07568-.54688-1.66797-.54688-.71533,0-1.30225.25684-1.76025.76953s-.68701,1.18555-.68701,2.01953c0,.82031.21533,1.46777.646,1.94141.43066.47461,1.0083.71094,1.73291.71094.61084,0,1.18506-.20215,1.72266-.6084v1.06641Z" fill="#2f2f2f"/>
        <path d="M300.10508,80.67578h-4.94238c.01807.7793.22803,1.38086.62891,1.80469s.95264.63574,1.6543.63574c.78857,0,1.51318-.25977,2.17383-.7793v1.05273c-.61523.44727-1.42871.66992-2.44043.66992-.98877,0-1.76611-.31738-2.33105-.95312s-.84766-1.53027-.84766-2.68359c0-1.08887.30859-1.97656.92627-2.66211.61768-.68652,1.38428-1.0293,2.30029-1.0293s1.62451.29688,2.12598.88867c.50146.59277.75195,1.41504.75195,2.46777v.58789ZM298.95664,79.72559c-.00439-.64648-.16064-1.15039-.46826-1.51074-.30762-.35938-.73486-.54004-1.28174-.54004-.52881,0-.97754.18945-1.34668.56738-.36914.37891-.59717.87305-.68359,1.4834h3.78027Z" fill="#2f2f2f"/>
      </g>
      <g>
        <path d="M176.97275,83.89551h-1.14844v-9.80273h1.14844v9.80273Z" fill="#2f2f2f"/>
        <path d="M185.04746,83.89551h-1.12109v-3.99219c0-1.48535-.54248-2.22852-1.62695-2.22852-.56055,0-1.02441.21094-1.39111.63281-.3667.4209-.55029.95312-.55029,1.5957v3.99219h-1.12109v-7h1.12109v1.16211h.02734c.52881-.88379,1.29443-1.32617,2.29688-1.32617.76562,0,1.35107.24707,1.75684.74219.40576.49414.6084,1.20898.6084,2.14258v4.2793Z" fill="#2f2f2f"/>
        <path d="M186.69541,83.64258v-1.20312c.61084.45117,1.28271.67676,2.0166.67676.98438,0,1.47656-.32812,1.47656-.98438,0-.18652-.04199-.34473-.12646-.47461s-.19824-.24512-.3418-.3457c-.14355-.09961-.31201-.19043-.50586-.26953-.19385-.08008-.40234-.16309-.62549-.25-.31006-.12305-.58203-.24707-.81689-.37207-.23486-.12598-.43066-.2666-.58789-.42383s-.27588-.33594-.35547-.53711c-.07959-.2002-.11963-.43457-.11963-.7041,0-.32812.0752-.61816.22559-.87109s.35107-.46484.60156-.63574.53662-.2998.85791-.38672c.32129-.08594.65283-.12988.99463-.12988.60596,0,1.14844.10547,1.62695.31445v1.13477c-.51514-.33691-1.10742-.50586-1.77734-.50586-.20947,0-.39893.02441-.56738.07227s-.31348.11523-.43408.20117c-.12061.08691-.21436.19043-.28027.31152-.06592.12012-.09912.25391-.09912.39941,0,.18262.0332.33496.09912.45801s.16309.23242.29053.32812.28271.18262.46484.25977c.18213.07812.38965.16211.62207.25293.31006.11914.58789.24023.83398.36621.24609.125.45557.2666.62891.42383s.30664.33789.3999.54297.14014.44922.14014.73145c0,.34668-.07617.64746-.229.90234-.15283.25586-.35645.46777-.61182.63574-.25537.16895-.54932.29395-.88184.37598s-.68115.12305-1.0459.12305c-.72021,0-1.34424-.13867-1.87305-.41699Z" fill="#2f2f2f"/>
        <path d="M196.34873,83.82715c-.26416.14648-.61279.21875-1.0459.21875-1.22607,0-1.83887-.68359-1.83887-2.05078v-4.14258h-1.20312v-.95703h1.20312v-1.70898l1.12109-.3623v2.07129h1.76367v.95703h-1.76367v3.94434c0,.46973.07959.80469.23926,1.00488.15967.20117.42383.30078.79297.30078.28271,0,.52637-.07715.73145-.23242v.95703Z" fill="#2f2f2f"/>
        <path d="M202.96592,83.89551h-1.12109v-1.09375h-.02734c-.48779.83887-1.20557,1.25781-2.15332,1.25781-.69727,0-1.24316-.18457-1.63721-.55371s-.59131-.8584-.59131-1.46973c0-1.30762.77002-2.06836,2.31055-2.2832l2.09863-.29395c0-1.18945-.48096-1.78418-1.44238-1.78418-.84326,0-1.604.28711-2.2832.86133v-1.14844c.68799-.4375,1.48096-.65625,2.37891-.65625,1.64502,0,2.46777.87109,2.46777,2.61133v4.55273ZM201.84482,80.35449l-1.68848.23242c-.51953.07324-.91162.20215-1.17578.38672s-.39648.51172-.39648.98047c0,.3418.12207.62109.36572.83789.24365.21582.56836.32422.97412.32422.55615,0,1.01514-.19434,1.37744-.58398s.54346-.88281.54346-1.48047v-.69727Z" fill="#2f2f2f"/>
        <path d="M210.79795,83.89551h-1.12109v-3.99219c0-1.48535-.54248-2.22852-1.62695-2.22852-.56055,0-1.02441.21094-1.39111.63281-.3667.4209-.55029.95312-.55029,1.5957v3.99219h-1.12109v-7h1.12109v1.16211h.02734c.52881-.88379,1.29443-1.32617,2.29688-1.32617.76562,0,1.35107.24707,1.75684.74219.40576.49414.6084,1.20898.6084,2.14258v4.2793Z" fill="#2f2f2f"/>
        <path d="M217.64658,83.57422c-.5376.32422-1.17578.48535-1.91406.48535-.99805,0-1.80371-.32422-2.4165-.97363s-.91943-1.49121-.91943-2.52637c0-1.15234.33057-2.0791.99121-2.77832.66064-.7002,1.54248-1.0498,2.64551-1.0498.61523,0,1.15771.11426,1.62695.3418v1.14844c-.51953-.36426-1.07568-.54688-1.66797-.54688-.71533,0-1.30225.25684-1.76025.76953s-.68701,1.18555-.68701,2.01953c0,.82031.21533,1.46777.646,1.94141.43066.47461,1.0083.71094,1.73291.71094.61084,0,1.18506-.20215,1.72266-.6084v1.06641Z" fill="#2f2f2f"/>
        <path d="M224.8165,80.67578h-4.94238c.01807.7793.22803,1.38086.62891,1.80469s.95264.63574,1.6543.63574c.78857,0,1.51318-.25977,2.17383-.7793v1.05273c-.61523.44727-1.42871.66992-2.44043.66992-.98877,0-1.76611-.31738-2.33105-.95312s-.84766-1.53027-.84766-2.68359c0-1.08887.30859-1.97656.92627-2.66211.61768-.68652,1.38428-1.0293,2.30029-1.0293s1.62451.29688,2.12598.88867c.50146.59277.75195,1.41504.75195,2.46777v.58789ZM223.66807,79.72559c-.00439-.64648-.16064-1.15039-.46826-1.51074-.30762-.35938-.73486-.54004-1.28174-.54004-.52881,0-.97754.18945-1.34668.56738-.36914.37891-.59717.87305-.68359,1.4834h3.78027Z" fill="#2f2f2f"/>
      </g>
      <g>
        <path d="M476.66123,83.89551h-1.14844v-9.80273h1.14844v9.80273Z" fill="#2f2f2f"/>
        <path d="M484.73594,83.89551h-1.12109v-3.99219c0-1.48535-.54248-2.22852-1.62695-2.22852-.56055,0-1.02441.21094-1.39111.63281-.3667.4209-.55029.95312-.55029,1.5957v3.99219h-1.12109v-7h1.12109v1.16211h.02734c.52881-.88379,1.29443-1.32617,2.29688-1.32617.76562,0,1.35107.24707,1.75684.74219.40576.49414.6084,1.20898.6084,2.14258v4.2793Z" fill="#2f2f2f"/>
        <path d="M486.38389,83.64258v-1.20312c.61084.45117,1.28271.67676,2.0166.67676.98438,0,1.47656-.32812,1.47656-.98438,0-.18652-.04199-.34473-.12646-.47461s-.19824-.24512-.3418-.3457c-.14355-.09961-.31201-.19043-.50586-.26953-.19385-.08008-.40234-.16309-.62549-.25-.31006-.12305-.58203-.24707-.81689-.37207-.23486-.12598-.43066-.2666-.58789-.42383s-.27588-.33594-.35547-.53711c-.07959-.2002-.11963-.43457-.11963-.7041,0-.32812.0752-.61816.22559-.87109s.35107-.46484.60156-.63574.53662-.2998.85791-.38672c.32129-.08594.65283-.12988.99463-.12988.60596,0,1.14844.10547,1.62695.31445v1.13477c-.51514-.33691-1.10742-.50586-1.77734-.50586-.20947,0-.39893.02441-.56738.07227s-.31348.11523-.43408.20117c-.12061.08691-.21436.19043-.28027.31152-.06592.12012-.09912.25391-.09912.39941,0,.18262.0332.33496.09912.45801s.16309.23242.29053.32812.28271.18262.46484.25977c.18213.07812.38965.16211.62207.25293.31006.11914.58789.24023.83398.36621.24609.125.45557.2666.62891.42383s.30664.33789.3999.54297.14014.44922.14014.73145c0,.34668-.07617.64746-.229.90234-.15283.25586-.35645.46777-.61182.63574-.25537.16895-.54932.29395-.88184.37598s-.68115.12305-1.0459.12305c-.72021,0-1.34424-.13867-1.87305-.41699Z" fill="#2f2f2f"/>
        <path d="M496.03721,83.82715c-.26416.14648-.61279.21875-1.0459.21875-1.22607,0-1.83887-.68359-1.83887-2.05078v-4.14258h-1.20312v-.95703h1.20312v-1.70898l1.12109-.3623v2.07129h1.76367v.95703h-1.76367v3.94434c0,.46973.07959.80469.23926,1.00488.15967.20117.42383.30078.79297.30078.28271,0,.52637-.07715.73145-.23242v.95703Z" fill="#2f2f2f"/>
        <path d="M502.65439,83.89551h-1.12109v-1.09375h-.02734c-.48779.83887-1.20557,1.25781-2.15332,1.25781-.69727,0-1.24316-.18457-1.63721-.55371s-.59131-.8584-.59131-1.46973c0-1.30762.77002-2.06836,2.31055-2.2832l2.09863-.29395c0-1.18945-.48096-1.78418-1.44238-1.78418-.84326,0-1.604.28711-2.2832.86133v-1.14844c.68799-.4375,1.48096-.65625,2.37891-.65625,1.64502,0,2.46777.87109,2.46777,2.61133v4.55273ZM501.5333,80.35449l-1.68848.23242c-.51953.07324-.91162.20215-1.17578.38672s-.39648.51172-.39648.98047c0,.3418.12207.62109.36572.83789.24365.21582.56836.32422.97412.32422.55615,0,1.01514-.19434,1.37744-.58398s.54346-.88281.54346-1.48047v-.69727Z" fill="#2f2f2f"/>
        <path d="M510.48643,83.89551h-1.12109v-3.99219c0-1.48535-.54248-2.22852-1.62695-2.22852-.56055,0-1.02441.21094-1.39111.63281-.3667.4209-.55029.95312-.55029,1.5957v3.99219h-1.12109v-7h1.12109v1.16211h.02734c.52881-.88379,1.29443-1.32617,2.29688-1.32617.76562,0,1.35107.24707,1.75684.74219.40576.49414.6084,1.20898.6084,2.14258v4.2793Z" fill="#2f2f2f"/>
        <path d="M517.33506,83.57422c-.5376.32422-1.17578.48535-1.91406.48535-.99805,0-1.80371-.32422-2.4165-.97363s-.91943-1.49121-.91943-2.52637c0-1.15234.33057-2.0791.99121-2.77832.66064-.7002,1.54248-1.0498,2.64551-1.0498.61523,0,1.15771.11426,1.62695.3418v1.14844c-.51953-.36426-1.07568-.54688-1.66797-.54688-.71533,0-1.30225.25684-1.76025.76953s-.68701,1.18555-.68701,2.01953c0,.82031.21533,1.46777.646,1.94141.43066.47461,1.0083.71094,1.73291.71094.61084,0,1.18506-.20215,1.72266-.6084v1.06641Z" fill="#2f2f2f"/>
        <path d="M524.50498,80.67578h-4.94238c.01807.7793.22803,1.38086.62891,1.80469s.95264.63574,1.6543.63574c.78857,0,1.51318-.25977,2.17383-.7793v1.05273c-.61523.44727-1.42871.66992-2.44043.66992-.98877,0-1.76611-.31738-2.33105-.95312s-.84766-1.53027-.84766-2.68359c0-1.08887.30859-1.97656.92627-2.66211.61768-.68652,1.38428-1.0293,2.30029-1.0293s1.62451.29688,2.12598.88867c.50146.59277.75195,1.41504.75195,2.46777v.58789ZM523.35654,79.72559c-.00439-.64648-.16064-1.15039-.46826-1.51074-.30762-.35938-.73486-.54004-1.28174-.54004-.52881,0-.97754.18945-1.34668.56738-.36914.37891-.59717.87305-.68359,1.4834h3.78027Z" fill="#2f2f2f"/>
      </g>
      <g>
        <path d="M401.37266,83.89551h-1.14844v-9.80273h1.14844v9.80273Z" fill="#2f2f2f"/>
        <path d="M409.44736,83.89551h-1.12109v-3.99219c0-1.48535-.54248-2.22852-1.62695-2.22852-.56055,0-1.02441.21094-1.39111.63281-.3667.4209-.55029.95312-.55029,1.5957v3.99219h-1.12109v-7h1.12109v1.16211h.02734c.52881-.88379,1.29443-1.32617,2.29688-1.32617.76562,0,1.35107.24707,1.75684.74219.40576.49414.6084,1.20898.6084,2.14258v4.2793Z" fill="#2f2f2f"/>
        <path d="M411.09531,83.64258v-1.20312c.61084.45117,1.28271.67676,2.0166.67676.98438,0,1.47656-.32812,1.47656-.98438,0-.18652-.04199-.34473-.12646-.47461s-.19824-.24512-.3418-.3457c-.14355-.09961-.31201-.19043-.50586-.26953-.19385-.08008-.40234-.16309-.62549-.25-.31006-.12305-.58203-.24707-.81689-.37207-.23486-.12598-.43066-.2666-.58789-.42383s-.27588-.33594-.35547-.53711c-.07959-.2002-.11963-.43457-.11963-.7041,0-.32812.0752-.61816.22559-.87109s.35107-.46484.60156-.63574.53662-.2998.85791-.38672c.32129-.08594.65283-.12988.99463-.12988.60596,0,1.14844.10547,1.62695.31445v1.13477c-.51514-.33691-1.10742-.50586-1.77734-.50586-.20947,0-.39893.02441-.56738.07227s-.31348.11523-.43408.20117c-.12061.08691-.21436.19043-.28027.31152-.06592.12012-.09912.25391-.09912.39941,0,.18262.0332.33496.09912.45801s.16309.23242.29053.32812.28271.18262.46484.25977c.18213.07812.38965.16211.62207.25293.31006.11914.58789.24023.83398.36621.24609.125.45557.2666.62891.42383s.30664.33789.3999.54297.14014.44922.14014.73145c0,.34668-.07617.64746-.229.90234-.15283.25586-.35645.46777-.61182.63574-.25537.16895-.54932.29395-.88184.37598s-.68115.12305-1.0459.12305c-.72021,0-1.34424-.13867-1.87305-.41699Z" fill="#2f2f2f"/>
        <path d="M420.74863,83.82715c-.26416.14648-.61279.21875-1.0459.21875-1.22607,0-1.83887-.68359-1.83887-2.05078v-4.14258h-1.20312v-.95703h1.20312v-1.70898l1.12109-.3623v2.07129h1.76367v.95703h-1.76367v3.94434c0,.46973.07959.80469.23926,1.00488.15967.20117.42383.30078.79297.30078.28271,0,.52637-.07715.73145-.23242v.95703Z" fill="#2f2f2f"/>
        <path d="M427.36582,83.89551h-1.12109v-1.09375h-.02734c-.48779.83887-1.20557,1.25781-2.15332,1.25781-.69727,0-1.24316-.18457-1.63721-.55371s-.59131-.8584-.59131-1.46973c0-1.30762.77002-2.06836,2.31055-2.2832l2.09863-.29395c0-1.18945-.48096-1.78418-1.44238-1.78418-.84326,0-1.604.28711-2.2832.86133v-1.14844c.68799-.4375,1.48096-.65625,2.37891-.65625,1.64502,0,2.46777.87109,2.46777,2.61133v4.55273ZM426.24473,80.35449l-1.68848.23242c-.51953.07324-.91162.20215-1.17578.38672s-.39648.51172-.39648.98047c0,.3418.12207.62109.36572.83789.24365.21582.56836.32422.97412.32422.55615,0,1.01514-.19434,1.37744-.58398s.54346-.88281.54346-1.48047v-.69727Z" fill="#2f2f2f"/>
        <path d="M435.19785,83.89551h-1.12109v-3.99219c0-1.48535-.54248-2.22852-1.62695-2.22852-.56055,0-1.02441.21094-1.39111.63281-.3667.4209-.55029.95312-.55029,1.5957v3.99219h-1.12109v-7h1.12109v1.16211h.02734c.52881-.88379,1.29443-1.32617,2.29688-1.32617.76562,0,1.35107.24707,1.75684.74219.40576.49414.6084,1.20898.6084,2.14258v4.2793Z" fill="#2f2f2f"/>
        <path d="M442.04648,83.57422c-.5376.32422-1.17578.48535-1.91406.48535-.99805,0-1.80371-.32422-2.4165-.97363s-.91943-1.49121-.91943-2.52637c0-1.15234.33057-2.0791.99121-2.77832.66064-.7002,1.54248-1.0498,2.64551-1.0498.61523,0,1.15771.11426,1.62695.3418v1.14844c-.51953-.36426-1.07568-.54688-1.66797-.54688-.71533,0-1.30225.25684-1.76025.76953s-.68701,1.18555-.68701,2.01953c0,.82031.21533,1.46777.646,1.94141.43066.47461,1.0083.71094,1.73291.71094.61084,0,1.18506-.20215,1.72266-.6084v1.06641Z" fill="#2f2f2f"/>
        <path d="M449.21641,80.67578h-4.94238c.01807.7793.22803,1.38086.62891,1.80469s.95264.63574,1.6543.63574c.78857,0,1.51318-.25977,2.17383-.7793v1.05273c-.61523.44727-1.42871.66992-2.44043.66992-.98877,0-1.76611-.31738-2.33105-.95312s-.84766-1.53027-.84766-2.68359c0-1.08887.30859-1.97656.92627-2.66211.61768-.68652,1.38428-1.0293,2.30029-1.0293s1.62451.29688,2.12598.88867c.50146.59277.75195,1.41504.75195,2.46777v.58789ZM448.06797,79.72559c-.00439-.64648-.16064-1.15039-.46826-1.51074-.30762-.35938-.73486-.54004-1.28174-.54004-.52881,0-.97754.18945-1.34668.56738-.36914.37891-.59717.87305-.68359,1.4834h3.78027Z" fill="#2f2f2f"/>
      </g>
      <g>
        <path d="M46.50986,126.60059v-9.80273h3.56836c1.09375,0,1.93457.2002,2.52246.60156.58789.40039.88184.96582.88184,1.69531,0,.52832-.17871.99121-.53662,1.3877s-.81445.67188-1.37061.82715v.02734c.69727.08594,1.25439.34375,1.67139.77246.41699.42773.62549.9502.62549,1.56543,0,.89746-.32129,1.60938-.96387,2.13574s-1.52002.79004-2.63184.79004h-3.7666ZM48.71787,118.4248v2.32422h.9707c.45557,0,.81445-.11035,1.07666-.33203.26221-.2207.39307-.52539.39307-.91211,0-.7207-.5376-1.08008-1.61328-1.08008h-.82715ZM48.71787,122.38965v2.58398h1.19629c.51025,0,.91016-.11914,1.19971-.35547.28955-.2373.43408-.56055.43408-.9707,0-.39258-.14258-.7002-.42725-.92285-.28467-.22363-.68262-.33496-1.19287-.33496h-1.20996Z" fill="#2f2f2f"/>
        <path d="M61.14805,126.60059h-2.04395v-1.00488h-.02734c-.46924.7832-1.16455,1.17578-2.08496,1.17578-.6792,0-1.21338-.19238-1.60303-.57812-.38965-.38477-.58447-.89844-.58447-1.54102,0-1.3584.8042-2.14258,2.41309-2.35156l1.90039-.25293c0-.76562-.41455-1.14844-1.24414-1.14844-.83398,0-1.62695.24805-2.37891.74512v-1.62695c.30078-.15527.71191-.29199,1.23389-.41016.52197-.11914.99707-.17773,1.42529-.17773,1.99609,0,2.99414.99512,2.99414,2.9873v4.18359ZM59.11777,123.75684v-.47168l-1.27148.16406c-.70166.09082-1.05273.40723-1.05273.9502,0,.24609.08545.44727.25635.60449s.40234.23633.69385.23633c.40576,0,.73584-.14062.99121-.4209s.38281-.63477.38281-1.0625Z" fill="#2f2f2f"/>
        <path d="M65.00596,126.60059h-2.16016v-10.36328h2.16016v10.36328Z" fill="#2f2f2f"/>
        <path d="M72.671,126.60059h-2.04395v-1.00488h-.02734c-.46924.7832-1.16455,1.17578-2.08496,1.17578-.6792,0-1.21338-.19238-1.60303-.57812-.38965-.38477-.58447-.89844-.58447-1.54102,0-1.3584.8042-2.14258,2.41309-2.35156l1.90039-.25293c0-.76562-.41455-1.14844-1.24414-1.14844-.83398,0-1.62695.24805-2.37891.74512v-1.62695c.30078-.15527.71191-.29199,1.23389-.41016.52197-.11914.99707-.17773,1.42529-.17773,1.99609,0,2.99414.99512,2.99414,2.9873v4.18359ZM70.64072,123.75684v-.47168l-1.27148.16406c-.70166.09082-1.05273.40723-1.05273.9502,0,.24609.08545.44727.25635.60449s.40234.23633.69385.23633c.40576,0,.73584-.14062.99121-.4209s.38281-.63477.38281-1.0625Z" fill="#2f2f2f"/>
        <path d="M81.12803,126.60059h-2.15332v-3.88965c0-1.08496-.38721-1.62695-1.16211-1.62695-.37354,0-.68115.14355-.92285.43066s-.3623.65137-.3623,1.09375v3.99219h-2.16016v-7h2.16016v1.10742h.02734c.51514-.85254,1.26465-1.27832,2.24902-1.27832,1.54932,0,2.32422.96094,2.32422,2.88477v4.28613Z" fill="#2f2f2f"/>
        <path d="M88.1417,126.34766c-.48779.28223-1.19189.42383-2.1123.42383-1.07568,0-1.9458-.32617-2.61133-.97754-.66553-.65234-.99805-1.49316-.99805-2.52246,0-1.18945.35645-2.12695,1.06982-2.81348.71338-.68555,1.66699-1.02832,2.86084-1.02832.82471,0,1.42188.10938,1.79102.32812v1.83203c-.45117-.33789-.95459-.50586-1.51074-.50586-.61963,0-1.11084.18066-1.47314.54297s-.54346.8623-.54346,1.50098c0,.61914.17334,1.10645.51953,1.45898.34619.35352.82275.53027,1.42871.53027.5376,0,1.06396-.16895,1.5791-.50586v1.73633Z" fill="#2f2f2f"/>
        <path d="M95.85703,123.71582h-4.56641c.07275,1.01562.71338,1.52441,1.9209,1.52441.77002,0,1.44678-.18262,2.03027-.54688v1.55859c-.64697.3457-1.48779.51953-2.52246.51953-1.13037,0-2.00732-.31348-2.63184-.94043-.62451-.62598-.93652-1.5-.93652-2.62109,0-1.16211.3374-2.08301,1.01172-2.76172.67432-.67969,1.50391-1.01855,2.48828-1.01855,1.021,0,1.81055.30273,2.36865.90918.55811.60547.8374,1.42871.8374,2.46777v.90918ZM93.8541,122.38965c0-1.00293-.40576-1.50391-1.2168-1.50391-.34619,0-.646.14355-.89893.43066s-.40674.64453-.46143,1.07324h2.57715Z" fill="#2f2f2f"/>
        <path d="M104.10264,126.60059h-2.16016v-.96387h-.02734c-.49219.75586-1.21436,1.13477-2.16699,1.13477-.875,0-1.5791-.30859-2.1123-.92676-.5332-.61719-.7998-1.47949-.7998-2.58691,0-1.1582.29395-2.08496.88184-2.78223s1.35791-1.0459,2.31055-1.0459c.90234,0,1.53125.32324,1.88672.9707h.02734v-4.16309h2.16016v10.36328ZM101.9835,123.19629v-.52637c0-.45605-.13232-.83398-.39648-1.13477s-.6084-.45117-1.03223-.45117c-.47852,0-.85205.1875-1.12109.56348s-.40332.89258-.40332,1.54883c0,.61523.12988,1.08887.38965,1.42188.25977.33203.61963.49902,1.08008.49902.4375,0,.79395-.17578,1.06982-.52637.27588-.35156.41357-.81641.41357-1.39453Z" fill="#2f2f2f"/>
        <path d="M48.03232,143.21582v-1.75c.35547.21387.70996.37305,1.06299.47852.35303.10449.68701.15723,1.00146.15723.38281,0,.68457-.05273.90576-.15723.22119-.10547.33154-.26465.33154-.47852,0-.13672-.05029-.25098-.15039-.3418-.1001-.0918-.229-.1709-.38623-.23926s-.3291-.12988-.51611-.18457-.3667-.11621-.54004-.18457c-.27783-.10547-.52295-.21777-.73486-.33887-.21191-.12012-.38965-.26074-.5332-.41992-.14355-.16016-.25293-.34473-.32812-.55371-.0752-.20996-.11279-.45801-.11279-.74512,0-.39258.08545-.72949.25635-1.01172.1709-.2832.39893-.51367.68359-.69434.28467-.17969.61084-.31152.97754-.39648.3667-.08398.74854-.12598,1.14502-.12598.31006,0,.62451.02344.94336.07129s.6333.11719.94336.20898v1.66797c-.27344-.16016-.56641-.2793-.87842-.35938-.31201-.0791-.61865-.11914-.91943-.11914-.14111,0-.27441.0127-.3999.03711-.12549.02539-.23584.06152-.33154.10938s-.1709.10938-.22559.18457-.08203.16113-.08203.25684c0,.12695.04102.23633.12305.32812.08203.09082.18896.16992.32129.23535.13232.06641.2793.12598.44092.17773.16162.05273.32227.10645.48193.16113.28711.09961.54688.20898.7793.32812.23242.11816.43164.25684.59814.41699.1665.15918.29395.3457.38281.56055.08887.21387.1333.46875.1333.76562,0,.41406-.08984.76855-.27002,1.0625s-.41943.5332-.71777.71777-.64258.31934-1.03223.40332c-.38965.08496-.79395.12695-1.21338.12695-.77002,0-1.4834-.11914-2.13965-.35547Z" fill="#2f2f2f"/>
        <path d="M59.99766,143.14746c-.48779.28223-1.19189.42383-2.1123.42383-1.07568,0-1.9458-.32617-2.61133-.97754-.66553-.65234-.99805-1.49316-.99805-2.52246,0-1.18945.35645-2.12695,1.06982-2.81348.71338-.68555,1.66699-1.02832,2.86084-1.02832.82471,0,1.42188.10938,1.79102.32812v1.83203c-.45117-.33789-.95459-.50586-1.51074-.50586-.61963,0-1.11084.18066-1.47314.54297s-.54346.8623-.54346,1.50098c0,.61914.17334,1.10645.51953,1.45898.34619.35352.82275.53027,1.42871.53027.5376,0,1.06396-.16895,1.5791-.50586v1.73633Z" fill="#2f2f2f"/>
        <path d="M67.33359,143.40039h-2.04395v-1.00488h-.02734c-.46924.7832-1.16455,1.17578-2.08496,1.17578-.6792,0-1.21338-.19238-1.60303-.57812-.38965-.38477-.58447-.89844-.58447-1.54102,0-1.3584.8042-2.14258,2.41309-2.35156l1.90039-.25293c0-.76562-.41455-1.14844-1.24414-1.14844-.83398,0-1.62695.24805-2.37891.74512v-1.62695c.30078-.15527.71191-.29199,1.23389-.41016.52197-.11914.99707-.17773,1.42529-.17773,1.99609,0,2.99414.99512,2.99414,2.9873v4.18359ZM65.30332,140.55664v-.47168l-1.27148.16406c-.70166.09082-1.05273.40723-1.05273.9502,0,.24609.08545.44727.25635.60449s.40234.23633.69385.23633c.40576,0,.73584-.14062.99121-.4209s.38281-.63477.38281-1.0625Z" fill="#2f2f2f"/>
        <path d="M71.1915,143.40039h-2.16016v-10.36328h2.16016v10.36328Z" fill="#2f2f2f"/>
        <path d="M79.30723,140.51562h-4.56641c.07275,1.01562.71338,1.52441,1.9209,1.52441.77002,0,1.44678-.18262,2.03027-.54688v1.55859c-.64697.3457-1.48779.51953-2.52246.51953-1.13037,0-2.00732-.31348-2.63184-.94043-.62451-.62598-.93652-1.5-.93652-2.62109,0-1.16211.3374-2.08301,1.01172-2.76172.67432-.67969,1.50391-1.01855,2.48828-1.01855,1.021,0,1.81055.30273,2.36865.90918.55811.60547.8374,1.42871.8374,2.46777v.90918ZM77.3043,139.18945c0-1.00293-.40576-1.50391-1.2168-1.50391-.34619,0-.646.14355-.89893.43066s-.40674.64453-.46143,1.07324h2.57715Z" fill="#2f2f2f"/>
        <path d="M83.99668,143.21582v-1.75c.35547.21387.70996.37305,1.06299.47852.35303.10449.68701.15723,1.00146.15723.38281,0,.68457-.05273.90576-.15723.22119-.10547.33154-.26465.33154-.47852,0-.13672-.05029-.25098-.15039-.3418-.1001-.0918-.229-.1709-.38623-.23926s-.3291-.12988-.51611-.18457-.3667-.11621-.54004-.18457c-.27783-.10547-.52295-.21777-.73486-.33887-.21191-.12012-.38965-.26074-.5332-.41992-.14355-.16016-.25293-.34473-.32812-.55371-.0752-.20996-.11279-.45801-.11279-.74512,0-.39258.08545-.72949.25635-1.01172.1709-.2832.39893-.51367.68359-.69434.28467-.17969.61084-.31152.97754-.39648.3667-.08398.74854-.12598,1.14502-.12598.31006,0,.62451.02344.94336.07129s.6333.11719.94336.20898v1.66797c-.27344-.16016-.56641-.2793-.87842-.35938-.31201-.0791-.61865-.11914-.91943-.11914-.14111,0-.27441.0127-.3999.03711-.12549.02539-.23584.06152-.33154.10938s-.1709.10938-.22559.18457-.08203.16113-.08203.25684c0,.12695.04102.23633.12305.32812.08203.09082.18896.16992.32129.23535.13232.06641.2793.12598.44092.17773.16162.05273.32227.10645.48193.16113.28711.09961.54688.20898.7793.32812.23242.11816.43164.25684.59814.41699.1665.15918.29395.3457.38281.56055.08887.21387.1333.46875.1333.76562,0,.41406-.08984.76855-.27002,1.0625s-.41943.5332-.71777.71777-.64258.31934-1.03223.40332c-.38965.08496-.79395.12695-1.21338.12695-.77002,0-1.4834-.11914-2.13965-.35547Z" fill="#2f2f2f"/>
        <path d="M96.94639,140.51562h-4.56641c.07275,1.01562.71338,1.52441,1.9209,1.52441.77002,0,1.44678-.18262,2.03027-.54688v1.55859c-.64697.3457-1.48779.51953-2.52246.51953-1.13037,0-2.00732-.31348-2.63184-.94043-.62451-.62598-.93652-1.5-.93652-2.62109,0-1.16211.3374-2.08301,1.01172-2.76172.67432-.67969,1.50391-1.01855,2.48828-1.01855,1.021,0,1.81055.30273,2.36865.90918.55811.60547.8374,1.42871.8374,2.46777v.90918ZM94.94346,139.18945c0-1.00293-.40576-1.50391-1.2168-1.50391-.34619,0-.646.14355-.89893.43066s-.40674.64453-.46143,1.07324h2.57715Z" fill="#2f2f2f"/>
        <path d="M102.51182,143.31836c-.31885.16797-.7998.25293-1.44238.25293-1.52197,0-2.2832-.79102-2.2832-2.37207v-3.20605h-1.13477v-1.59277h1.13477v-1.51074l2.15332-.61523v2.12598h1.57227v1.59277h-1.57227v2.83008c0,.72852.28955,1.09375.86816,1.09375.22803,0,.4624-.06641.7041-.19824v1.59961Z" fill="#2f2f2f"/>
      </g>
      <g>
        <path d="M717.90732,83.89648h-1.14844v-9.80273h1.14844v9.80273Z" fill="#737474"/>
        <path d="M725.98203,83.89648h-1.12109v-3.99219c0-1.48633-.54248-2.22852-1.62695-2.22852-.56055,0-1.02441.21094-1.39111.63184-.3667.42188-.55029.9541-.55029,1.59668v3.99219h-1.12109v-7h1.12109v1.16211h.02734c.52881-.88477,1.29443-1.32617,2.29688-1.32617.76562,0,1.35107.24707,1.75684.74121.40576.49512.6084,1.20898.6084,2.14355v4.2793Z" fill="#737474"/>
        <path d="M727.62998,83.64355v-1.20312c.61084.45117,1.28271.67676,2.0166.67676.98438,0,1.47656-.32812,1.47656-.98438,0-.1875-.04199-.3457-.12646-.47559s-.19824-.24512-.3418-.34473c-.14355-.10059-.31201-.19043-.50586-.27051-.19385-.0791-.40234-.16309-.62549-.24902-.31006-.12305-.58203-.24707-.81689-.37305-.23486-.125-.43066-.2666-.58789-.42383s-.27588-.33594-.35547-.53613c-.07959-.20117-.11963-.43555-.11963-.7041,0-.32812.0752-.61914.22559-.87207s.35107-.46484.60156-.63574.53662-.2998.85791-.38574c.32129-.08691.65283-.12988.99463-.12988.60596,0,1.14844.10449,1.62695.31445v1.13477c-.51514-.33789-1.10742-.50586-1.77734-.50586-.20947,0-.39893.02344-.56738.07129s-.31348.11523-.43408.20215c-.12061.08594-.21436.19043-.28027.31055-.06592.12109-.09912.25391-.09912.40039,0,.18164.0332.33496.09912.45801s.16309.23242.29053.32812.28271.18164.46484.25977c.18213.07715.38965.16113.62207.25293.31006.11816.58789.24023.83398.36523.24609.12598.45557.2666.62891.42383s.30664.33887.3999.54395.14014.44824.14014.73145c0,.3457-.07617.64648-.229.90234-.15283.25488-.35645.4668-.61182.63574-.25537.16797-.54932.29395-.88184.37598s-.68115.12305-1.0459.12305c-.72021,0-1.34424-.13965-1.87305-.41699Z" fill="#737474"/>
        <path d="M737.2833,83.82812c-.26416.14551-.61279.21875-1.0459.21875-1.22607,0-1.83887-.68359-1.83887-2.05078v-4.14258h-1.20312v-.95703h1.20312v-1.70898l1.12109-.3623v2.07129h1.76367v.95703h-1.76367v3.94434c0,.46875.07959.80371.23926,1.00488.15967.2002.42383.30078.79297.30078.28271,0,.52637-.07812.73145-.23242v.95703Z" fill="#737474"/>
        <path d="M743.90049,83.89648h-1.12109v-1.09375h-.02734c-.48779.83789-1.20557,1.25781-2.15332,1.25781-.69727,0-1.24316-.18457-1.63721-.55371s-.59131-.85938-.59131-1.46973c0-1.30859.77002-2.06934,2.31055-2.2832l2.09863-.29395c0-1.18945-.48096-1.78418-1.44238-1.78418-.84326,0-1.604.28711-2.2832.86133v-1.14844c.68799-.4375,1.48096-.65625,2.37891-.65625,1.64502,0,2.46777.87012,2.46777,2.61133v4.55273ZM742.77939,80.35547l-1.68848.23242c-.51953.07227-.91162.20117-1.17578.38574s-.39648.51172-.39648.98145c0,.3418.12207.62109.36572.83691.24365.2168.56836.3252.97412.3252.55615,0,1.01514-.19531,1.37744-.58496s.54346-.88281.54346-1.47949v-.69727Z" fill="#737474"/>
        <path d="M751.73252,83.89648h-1.12109v-3.99219c0-1.48633-.54248-2.22852-1.62695-2.22852-.56055,0-1.02441.21094-1.39111.63184-.3667.42188-.55029.9541-.55029,1.59668v3.99219h-1.12109v-7h1.12109v1.16211h.02734c.52881-.88477,1.29443-1.32617,2.29688-1.32617.76562,0,1.35107.24707,1.75684.74121.40576.49512.6084,1.20898.6084,2.14355v4.2793Z" fill="#737474"/>
        <path d="M758.58115,83.5752c-.5376.32324-1.17578.48535-1.91406.48535-.99805,0-1.80371-.3252-2.4165-.97461s-.91943-1.49121-.91943-2.52539c0-1.15332.33057-2.0791.99121-2.7793.66064-.69922,1.54248-1.04883,2.64551-1.04883.61523,0,1.15771.11328,1.62695.3418v1.14844c-.51953-.36523-1.07568-.54688-1.66797-.54688-.71533,0-1.30225.25586-1.76025.76855s-.68701,1.18652-.68701,2.02051c0,.82031.21533,1.4668.646,1.94141.43066.47363,1.0083.71094,1.73291.71094.61084,0,1.18506-.20312,1.72266-.6084v1.06641Z" fill="#737474"/>
        <path d="M765.75107,80.67676h-4.94238c.01807.7793.22803,1.38086.62891,1.80469s.95264.63574,1.6543.63574c.78857,0,1.51318-.25977,2.17383-.7793v1.05273c-.61523.44629-1.42871.66992-2.44043.66992-.98877,0-1.76611-.31836-2.33105-.9541s-.84766-1.53027-.84766-2.68262c0-1.08984.30859-1.97656.92627-2.66309.61768-.68555,1.38428-1.02832,2.30029-1.02832s1.62451.2959,2.12598.88867c.50146.5918.75195,1.41504.75195,2.46777v.58789ZM764.60264,79.72656c-.00439-.64746-.16064-1.15137-.46826-1.51074-.30762-.36035-.73486-.54004-1.28174-.54004-.52881,0-.97754.18848-1.34668.56738-.36914.37793-.59717.87207-.68359,1.4834h3.78027Z" fill="#737474"/>
      </g>
      <g>
        <path d="M623.56797,83.89648h-1.14844v-9.80273h1.14844v9.80273Z" fill="#737474"/>
        <path d="M631.64268,83.89648h-1.12109v-3.99219c0-1.48633-.54248-2.22852-1.62695-2.22852-.56055,0-1.02441.21094-1.39111.63184-.3667.42188-.55029.9541-.55029,1.59668v3.99219h-1.12109v-7h1.12109v1.16211h.02734c.52881-.88477,1.29443-1.32617,2.29688-1.32617.76562,0,1.35107.24707,1.75684.74121.40576.49512.6084,1.20898.6084,2.14355v4.2793Z" fill="#737474"/>
        <path d="M633.29062,83.64355v-1.20312c.61084.45117,1.28271.67676,2.0166.67676.98438,0,1.47656-.32812,1.47656-.98438,0-.1875-.04199-.3457-.12646-.47559s-.19824-.24512-.3418-.34473c-.14355-.10059-.31201-.19043-.50586-.27051-.19385-.0791-.40234-.16309-.62549-.24902-.31006-.12305-.58203-.24707-.81689-.37305-.23486-.125-.43066-.2666-.58789-.42383s-.27588-.33594-.35547-.53613c-.07959-.20117-.11963-.43555-.11963-.7041,0-.32812.0752-.61914.22559-.87207s.35107-.46484.60156-.63574.53662-.2998.85791-.38574c.32129-.08691.65283-.12988.99463-.12988.60596,0,1.14844.10449,1.62695.31445v1.13477c-.51514-.33789-1.10742-.50586-1.77734-.50586-.20947,0-.39893.02344-.56738.07129s-.31348.11523-.43408.20215c-.12061.08594-.21436.19043-.28027.31055-.06592.12109-.09912.25391-.09912.40039,0,.18164.0332.33496.09912.45801s.16309.23242.29053.32812.28271.18164.46484.25977c.18213.07715.38965.16113.62207.25293.31006.11816.58789.24023.83398.36523.24609.12598.45557.2666.62891.42383s.30664.33887.3999.54395.14014.44824.14014.73145c0,.3457-.07617.64648-.229.90234-.15283.25488-.35645.4668-.61182.63574-.25537.16797-.54932.29395-.88184.37598s-.68115.12305-1.0459.12305c-.72021,0-1.34424-.13965-1.87305-.41699Z" fill="#737474"/>
        <path d="M642.94395,83.82812c-.26416.14551-.61279.21875-1.0459.21875-1.22607,0-1.83887-.68359-1.83887-2.05078v-4.14258h-1.20312v-.95703h1.20312v-1.70898l1.12109-.3623v2.07129h1.76367v.95703h-1.76367v3.94434c0,.46875.07959.80371.23926,1.00488.15967.2002.42383.30078.79297.30078.28271,0,.52637-.07812.73145-.23242v.95703Z" fill="#737474"/>
        <path d="M649.56113,83.89648h-1.12109v-1.09375h-.02734c-.48779.83789-1.20557,1.25781-2.15332,1.25781-.69727,0-1.24316-.18457-1.63721-.55371s-.59131-.85938-.59131-1.46973c0-1.30859.77002-2.06934,2.31055-2.2832l2.09863-.29395c0-1.18945-.48096-1.78418-1.44238-1.78418-.84326,0-1.604.28711-2.2832.86133v-1.14844c.68799-.4375,1.48096-.65625,2.37891-.65625,1.64502,0,2.46777.87012,2.46777,2.61133v4.55273ZM648.44004,80.35547l-1.68848.23242c-.51953.07227-.91162.20117-1.17578.38574s-.39648.51172-.39648.98145c0,.3418.12207.62109.36572.83691.24365.2168.56836.3252.97412.3252.55615,0,1.01514-.19531,1.37744-.58496s.54346-.88281.54346-1.47949v-.69727Z" fill="#737474"/>
        <path d="M657.39316,83.89648h-1.12109v-3.99219c0-1.48633-.54248-2.22852-1.62695-2.22852-.56055,0-1.02441.21094-1.39111.63184-.3667.42188-.55029.9541-.55029,1.59668v3.99219h-1.12109v-7h1.12109v1.16211h.02734c.52881-.88477,1.29443-1.32617,2.29688-1.32617.76562,0,1.35107.24707,1.75684.74121.40576.49512.6084,1.20898.6084,2.14355v4.2793Z" fill="#737474"/>
        <path d="M664.2418,83.5752c-.5376.32324-1.17578.48535-1.91406.48535-.99805,0-1.80371-.3252-2.4165-.97461s-.91943-1.49121-.91943-2.52539c0-1.15332.33057-2.0791.99121-2.7793.66064-.69922,1.54248-1.04883,2.64551-1.04883.61523,0,1.15771.11328,1.62695.3418v1.14844c-.51953-.36523-1.07568-.54688-1.66797-.54688-.71533,0-1.30225.25586-1.76025.76855s-.68701,1.18652-.68701,2.02051c0,.82031.21533,1.4668.646,1.94141.43066.47363,1.0083.71094,1.73291.71094.61084,0,1.18506-.20312,1.72266-.6084v1.06641Z" fill="#737474"/>
        <path d="M671.41172,80.67676h-4.94238c.01807.7793.22803,1.38086.62891,1.80469s.95264.63574,1.6543.63574c.78857,0,1.51318-.25977,2.17383-.7793v1.05273c-.61523.44629-1.42871.66992-2.44043.66992-.98877,0-1.76611-.31836-2.33105-.9541s-.84766-1.53027-.84766-2.68262c0-1.08984.30859-1.97656.92627-2.66309.61768-.68555,1.38428-1.02832,2.30029-1.02832s1.62451.2959,2.12598.88867c.50146.5918.75195,1.41504.75195,2.46777v.58789ZM670.26328,79.72656c-.00439-.64746-.16064-1.15137-.46826-1.51074-.30762-.36035-.73486-.54004-1.28174-.54004-.52881,0-.97754.18848-1.34668.56738-.36914.37793-.59717.87207-.68359,1.4834h3.78027Z" fill="#737474"/>
      </g>
      <g>
        <path d="M610.16172,147.02832h-.99805c-1.4126-1.61328-2.11914-3.60254-2.11914-5.96777,0-2.375.70654-4.39551,2.11914-6.06348h1.01172c-1.43115,1.73145-2.14648,3.74805-2.14648,6.0498,0,2.2832.71094,4.27637,2.13281,5.98145Z" fill="#737474"/>
        <path d="M611.51035,144.7998v-9.80273h2.70703c3.45459,0,5.18164,1.59277,5.18164,4.77832,0,1.5127-.47949,2.72852-1.43896,3.64648-.95947.91895-2.24316,1.37793-3.85205,1.37793h-2.59766ZM612.65879,136.03613v7.72461h1.46289c1.28516,0,2.28564-.34473,3.00098-1.03223.71533-.68848,1.07324-1.66406,1.07324-2.92578,0-2.51172-1.33545-3.7666-4.00586-3.7666h-1.53125Z" fill="#737474"/>
        <path d="M626.77598,141.58008h-4.94238c.01807.7793.22803,1.38086.62891,1.80469s.95264.63574,1.6543.63574c.78857,0,1.51318-.25977,2.17383-.7793v1.05273c-.61523.44629-1.42871.66992-2.44043.66992-.98877,0-1.76611-.31836-2.33105-.9541s-.84766-1.53027-.84766-2.68262c0-1.08984.30859-1.97656.92627-2.66309.61768-.68555,1.38428-1.02832,2.30029-1.02832s1.62451.2959,2.12598.88867c.50146.5918.75195,1.41504.75195,2.46777v.58789ZM625.62754,140.62988c-.00439-.64746-.16064-1.15137-.46826-1.51074-.30762-.36035-.73486-.54004-1.28174-.54004-.52881,0-.97754.18848-1.34668.56738-.36914.37793-.59717.87207-.68359,1.4834h3.78027Z" fill="#737474"/>
        <path d="M633.41465,144.7998h-1.12109v-1.09375h-.02734c-.48779.83789-1.20557,1.25781-2.15332,1.25781-.69727,0-1.24316-.18457-1.63721-.55371s-.59131-.85938-.59131-1.46973c0-1.30859.77002-2.06934,2.31055-2.2832l2.09863-.29395c0-1.18945-.48096-1.78418-1.44238-1.78418-.84326,0-1.604.28711-2.2832.86133v-1.14844c.68799-.4375,1.48096-.65625,2.37891-.65625,1.64502,0,2.46777.87012,2.46777,2.61133v4.55273ZM632.29355,141.25879l-1.68848.23242c-.51953.07227-.91162.20117-1.17578.38574s-.39648.51172-.39648.98145c0,.3418.12207.62109.36572.83691.24365.2168.56836.3252.97412.3252.55615,0,1.01514-.19531,1.37744-.58496s.54346-.88281.54346-1.47949v-.69727Z" fill="#737474"/>
        <path d="M636.55576,144.7998h-1.12109v-10.36328h1.12109v10.36328Z" fill="#737474"/>
        <path d="M639.78672,144.7998h-1.12109v-10.36328h1.12109v10.36328Z" fill="#737474"/>
        <path d="M644.90488,144.96387c-1.03467,0-1.86035-.32715-2.47803-.98145-.61768-.65332-.92627-1.52051-.92627-2.60059,0-1.17578.32129-2.09473.96387-2.75488.64258-.66113,1.51074-.99121,2.60449-.99121,1.04346,0,1.8584.32129,2.44385.96387s.87842,1.5332.87842,2.67285c0,1.11621-.31543,2.01074-.94678,2.68262-.63135.67285-1.47754,1.00879-2.53955,1.00879ZM644.98691,138.5791c-.72021,0-1.28955.24512-1.70898.73438-.41943.49023-.62891,1.16602-.62891,2.02734,0,.8291.21191,1.4834.63574,1.96191s.99121.71777,1.70215.71777c.72461,0,1.28174-.23535,1.67139-.7041.38965-.46973.58447-1.1377.58447-2.00293,0-.875-.19482-1.5498-.58447-2.02344-.38965-.47461-.94678-.71094-1.67139-.71094Z" fill="#737474"/>
        <path d="M654.94248,144.47852c-.5376.32324-1.17578.48535-1.91406.48535-.99805,0-1.80371-.3252-2.4165-.97461s-.91943-1.49121-.91943-2.52539c0-1.15332.33057-2.0791.99121-2.7793.66064-.69922,1.54248-1.04883,2.64551-1.04883.61523,0,1.15771.11328,1.62695.3418v1.14844c-.51953-.36523-1.07568-.54688-1.66797-.54688-.71533,0-1.30225.25586-1.76025.76855s-.68701,1.18652-.68701,2.02051c0,.82031.21533,1.4668.646,1.94141.43066.47363,1.0083.71094,1.73291.71094.61084,0,1.18506-.20312,1.72266-.6084v1.06641Z" fill="#737474"/>
        <path d="M661.68662,144.7998h-1.12109v-1.09375h-.02734c-.48779.83789-1.20557,1.25781-2.15332,1.25781-.69727,0-1.24316-.18457-1.63721-.55371s-.59131-.85938-.59131-1.46973c0-1.30859.77002-2.06934,2.31055-2.2832l2.09863-.29395c0-1.18945-.48096-1.78418-1.44238-1.78418-.84326,0-1.604.28711-2.2832.86133v-1.14844c.68799-.4375,1.48096-.65625,2.37891-.65625,1.64502,0,2.46777.87012,2.46777,2.61133v4.55273ZM660.56553,141.25879l-1.68848.23242c-.51953.07227-.91162.20117-1.17578.38574s-.39648.51172-.39648.98145c0,.3418.12207.62109.36572.83691.24365.2168.56836.3252.97412.3252.55615,0,1.01514-.19531,1.37744-.58496s.54346-.88281.54346-1.47949v-.69727Z" fill="#737474"/>
        <path d="M666.94492,144.73145c-.26416.14551-.61279.21875-1.0459.21875-1.22607,0-1.83887-.68359-1.83887-2.05078v-4.14258h-1.20312v-.95703h1.20312v-1.70898l1.12109-.3623v2.07129h1.76367v.95703h-1.76367v3.94434c0,.46875.07959.80371.23926,1.00488.15967.2002.42383.30078.79297.30078.28271,0,.52637-.07812.73145-.23242v.95703Z" fill="#737474"/>
        <path d="M673.93809,141.58008h-4.94238c.01807.7793.22803,1.38086.62891,1.80469s.95264.63574,1.6543.63574c.78857,0,1.51318-.25977,2.17383-.7793v1.05273c-.61523.44629-1.42871.66992-2.44043.66992-.98877,0-1.76611-.31836-2.33105-.9541s-.84766-1.53027-.84766-2.68262c0-1.08984.30859-1.97656.92627-2.66309.61768-.68555,1.38428-1.02832,2.30029-1.02832s1.62451.2959,2.12598.88867c.50146.5918.75195,1.41504.75195,2.46777v.58789ZM672.78965,140.62988c-.00439-.64746-.16064-1.15137-.46826-1.51074-.30762-.36035-.73486-.54004-1.28174-.54004-.52881,0-.97754.18848-1.34668.56738-.36914.37793-.59717.87207-.68359,1.4834h3.78027Z" fill="#737474"/>
        <path d="M681.66953,144.7998h-1.12109v-1.18945h-.02734c-.51953.90234-1.32178,1.35352-2.40625,1.35352-.87939,0-1.58252-.31348-2.10889-.94043-.52637-.62598-.78955-1.47949-.78955-2.55957,0-1.1582.2915-2.08496.875-2.78223s1.36035-1.0459,2.33105-1.0459c.96143,0,1.66113.37793,2.09863,1.13477h.02734v-4.33398h1.12109v10.36328ZM680.54844,141.63477v-1.03223c0-.56543-.18701-1.04395-.56055-1.43555-.37354-.39258-.84766-.58789-1.42188-.58789-.68359,0-1.22119.25-1.61328.75195-.39209.50098-.58789,1.19336-.58789,2.07812,0,.80664.18799,1.44336.56396,1.91016.37598.46777.88086.70117,1.51416.70117.62451,0,1.13135-.22559,1.521-.67676s.58447-1.02148.58447-1.70898Z" fill="#737474"/>
        <path d="M683.95664,147.02832h-.99805c1.42188-1.70508,2.13281-3.69824,2.13281-5.98145,0-2.30176-.71533-4.31836-2.14648-6.0498h1.01172c1.42188,1.66797,2.13281,3.68848,2.13281,6.06348,0,2.36523-.71094,4.35449-2.13281,5.96777Z" fill="#737474"/>
      </g>
      <g>
        <path d="M704.50156,147.02832h-.99805c-1.4126-1.61328-2.11914-3.60254-2.11914-5.96777,0-2.375.70654-4.39551,2.11914-6.06348h1.01172c-1.43115,1.73145-2.14648,3.74805-2.14648,6.0498,0,2.2832.71094,4.27637,2.13281,5.98145Z" fill="#737474"/>
        <path d="M705.8502,144.7998v-9.80273h2.70703c3.45459,0,5.18164,1.59277,5.18164,4.77832,0,1.5127-.47949,2.72852-1.43896,3.64648-.95947.91895-2.24316,1.37793-3.85205,1.37793h-2.59766ZM706.99863,136.03613v7.72461h1.46289c1.28516,0,2.28564-.34473,3.00098-1.03223.71533-.68848,1.07324-1.66406,1.07324-2.92578,0-2.51172-1.33545-3.7666-4.00586-3.7666h-1.53125Z" fill="#737474"/>
        <path d="M721.11582,141.58008h-4.94238c.01807.7793.22803,1.38086.62891,1.80469s.95264.63574,1.6543.63574c.78857,0,1.51318-.25977,2.17383-.7793v1.05273c-.61523.44629-1.42871.66992-2.44043.66992-.98877,0-1.76611-.31836-2.33105-.9541s-.84766-1.53027-.84766-2.68262c0-1.08984.30859-1.97656.92627-2.66309.61768-.68555,1.38428-1.02832,2.30029-1.02832s1.62451.2959,2.12598.88867c.50146.5918.75195,1.41504.75195,2.46777v.58789ZM719.96738,140.62988c-.00439-.64746-.16064-1.15137-.46826-1.51074-.30762-.36035-.73486-.54004-1.28174-.54004-.52881,0-.97754.18848-1.34668.56738-.36914.37793-.59717.87207-.68359,1.4834h3.78027Z" fill="#737474"/>
        <path d="M727.75449,144.7998h-1.12109v-1.09375h-.02734c-.48779.83789-1.20557,1.25781-2.15332,1.25781-.69727,0-1.24316-.18457-1.63721-.55371s-.59131-.85938-.59131-1.46973c0-1.30859.77002-2.06934,2.31055-2.2832l2.09863-.29395c0-1.18945-.48096-1.78418-1.44238-1.78418-.84326,0-1.604.28711-2.2832.86133v-1.14844c.68799-.4375,1.48096-.65625,2.37891-.65625,1.64502,0,2.46777.87012,2.46777,2.61133v4.55273ZM726.6334,141.25879l-1.68848.23242c-.51953.07227-.91162.20117-1.17578.38574s-.39648.51172-.39648.98145c0,.3418.12207.62109.36572.83691.24365.2168.56836.3252.97412.3252.55615,0,1.01514-.19531,1.37744-.58496s.54346-.88281.54346-1.47949v-.69727Z" fill="#737474"/>
        <path d="M730.89561,144.7998h-1.12109v-10.36328h1.12109v10.36328Z" fill="#737474"/>
        <path d="M734.12656,144.7998h-1.12109v-10.36328h1.12109v10.36328Z" fill="#737474"/>
        <path d="M739.24473,144.96387c-1.03467,0-1.86035-.32715-2.47803-.98145-.61768-.65332-.92627-1.52051-.92627-2.60059,0-1.17578.32129-2.09473.96387-2.75488.64258-.66113,1.51074-.99121,2.60449-.99121,1.04346,0,1.8584.32129,2.44385.96387s.87842,1.5332.87842,2.67285c0,1.11621-.31543,2.01074-.94678,2.68262-.63135.67285-1.47754,1.00879-2.53955,1.00879ZM739.32676,138.5791c-.72021,0-1.28955.24512-1.70898.73438-.41943.49023-.62891,1.16602-.62891,2.02734,0,.8291.21191,1.4834.63574,1.96191s.99121.71777,1.70215.71777c.72461,0,1.28174-.23535,1.67139-.7041.38965-.46973.58447-1.1377.58447-2.00293,0-.875-.19482-1.5498-.58447-2.02344-.38965-.47461-.94678-.71094-1.67139-.71094Z" fill="#737474"/>
        <path d="M749.28232,144.47852c-.5376.32324-1.17578.48535-1.91406.48535-.99805,0-1.80371-.3252-2.4165-.97461s-.91943-1.49121-.91943-2.52539c0-1.15332.33057-2.0791.99121-2.7793.66064-.69922,1.54248-1.04883,2.64551-1.04883.61523,0,1.15771.11328,1.62695.3418v1.14844c-.51953-.36523-1.07568-.54688-1.66797-.54688-.71533,0-1.30225.25586-1.76025.76855s-.68701,1.18652-.68701,2.02051c0,.82031.21533,1.4668.646,1.94141.43066.47363,1.0083.71094,1.73291.71094.61084,0,1.18506-.20312,1.72266-.6084v1.06641Z" fill="#737474"/>
        <path d="M756.02646,144.7998h-1.12109v-1.09375h-.02734c-.48779.83789-1.20557,1.25781-2.15332,1.25781-.69727,0-1.24316-.18457-1.63721-.55371s-.59131-.85938-.59131-1.46973c0-1.30859.77002-2.06934,2.31055-2.2832l2.09863-.29395c0-1.18945-.48096-1.78418-1.44238-1.78418-.84326,0-1.604.28711-2.2832.86133v-1.14844c.68799-.4375,1.48096-.65625,2.37891-.65625,1.64502,0,2.46777.87012,2.46777,2.61133v4.55273ZM754.90537,141.25879l-1.68848.23242c-.51953.07227-.91162.20117-1.17578.38574s-.39648.51172-.39648.98145c0,.3418.12207.62109.36572.83691.24365.2168.56836.3252.97412.3252.55615,0,1.01514-.19531,1.37744-.58496s.54346-.88281.54346-1.47949v-.69727Z" fill="#737474"/>
        <path d="M761.28477,144.73145c-.26416.14551-.61279.21875-1.0459.21875-1.22607,0-1.83887-.68359-1.83887-2.05078v-4.14258h-1.20312v-.95703h1.20312v-1.70898l1.12109-.3623v2.07129h1.76367v.95703h-1.76367v3.94434c0,.46875.07959.80371.23926,1.00488.15967.2002.42383.30078.79297.30078.28271,0,.52637-.07812.73145-.23242v.95703Z" fill="#737474"/>
        <path d="M768.27793,141.58008h-4.94238c.01807.7793.22803,1.38086.62891,1.80469s.95264.63574,1.6543.63574c.78857,0,1.51318-.25977,2.17383-.7793v1.05273c-.61523.44629-1.42871.66992-2.44043.66992-.98877,0-1.76611-.31836-2.33105-.9541s-.84766-1.53027-.84766-2.68262c0-1.08984.30859-1.97656.92627-2.66309.61768-.68555,1.38428-1.02832,2.30029-1.02832s1.62451.2959,2.12598.88867c.50146.5918.75195,1.41504.75195,2.46777v.58789ZM767.12949,140.62988c-.00439-.64746-.16064-1.15137-.46826-1.51074-.30762-.36035-.73486-.54004-1.28174-.54004-.52881,0-.97754.18848-1.34668.56738-.36914.37793-.59717.87207-.68359,1.4834h3.78027Z" fill="#737474"/>
        <path d="M776.00937,144.7998h-1.12109v-1.18945h-.02734c-.51953.90234-1.32178,1.35352-2.40625,1.35352-.87939,0-1.58252-.31348-2.10889-.94043-.52637-.62598-.78955-1.47949-.78955-2.55957,0-1.1582.2915-2.08496.875-2.78223s1.36035-1.0459,2.33105-1.0459c.96143,0,1.66113.37793,2.09863,1.13477h.02734v-4.33398h1.12109v10.36328ZM774.88828,141.63477v-1.03223c0-.56543-.18701-1.04395-.56055-1.43555-.37354-.39258-.84766-.58789-1.42188-.58789-.68359,0-1.22119.25-1.61328.75195-.39209.50098-.58789,1.19336-.58789,2.07812,0,.80664.18799,1.44336.56396,1.91016.37598.46777.88086.70117,1.51416.70117.62451,0,1.13135-.22559,1.521-.67676s.58447-1.02148.58447-1.70898Z" fill="#737474"/>
        <path d="M778.29648,147.02832h-.99805c1.42188-1.70508,2.13281-3.69824,2.13281-5.98145,0-2.30176-.71533-4.31836-2.14648-6.0498h1.01172c1.42188,1.66797,2.13281,3.68848,2.13281,6.06348,0,2.36523-.71094,4.35449-2.13281,5.96777Z" fill="#737474"/>
      </g>
    </g>
  </g>
</svg>