<?xml version="1.0" encoding="UTF-8"?>
<svg xmlns="http://www.w3.org/2000/svg" width="821.1039" height="198" xmlns:xlink="http://www.w3.org/1999/xlink" viewBox="0 0 821.1039 198">
  <defs>
    <symbol id="success" viewBox="0 0 22 22">
      <g>
        <circle cx="11" cy="11" r="11" fill="#57a300"/>
        <path d="M4.8854,11.4001c-.1017-.1086-.154-.2516-.1485-.4001.0055-.1499.0687-.2874.1787-.3905l1.1481-1.0615c.1045-.0949.2379-.1471.3768-.1471.154,0,.3025.0646.407.1774l2.937,3.1515,5.2346-6.7031c.1059-.1361.2654-.2159.4386-.2159.1238,0,.2406.0399.3396.1155l1.2458.9611c.2379.176.2888.5184.11.7617l-6.6935,8.5704c-.2599.3327-.7563.3548-1.045.0454l-4.5292-4.8647Z" fill="#fff"/>
      </g>
    </symbol>
    <linearGradient id="Cool_gray_gradient_1" data-name="Cool gray gradient 1" x1="130.304" y1="99" x2="350.3039" y2="99" gradientUnits="userSpaceOnUse">
      <stop offset="0" stop-color="#f5f5f4"/>
      <stop offset="1" stop-color="#ececea"/>
    </linearGradient>
    <linearGradient id="Cool_gray_gradient_1-2" data-name="Cool gray gradient 1" x1="359.1039" x2="579.1037" xlink:href="#Cool_gray_gradient_1"/>
    <linearGradient id="Cool_gray_gradient_1-3" data-name="Cool gray gradient 1" x1="587.9039" x2="807.9037" xlink:href="#Cool_gray_gradient_1"/>
    <linearGradient id="linear-gradient" x1="-356.3496" y1="1383.5834" x2="-356.3496" y2="1403.7879" gradientTransform="translate(564 1512) scale(1 -1)" gradientUnits="userSpaceOnUse">
      <stop offset="0" stop-color="#0078d4"/>
      <stop offset=".82" stop-color="#5ea0ef"/>
    </linearGradient>
    <linearGradient id="linear-gradient-2" x1="-356.3496" y1="1375.7879" x2="-356.3496" y2="1383.5834" gradientTransform="translate(564 1512) scale(1 -1)" gradientUnits="userSpaceOnUse">
      <stop offset=".15" stop-color="#ccc"/>
      <stop offset="1" stop-color="#707070"/>
    </linearGradient>
    <linearGradient id="linear-gradient-3" x1="-290.4495" x2="-290.4495" xlink:href="#linear-gradient"/>
    <linearGradient id="linear-gradient-4" x1="-290.4495" x2="-290.4495" xlink:href="#linear-gradient-2"/>
    <linearGradient id="linear-gradient-5" x1="-162.7495" x2="-162.7495" xlink:href="#linear-gradient"/>
    <linearGradient id="linear-gradient-6" x1="-162.7495" x2="-162.7495" xlink:href="#linear-gradient-2"/>
    <linearGradient id="linear-gradient-7" x1="-96.8494" x2="-96.8494" xlink:href="#linear-gradient"/>
    <linearGradient id="linear-gradient-8" x1="-96.8494" x2="-96.8494" xlink:href="#linear-gradient-2"/>
    <linearGradient id="linear-gradient-9" x1="-30.8495" x2="-30.8495" xlink:href="#linear-gradient"/>
    <linearGradient id="linear-gradient-10" x1="-30.8495" x2="-30.8495" xlink:href="#linear-gradient-2"/>
    <linearGradient id="linear-gradient-11" x1="66.0505" x2="66.0505" xlink:href="#linear-gradient"/>
    <linearGradient id="linear-gradient-12" x1="66.0505" x2="66.0505" xlink:href="#linear-gradient-2"/>
    <linearGradient id="linear-gradient-13" x1="131.9506" x2="131.9506" xlink:href="#linear-gradient"/>
    <linearGradient id="linear-gradient-14" x1="131.9506" x2="131.9506" xlink:href="#linear-gradient-2"/>
    <linearGradient id="linear-gradient-15" x1="197.9505" x2="197.9505" xlink:href="#linear-gradient"/>
    <linearGradient id="linear-gradient-16" x1="197.9505" x2="197.9505" xlink:href="#linear-gradient-2"/>
    <linearGradient id="linear-gradient-17" x1="-478.5363" y1="1406.6059" x2="-478.5363" y2="1418.5353" gradientTransform="translate(564 1512) scale(1 -1)" gradientUnits="userSpaceOnUse">
      <stop offset="0" stop-color="#0078d4"/>
      <stop offset=".82" stop-color="#5ea0ef"/>
    </linearGradient>
    <linearGradient id="linear-gradient-18" x1="-478.4922" y1="1402" x2="-478.4922" y2="1406.6059" gradientTransform="translate(564 1512) scale(1 -1)" gradientUnits="userSpaceOnUse">
      <stop offset=".15" stop-color="#ccc"/>
      <stop offset="1" stop-color="#707070"/>
    </linearGradient>
  </defs>
  <g isolation="isolate">
    <g id="Shapes">
      <rect width="821.1039" height="198" fill="#fff"/>
      <g>
        <g mix-blend-mode="multiply" opacity=".65">
          <rect x="131.304" y="14.2" width="219.9999" height="171.6" rx="8" ry="8" fill="#2b436f"/>
          <rect x="131.304" y="14.2" width="219.9999" height="171.6" rx="8" ry="8" fill="#2b436f" opacity=".4"/>
        </g>
        <g>
          <rect x="130.304" y="13.2" width="219.9999" height="171.6" rx="8" ry="8" fill="url(#Cool_gray_gradient_1)"/>
          <rect x="130.304" y="13.2" width="219.9999" height="171.6" rx="8" ry="8" fill="#8ec8e7" opacity=".4"/>
        </g>
      </g>
      <g>
        <g mix-blend-mode="multiply" opacity=".65">
          <rect x="360.1039" y="14.2" width="219.9999" height="171.6" rx="8" ry="8" fill="#2b436f"/>
          <rect x="360.1039" y="14.2" width="219.9999" height="171.6" rx="8" ry="8" fill="#2b436f" opacity=".4"/>
        </g>
        <g>
          <rect x="359.1039" y="13.2" width="219.9999" height="171.6" rx="8" ry="8" fill="url(#Cool_gray_gradient_1-2)"/>
          <rect x="359.1039" y="13.2" width="219.9999" height="171.6" rx="8" ry="8" fill="#8ec8e7" opacity=".4"/>
        </g>
      </g>
      <g>
        <g mix-blend-mode="multiply" opacity=".65">
          <rect x="588.9039" y="14.2" width="219.9999" height="171.6" rx="8" ry="8" fill="#2b436f"/>
          <rect x="588.9039" y="14.2" width="219.9999" height="171.6" rx="8" ry="8" fill="#2b436f" opacity=".4"/>
        </g>
        <g>
          <rect x="587.9039" y="13.2" width="219.9999" height="171.6" rx="8" ry="8" fill="url(#Cool_gray_gradient_1-3)"/>
          <rect x="587.9039" y="13.2" width="219.9999" height="171.6" rx="8" ry="8" fill="#8ec8e7" opacity=".4"/>
        </g>
      </g>
      <g>
        <rect x="26.9039" y="57.2" width="781" height="110" fill="#fff"/>
        <rect x="26.9039" y="57.2" width="781" height="110" fill="#b2aaa1" opacity=".2"/>
        <rect x="26.9039" y="57.2" width="781" height="110" fill="none" stroke="#76bc43"/>
      </g>
      <g>
        <rect x="192.4971" y="108.2121" width="30.3067" height="20.2044" rx="1.0102" ry="1.0102" fill="url(#linear-gradient)"/>
        <polygon points="212.7015 115.3679 212.7015 121.244 207.6504 124.2073 207.6504 118.3143 212.7015 115.3679" fill="#50e6ff"/>
        <polygon points="212.7015 115.3679 207.6504 118.3312 202.5993 115.3679 207.6504 112.4214 212.7015 115.3679" fill="#c3f1ff"/>
        <polygon points="207.6504 118.3312 207.6504 124.2073 202.5993 121.244 202.5993 115.3679 207.6504 118.3312" fill="#9cebff"/>
        <polygon points="202.5993 121.244 207.6504 118.3143 207.6504 124.2073 202.5993 121.244" fill="#c3f1ff"/>
        <polygon points="212.7015 121.244 207.6504 118.3143 207.6504 124.2073 212.7015 121.244" fill="#9cebff"/>
        <path d="M213.7286,134.5284c-2.997-.4714-3.1149-2.6266-3.1149-6.1118h-5.9435c0,3.4853-.101,5.6404-3.098,6.1118-.8569.0948-1.5037.8216-1.4985,1.6837h15.1533c.0052-.8621-.6416-1.5889-1.4985-1.6837Z" fill="url(#linear-gradient-2)"/>
      </g>
      <g>
        <rect x="258.3972" y="108.2121" width="30.3067" height="20.2044" rx="1.0102" ry="1.0102" fill="url(#linear-gradient-3)"/>
        <polygon points="278.6016 115.3679 278.6016 121.244 273.5505 124.2073 273.5505 118.3143 278.6016 115.3679" fill="#50e6ff"/>
        <polygon points="278.6016 115.3679 273.5505 118.3312 268.4994 115.3679 273.5505 112.4214 278.6016 115.3679" fill="#c3f1ff"/>
        <polygon points="273.5505 118.3312 273.5505 124.2073 268.4994 121.244 268.4994 115.3679 273.5505 118.3312" fill="#9cebff"/>
        <polygon points="268.4994 121.244 273.5505 118.3143 273.5505 124.2073 268.4994 121.244" fill="#c3f1ff"/>
        <polygon points="278.6016 121.244 273.5505 118.3143 273.5505 124.2073 278.6016 121.244" fill="#9cebff"/>
        <path d="M279.6287,134.5284c-2.997-.4714-3.1149-2.6266-3.1149-6.1118h-5.9435c0,3.4853-.101,5.6404-3.098,6.1118-.8569.0948-1.5037.8216-1.4985,1.6837h15.1533c.0052-.8621-.6416-1.5889-1.4985-1.6837Z" fill="url(#linear-gradient-4)"/>
      </g>
      <g>
        <rect x="386.0971" y="108.2121" width="30.3067" height="20.2044" rx="1.0102" ry="1.0102" fill="url(#linear-gradient-5)"/>
        <polygon points="406.3016 115.3679 406.3016 121.244 401.2505 124.2073 401.2505 118.3143 406.3016 115.3679" fill="#50e6ff"/>
        <polygon points="406.3016 115.3679 401.2505 118.3312 396.1994 115.3679 401.2505 112.4214 406.3016 115.3679" fill="#c3f1ff"/>
        <polygon points="401.2505 118.3312 401.2505 124.2073 396.1994 121.244 396.1994 115.3679 401.2505 118.3312" fill="#9cebff"/>
        <polygon points="396.1994 121.244 401.2505 118.3143 401.2505 124.2073 396.1994 121.244" fill="#c3f1ff"/>
        <polygon points="406.3016 121.244 401.2505 118.3143 401.2505 124.2073 406.3016 121.244" fill="#9cebff"/>
        <path d="M407.3286,134.5284c-2.997-.4714-3.1149-2.6266-3.1149-6.1118h-5.9435c0,3.4853-.101,5.6404-3.098,6.1118-.8569.0948-1.5037.8216-1.4985,1.6837h15.1533c.0052-.8621-.6416-1.5889-1.4985-1.6837Z" fill="url(#linear-gradient-6)"/>
      </g>
      <g>
        <rect x="451.9973" y="108.2121" width="30.3067" height="20.2044" rx="1.0102" ry="1.0102" fill="url(#linear-gradient-7)"/>
        <polygon points="472.2017 115.3679 472.2017 121.244 467.1506 124.2073 467.1506 118.3143 472.2017 115.3679" fill="#50e6ff"/>
        <polygon points="472.2017 115.3679 467.1506 118.3312 462.0995 115.3679 467.1506 112.4214 472.2017 115.3679" fill="#c3f1ff"/>
        <polygon points="467.1506 118.3312 467.1506 124.2073 462.0995 121.244 462.0995 115.3679 467.1506 118.3312" fill="#9cebff"/>
        <polygon points="462.0995 121.244 467.1506 118.3143 467.1506 124.2073 462.0995 121.244" fill="#c3f1ff"/>
        <polygon points="472.2017 121.244 467.1506 118.3143 467.1506 124.2073 472.2017 121.244" fill="#9cebff"/>
        <path d="M473.2288,134.5284c-2.997-.4714-3.1149-2.6266-3.1149-6.1118h-5.9435c0,3.4853-.101,5.6404-3.098,6.1118-.8569.0948-1.5037.8216-1.4985,1.6837h15.1533c.0052-.8621-.6416-1.5889-1.4985-1.6837Z" fill="url(#linear-gradient-8)"/>
      </g>
      <g>
        <rect x="517.9972" y="108.2121" width="30.3067" height="20.2044" rx="1.0102" ry="1.0102" fill="url(#linear-gradient-9)"/>
        <polygon points="538.2016 115.3679 538.2016 121.244 533.1505 124.2073 533.1505 118.3143 538.2016 115.3679" fill="#50e6ff"/>
        <polygon points="538.2016 115.3679 533.1505 118.3312 528.0994 115.3679 533.1505 112.4214 538.2016 115.3679" fill="#c3f1ff"/>
        <polygon points="533.1505 118.3312 533.1505 124.2073 528.0994 121.244 528.0994 115.3679 533.1505 118.3312" fill="#9cebff"/>
        <polygon points="528.0994 121.244 533.1505 118.3143 533.1505 124.2073 528.0994 121.244" fill="#c3f1ff"/>
        <polygon points="538.2016 121.244 533.1505 118.3143 533.1505 124.2073 538.2016 121.244" fill="#9cebff"/>
        <path d="M539.2287,134.5284c-2.997-.4714-3.1149-2.6266-3.1149-6.1118h-5.9435c0,3.4853-.101,5.6404-3.098,6.1118-.8569.0948-1.5037.8216-1.4985,1.6837h15.1533c.0052-.8621-.6416-1.5889-1.4985-1.6837Z" fill="url(#linear-gradient-10)"/>
      </g>
      <g>
        <rect x="614.8971" y="108.2121" width="30.3067" height="20.2044" rx="1.0102" ry="1.0102" fill="url(#linear-gradient-11)"/>
        <polygon points="635.1016 115.3679 635.1016 121.244 630.0505 124.2073 630.0505 118.3143 635.1016 115.3679" fill="#50e6ff"/>
        <polygon points="635.1016 115.3679 630.0505 118.3312 624.9994 115.3679 630.0505 112.4214 635.1016 115.3679" fill="#c3f1ff"/>
        <polygon points="630.0505 118.3312 630.0505 124.2073 624.9994 121.244 624.9994 115.3679 630.0505 118.3312" fill="#9cebff"/>
        <polygon points="624.9994 121.244 630.0505 118.3143 630.0505 124.2073 624.9994 121.244" fill="#c3f1ff"/>
        <polygon points="635.1016 121.244 630.0505 118.3143 630.0505 124.2073 635.1016 121.244" fill="#9cebff"/>
        <path d="M636.1286,134.5284c-2.997-.4714-3.1149-2.6266-3.1149-6.1118h-5.9435c0,3.4853-.101,5.6404-3.098,6.1118-.8569.0948-1.5037.8216-1.4985,1.6837h15.1533c.0052-.8621-.6416-1.5889-1.4985-1.6837Z" fill="url(#linear-gradient-12)"/>
      </g>
      <g>
        <rect x="680.7973" y="108.2121" width="30.3067" height="20.2044" rx="1.0102" ry="1.0102" fill="url(#linear-gradient-13)"/>
        <polygon points="701.0017 115.3679 701.0017 121.244 695.9506 124.2073 695.9506 118.3143 701.0017 115.3679" fill="#50e6ff"/>
        <polygon points="701.0017 115.3679 695.9506 118.3312 690.8995 115.3679 695.9506 112.4214 701.0017 115.3679" fill="#c3f1ff"/>
        <polygon points="695.9506 118.3312 695.9506 124.2073 690.8995 121.244 690.8995 115.3679 695.9506 118.3312" fill="#9cebff"/>
        <polygon points="690.8995 121.244 695.9506 118.3143 695.9506 124.2073 690.8995 121.244" fill="#c3f1ff"/>
        <polygon points="701.0017 121.244 695.9506 118.3143 695.9506 124.2073 701.0017 121.244" fill="#9cebff"/>
        <path d="M702.0288,134.5284c-2.997-.4714-3.1149-2.6266-3.1149-6.1118h-5.9435c0,3.4853-.101,5.6404-3.098,6.1118-.8569.0948-1.5037.8216-1.4985,1.6837h15.1533c.0052-.8621-.6416-1.5889-1.4985-1.6837Z" fill="url(#linear-gradient-14)"/>
      </g>
      <g>
        <rect x="746.7972" y="108.2121" width="30.3067" height="20.2044" rx="1.0102" ry="1.0102" fill="url(#linear-gradient-15)"/>
        <polygon points="767.0016 115.3679 767.0016 121.244 761.9505 124.2073 761.9505 118.3143 767.0016 115.3679" fill="#50e6ff"/>
        <polygon points="767.0016 115.3679 761.9505 118.3312 756.8994 115.3679 761.9505 112.4214 767.0016 115.3679" fill="#c3f1ff"/>
        <polygon points="761.9505 118.3312 761.9505 124.2073 756.8994 121.244 756.8994 115.3679 761.9505 118.3312" fill="#9cebff"/>
        <polygon points="756.8994 121.244 761.9505 118.3143 761.9505 124.2073 756.8994 121.244" fill="#c3f1ff"/>
        <polygon points="767.0016 121.244 761.9505 118.3143 761.9505 124.2073 767.0016 121.244" fill="#9cebff"/>
        <path d="M768.0287,134.5284c-2.997-.4714-3.1149-2.6266-3.1149-6.1118h-5.9435c0,3.4853-.101,5.6404-3.098,6.1118-.8569.0948-1.5037.8216-1.4985,1.6837h15.1533c.0052-.8621-.6416-1.5889-1.4985-1.6837Z" fill="url(#linear-gradient-16)"/>
      </g>
      <g>
        <rect x="64.3843" y="80" width="17.8412" height="11.9118" rx=".6" ry=".6" fill="#005ba1"/>
        <polygon points="76.2784 84.2176 76.2784 87.6941 73.3137 89.4235 73.3137 85.9647 76.2784 84.2176" fill="#50e6ff"/>
        <polygon points="76.2784 84.2176 73.3137 85.9647 70.3314 84.2176 73.3137 82.4706 76.2784 84.2176" fill="#c3f1ff"/>
        <polygon points="73.3137 85.9647 73.3137 89.4235 70.3314 87.6941 70.3314 84.2176 73.3137 85.9647" fill="#9cebff"/>
        <rect x="71.3902" y="86.8294" width="17.8412" height="11.9118" rx=".6" ry=".6" fill="#0078d4"/>
        <polygon points="83.2843 91.0647 83.2843 94.5235 80.3196 96.2706 80.3196 92.7941 83.2843 91.0647" fill="#50e6ff"/>
        <polygon points="83.2843 91.0647 80.3196 92.7941 77.3373 91.0647 80.3196 89.3176 83.2843 91.0647" fill="#c3f1ff"/>
        <polygon points="80.3196 92.7941 80.3196 96.2706 77.3373 94.5235 77.3373 91.0647 80.3196 92.7941" fill="#9cebff"/>
        <rect x="76.5431" y="93.4647" width="17.8412" height="11.9118" rx=".6" ry=".6" fill="url(#linear-gradient-17)"/>
        <polygon points="88.4373 97.7 88.4373 101.1588 85.4726 102.9059 85.4726 99.4294 88.4373 97.7" fill="#50e6ff"/>
        <polygon points="88.4373 97.7 85.4726 99.4471 82.4902 97.7 85.4726 95.9529 88.4373 97.7" fill="#c3f1ff"/>
        <polygon points="85.4726 99.4471 85.4726 102.9059 82.4902 101.1588 82.4902 97.7 85.4726 99.4471" fill="#9cebff"/>
        <polygon points="82.4902 101.1588 85.4726 99.4294 85.4726 102.9059 82.4902 101.1588" fill="#c3f1ff"/>
        <polygon points="88.4373 101.1588 85.4726 99.4294 85.4726 102.9059 88.4373 101.1588" fill="#9cebff"/>
        <path d="M89.0373,108.9941c-1.7647-.2824-1.7647-1.5529-1.7647-3.5294h-3.5294c0,2.0471,0,3.3176-1.7647,3.5294-.4992.0769-.8711.501-.8824,1.0059h8.8235c-.0112-.5049-.3832-.929-.8824-1.0059Z" fill="url(#linear-gradient-18)"/>
      </g>
      <use width="22" height="22" transform="translate(11.3039 33.6) scale(.8182)" xlink:href="#success"/>
      <rect x="11.5039" y="57.2" width="17.6" height="110" fill="#76bc43" stroke="#76bc43" stroke-miterlimit="10"/>
    </g>
    <g id="Text">
      <g>
        <path d="M188.8396,39.6001h-2.4062l-.6973-2.1807h-3.4863l-.6904,2.1807h-2.3926l3.5684-9.8027h2.6182l3.4863,9.8027ZM185.2302,35.7241l-1.0527-3.2949c-.0776-.2461-.1323-.54-.1641-.8818h-.0547c-.0229.2871-.0796.5718-.1709.8545l-1.0664,3.3223h2.5088Z" fill="#2f2f2f"/>
        <path d="M196.2087,32.6001l-2.6045,7h-2.4609l-2.4814-7h2.3105l1.2168,4.3135c.1367.4878.2163.9023.2393,1.2441h.0273c.0317-.3237.1162-.7246.2529-1.2031l1.2441-4.3545h2.2559Z" fill="#2f2f2f"/>
        <path d="M202.7439,39.6001h-2.0439v-1.0049h-.0273c-.4692.7837-1.1646,1.1758-2.085,1.1758-.6792,0-1.2134-.1924-1.603-.5776s-.5845-.8989-.5845-1.5415c0-1.3579.8042-2.1421,2.4131-2.3516l1.9004-.2529c0-.7656-.4146-1.1484-1.2441-1.1484-.834,0-1.627.2485-2.3789.7451v-1.627c.3008-.1548.7119-.2915,1.2339-.4102s.9971-.1777,1.4253-.1777c1.9961,0,2.9941.9956,2.9941,2.9873v4.1836ZM200.7136,36.7563v-.4717l-1.2715.1641c-.7017.0913-1.0527.4077-1.0527.9502,0,.2461.0854.4478.2563.605s.4023.2358.6938.2358c.4058,0,.7358-.1401.9912-.4204s.3828-.6348.3828-1.063Z" fill="#2f2f2f"/>
        <path d="M205.5466,31.4927c-.3647,0-.6631-.1084-.8955-.3247s-.3486-.4819-.3486-.7964c0-.3237.1162-.5879.3486-.793s.5308-.3076.8955-.3076c.3691,0,.6689.1025.8989.3076s.3452.4692.3452.793c0,.3281-.1152.5972-.3452.8066s-.5298.3145-.8989.3145ZM206.613,39.6001h-2.1602v-7h2.1602v7Z" fill="#2f2f2f"/>
        <path d="M210.5916,39.6001h-2.1602v-10.3633h2.1602v10.3633Z" fill="#2f2f2f"/>
        <path d="M218.2341,39.6001h-2.0439v-1.0049h-.0273c-.4692.7837-1.1646,1.1758-2.085,1.1758-.6792,0-1.2134-.1924-1.603-.5776s-.5845-.8989-.5845-1.5415c0-1.3579.8042-2.1421,2.4131-2.3516l1.9004-.2529c0-.7656-.4146-1.1484-1.2441-1.1484-.834,0-1.627.2485-2.3789.7451v-1.627c.3008-.1548.7119-.2915,1.2339-.4102s.9971-.1777,1.4253-.1777c1.9961,0,2.9941.9956,2.9941,2.9873v4.1836ZM216.2039,36.7563v-.4717l-1.2715.1641c-.7017.0913-1.0527.4077-1.0527.9502,0,.2461.0854.4478.2563.605s.4023.2358.6938.2358c.4058,0,.7358-.1401.9912-.4204s.3828-.6348.3828-1.063Z" fill="#2f2f2f"/>
        <path d="M222.1306,38.7866h-.0273v.8135h-2.1602v-10.3633h2.1602v4.416h.0273c.5332-.8159,1.292-1.2236,2.2764-1.2236.9023,0,1.5972.3101,2.085.9297s.7314,1.4673.7314,2.543c0,1.1665-.2847,2.103-.8545,2.8096s-1.3306,1.0596-2.2832,1.0596c-.8613,0-1.5132-.3281-1.9551-.9844ZM222.0691,35.8335v.7178c0,.4512.1299.8247.3896,1.1211s.5923.4443.998.4443c.4922,0,.874-.1904,1.145-.5708s.4067-.9194.4067-1.6167c0-.5786-.124-1.0312-.3726-1.3569s-.6025-.4888-1.063-.4888c-.4331,0-.792.1616-1.0767.4854s-.4272.7451-.4272,1.2646Z" fill="#2f2f2f"/>
        <path d="M229.7185,31.4927c-.3647,0-.6631-.1084-.8955-.3247s-.3486-.4819-.3486-.7964c0-.3237.1162-.5879.3486-.793s.5308-.3076.8955-.3076c.3691,0,.6689.1025.8989.3076s.3452.4692.3452.793c0,.3281-.1152.5972-.3452.8066s-.5298.3145-.8989.3145ZM230.7849,39.6001h-2.1602v-7h2.1602v7Z" fill="#2f2f2f"/>
        <path d="M234.7634,39.6001h-2.1602v-10.3633h2.1602v10.3633Z" fill="#2f2f2f"/>
        <path d="M237.6755,31.4927c-.3647,0-.6631-.1084-.8955-.3247s-.3486-.4819-.3486-.7964c0-.3237.1162-.5879.3486-.793s.5308-.3076.8955-.3076c.3691,0,.6689.1025.8989.3076s.3452.4692.3452.793c0,.3281-.1152.5972-.3452.8066s-.5298.3145-.8989.3145ZM238.7419,39.6001h-2.1602v-7h2.1602v7Z" fill="#2f2f2f"/>
        <path d="M244.7917,39.5181c-.3188.1685-.7998.2529-1.4424.2529-1.522,0-2.2832-.7905-2.2832-2.3721v-3.2061h-1.1348v-1.5928h1.1348v-1.5107l2.1533-.6152v2.126h1.5723v1.5928h-1.5723v2.8301c0,.729.2896,1.0938.8682,1.0938.228,0,.4624-.0659.7041-.1982v1.5996Z" fill="#2f2f2f"/>
        <path d="M252.6736,32.6001l-2.8438,7.5605c-.6836,1.8184-1.7134,2.7275-3.0898,2.7275-.5239,0-.9546-.0591-1.292-.1777v-1.7227c.2871.1685.5991.2529.9365.2529.5562,0,.9434-.2622,1.1621-.7861l.3691-.8682-2.8438-6.9863h2.3926l1.3057,4.2588c.082.2642.146.5767.1914.9365h.0273c.041-.2642.1162-.5718.2256-.9229l1.3193-4.2725h2.1396Z" fill="#2f2f2f"/>
        <path d="M264.6707,39.6001h-7.8955v-1.2715l5.0244-6.7334h-4.6621v-1.7979h7.5195v1.2373l-4.915,6.7744h4.9287v1.791Z" fill="#2f2f2f"/>
        <path d="M269.2371,39.771c-1.1665,0-2.084-.3271-2.7515-.981s-1.0015-1.5415-1.0015-2.6626c0-1.1577.3462-2.0635,1.0391-2.7173s1.6294-.981,2.8096-.981c1.1621,0,2.0737.3271,2.7344.981s.9912,1.5186.9912,2.5942c0,1.1621-.3408,2.0806-1.022,2.7549s-1.6143,1.0117-2.7993,1.0117ZM269.2917,34.0835c-.5103,0-.9067.1753-1.1895.5264s-.4238.8477-.4238,1.4902c0,1.3442.5425,2.0166,1.627,2.0166,1.0347,0,1.5518-.6904,1.5518-2.0713,0-1.3081-.522-1.9619-1.5654-1.9619Z" fill="#2f2f2f"/>
        <path d="M281.2205,39.6001h-2.1533v-3.8896c0-1.0845-.3872-1.627-1.1621-1.627-.3735,0-.6812.1436-.9229.4307s-.3623.6519-.3623,1.0938v3.9922h-2.1602v-7h2.1602v1.1074h.0273c.5151-.8521,1.2646-1.2783,2.249-1.2783,1.5493,0,2.3242.9614,2.3242,2.8848v4.2861Z" fill="#2f2f2f"/>
        <path d="M289.2185,36.7153h-4.5664c.0728,1.0161.7134,1.5244,1.9209,1.5244.77,0,1.4468-.1821,2.0303-.5469v1.5586c-.647.3462-1.4878.5195-2.5225.5195-1.1304,0-2.0073-.3135-2.6318-.9399s-.9365-1.5005-.9365-2.6216c0-1.1621.3374-2.0825,1.0117-2.7617s1.5039-1.0186,2.4883-1.0186c1.021,0,1.8105.3032,2.3687.9092s.8374,1.4287.8374,2.4678v.9092ZM287.2156,35.3892c0-1.0024-.4058-1.5039-1.2168-1.5039-.3462,0-.646.1436-.8989.4307s-.4067.645-.4614,1.0732h2.5771Z" fill="#2f2f2f"/>
        <path d="M299.1443,29.5786v10.0215h-2.1533v-7.5879c-.1187.105-.2588.2041-.4204.2974s-.334.1777-.5161.2529-.3716.1392-.5674.1914-.3896.0898-.5811.1128v-1.8184c.5605-.1641,1.0894-.3735,1.5859-.6289s.9458-.5356,1.3467-.8408h1.3057Z" fill="#2f2f2f"/>
      </g>
      <g>
        <path d="M417.6394,39.6001h-2.4062l-.6973-2.1807h-3.4863l-.6904,2.1807h-2.3926l3.5684-9.8027h2.6182l3.4863,9.8027ZM414.03,35.7241l-1.0527-3.2949c-.0776-.2461-.1323-.54-.1641-.8818h-.0547c-.0229.2871-.0796.5718-.1709.8545l-1.0664,3.3223h2.5088Z" fill="#2f2f2f"/>
        <path d="M425.0085,32.6001l-2.6045,7h-2.4609l-2.4814-7h2.3105l1.2168,4.3135c.1367.4878.2163.9023.2393,1.2441h.0273c.0317-.3237.1162-.7246.2529-1.2031l1.2441-4.3545h2.2559Z" fill="#2f2f2f"/>
        <path d="M431.5437,39.6001h-2.0439v-1.0049h-.0273c-.4692.7837-1.1646,1.1758-2.085,1.1758-.6792,0-1.2134-.1924-1.603-.5776s-.5845-.8989-.5845-1.5415c0-1.3579.8042-2.1421,2.4131-2.3516l1.9004-.2529c0-.7656-.4146-1.1484-1.2441-1.1484-.834,0-1.627.2485-2.3789.7451v-1.627c.3008-.1548.7119-.2915,1.2339-.4102s.9971-.1777,1.4253-.1777c1.9961,0,2.9941.9956,2.9941,2.9873v4.1836ZM429.5134,36.7563v-.4717l-1.2715.1641c-.7017.0913-1.0527.4077-1.0527.9502,0,.2461.0854.4478.2563.605s.4023.2358.6938.2358c.4058,0,.7358-.1401.9912-.4204s.3828-.6348.3828-1.063Z" fill="#2f2f2f"/>
        <path d="M434.3464,31.4927c-.3647,0-.6631-.1084-.8955-.3247s-.3486-.4819-.3486-.7964c0-.3237.1162-.5879.3486-.793s.5308-.3076.8955-.3076c.3691,0,.6689.1025.8989.3076s.3452.4692.3452.793c0,.3281-.1152.5972-.3452.8066s-.5298.3145-.8989.3145ZM435.4128,39.6001h-2.1602v-7h2.1602v7Z" fill="#2f2f2f"/>
        <path d="M439.3914,39.6001h-2.1602v-10.3633h2.1602v10.3633Z" fill="#2f2f2f"/>
        <path d="M447.0339,39.6001h-2.0439v-1.0049h-.0273c-.4692.7837-1.1646,1.1758-2.085,1.1758-.6792,0-1.2134-.1924-1.603-.5776s-.5845-.8989-.5845-1.5415c0-1.3579.8042-2.1421,2.4131-2.3516l1.9004-.2529c0-.7656-.4146-1.1484-1.2441-1.1484-.834,0-1.627.2485-2.3789.7451v-1.627c.3008-.1548.7119-.2915,1.2339-.4102s.9971-.1777,1.4253-.1777c1.9961,0,2.9941.9956,2.9941,2.9873v4.1836ZM445.0037,36.7563v-.4717l-1.2715.1641c-.7017.0913-1.0527.4077-1.0527.9502,0,.2461.0854.4478.2563.605s.4023.2358.6938.2358c.4058,0,.7358-.1401.9912-.4204s.3828-.6348.3828-1.063Z" fill="#2f2f2f"/>
        <path d="M450.9304,38.7866h-.0273v.8135h-2.1602v-10.3633h2.1602v4.416h.0273c.5332-.8159,1.292-1.2236,2.2764-1.2236.9023,0,1.5972.3101,2.085.9297s.7314,1.4673.7314,2.543c0,1.1665-.2847,2.103-.8545,2.8096s-1.3306,1.0596-2.2832,1.0596c-.8613,0-1.5132-.3281-1.9551-.9844ZM450.8689,35.8335v.7178c0,.4512.1299.8247.3896,1.1211s.5923.4443.998.4443c.4922,0,.874-.1904,1.145-.5708s.4067-.9194.4067-1.6167c0-.5786-.124-1.0312-.3726-1.3569s-.6025-.4888-1.063-.4888c-.4331,0-.792.1616-1.0767.4854s-.4272.7451-.4272,1.2646Z" fill="#2f2f2f"/>
        <path d="M458.5183,31.4927c-.3647,0-.6631-.1084-.8955-.3247s-.3486-.4819-.3486-.7964c0-.3237.1162-.5879.3486-.793s.5308-.3076.8955-.3076c.3691,0,.6689.1025.8989.3076s.3452.4692.3452.793c0,.3281-.1152.5972-.3452.8066s-.5298.3145-.8989.3145ZM459.5847,39.6001h-2.1602v-7h2.1602v7Z" fill="#2f2f2f"/>
        <path d="M463.5632,39.6001h-2.1602v-10.3633h2.1602v10.3633Z" fill="#2f2f2f"/>
        <path d="M466.4753,31.4927c-.3647,0-.6631-.1084-.8955-.3247s-.3486-.4819-.3486-.7964c0-.3237.1162-.5879.3486-.793s.5308-.3076.8955-.3076c.3691,0,.6689.1025.8989.3076s.3452.4692.3452.793c0,.3281-.1152.5972-.3452.8066s-.5298.3145-.8989.3145ZM467.5417,39.6001h-2.1602v-7h2.1602v7Z" fill="#2f2f2f"/>
        <path d="M473.5916,39.5181c-.3188.1685-.7998.2529-1.4424.2529-1.522,0-2.2832-.7905-2.2832-2.3721v-3.2061h-1.1348v-1.5928h1.1348v-1.5107l2.1533-.6152v2.126h1.5723v1.5928h-1.5723v2.8301c0,.729.2896,1.0938.8682,1.0938.228,0,.4624-.0659.7041-.1982v1.5996Z" fill="#2f2f2f"/>
        <path d="M481.4734,32.6001l-2.8438,7.5605c-.6836,1.8184-1.7134,2.7275-3.0898,2.7275-.5239,0-.9546-.0591-1.292-.1777v-1.7227c.2871.1685.5991.2529.9365.2529.5562,0,.9434-.2622,1.1621-.7861l.3691-.8682-2.8438-6.9863h2.3926l1.3057,4.2588c.082.2642.146.5767.1914.9365h.0273c.041-.2642.1162-.5718.2256-.9229l1.3193-4.2725h2.1396Z" fill="#2f2f2f"/>
        <path d="M493.4705,39.6001h-7.8955v-1.2715l5.0244-6.7334h-4.6621v-1.7979h7.5195v1.2373l-4.915,6.7744h4.9287v1.791Z" fill="#2f2f2f"/>
        <path d="M498.0369,39.771c-1.1665,0-2.084-.3271-2.7515-.981s-1.0015-1.5415-1.0015-2.6626c0-1.1577.3462-2.0635,1.0391-2.7173s1.6294-.981,2.8096-.981c1.1621,0,2.0737.3271,2.7344.981s.9912,1.5186.9912,2.5942c0,1.1621-.3408,2.0806-1.022,2.7549s-1.6143,1.0117-2.7993,1.0117ZM498.0916,34.0835c-.5103,0-.9067.1753-1.1895.5264s-.4238.8477-.4238,1.4902c0,1.3442.5425,2.0166,1.627,2.0166,1.0347,0,1.5518-.6904,1.5518-2.0713,0-1.3081-.522-1.9619-1.5654-1.9619Z" fill="#2f2f2f"/>
        <path d="M510.0203,39.6001h-2.1533v-3.8896c0-1.0845-.3872-1.627-1.1621-1.627-.3735,0-.6812.1436-.9229.4307s-.3623.6519-.3623,1.0938v3.9922h-2.1602v-7h2.1602v1.1074h.0273c.5151-.8521,1.2646-1.2783,2.249-1.2783,1.5493,0,2.3242.9614,2.3242,2.8848v4.2861Z" fill="#2f2f2f"/>
        <path d="M518.0183,36.7153h-4.5664c.0728,1.0161.7134,1.5244,1.9209,1.5244.77,0,1.4468-.1821,2.0303-.5469v1.5586c-.647.3462-1.4878.5195-2.5225.5195-1.1304,0-2.0073-.3135-2.6318-.9399s-.9365-1.5005-.9365-2.6216c0-1.1621.3374-2.0825,1.0117-2.7617s1.5039-1.0186,2.4883-1.0186c1.021,0,1.8105.3032,2.3687.9092s.8374,1.4287.8374,2.4678v.9092ZM516.0154,35.3892c0-1.0024-.4058-1.5039-1.2168-1.5039-.3462,0-.646.1436-.8989.4307s-.4067.645-.4614,1.0732h2.5771Z" fill="#2f2f2f"/>
        <path d="M525.1892,37.8091h4.1562v1.791h-6.5215v-.7383c0-.5015.0845-.9512.2529-1.3501s.3804-.7563.6357-1.0732.5342-.5972.8374-.8408.5913-.4639.8647-.6597c.2871-.2051.5391-.4009.7554-.5879s.3989-.3726.5469-.5571.2588-.3716.3315-.5605.1094-.3906.1094-.605c0-.4194-.1187-.7358-.3555-.9502s-.5991-.3213-1.0869-.3213c-.8433,0-1.6499.335-2.4199,1.0049v-1.9004c.8521-.5513,1.814-.8271,2.8848-.8271.4966,0,.9424.0649,1.3364.1948s.728.3154,1.0015.5571.4819.5342.6255.8784.2153.728.2153,1.1519c0,.4512-.0693.8521-.2085,1.2031s-.3237.6699-.5537.957-.4956.5503-.7964.7896-.6128.4707-.9365.6938c-.2188.1548-.4297.3086-.6323.4614s-.3818.3032-.5366.4512-.2778.293-.3691.4341-.1367.2759-.1367.4033Z" fill="#2f2f2f"/>
      </g>
      <g>
        <path d="M646.4392,39.6001h-2.4062l-.6973-2.1807h-3.4863l-.6904,2.1807h-2.3926l3.5684-9.8027h2.6182l3.4863,9.8027ZM642.8298,35.7241l-1.0527-3.2949c-.0776-.2461-.1323-.54-.1641-.8818h-.0547c-.0229.2871-.0796.5718-.1709.8545l-1.0664,3.3223h2.5088Z" fill="#2f2f2f"/>
        <path d="M653.8084,32.6001l-2.6045,7h-2.4609l-2.4814-7h2.3105l1.2168,4.3135c.1367.4878.2163.9023.2393,1.2441h.0273c.0317-.3237.1162-.7246.2529-1.2031l1.2441-4.3545h2.2559Z" fill="#2f2f2f"/>
        <path d="M660.3435,39.6001h-2.0439v-1.0049h-.0273c-.4692.7837-1.1646,1.1758-2.085,1.1758-.6792,0-1.2134-.1924-1.603-.5776s-.5845-.8989-.5845-1.5415c0-1.3579.8042-2.1421,2.4131-2.3516l1.9004-.2529c0-.7656-.4146-1.1484-1.2441-1.1484-.834,0-1.627.2485-2.3789.7451v-1.627c.3008-.1548.7119-.2915,1.2339-.4102s.9971-.1777,1.4253-.1777c1.9961,0,2.9941.9956,2.9941,2.9873v4.1836ZM658.3132,36.7563v-.4717l-1.2715.1641c-.7017.0913-1.0527.4077-1.0527.9502,0,.2461.0854.4478.2563.605s.4023.2358.6938.2358c.4058,0,.7358-.1401.9912-.4204s.3828-.6348.3828-1.063Z" fill="#2f2f2f"/>
        <path d="M663.1462,31.4927c-.3647,0-.6631-.1084-.8955-.3247s-.3486-.4819-.3486-.7964c0-.3237.1162-.5879.3486-.793s.5308-.3076.8955-.3076c.3691,0,.6689.1025.8989.3076s.3452.4692.3452.793c0,.3281-.1152.5972-.3452.8066s-.5298.3145-.8989.3145ZM664.2126,39.6001h-2.1602v-7h2.1602v7Z" fill="#2f2f2f"/>
        <path d="M668.1912,39.6001h-2.1602v-10.3633h2.1602v10.3633Z" fill="#2f2f2f"/>
        <path d="M675.8337,39.6001h-2.0439v-1.0049h-.0273c-.4692.7837-1.1646,1.1758-2.085,1.1758-.6792,0-1.2134-.1924-1.603-.5776s-.5845-.8989-.5845-1.5415c0-1.3579.8042-2.1421,2.4131-2.3516l1.9004-.2529c0-.7656-.4146-1.1484-1.2441-1.1484-.834,0-1.627.2485-2.3789.7451v-1.627c.3008-.1548.7119-.2915,1.2339-.4102s.9971-.1777,1.4253-.1777c1.9961,0,2.9941.9956,2.9941,2.9873v4.1836ZM673.8035,36.7563v-.4717l-1.2715.1641c-.7017.0913-1.0527.4077-1.0527.9502,0,.2461.0854.4478.2563.605s.4023.2358.6938.2358c.4058,0,.7358-.1401.9912-.4204s.3828-.6348.3828-1.063Z" fill="#2f2f2f"/>
        <path d="M679.7302,38.7866h-.0273v.8135h-2.1602v-10.3633h2.1602v4.416h.0273c.5332-.8159,1.292-1.2236,2.2764-1.2236.9023,0,1.5972.3101,2.085.9297s.7314,1.4673.7314,2.543c0,1.1665-.2847,2.103-.8545,2.8096s-1.3306,1.0596-2.2832,1.0596c-.8613,0-1.5132-.3281-1.9551-.9844ZM679.6687,35.8335v.7178c0,.4512.1299.8247.3896,1.1211s.5923.4443.998.4443c.4922,0,.874-.1904,1.145-.5708s.4067-.9194.4067-1.6167c0-.5786-.124-1.0312-.3726-1.3569s-.6025-.4888-1.063-.4888c-.4331,0-.792.1616-1.0767.4854s-.4272.7451-.4272,1.2646Z" fill="#2f2f2f"/>
        <path d="M687.3181,31.4927c-.3647,0-.6631-.1084-.8955-.3247s-.3486-.4819-.3486-.7964c0-.3237.1162-.5879.3486-.793s.5308-.3076.8955-.3076c.3691,0,.6689.1025.8989.3076s.3452.4692.3452.793c0,.3281-.1152.5972-.3452.8066s-.5298.3145-.8989.3145ZM688.3845,39.6001h-2.1602v-7h2.1602v7Z" fill="#2f2f2f"/>
        <path d="M692.363,39.6001h-2.1602v-10.3633h2.1602v10.3633Z" fill="#2f2f2f"/>
        <path d="M695.2751,31.4927c-.3647,0-.6631-.1084-.8955-.3247s-.3486-.4819-.3486-.7964c0-.3237.1162-.5879.3486-.793s.5308-.3076.8955-.3076c.3691,0,.6689.1025.8989.3076s.3452.4692.3452.793c0,.3281-.1152.5972-.3452.8066s-.5298.3145-.8989.3145ZM696.3416,39.6001h-2.1602v-7h2.1602v7Z" fill="#2f2f2f"/>
        <path d="M702.3914,39.5181c-.3188.1685-.7998.2529-1.4424.2529-1.522,0-2.2832-.7905-2.2832-2.3721v-3.2061h-1.1348v-1.5928h1.1348v-1.5107l2.1533-.6152v2.126h1.5723v1.5928h-1.5723v2.8301c0,.729.2896,1.0938.8682,1.0938.228,0,.4624-.0659.7041-.1982v1.5996Z" fill="#2f2f2f"/>
        <path d="M710.2732,32.6001l-2.8438,7.5605c-.6836,1.8184-1.7134,2.7275-3.0898,2.7275-.5239,0-.9546-.0591-1.292-.1777v-1.7227c.2871.1685.5991.2529.9365.2529.5562,0,.9434-.2622,1.1621-.7861l.3691-.8682-2.8438-6.9863h2.3926l1.3057,4.2588c.082.2642.146.5767.1914.9365h.0273c.041-.2642.1162-.5718.2256-.9229l1.3193-4.2725h2.1396Z" fill="#2f2f2f"/>
        <path d="M722.2703,39.6001h-7.8955v-1.2715l5.0244-6.7334h-4.6621v-1.7979h7.5195v1.2373l-4.915,6.7744h4.9287v1.791Z" fill="#2f2f2f"/>
        <path d="M726.8367,39.771c-1.1665,0-2.084-.3271-2.7515-.981s-1.0015-1.5415-1.0015-2.6626c0-1.1577.3462-2.0635,1.0391-2.7173s1.6294-.981,2.8096-.981c1.1621,0,2.0742.3271,2.7344.981.6611.6538.9912,1.5186.9912,2.5942,0,1.1621-.3408,2.0806-1.0215,2.7549-.6816.6743-1.6143,1.0117-2.7998,1.0117ZM726.8914,34.0835c-.5103,0-.9067.1753-1.1895.5264s-.4238.8477-.4238,1.4902c0,1.3442.5425,2.0166,1.627,2.0166,1.0352,0,1.5518-.6904,1.5518-2.0713,0-1.3081-.5215-1.9619-1.5654-1.9619Z" fill="#2f2f2f"/>
        <path d="M738.8201,39.6001h-2.1533v-3.8896c0-1.0845-.3867-1.627-1.1621-1.627-.373,0-.6807.1436-.9229.4307-.2412.2871-.3623.6519-.3623,1.0938v3.9922h-2.1602v-7h2.1602v1.1074h.0273c.5156-.8521,1.2646-1.2783,2.249-1.2783,1.5498,0,2.3242.9614,2.3242,2.8848v4.2861Z" fill="#2f2f2f"/>
        <path d="M746.8181,36.7153h-4.5664c.0732,1.0161.7139,1.5244,1.9209,1.5244.7705,0,1.4473-.1821,2.0303-.5469v1.5586c-.6465.3462-1.4873.5195-2.5225.5195-1.1299,0-2.0068-.3135-2.6318-.9399-.624-.6265-.9365-1.5005-.9365-2.6216,0-1.1621.3379-2.0825,1.0117-2.7617.6748-.6792,1.5039-1.0186,2.4883-1.0186,1.0215,0,1.8105.3032,2.3691.9092.5576.606.8369,1.4287.8369,2.4678v.9092ZM744.8152,35.3892c0-1.0024-.4053-1.5039-1.2168-1.5039-.3457,0-.6455.1436-.8984.4307s-.4072.645-.4619,1.0732h2.5771Z" fill="#2f2f2f"/>
        <path d="M751.8562,39.2788v-1.8799c.6562.4785,1.4219.7178,2.2969.7178.5518,0,.9814-.1187,1.2891-.3555s.4609-.5674.4609-.9912c0-.4375-.1904-.7749-.5703-1.0117-.3809-.2368-.9033-.3555-1.5693-.3555h-.9092v-1.6543h.8408c1.2764,0,1.9141-.4238,1.9141-1.2715,0-.7974-.4893-1.1963-1.4697-1.1963-.6562,0-1.2939.2119-1.9141.6357v-1.7637c.6885-.3462,1.4902-.5195,2.4062-.5195,1.0029,0,1.7832.2256,2.3418.6768.5576.4512.8369,1.0366.8369,1.7568,0,1.2808-.6494,2.0825-1.9482,2.4062v.0342c.6934.0864,1.2402.3384,1.6406.7554.4014.417.6016.9287.6016,1.5347,0,.916-.335,1.6406-1.0049,2.1738s-1.5947.7998-2.7754.7998c-1.0117,0-1.834-.1641-2.4678-.4922Z" fill="#2f2f2f"/>
      </g>
      <g>
        <path d="M184.6653,94.5996h-1.1484v-9.8027h1.1484v9.8027Z" fill="#2f2f2f"/>
        <path d="M192.74,94.5996h-1.1211v-3.9922c0-1.4858-.5425-2.2285-1.627-2.2285-.5605,0-1.0244.2109-1.3911.6323s-.5503.9536-.5503,1.5962v3.9922h-1.1211v-7h1.1211v1.1621h.0273c.5288-.8843,1.2944-1.3262,2.2969-1.3262.7656,0,1.3511.2471,1.7568.7417s.6084,1.209.6084,2.1431v4.2793Z" fill="#2f2f2f"/>
        <path d="M194.3879,94.3467v-1.2031c.6108.4512,1.2827.6768,2.0166.6768.9844,0,1.4766-.3281,1.4766-.9844,0-.187-.042-.3452-.1265-.4751s-.1982-.2451-.3418-.3452-.312-.1904-.5059-.27-.4023-.1631-.6255-.2495c-.3101-.123-.582-.2471-.8169-.3726s-.4307-.2666-.5879-.4238-.2759-.3359-.3555-.5366-.1196-.4351-.1196-.7041c0-.3281.0752-.6187.2256-.8716s.3511-.4648.6016-.6357.5366-.2998.8579-.3862.6528-.1299.9946-.1299c.606,0,1.1484.105,1.627.3145v1.1348c-.5151-.3374-1.1074-.5059-1.7773-.5059-.2095,0-.3989.0239-.5674.0718s-.3135.1152-.4341.2017-.2144.1904-.2803.311-.0991.2539-.0991.3999c0,.1821.0332.335.0991.458s.1631.2324.2905.3281.2827.1821.4648.2598.3896.1616.6221.2529c.3101.1187.5879.2402.834.3657s.4556.2666.6289.4238.3066.3384.3999.5435.1401.4487.1401.7314c0,.3462-.0762.647-.229.9023s-.3564.4673-.6118.6357-.5493.2939-.8818.376-.6812.123-1.0459.123c-.7202,0-1.3442-.1392-1.873-.417Z" fill="#2f2f2f"/>
        <path d="M204.0413,94.5312c-.2642.146-.6128.2188-1.0459.2188-1.2261,0-1.8389-.6836-1.8389-2.0508v-4.1426h-1.2031v-.957h1.2031v-1.709l1.1211-.3623v2.0713h1.7637v.957h-1.7637v3.9443c0,.4692.0796.8042.2393,1.0049s.4238.3008.793.3008c.2827,0,.5264-.0776.7314-.2324v.957Z" fill="#2f2f2f"/>
        <path d="M210.6584,94.5996h-1.1211v-1.0938h-.0273c-.4878.8384-1.2056,1.2578-2.1533,1.2578-.6973,0-1.2432-.1846-1.6372-.5537s-.5913-.8589-.5913-1.4697c0-1.3081.77-2.0688,2.3105-2.2832l2.0986-.2939c0-1.1895-.481-1.7842-1.4424-1.7842-.8433,0-1.604.2871-2.2832.8613v-1.1484c.688-.4375,1.481-.6562,2.3789-.6562,1.645,0,2.4678.8706,2.4678,2.6113v4.5527ZM209.5374,91.0586l-1.6885.2324c-.5195.0728-.9116.2017-1.1758.3862s-.3965.5117-.3965.981c0,.3418.1221.6211.3657.8374s.5684.3247.9741.3247c.5562,0,1.0151-.1948,1.3774-.5845s.5435-.8828.5435-1.48v-.6973Z" fill="#2f2f2f"/>
        <path d="M218.4905,94.5996h-1.1211v-3.9922c0-1.4858-.5425-2.2285-1.627-2.2285-.5605,0-1.0244.2109-1.3911.6323s-.5503.9536-.5503,1.5962v3.9922h-1.1211v-7h1.1211v1.1621h.0273c.5288-.8843,1.2944-1.3262,2.2969-1.3262.7656,0,1.3511.2471,1.7568.7417s.6084,1.209.6084,2.1431v4.2793Z" fill="#2f2f2f"/>
        <path d="M225.3391,94.2783c-.5376.3237-1.1758.4854-1.9141.4854-.998,0-1.8037-.3247-2.4165-.9741s-.9194-1.4912-.9194-2.5259c0-1.1528.3306-2.0791.9912-2.7788s1.5425-1.0493,2.6455-1.0493c.6152,0,1.1577.1138,1.627.3418v1.1484c-.5195-.3647-1.0757-.5469-1.668-.5469-.7153,0-1.3022.2563-1.7603.769s-.687,1.186-.687,2.02c0,.8203.2153,1.4673.646,1.9414s1.0083.7109,1.7329.7109c.6108,0,1.1851-.2026,1.7227-.6084v1.0664Z" fill="#2f2f2f"/>
        <path d="M232.509,91.3799h-4.9424c.0181.7793.228,1.3809.6289,1.8047s.9526.6357,1.6543.6357c.7886,0,1.5132-.2598,2.1738-.7793v1.0527c-.6152.4468-1.4287.6699-2.4404.6699-.9888,0-1.7661-.3179-2.3311-.9536s-.8477-1.5303-.8477-2.6831c0-1.0894.3086-1.9766.9263-2.6626s1.3843-1.0288,2.3003-1.0288,1.6245.2964,2.126.8887.752,1.415.752,2.4678v.5879ZM231.3606,90.4297c-.0044-.647-.1606-1.1509-.4683-1.5107s-.7349-.54-1.2817-.54c-.5288,0-.9775.189-1.3467.5674s-.5972.8726-.6836,1.4834h3.7803Z" fill="#2f2f2f"/>
      </g>
      <g>
        <path d="M250.5652,94.5996h-1.1484v-9.8027h1.1484v9.8027Z" fill="#2f2f2f"/>
        <path d="M258.6399,94.5996h-1.1211v-3.9922c0-1.4858-.5425-2.2285-1.627-2.2285-.5605,0-1.0244.2109-1.3911.6323s-.5503.9536-.5503,1.5962v3.9922h-1.1211v-7h1.1211v1.1621h.0273c.5288-.8843,1.2944-1.3262,2.2969-1.3262.7656,0,1.3511.2471,1.7568.7417s.6084,1.209.6084,2.1431v4.2793Z" fill="#2f2f2f"/>
        <path d="M260.2878,94.3467v-1.2031c.6108.4512,1.2827.6768,2.0166.6768.9844,0,1.4766-.3281,1.4766-.9844,0-.187-.042-.3452-.1265-.4751s-.1982-.2451-.3418-.3452-.312-.1904-.5059-.27-.4023-.1631-.6255-.2495c-.3101-.123-.582-.2471-.8169-.3726s-.4307-.2666-.5879-.4238-.2759-.3359-.3555-.5366-.1196-.4351-.1196-.7041c0-.3281.0752-.6187.2256-.8716s.3511-.4648.6016-.6357.5366-.2998.8579-.3862.6528-.1299.9946-.1299c.606,0,1.1484.105,1.627.3145v1.1348c-.5151-.3374-1.1074-.5059-1.7773-.5059-.2095,0-.3989.0239-.5674.0718s-.3135.1152-.4341.2017-.2144.1904-.2803.311-.0991.2539-.0991.3999c0,.1821.0332.335.0991.458s.1631.2324.2905.3281.2827.1821.4648.2598.3896.1616.6221.2529c.3101.1187.5879.2402.834.3657s.4556.2666.6289.4238.3066.3384.3999.5435.1401.4487.1401.7314c0,.3462-.0762.647-.229.9023s-.3564.4673-.6118.6357-.5493.2939-.8818.376-.6812.123-1.0459.123c-.7202,0-1.3442-.1392-1.873-.417Z" fill="#2f2f2f"/>
        <path d="M269.9412,94.5312c-.2642.146-.6128.2188-1.0459.2188-1.2261,0-1.8389-.6836-1.8389-2.0508v-4.1426h-1.2031v-.957h1.2031v-1.709l1.1211-.3623v2.0713h1.7637v.957h-1.7637v3.9443c0,.4692.0796.8042.2393,1.0049s.4238.3008.793.3008c.2827,0,.5264-.0776.7314-.2324v.957Z" fill="#2f2f2f"/>
        <path d="M276.5584,94.5996h-1.1211v-1.0938h-.0273c-.4878.8384-1.2056,1.2578-2.1533,1.2578-.6973,0-1.2432-.1846-1.6372-.5537s-.5913-.8589-.5913-1.4697c0-1.3081.77-2.0688,2.3105-2.2832l2.0986-.2939c0-1.1895-.481-1.7842-1.4424-1.7842-.8433,0-1.604.2871-2.2832.8613v-1.1484c.688-.4375,1.481-.6562,2.3789-.6562,1.645,0,2.4678.8706,2.4678,2.6113v4.5527ZM275.4373,91.0586l-1.6885.2324c-.5195.0728-.9116.2017-1.1758.3862s-.3965.5117-.3965.981c0,.3418.1221.6211.3657.8374s.5684.3247.9741.3247c.5562,0,1.0151-.1948,1.3774-.5845s.5435-.8828.5435-1.48v-.6973Z" fill="#2f2f2f"/>
        <path d="M284.3904,94.5996h-1.1211v-3.9922c0-1.4858-.5425-2.2285-1.627-2.2285-.5605,0-1.0244.2109-1.3911.6323s-.5503.9536-.5503,1.5962v3.9922h-1.1211v-7h1.1211v1.1621h.0273c.5288-.8843,1.2944-1.3262,2.2969-1.3262.7656,0,1.3511.2471,1.7568.7417s.6084,1.209.6084,2.1431v4.2793Z" fill="#2f2f2f"/>
        <path d="M291.239,94.2783c-.5376.3237-1.1758.4854-1.9141.4854-.998,0-1.8037-.3247-2.4165-.9741s-.9194-1.4912-.9194-2.5259c0-1.1528.3306-2.0791.9912-2.7788s1.5425-1.0493,2.6455-1.0493c.6152,0,1.1577.1138,1.627.3418v1.1484c-.5195-.3647-1.0757-.5469-1.668-.5469-.7153,0-1.3022.2563-1.7603.769s-.687,1.186-.687,2.02c0,.8203.2153,1.4673.646,1.9414s1.0083.7109,1.7329.7109c.6108,0,1.1851-.2026,1.7227-.6084v1.0664Z" fill="#2f2f2f"/>
        <path d="M298.4089,91.3799h-4.9424c.0181.7793.228,1.3809.6289,1.8047s.9526.6357,1.6543.6357c.7886,0,1.5132-.2598,2.1738-.7793v1.0527c-.6152.4468-1.4287.6699-2.4404.6699-.9888,0-1.7661-.3179-2.3311-.9536s-.8477-1.5303-.8477-2.6831c0-1.0894.3086-1.9766.9263-2.6626s1.3843-1.0288,2.3003-1.0288,1.6245.2964,2.126.8887.752,1.415.752,2.4678v.5879ZM297.2605,90.4297c-.0044-.647-.1606-1.1509-.4683-1.5107s-.7349-.54-1.2817-.54c-.5288,0-.9775.189-1.3467.5674s-.5972.8726-.6836,1.4834h3.7803Z" fill="#2f2f2f"/>
      </g>
      <g>
        <path d="M378.2654,94.5996h-1.1484v-9.8027h1.1484v9.8027Z" fill="#2f2f2f"/>
        <path d="M386.3401,94.5996h-1.1211v-3.9922c0-1.4858-.5425-2.2285-1.627-2.2285-.5605,0-1.0244.2109-1.3911.6323s-.5503.9536-.5503,1.5962v3.9922h-1.1211v-7h1.1211v1.1621h.0273c.5288-.8843,1.2944-1.3262,2.2969-1.3262.7656,0,1.3511.2471,1.7568.7417s.6084,1.209.6084,2.1431v4.2793Z" fill="#2f2f2f"/>
        <path d="M387.988,94.3467v-1.2031c.6108.4512,1.2827.6768,2.0166.6768.9844,0,1.4766-.3281,1.4766-.9844,0-.187-.042-.3452-.1265-.4751s-.1982-.2451-.3418-.3452-.312-.1904-.5059-.27-.4023-.1631-.6255-.2495c-.3101-.123-.582-.2471-.8169-.3726s-.4307-.2666-.5879-.4238-.2759-.3359-.3555-.5366-.1196-.4351-.1196-.7041c0-.3281.0752-.6187.2256-.8716s.3511-.4648.6016-.6357.5366-.2998.8579-.3862.6528-.1299.9946-.1299c.606,0,1.1484.105,1.627.3145v1.1348c-.5151-.3374-1.1074-.5059-1.7773-.5059-.2095,0-.3989.0239-.5674.0718s-.3135.1152-.4341.2017-.2144.1904-.2803.311-.0991.2539-.0991.3999c0,.1821.0332.335.0991.458s.1631.2324.2905.3281.2827.1821.4648.2598.3896.1616.6221.2529c.3101.1187.5879.2402.834.3657s.4556.2666.6289.4238.3066.3384.3999.5435.1401.4487.1401.7314c0,.3462-.0762.647-.229.9023s-.3564.4673-.6118.6357-.5493.2939-.8818.376-.6812.123-1.0459.123c-.7202,0-1.3442-.1392-1.873-.417Z" fill="#2f2f2f"/>
        <path d="M397.6414,94.5312c-.2642.146-.6128.2188-1.0459.2188-1.2261,0-1.8389-.6836-1.8389-2.0508v-4.1426h-1.2031v-.957h1.2031v-1.709l1.1211-.3623v2.0713h1.7637v.957h-1.7637v3.9443c0,.4692.0796.8042.2393,1.0049s.4238.3008.793.3008c.2827,0,.5264-.0776.7314-.2324v.957Z" fill="#2f2f2f"/>
        <path d="M404.2585,94.5996h-1.1211v-1.0938h-.0273c-.4878.8384-1.2056,1.2578-2.1533,1.2578-.6973,0-1.2432-.1846-1.6372-.5537s-.5913-.8589-.5913-1.4697c0-1.3081.77-2.0688,2.3105-2.2832l2.0986-.2939c0-1.1895-.481-1.7842-1.4424-1.7842-.8433,0-1.604.2871-2.2832.8613v-1.1484c.688-.4375,1.481-.6562,2.3789-.6562,1.645,0,2.4678.8706,2.4678,2.6113v4.5527ZM403.1375,91.0586l-1.6885.2324c-.5195.0728-.9116.2017-1.1758.3862s-.3965.5117-.3965.981c0,.3418.1221.6211.3657.8374s.5684.3247.9741.3247c.5562,0,1.0151-.1948,1.3774-.5845s.5435-.8828.5435-1.48v-.6973Z" fill="#2f2f2f"/>
        <path d="M412.0906,94.5996h-1.1211v-3.9922c0-1.4858-.5425-2.2285-1.627-2.2285-.5605,0-1.0244.2109-1.3911.6323s-.5503.9536-.5503,1.5962v3.9922h-1.1211v-7h1.1211v1.1621h.0273c.5288-.8843,1.2944-1.3262,2.2969-1.3262.7656,0,1.3511.2471,1.7568.7417s.6084,1.209.6084,2.1431v4.2793Z" fill="#2f2f2f"/>
        <path d="M418.9392,94.2783c-.5376.3237-1.1758.4854-1.9141.4854-.998,0-1.8037-.3247-2.4165-.9741s-.9194-1.4912-.9194-2.5259c0-1.1528.3306-2.0791.9912-2.7788s1.5425-1.0493,2.6455-1.0493c.6152,0,1.1577.1138,1.627.3418v1.1484c-.5195-.3647-1.0757-.5469-1.668-.5469-.7153,0-1.3022.2563-1.7603.769s-.687,1.186-.687,2.02c0,.8203.2153,1.4673.646,1.9414s1.0083.7109,1.7329.7109c.6108,0,1.1851-.2026,1.7227-.6084v1.0664Z" fill="#2f2f2f"/>
        <path d="M426.1091,91.3799h-4.9424c.0181.7793.228,1.3809.6289,1.8047s.9526.6357,1.6543.6357c.7886,0,1.5132-.2598,2.1738-.7793v1.0527c-.6152.4468-1.4287.6699-2.4404.6699-.9888,0-1.7661-.3179-2.3311-.9536s-.8477-1.5303-.8477-2.6831c0-1.0894.3086-1.9766.9263-2.6626s1.3843-1.0288,2.3003-1.0288,1.6245.2964,2.126.8887.752,1.415.752,2.4678v.5879ZM424.9607,90.4297c-.0044-.647-.1606-1.1509-.4683-1.5107s-.7349-.54-1.2817-.54c-.5288,0-.9775.189-1.3467.5674s-.5972.8726-.6836,1.4834h3.7803Z" fill="#2f2f2f"/>
      </g>
      <g>
        <path d="M444.1653,94.5996h-1.1484v-9.8027h1.1484v9.8027Z" fill="#2f2f2f"/>
        <path d="M452.24,94.5996h-1.1211v-3.9922c0-1.4858-.5425-2.2285-1.627-2.2285-.5605,0-1.0244.2109-1.3911.6323s-.5503.9536-.5503,1.5962v3.9922h-1.1211v-7h1.1211v1.1621h.0273c.5288-.8843,1.2944-1.3262,2.2969-1.3262.7656,0,1.3511.2471,1.7568.7417s.6084,1.209.6084,2.1431v4.2793Z" fill="#2f2f2f"/>
        <path d="M453.8879,94.3467v-1.2031c.6108.4512,1.2827.6768,2.0166.6768.9844,0,1.4766-.3281,1.4766-.9844,0-.187-.042-.3452-.1265-.4751s-.1982-.2451-.3418-.3452-.312-.1904-.5059-.27-.4023-.1631-.6255-.2495c-.3101-.123-.582-.2471-.8169-.3726s-.4307-.2666-.5879-.4238-.2759-.3359-.3555-.5366-.1196-.4351-.1196-.7041c0-.3281.0752-.6187.2256-.8716s.3511-.4648.6016-.6357.5366-.2998.8579-.3862.6528-.1299.9946-.1299c.606,0,1.1484.105,1.627.3145v1.1348c-.5151-.3374-1.1074-.5059-1.7773-.5059-.2095,0-.3989.0239-.5674.0718s-.3135.1152-.4341.2017-.2144.1904-.2803.311-.0991.2539-.0991.3999c0,.1821.0332.335.0991.458s.1631.2324.2905.3281.2827.1821.4648.2598.3896.1616.6221.2529c.3101.1187.5879.2402.834.3657s.4556.2666.6289.4238.3066.3384.3999.5435.1401.4487.1401.7314c0,.3462-.0762.647-.229.9023s-.3564.4673-.6118.6357-.5493.2939-.8818.376-.6812.123-1.0459.123c-.7202,0-1.3442-.1392-1.873-.417Z" fill="#2f2f2f"/>
        <path d="M463.5413,94.5312c-.2642.146-.6128.2188-1.0459.2188-1.2261,0-1.8389-.6836-1.8389-2.0508v-4.1426h-1.2031v-.957h1.2031v-1.709l1.1211-.3623v2.0713h1.7637v.957h-1.7637v3.9443c0,.4692.0796.8042.2393,1.0049s.4238.3008.793.3008c.2827,0,.5264-.0776.7314-.2324v.957Z" fill="#2f2f2f"/>
        <path d="M470.1584,94.5996h-1.1211v-1.0938h-.0273c-.4878.8384-1.2056,1.2578-2.1533,1.2578-.6973,0-1.2432-.1846-1.6372-.5537s-.5913-.8589-.5913-1.4697c0-1.3081.77-2.0688,2.3105-2.2832l2.0986-.2939c0-1.1895-.481-1.7842-1.4424-1.7842-.8433,0-1.604.2871-2.2832.8613v-1.1484c.688-.4375,1.481-.6562,2.3789-.6562,1.645,0,2.4678.8706,2.4678,2.6113v4.5527ZM469.0374,91.0586l-1.6885.2324c-.5195.0728-.9116.2017-1.1758.3862s-.3965.5117-.3965.981c0,.3418.1221.6211.3657.8374s.5684.3247.9741.3247c.5562,0,1.0151-.1948,1.3774-.5845s.5435-.8828.5435-1.48v-.6973Z" fill="#2f2f2f"/>
        <path d="M477.9905,94.5996h-1.1211v-3.9922c0-1.4858-.5425-2.2285-1.627-2.2285-.5605,0-1.0244.2109-1.3911.6323s-.5503.9536-.5503,1.5962v3.9922h-1.1211v-7h1.1211v1.1621h.0273c.5288-.8843,1.2944-1.3262,2.2969-1.3262.7656,0,1.3511.2471,1.7568.7417s.6084,1.209.6084,2.1431v4.2793Z" fill="#2f2f2f"/>
        <path d="M484.8391,94.2783c-.5376.3237-1.1758.4854-1.9141.4854-.998,0-1.8037-.3247-2.4165-.9741s-.9194-1.4912-.9194-2.5259c0-1.1528.3306-2.0791.9912-2.7788s1.5425-1.0493,2.6455-1.0493c.6152,0,1.1577.1138,1.627.3418v1.1484c-.5195-.3647-1.0757-.5469-1.668-.5469-.7153,0-1.3022.2563-1.7603.769s-.687,1.186-.687,2.02c0,.8203.2153,1.4673.646,1.9414s1.0083.7109,1.7329.7109c.6108,0,1.1851-.2026,1.7227-.6084v1.0664Z" fill="#2f2f2f"/>
        <path d="M492.009,91.3799h-4.9424c.0181.7793.228,1.3809.6289,1.8047s.9526.6357,1.6543.6357c.7886,0,1.5132-.2598,2.1738-.7793v1.0527c-.6152.4468-1.4287.6699-2.4404.6699-.9888,0-1.7661-.3179-2.3311-.9536s-.8477-1.5303-.8477-2.6831c0-1.0894.3086-1.9766.9263-2.6626s1.3843-1.0288,2.3003-1.0288,1.6245.2964,2.126.8887.752,1.415.752,2.4678v.5879ZM490.8606,90.4297c-.0044-.647-.1606-1.1509-.4683-1.5107s-.7349-.54-1.2817-.54c-.5288,0-.9775.189-1.3467.5674s-.5972.8726-.6836,1.4834h3.7803Z" fill="#2f2f2f"/>
      </g>
      <g>
        <path d="M510.1653,94.5996h-1.1484v-9.8027h1.1484v9.8027Z" fill="#2f2f2f"/>
        <path d="M518.24,94.5996h-1.1211v-3.9922c0-1.4858-.5425-2.2285-1.627-2.2285-.5605,0-1.0244.2109-1.3911.6323s-.5503.9536-.5503,1.5962v3.9922h-1.1211v-7h1.1211v1.1621h.0273c.5288-.8843,1.2944-1.3262,2.2969-1.3262.7656,0,1.3511.2471,1.7568.7417s.6084,1.209.6084,2.1431v4.2793Z" fill="#2f2f2f"/>
        <path d="M519.8879,94.3467v-1.2031c.6108.4512,1.2827.6768,2.0166.6768.9844,0,1.4766-.3281,1.4766-.9844,0-.187-.042-.3452-.1265-.4751s-.1982-.2451-.3418-.3452-.312-.1904-.5059-.27-.4023-.1631-.6255-.2495c-.3101-.123-.582-.2471-.8169-.3726s-.4307-.2666-.5879-.4238-.2759-.3359-.3555-.5366-.1196-.4351-.1196-.7041c0-.3281.0752-.6187.2256-.8716s.3511-.4648.6016-.6357.5366-.2998.8579-.3862.6528-.1299.9946-.1299c.606,0,1.1484.105,1.627.3145v1.1348c-.5151-.3374-1.1074-.5059-1.7773-.5059-.2095,0-.3989.0239-.5674.0718s-.3135.1152-.4341.2017-.2144.1904-.2803.311-.0991.2539-.0991.3999c0,.1821.0332.335.0991.458s.1631.2324.2905.3281.2827.1821.4648.2598.3896.1616.6221.2529c.3101.1187.5879.2402.834.3657s.4556.2666.6289.4238.3066.3384.3999.5435.1401.4487.1401.7314c0,.3462-.0762.647-.229.9023s-.3564.4673-.6118.6357-.5493.2939-.8818.376-.6812.123-1.0459.123c-.7202,0-1.3442-.1392-1.873-.417Z" fill="#2f2f2f"/>
        <path d="M529.5413,94.5312c-.2642.146-.6128.2188-1.0459.2188-1.2261,0-1.8389-.6836-1.8389-2.0508v-4.1426h-1.2031v-.957h1.2031v-1.709l1.1211-.3623v2.0713h1.7637v.957h-1.7637v3.9443c0,.4692.0796.8042.2393,1.0049s.4238.3008.793.3008c.2827,0,.5264-.0776.7314-.2324v.957Z" fill="#2f2f2f"/>
        <path d="M536.1584,94.5996h-1.1211v-1.0938h-.0273c-.4878.8384-1.2056,1.2578-2.1533,1.2578-.6973,0-1.2432-.1846-1.6372-.5537s-.5913-.8589-.5913-1.4697c0-1.3081.77-2.0688,2.3105-2.2832l2.0986-.2939c0-1.1895-.481-1.7842-1.4424-1.7842-.8433,0-1.604.2871-2.2832.8613v-1.1484c.688-.4375,1.481-.6562,2.3789-.6562,1.645,0,2.4678.8706,2.4678,2.6113v4.5527ZM535.0374,91.0586l-1.6885.2324c-.5195.0728-.9116.2017-1.1758.3862s-.3965.5117-.3965.981c0,.3418.1221.6211.3657.8374s.5684.3247.9741.3247c.5562,0,1.0151-.1948,1.3774-.5845s.5435-.8828.5435-1.48v-.6973Z" fill="#2f2f2f"/>
        <path d="M543.9905,94.5996h-1.1211v-3.9922c0-1.4858-.5425-2.2285-1.627-2.2285-.5605,0-1.0244.2109-1.3911.6323s-.5503.9536-.5503,1.5962v3.9922h-1.1211v-7h1.1211v1.1621h.0273c.5288-.8843,1.2944-1.3262,2.2969-1.3262.7656,0,1.3511.2471,1.7568.7417s.6084,1.209.6084,2.1431v4.2793Z" fill="#2f2f2f"/>
        <path d="M550.8391,94.2783c-.5376.3237-1.1758.4854-1.9141.4854-.998,0-1.8037-.3247-2.4165-.9741s-.9194-1.4912-.9194-2.5259c0-1.1528.3306-2.0791.9912-2.7788s1.5425-1.0493,2.6455-1.0493c.6152,0,1.1577.1138,1.627.3418v1.1484c-.5195-.3647-1.0757-.5469-1.668-.5469-.7153,0-1.3022.2563-1.7603.769s-.687,1.186-.687,2.02c0,.8203.2153,1.4673.646,1.9414s1.0083.7109,1.7329.7109c.6108,0,1.1851-.2026,1.7227-.6084v1.0664Z" fill="#2f2f2f"/>
        <path d="M558.009,91.3799h-4.9424c.0181.7793.228,1.3809.6289,1.8047s.9526.6357,1.6543.6357c.7886,0,1.5132-.2598,2.1738-.7793v1.0527c-.6152.4468-1.4287.6699-2.4404.6699-.9888,0-1.7661-.3179-2.3311-.9536s-.8477-1.5303-.8477-2.6831c0-1.0894.3086-1.9766.9263-2.6626s1.3843-1.0288,2.3003-1.0288,1.6245.2964,2.126.8887.752,1.415.752,2.4678v.5879ZM556.8606,90.4297c-.0044-.647-.1606-1.1509-.4683-1.5107s-.7349-.54-1.2817-.54c-.5288,0-.9775.189-1.3467.5674s-.5972.8726-.6836,1.4834h3.7803Z" fill="#2f2f2f"/>
      </g>
      <g>
        <path d="M607.0652,94.5996h-1.1484v-9.8027h1.1484v9.8027Z" fill="#2f2f2f"/>
        <path d="M615.1399,94.5996h-1.1211v-3.9922c0-1.4858-.5425-2.2285-1.627-2.2285-.5605,0-1.0244.2109-1.3911.6323s-.5503.9536-.5503,1.5962v3.9922h-1.1211v-7h1.1211v1.1621h.0273c.5288-.8843,1.2944-1.3262,2.2969-1.3262.7656,0,1.3511.2471,1.7568.7417s.6084,1.209.6084,2.1431v4.2793Z" fill="#2f2f2f"/>
        <path d="M616.7878,94.3467v-1.2031c.6108.4512,1.2827.6768,2.0166.6768.9844,0,1.4766-.3281,1.4766-.9844,0-.187-.042-.3452-.1265-.4751s-.1982-.2451-.3418-.3452-.312-.1904-.5059-.27-.4023-.1631-.6255-.2495c-.3101-.123-.582-.2471-.8169-.3726s-.4307-.2666-.5879-.4238-.2759-.3359-.3555-.5366-.1196-.4351-.1196-.7041c0-.3281.0752-.6187.2256-.8716s.3511-.4648.6016-.6357.5366-.2998.8579-.3862.6528-.1299.9946-.1299c.606,0,1.1484.105,1.627.3145v1.1348c-.5151-.3374-1.1074-.5059-1.7773-.5059-.2095,0-.3989.0239-.5674.0718s-.3135.1152-.4341.2017-.2144.1904-.2803.311-.0991.2539-.0991.3999c0,.1821.0332.335.0991.458s.1631.2324.2905.3281.2827.1821.4648.2598.3896.1616.6221.2529c.3101.1187.5879.2402.834.3657s.4556.2666.6289.4238.3066.3384.3999.5435.1401.4487.1401.7314c0,.3462-.0762.647-.229.9023s-.3564.4673-.6118.6357-.5493.2939-.8818.376-.6812.123-1.0459.123c-.7202,0-1.3442-.1392-1.873-.417Z" fill="#2f2f2f"/>
        <path d="M626.4412,94.5312c-.2642.146-.6128.2188-1.0459.2188-1.2261,0-1.8389-.6836-1.8389-2.0508v-4.1426h-1.2031v-.957h1.2031v-1.709l1.1211-.3623v2.0713h1.7637v.957h-1.7637v3.9443c0,.4692.0796.8042.2393,1.0049s.4238.3008.793.3008c.2827,0,.5264-.0776.7314-.2324v.957Z" fill="#2f2f2f"/>
        <path d="M633.0584,94.5996h-1.1211v-1.0938h-.0273c-.4878.8384-1.2056,1.2578-2.1533,1.2578-.6973,0-1.2432-.1846-1.6372-.5537s-.5913-.8589-.5913-1.4697c0-1.3081.77-2.0688,2.3105-2.2832l2.0986-.2939c0-1.1895-.481-1.7842-1.4424-1.7842-.8433,0-1.604.2871-2.2832.8613v-1.1484c.688-.4375,1.481-.6562,2.3789-.6562,1.645,0,2.4678.8706,2.4678,2.6113v4.5527ZM631.9373,91.0586l-1.6885.2324c-.5195.0728-.9116.2017-1.1758.3862s-.3965.5117-.3965.981c0,.3418.1221.6211.3657.8374s.5684.3247.9741.3247c.5562,0,1.0151-.1948,1.3774-.5845s.5435-.8828.5435-1.48v-.6973Z" fill="#2f2f2f"/>
        <path d="M640.8904,94.5996h-1.1211v-3.9922c0-1.4858-.5425-2.2285-1.627-2.2285-.5605,0-1.0244.2109-1.3911.6323s-.5503.9536-.5503,1.5962v3.9922h-1.1211v-7h1.1211v1.1621h.0273c.5288-.8843,1.2944-1.3262,2.2969-1.3262.7656,0,1.3511.2471,1.7568.7417s.6084,1.209.6084,2.1431v4.2793Z" fill="#2f2f2f"/>
        <path d="M647.739,94.2783c-.5376.3237-1.1758.4854-1.9141.4854-.998,0-1.8037-.3247-2.4165-.9741s-.9194-1.4912-.9194-2.5259c0-1.1528.3306-2.0791.9912-2.7788s1.5425-1.0493,2.6455-1.0493c.6152,0,1.1577.1138,1.627.3418v1.1484c-.5195-.3647-1.0757-.5469-1.668-.5469-.7153,0-1.3022.2563-1.7603.769s-.687,1.186-.687,2.02c0,.8203.2153,1.4673.646,1.9414s1.0083.7109,1.7329.7109c.6108,0,1.1851-.2026,1.7227-.6084v1.0664Z" fill="#2f2f2f"/>
        <path d="M654.9089,91.3799h-4.9424c.0181.7793.228,1.3809.6289,1.8047s.9526.6357,1.6543.6357c.7886,0,1.5132-.2598,2.1738-.7793v1.0527c-.6152.4468-1.4287.6699-2.4404.6699-.9888,0-1.7661-.3179-2.3311-.9536s-.8477-1.5303-.8477-2.6831c0-1.0894.3086-1.9766.9263-2.6626s1.3843-1.0288,2.3003-1.0288,1.6245.2964,2.126.8887.752,1.415.752,2.4678v.5879ZM653.7605,90.4297c-.0044-.647-.1606-1.1509-.4683-1.5107s-.7349-.54-1.2817-.54c-.5288,0-.9775.189-1.3467.5674s-.5972.8726-.6836,1.4834h3.7803Z" fill="#2f2f2f"/>
      </g>
      <g>
        <path d="M672.9651,94.5996h-1.1484v-9.8027h1.1484v9.8027Z" fill="#2f2f2f"/>
        <path d="M681.0398,94.5996h-1.1211v-3.9922c0-1.4858-.5425-2.2285-1.627-2.2285-.5605,0-1.0244.2109-1.3911.6323s-.5503.9536-.5503,1.5962v3.9922h-1.1211v-7h1.1211v1.1621h.0273c.5288-.8843,1.2944-1.3262,2.2969-1.3262.7656,0,1.3511.2471,1.7568.7417s.6084,1.209.6084,2.1431v4.2793Z" fill="#2f2f2f"/>
        <path d="M682.6877,94.3467v-1.2031c.6108.4512,1.2827.6768,2.0166.6768.9844,0,1.4766-.3281,1.4766-.9844,0-.187-.042-.3452-.1265-.4751s-.1982-.2451-.3418-.3452-.312-.1904-.5059-.27-.4023-.1631-.6255-.2495c-.3101-.123-.582-.2471-.8169-.3726s-.4307-.2666-.5879-.4238-.2759-.3359-.3555-.5366-.1196-.4351-.1196-.7041c0-.3281.0752-.6187.2256-.8716s.3511-.4648.6016-.6357.5366-.2998.8579-.3862.6528-.1299.9946-.1299c.606,0,1.1484.105,1.627.3145v1.1348c-.5151-.3374-1.1074-.5059-1.7773-.5059-.2095,0-.3989.0239-.5674.0718s-.3135.1152-.4341.2017-.2144.1904-.2803.311-.0991.2539-.0991.3999c0,.1821.0332.335.0991.458s.1631.2324.2905.3281.2827.1821.4648.2598.3896.1616.6221.2529c.3101.1187.5879.2402.834.3657s.4556.2666.6289.4238.3066.3384.3999.5435.1401.4487.1401.7314c0,.3462-.0762.647-.229.9023s-.3564.4673-.6118.6357-.5493.2939-.8818.376-.6812.123-1.0459.123c-.7202,0-1.3442-.1392-1.873-.417Z" fill="#2f2f2f"/>
        <path d="M692.3411,94.5312c-.2642.146-.6128.2188-1.0459.2188-1.2261,0-1.8389-.6836-1.8389-2.0508v-4.1426h-1.2031v-.957h1.2031v-1.709l1.1211-.3623v2.0713h1.7637v.957h-1.7637v3.9443c0,.4692.0796.8042.2393,1.0049s.4238.3008.793.3008c.2827,0,.5264-.0776.7314-.2324v.957Z" fill="#2f2f2f"/>
        <path d="M698.9583,94.5996h-1.1211v-1.0938h-.0273c-.4878.8384-1.2056,1.2578-2.1533,1.2578-.6973,0-1.2432-.1846-1.6372-.5537s-.5913-.8589-.5913-1.4697c0-1.3081.77-2.0688,2.3105-2.2832l2.0986-.2939c0-1.1895-.481-1.7842-1.4424-1.7842-.8433,0-1.604.2871-2.2832.8613v-1.1484c.688-.4375,1.481-.6562,2.3789-.6562,1.645,0,2.4678.8706,2.4678,2.6113v4.5527ZM697.8372,91.0586l-1.6885.2324c-.5195.0728-.9116.2017-1.1758.3862s-.3965.5117-.3965.981c0,.3418.1221.6211.3657.8374s.5684.3247.9741.3247c.5562,0,1.0151-.1948,1.3774-.5845s.5435-.8828.5435-1.48v-.6973Z" fill="#2f2f2f"/>
        <path d="M706.7903,94.5996h-1.1211v-3.9922c0-1.4858-.5425-2.2285-1.627-2.2285-.5605,0-1.0244.2109-1.3911.6323s-.5503.9536-.5503,1.5962v3.9922h-1.1211v-7h1.1211v1.1621h.0273c.5288-.8843,1.2944-1.3262,2.2969-1.3262.7656,0,1.3511.2471,1.7568.7417s.6084,1.209.6084,2.1431v4.2793Z" fill="#2f2f2f"/>
        <path d="M713.6389,94.2783c-.5376.3237-1.1758.4854-1.9141.4854-.998,0-1.8037-.3247-2.4165-.9741s-.9194-1.4912-.9194-2.5259c0-1.1528.3306-2.0791.9912-2.7788s1.5425-1.0493,2.6455-1.0493c.6152,0,1.1577.1138,1.627.3418v1.1484c-.5195-.3647-1.0757-.5469-1.668-.5469-.7153,0-1.3022.2563-1.7603.769s-.687,1.186-.687,2.02c0,.8203.2153,1.4673.646,1.9414s1.0083.7109,1.7329.7109c.6108,0,1.1851-.2026,1.7227-.6084v1.0664Z" fill="#2f2f2f"/>
        <path d="M720.8088,91.3799h-4.9424c.0181.7793.228,1.3809.6289,1.8047s.9526.6357,1.6543.6357c.7886,0,1.5132-.2598,2.1738-.7793v1.0527c-.6152.4468-1.4287.6699-2.4404.6699-.9888,0-1.7661-.3179-2.3311-.9536s-.8477-1.5303-.8477-2.6831c0-1.0894.3086-1.9766.9263-2.6626s1.3843-1.0288,2.3003-1.0288,1.6245.2964,2.126.8887.752,1.415.752,2.4678v.5879ZM719.6604,90.4297c-.0044-.647-.1606-1.1509-.4683-1.5107s-.7349-.54-1.2817-.54c-.5288,0-.9775.189-1.3467.5674s-.5972.8726-.6836,1.4834h3.7803Z" fill="#2f2f2f"/>
      </g>
      <g>
        <path d="M738.9656,94.5996h-1.1484v-9.8027h1.1484v9.8027Z" fill="#2f2f2f"/>
        <path d="M747.0398,94.5996h-1.1211v-3.9922c0-1.4858-.542-2.2285-1.627-2.2285-.5605,0-1.0244.2109-1.3906.6323-.3672.4214-.5508.9536-.5508,1.5962v3.9922h-1.1211v-7h1.1211v1.1621h.0273c.5293-.8843,1.2949-1.3262,2.2969-1.3262.7656,0,1.3516.2471,1.7568.7417.4062.4946.6084,1.209.6084,2.1431v4.2793Z" fill="#2f2f2f"/>
        <path d="M748.6882,94.3467v-1.2031c.6104.4512,1.2822.6768,2.0166.6768.9844,0,1.4766-.3281,1.4766-.9844,0-.187-.042-.3452-.127-.4751-.084-.1299-.1982-.2451-.3418-.3452s-.3115-.1904-.5059-.27c-.1934-.0796-.4023-.1631-.625-.2495-.3105-.123-.582-.2471-.8174-.3726-.2344-.1255-.4307-.2666-.5879-.4238s-.2754-.3359-.3555-.5366c-.0791-.2007-.1191-.4351-.1191-.7041,0-.3281.0752-.6187.2256-.8716s.3506-.4648.6016-.6357c.25-.1709.5361-.2998.8574-.3862s.6533-.1299.9951-.1299c.6055,0,1.1484.105,1.627.3145v1.1348c-.5156-.3374-1.1074-.5059-1.7773-.5059-.21,0-.3994.0239-.5674.0718-.1689.0479-.3135.1152-.4346.2017-.1201.0864-.2139.1904-.2803.311-.0654.1206-.0986.2539-.0986.3999,0,.1821.0332.335.0986.458.0664.123.1631.2324.291.3281.127.0957.2822.1821.4648.2598.1816.0776.3896.1616.6221.2529.3096.1187.5879.2402.834.3657s.4551.2666.6289.4238c.1729.1572.3066.3384.3994.5435.0938.2051.1406.4487.1406.7314,0,.3462-.0762.647-.2295.9023-.1523.2554-.3564.4673-.6113.6357-.2559.1685-.5498.2939-.8818.376-.333.082-.6816.123-1.0459.123-.7207,0-1.3447-.1392-1.873-.417Z" fill="#2f2f2f"/>
        <path d="M758.3416,94.5312c-.2646.146-.6133.2188-1.0459.2188-1.2266,0-1.8389-.6836-1.8389-2.0508v-4.1426h-1.2031v-.957h1.2031v-1.709l1.1211-.3623v2.0713h1.7637v.957h-1.7637v3.9443c0,.4692.0791.8042.2393,1.0049.1592.2007.4238.3008.793.3008.2822,0,.5264-.0776.7314-.2324v.957Z" fill="#2f2f2f"/>
        <path d="M764.9587,94.5996h-1.1211v-1.0938h-.0273c-.4883.8384-1.2061,1.2578-2.1533,1.2578-.6973,0-1.2432-.1846-1.6377-.5537-.3936-.3691-.5908-.8589-.5908-1.4697,0-1.3081.7695-2.0688,2.3105-2.2832l2.0986-.2939c0-1.1895-.4814-1.7842-1.4424-1.7842-.8438,0-1.6045.2871-2.2832.8613v-1.1484c.6875-.4375,1.4805-.6562,2.3789-.6562,1.6445,0,2.4678.8706,2.4678,2.6113v4.5527ZM763.8376,91.0586l-1.6885.2324c-.5195.0728-.9121.2017-1.1758.3862-.2646.1846-.3965.5117-.3965.981,0,.3418.1221.6211.3652.8374.2441.2163.5684.3247.9746.3247.5557,0,1.0146-.1948,1.377-.5845s.5439-.8828.5439-1.48v-.6973Z" fill="#2f2f2f"/>
        <path d="M772.7908,94.5996h-1.1211v-3.9922c0-1.4858-.543-2.2285-1.627-2.2285-.5605,0-1.0244.2109-1.3916.6323-.3662.4214-.5498.9536-.5498,1.5962v3.9922h-1.1211v-7h1.1211v1.1621h.0273c.5283-.8843,1.2939-1.3262,2.2969-1.3262.7656,0,1.3506.2471,1.7568.7417.4053.4946.6084,1.209.6084,2.1431v4.2793Z" fill="#2f2f2f"/>
        <path d="M779.6394,94.2783c-.5381.3237-1.1758.4854-1.9141.4854-.998,0-1.8037-.3247-2.417-.9741-.6123-.6494-.9189-1.4912-.9189-2.5259,0-1.1528.3301-2.0791.9912-2.7788.6602-.6997,1.542-1.0493,2.6455-1.0493.6152,0,1.1572.1138,1.627.3418v1.1484c-.5195-.3647-1.0762-.5469-1.668-.5469-.7158,0-1.3027.2563-1.7607.769s-.6865,1.186-.6865,2.02c0,.8203.2148,1.4673.6455,1.9414s1.0088.7109,1.7334.7109c.6104,0,1.1846-.2026,1.7227-.6084v1.0664Z" fill="#2f2f2f"/>
        <path d="M786.8093,91.3799h-4.9424c.0176.7793.2275,1.3809.6289,1.8047.4004.4238.9521.6357,1.6543.6357.7881,0,1.5127-.2598,2.1738-.7793v1.0527c-.6152.4468-1.4287.6699-2.4404.6699-.9893,0-1.7666-.3179-2.3311-.9536-.5654-.6357-.8477-1.5303-.8477-2.6831,0-1.0894.3086-1.9766.9258-2.6626.6182-.686,1.3848-1.0288,2.3008-1.0288s1.624.2964,2.126.8887c.501.5923.752,1.415.752,2.4678v.5879ZM785.6609,90.4297c-.0049-.647-.1611-1.1509-.4688-1.5107s-.7344-.54-1.2812-.54c-.5293,0-.9775.189-1.3467.5674s-.5977.8726-.6836,1.4834h3.7803Z" fill="#2f2f2f"/>
      </g>
      <g>
        <rect x="37.3871" y="115.2" width="83.9944" height="35.2" fill="none"/>
        <path d="M50.6941,127.1016v-9.8027h3.5684c1.0938,0,1.9346.2007,2.5225.6016s.8818.9663.8818,1.6953c0,.5288-.1787.9912-.5366,1.3877s-.8145.6724-1.3706.8271v.0273c.6973.0864,1.2544.3442,1.6714.7725s.6255.9502.6255,1.5654c0,.8979-.3213,1.6099-.9639,2.1362s-1.52.7896-2.6318.7896h-3.7666ZM52.9021,118.9258v2.3242h.9707c.4556,0,.8145-.1104,1.0767-.3315s.3931-.5254.3931-.9126c0-.7202-.5376-1.0801-1.6133-1.0801h-.8271ZM52.9021,122.8906v2.584h1.1963c.5103,0,.9102-.1187,1.1997-.3555s.4341-.5605.4341-.9707c0-.3921-.1426-.6997-.4272-.9229s-.6826-.335-1.1929-.335h-1.21Z" fill="#2f2f2f"/>
        <path d="M65.3323,127.1016h-2.0439v-1.0049h-.0273c-.4692.7837-1.1646,1.1758-2.085,1.1758-.6792,0-1.2134-.1924-1.603-.5776s-.5845-.8989-.5845-1.5415c0-1.3579.8042-2.1421,2.4131-2.3516l1.9004-.2529c0-.7656-.4146-1.1484-1.2441-1.1484-.834,0-1.627.2485-2.3789.7451v-1.627c.3008-.1548.7119-.2915,1.2339-.4102s.9971-.1777,1.4253-.1777c1.9961,0,2.9941.9956,2.9941,2.9873v4.1836ZM63.302,124.2578v-.4717l-1.2715.1641c-.7017.0913-1.0527.4077-1.0527.9502,0,.2461.0854.4478.2563.605s.4023.2358.6938.2358c.4058,0,.7358-.1401.9912-.4204s.3828-.6348.3828-1.063Z" fill="#2f2f2f"/>
        <path d="M69.1902,127.1016h-2.1602v-10.3633h2.1602v10.3633Z" fill="#2f2f2f"/>
        <path d="M76.8552,127.1016h-2.0439v-1.0049h-.0273c-.4692.7837-1.1646,1.1758-2.085,1.1758-.6792,0-1.2134-.1924-1.603-.5776s-.5845-.8989-.5845-1.5415c0-1.3579.8042-2.1421,2.4131-2.3516l1.9004-.2529c0-.7656-.4146-1.1484-1.2441-1.1484-.834,0-1.627.2485-2.3789.7451v-1.627c.3008-.1548.7119-.2915,1.2339-.4102s.9971-.1777,1.4253-.1777c1.9961,0,2.9941.9956,2.9941,2.9873v4.1836ZM74.825,124.2578v-.4717l-1.2715.1641c-.7017.0913-1.0527.4077-1.0527.9502,0,.2461.0854.4478.2563.605s.4023.2358.6938.2358c.4058,0,.7358-.1401.9912-.4204s.3828-.6348.3828-1.063Z" fill="#2f2f2f"/>
        <path d="M85.3123,127.1016h-2.1533v-3.8896c0-1.0845-.3872-1.627-1.1621-1.627-.3735,0-.6812.1436-.9229.4307s-.3623.6519-.3623,1.0938v3.9922h-2.1602v-7h2.1602v1.1074h.0273c.5151-.8521,1.2646-1.2783,2.249-1.2783,1.5493,0,2.3242.9614,2.3242,2.8848v4.2861Z" fill="#2f2f2f"/>
        <path d="M92.3259,126.8486c-.4878.2827-1.1919.4238-2.1123.4238-1.0757,0-1.9458-.3257-2.6113-.9775s-.998-1.4927-.998-2.5225c0-1.1895.3564-2.127,1.0698-2.813s1.667-1.0288,2.8608-1.0288c.8247,0,1.4219.1094,1.791.3281v1.832c-.4512-.3374-.9546-.5059-1.5107-.5059-.6196,0-1.1108.1812-1.4731.5435s-.5435.8623-.5435,1.5005c0,.6196.1733,1.1064.5195,1.4595s.8228.5298,1.4287.5298c.5376,0,1.064-.1685,1.5791-.5059v1.7363Z" fill="#2f2f2f"/>
        <path d="M100.0413,124.2168h-4.5664c.0728,1.0161.7134,1.5244,1.9209,1.5244.77,0,1.4468-.1821,2.0303-.5469v1.5586c-.647.3462-1.4878.5195-2.5225.5195-1.1304,0-2.0073-.3135-2.6318-.9399s-.9365-1.5005-.9365-2.6216c0-1.1621.3374-2.0825,1.0117-2.7617s1.5039-1.0186,2.4883-1.0186c1.021,0,1.8105.3032,2.3687.9092s.8374,1.4287.8374,2.4678v.9092ZM98.0383,122.8906c0-1.0024-.4058-1.5039-1.2168-1.5039-.3462,0-.646.1436-.8989.4307s-.4067.645-.4614,1.0732h2.5771Z" fill="#2f2f2f"/>
        <path d="M108.2869,127.1016h-2.1602v-.9639h-.0273c-.4922.7563-1.2144,1.1348-2.167,1.1348-.875,0-1.5791-.3086-2.1123-.9263s-.7998-1.48-.7998-2.5874c0-1.1577.2939-2.085.8818-2.7822s1.3579-1.0459,2.3105-1.0459c.9023,0,1.5312.3237,1.8867.9707h.0273v-4.1631h2.1602v10.3633ZM106.1677,123.6973v-.5264c0-.4556-.1323-.834-.3965-1.1348s-.6084-.4512-1.0322-.4512c-.4785,0-.8521.188-1.1211.564s-.4033.8921-.4033,1.5483c0,.6152.1299,1.0894.3896,1.4219s.6196.499,1.0801.499c.4375,0,.7939-.1753,1.0698-.5264s.4136-.8159.4136-1.3945Z" fill="#2f2f2f"/>
        <path d="M52.2166,143.7168v-1.75c.3555.2144.71.3735,1.063.4785s.687.1572,1.0015.1572c.3828,0,.6846-.0522.9058-.1572s.3315-.2642.3315-.4785c0-.1367-.0503-.2505-.1504-.3418s-.229-.1709-.3862-.2393-.3291-.1299-.5161-.1846-.3667-.1162-.54-.1846c-.2778-.105-.5229-.2178-.7349-.3384s-.3896-.2607-.5332-.4204-.2529-.3442-.3281-.5537-.1128-.458-.1128-.7451c0-.3921.0854-.729.2563-1.0117s.3989-.5137.6836-.6938.6108-.312.9775-.3965.7485-.1265,1.145-.1265c.3101,0,.6245.0239.9434.0718s.6333.1172.9434.2085v1.668c-.2734-.1597-.5664-.2793-.8784-.3589s-.6187-.1196-.9194-.1196c-.1411,0-.2744.0127-.3999.0376s-.2358.0615-.3315.1094-.1709.1094-.2256.1846-.082.1606-.082.2563c0,.1274.041.2368.123.3281s.189.1699.3213.2358.2793.1255.4409.1777.3223.106.4819.1606c.2871.1001.5469.2095.7793.3281s.4316.2573.5981.417.2939.3462.3828.5605.1333.4692.1333.7656c0,.4146-.0898.769-.27,1.063s-.4194.5332-.7178.7178-.6426.3188-1.0322.4033-.7939.1265-1.2134.1265c-.77,0-1.4834-.1187-2.1396-.3555Z" fill="#2f2f2f"/>
        <path d="M64.1819,143.6484c-.4878.2827-1.1919.4238-2.1123.4238-1.0757,0-1.9458-.3257-2.6113-.9775s-.998-1.4927-.998-2.5225c0-1.1895.3564-2.127,1.0698-2.813s1.667-1.0288,2.8608-1.0288c.8247,0,1.4219.1094,1.791.3281v1.832c-.4512-.3374-.9546-.5059-1.5107-.5059-.6196,0-1.1108.1812-1.4731.5435s-.5435.8623-.5435,1.5005c0,.6196.1733,1.1064.5195,1.4595s.8228.5298,1.4287.5298c.5376,0,1.064-.1685,1.5791-.5059v1.7363Z" fill="#2f2f2f"/>
        <path d="M71.5178,143.9014h-2.0439v-1.0049h-.0273c-.4692.7837-1.1646,1.1758-2.085,1.1758-.6792,0-1.2134-.1924-1.603-.5776s-.5845-.8989-.5845-1.5415c0-1.3579.8042-2.1421,2.4131-2.3516l1.9004-.2529c0-.7656-.4146-1.1484-1.2441-1.1484-.834,0-1.627.2485-2.3789.7451v-1.627c.3008-.1548.7119-.2915,1.2339-.4102s.9971-.1777,1.4253-.1777c1.9961,0,2.9941.9956,2.9941,2.9873v4.1836ZM69.4876,141.0576v-.4717l-1.2715.1641c-.7017.0913-1.0527.4077-1.0527.9502,0,.2461.0854.4478.2563.605s.4023.2358.6938.2358c.4058,0,.7358-.1401.9912-.4204s.3828-.6348.3828-1.063Z" fill="#2f2f2f"/>
        <path d="M75.3757,143.9014h-2.1602v-10.3633h2.1602v10.3633Z" fill="#2f2f2f"/>
        <path d="M83.4915,141.0166h-4.5664c.0728,1.0161.7134,1.5244,1.9209,1.5244.77,0,1.4468-.1821,2.0303-.5469v1.5586c-.647.3462-1.4878.5195-2.5225.5195-1.1304,0-2.0073-.3135-2.6318-.9399s-.9365-1.5005-.9365-2.6216c0-1.1621.3374-2.0825,1.0117-2.7617s1.5039-1.0186,2.4883-1.0186c1.021,0,1.8105.3032,2.3687.9092s.8374,1.4287.8374,2.4678v.9092ZM81.4885,139.6904c0-1.0024-.4058-1.5039-1.2168-1.5039-.3462,0-.646.1436-.8989.4307s-.4067.645-.4614,1.0732h2.5771Z" fill="#2f2f2f"/>
        <path d="M88.1809,143.7168v-1.75c.3555.2144.71.3735,1.063.4785s.687.1572,1.0015.1572c.3828,0,.6846-.0522.9058-.1572s.3315-.2642.3315-.4785c0-.1367-.0503-.2505-.1504-.3418s-.229-.1709-.3862-.2393-.3291-.1299-.5161-.1846-.3667-.1162-.54-.1846c-.2778-.105-.5229-.2178-.7349-.3384s-.3896-.2607-.5332-.4204-.2529-.3442-.3281-.5537-.1128-.458-.1128-.7451c0-.3921.0854-.729.2563-1.0117s.3989-.5137.6836-.6938.6108-.312.9775-.3965.7485-.1265,1.145-.1265c.3101,0,.6245.0239.9434.0718s.6333.1172.9434.2085v1.668c-.2734-.1597-.5664-.2793-.8784-.3589s-.6187-.1196-.9194-.1196c-.1411,0-.2744.0127-.3999.0376s-.2358.0615-.3315.1094-.1709.1094-.2256.1846-.082.1606-.082.2563c0,.1274.041.2368.123.3281s.189.1699.3213.2358.2793.1255.4409.1777.3223.106.4819.1606c.2871.1001.5469.2095.7793.3281s.4316.2573.5981.417.2939.3462.3828.5605.1333.4692.1333.7656c0,.4146-.0898.769-.27,1.063s-.4194.5332-.7178.7178-.6426.3188-1.0322.4033-.7939.1265-1.2134.1265c-.77,0-1.4834-.1187-2.1396-.3555Z" fill="#2f2f2f"/>
        <path d="M101.1306,141.0166h-4.5664c.0728,1.0161.7134,1.5244,1.9209,1.5244.77,0,1.4468-.1821,2.0303-.5469v1.5586c-.647.3462-1.4878.5195-2.5225.5195-1.1304,0-2.0073-.3135-2.6318-.9399s-.9365-1.5005-.9365-2.6216c0-1.1621.3374-2.0825,1.0117-2.7617s1.5039-1.0186,2.4883-1.0186c1.021,0,1.8105.3032,2.3687.9092s.8374,1.4287.8374,2.4678v.9092ZM99.1277,139.6904c0-1.0024-.4058-1.5039-1.2168-1.5039-.3462,0-.646.1436-.8989.4307s-.4067.645-.4614,1.0732h2.5771Z" fill="#2f2f2f"/>
        <path d="M106.696,143.8193c-.3188.1685-.7998.2529-1.4424.2529-1.522,0-2.2832-.7905-2.2832-2.3721v-3.2061h-1.1348v-1.5928h1.1348v-1.5107l2.1533-.6152v2.126h1.5723v1.5928h-1.5723v2.8301c0,.729.2896,1.0938.8682,1.0938.228,0,.4624-.0659.7041-.1982v1.5996Z" fill="#2f2f2f"/>
      </g>
    </g>
  </g>
</svg>